<svg xmlns="http://www.w3.org/2000/svg" viewBox="0.00 0.00 429.00 132.00"><g fill="none" stroke-width="2.00"><path stroke="#9e9992" d="M429 8.62c-146.36-.47-274.14.3-408.9.12-3.08-.01-6.27-.3-9.38-.46q-.5-.02-.71.43-1.26 2.84-.69 5.44" vector-effect="non-scaling-stroke"/><path stroke="#7d7b75" d="m9.32 14.15.23 45.34q0 .48-.24.9l-.6 1a.36.36 0 0 0 .45.52c5.25-2.15 11.57-.6 17.67-.87q6.39-.28 12.79-.1c16.54.46 33.08.33 49.61.29" vector-effect="non-scaling-stroke"/><path stroke="#aaa684" d="M89.23 61.23q1.78.13 3.52.13c112.64.02 220.42.23 330.57.09 1.63 0 3.72.47 5.68.32" vector-effect="non-scaling-stroke"/><path stroke="#7d7b75" d="m0 123.57 138.45.27" vector-effect="non-scaling-stroke"/><path stroke="#aaa684" d="M138.45 123.84c26.16.18 52.33-.04 78.49.5q16.65.35 33.31-.1" vector-effect="non-scaling-stroke"/><path stroke="#7d7b75" d="M250.25 124.24q83.02-.35 166.03-.01c2.98.01 3.83-.76 3.76-3.73q-.45-19.83-.23-40.34a1.03 1.02-56.1 0 1 1.97-.39l.88 2.08q.31.75.5-.04c.81-3.31-1.23-4.57-3.4-6.37a.72.71 32 0 1-.2-.85q.76-1.69.12-3.44-.2-.53-.76-.67c-4.87-1.19-11.53-.46-16.61-.33q-.52.01-.83-.39-4.59-5.85-11.75-2.88c-.64.27-.92.97-.63 1.58q.25.49.76.27 5.11-2.23 10.02.43a.57.57 0 0 1 .12.92c-1.04 1.01-76.91.29-77.31.29q-7.57.08-11.67-.16" vector-effect="non-scaling-stroke"/><path stroke="#aca99a" d="M311.02 70.21q-27.5.23-54.96-.01c-13.47-.11-29.1.36-40.49.16-48.4-.87-96.57.61-144.82.34q-35.38-.19-70.75.05" vector-effect="non-scaling-stroke"/><path stroke="#f9dfc3" d="M420.958 5.035a1.37.65 77 0 0 .325-1.481 1.37.65 77 0 0-.941-1.189 1.37.65 77 0 0-.325 1.481 1.37.65 77 0 0 .941 1.189M113.956 66.944a1.26.7 78.3 0 0 .43-1.376 1.26.7 78.3 0 0-.941-1.092 1.26.7 78.3 0 0-.43 1.376 1.26.7 78.3 0 0 .94 1.092" vector-effect="non-scaling-stroke"/><path stroke="#aca99a" d="M263.32 130.42a.62.62 0 0 0 .74.88l.75-.23a.57.57 0 0 0 .2-.97q-1.06-.9-1.69.32" vector-effect="non-scaling-stroke"/><path stroke="#9f943d" d="M429 9.83q-4.78.31-9.51.14-7.53-.25-9.49-.24-37.32.28-74.63.24c-7.08 0-17.12-1.04-25.19-.33-3.33.29-5.59.15-8.47.17q-67.73.35-135.46.11c-51.63-.19-103.27.16-154.9-.1q-.54 0-.61.52l-.26 1.71q-.09.62.53.53 6.69-.97 13.42-.34c1.31.12 2.54 1.25 4.08.09a.95.95 0 0 1 1.49.52q.47 1.76 2.21 2.9" vector-effect="non-scaling-stroke"/><path stroke="#211e1d" d="m32.21 15.75.21 2.01q.01.17-.15.11-.12-.04-.27-.08" vector-effect="non-scaling-stroke"/><path stroke="#9d816c" d="m32 17.79.02-.31q.02-.38-.33-.55l-2.54-1.21q-.39-.19-.65.15l-1.75 2.22a.59.58 56.4 0 1-1.02-.21q-.39-1.39.03-2.83a.65.65 0 0 0-.94-.75q-1.39.78-1.7 2.62a.32.31-36.8 0 1-.63-.08q.16-1.08.03-2.01-.09-.57-.65-.66-5.81-.92-11.18.75" vector-effect="non-scaling-stroke"/><path stroke="#211e1d" d="m10.69 14.92-1.37-.77" vector-effect="non-scaling-stroke"/><path stroke="#aba22f" d="m429 60.57-.24-.42q-.24-.41-.66-.2c-.32.16-.45.29-.82.29-41.99.03-84.08.49-126.07-.24q-8.11-.14-16.22 0c-29.34.55-58.67-.82-87.99.05-11.08.33-26.62-.14-33.37-.15q-37.19-.01-74.38.2" vector-effect="non-scaling-stroke"/><path stroke="#7e7720" d="M89.25 60.1 40.33 60q-.5 0-.52-.51l-.38-14.96a.68.68 0 0 1 1.05-.59q9.47 6.08 20.72 2.25 8.01-2.72 8.42-10.06c.24-4.38-3.34-6.69-7.19-7.37a.77.76 89.4 0 1-.62-.61c-1.03-5.17-3.36-10.58-9.74-6.04q-.43.31-.87.02-2.92-1.95-6.28-.53a.82.82 0 0 1-.94-.22q-1.19-1.4-2.73-2.4-.41-.26-.9-.25-1.33.05-2.59.78" vector-effect="non-scaling-stroke"/><path stroke="#aba22f" d="M37.76 19.51q-1.02-1.09-1.98-1.35" vector-effect="non-scaling-stroke"/><path stroke="#7e7720" d="M35.78 18.16q-.68-.43-.52-1.19a.69.68-78.9 0 1 .78-.53q2.62.46 3.05-1.86a.79.78-71.9 0 0-.42-.84c-2.42-1.21-4.57.68-6.46 2.01" vector-effect="non-scaling-stroke"/><path stroke="#ed8831" d="M311.048 16.07a4.91 4.91 0 0 0-4.806-5.011l-4.159-.087a4.91 4.91 0 0 0-5.012 4.806l-.76 36.272a4.91 4.91 0 0 0 4.807 5.011l4.159.087a4.91 4.91 0 0 0 5.012-4.806l.76-36.272m6.801 21.5a.4.4 0 0 1 .8-.04l2.11 19.29a.4.4 0 0 0 .39.36l5.54.11a.4.4 0 0 0 .41-.39l.75-45.27a.4.4 0 0 0-.41-.41l-4.54.14a.4.4 0 0 0-.39.39l-.45 17.14a.4.4 0 0 1-.8.03l-1.81-17.26a.4.4 0 0 0-.4-.36l-5.83-.05a.4.4 0 0 0-.41.4l-.57 45.14a.4.4 0 0 0 .39.41l4.5.07a.4.4 0 0 0 .41-.39l.31-19.31m-36.81-.67 2.13 20.08q.08.72.8.7l2-.05a.57.57 0 0 0 .56-.53l1.6-19.57a.3.29-73.6 0 1 .43-.24l.31.16q.38.2.38.64v18.85q0 .7.69.71l3.84.1a.49.49 0 0 0 .5-.48l.74-44.86a.6.6 0 0 0-.6-.61l-6.23-.04a1.1 1.09-86.5 0 0-1.1.98l-1.51 14.76a.34.34 0 0 1-.67.03c-.96-5.03-.31-10.4-1.37-15.28q-.1-.48-.6-.49l-6.57-.12a.75.74-89.2 0 0-.75.74l-.46 44.09a1.29 1.28 89.6 0 0 1.31 1.3l3.23-.07q.64-.01.63-.65c-.05-1.86-.21-20.25.52-20.31a.18.17 83.5 0 1 .19.16M106.43 16.649a4.88 4.88 0 0 0-4.964-4.794l-4.44.077a4.88 4.88 0 0 0-4.793 4.965l.636 36.474a4.88 4.88 0 0 0 4.965 4.794l4.44-.077a4.88 4.88 0 0 0 4.793-4.965l-.636-36.474m46.559-3.619.22 43.56a1.23 1.23 0 0 0 1.24 1.22l7.74-.04a5.46 5.21 89.7 0 0 5.18-5.49l-.18-35.1a5.46 5.21 89.7 0 0-5.24-5.43l-7.74.04a1.23 1.23 0 0 0-1.22 1.24m22.91 3.72h1.82a.76.76 0 0 0 .76-.72l.21-3.54q.04-.74-.7-.74h-7.7a1.21 1.2-.2 0 0-1.21 1.21l.27 44.06q.01.6.6.6l7.9.08q.83.01.79-.81l-.17-3.57a.65.65 0 0 0-.82-.59q-1.43.39-2.17-.7-.19-.29-.18-.63l.28-15.57q.01-.58.59-.58h1.35q.64 0 .87-.6.74-1.92.11-3.8-.17-.52-.72-.55l-1.89-.12q-.67-.04-.67-.71l.08-12.13a.6.6 0 0 1 .6-.59m14.14 36.95a.76.76 0 0 0-.54-.66l-2.16-.62a.76.76 0 0 1-.55-.73l-.18-39.08a.76.76 0 0 0-.73-.76l-4.67-.16a.76.76 0 0 0-.78.76l.33 44.3a.76.76 0 0 0 .76.75h8.01a.76.76 0 0 0 .76-.82l-.25-2.98m15.648-36.922a4.92 4.92 0 0 0-4.928-4.911l-4.1.007a4.92 4.92 0 0 0-4.912 4.928l.064 36.28a4.92 4.92 0 0 0 4.928 4.911l4.1-.007a4.92 4.92 0 0 0 4.912-4.928l-.064-36.28m44.457-4.298a.6.6 0 0 0-.596-.604l-4.54-.031a.6.6 0 0 0-.604.595l-.31 44.44a.6.6 0 0 0 .596.604l4.54.031a.6.6 0 0 0 .604-.596l.31-44.438m9.535 40.049a1.86.18 30.1 0 1-1.43-1.03V12.52a.71.71 0 0 0-.73-.71l-4.79.1q-.52.01-.52.54l.06 44.44q0 .61.62.61h7.86q.75 0 .75-.75V53.7q0-.87-.87-.89-.49-.01-.95-.28m10.36-23.35-.1-11.89q-.01-.52.52-.53l2.08-.03q.4 0 .55-.38.8-2.03.32-4a.84.82-6.6 0 0-.81-.63l-7.75.1a.83.83 0 0 0-.82.83l-.13 44.07a.75.75 0 0 0 .75.75l7.65.05q.89 0 .89-.89v-3.01q0-.66-.65-.76l-2.21-.35q-.58-.1-.58-.68V35.56a.67.66 16.1 0 1 1.02-.56c2.54 1.61 2.83-2.57 2.69-3.86q-.07-.65-.7-.8l-2.21-.53q-.5-.12-.51-.63" vector-effect="non-scaling-stroke"/><path stroke="#f6e257" d="m133.31 52.27.01-4.32" vector-effect="non-scaling-stroke"/><path stroke="#ed8831" d="m133.32 47.95-.63-30.02q-.01-.6.57-.74 3.56-.87 1.75-4.72-.22-.48-.75-.47l-9.91.21q-.52.01-.64.52-.81 3.42 2.1 4.63.51.21.53.76.44 19.63 1.02 39.27a.66.66 0 0 0 .72.64l4.47-.35a.68.67-1.4 0 0 .62-.65l.14-4.76" vector-effect="non-scaling-stroke"/><path stroke="#e87d47" d="M133.32 47.95q-.74 1.95-.01 4.32" vector-effect="non-scaling-stroke"/><path stroke="#ed8831" d="m145.22 48.79.38 8.24q.04.71.75.71l4.6.01q.71.01.66-.71l-3.23-44.24q-.06-.76-.82-.76h-7.9q-.73 0-.77.73l-2.79 44.4q-.03.59.56.58l4.92-.01q.44 0 .47-.45l.5-8.52a1.34 1.34 0 0 1 2.67.02m93.55-31.04a.67.67 0 0 1 .59-.67l2.21-.25a.67.67 0 0 0 .59-.61l.27-3.35a.67.67 0 0 0-.65-.72l-8.36-.22a.67.67 0 0 0-.69.67l.03 44.46a.67.67 0 0 0 .67.67h4.58a.67.67 0 0 0 .67-.67l.1-20.82a.67.67 0 0 1 .56-.66l2.46-.38a.67.67 0 0 0 .57-.68l-.11-3.33a.67.67 0 0 0-.58-.64l-2.36-.31a.67.67 0 0 1-.58-.67l.03-11.82M77.93 37.95q1.16 9.6 1.95 19.23.05.59.64.65l2.04.22q.59.06.65-.52c.21-1.85 1.73-19.63 1.81-19.66q.43-.15.45.32l.79 19.34q.03.75.78.71l3.79-.22a.52.52 0 0 0 .5-.53l-.65-44.72a.58.58 0 0 0-.6-.58l-6.7.22q-.59.01-.62.6-.39 7.51-1.09 14.98-.03.23-.08.4a.35.35 0 0 1-.67-.08l-1.61-15.18q-.05-.55-.61-.58l-6.57-.31a.68.68 0 0 0-.71.7l1.04 44.42q.02.65.66.62l3.46-.16a.82.82 0 0 0 .78-.83l-.08-19a.33.33 0 0 1 .65-.04m38.79 1.06c1.38 2.58.74 14.77.81 18.39a.65.64-1.3 0 0 .67.63l4.18-.14q.71-.02.75-.74.57-9.79-.51-19.52a1.46 1.46 0 0 0-.46-.91q-1.8-1.65-.02-3.04.36-.29.39-.75.41-6.06.18-12.14c-.18-4.67.18-8.5-5.42-8.5q-4.39.01-8.47.28a.93.93 0 0 0-.87.98q.62 11.62.77 22.79c.07 4.87.91 13.92.2 21.01q-.06.59.53.6l4.87.08q.55.01.54-.54l-.16-17.96a1.07 1.07 0 0 1 2.02-.52m103.54-.76a.36.36 0 0 1-.72.04q-.62-3.68-1.06-7.4-.07-.56-.58-.79-1.91-.86-3.84.05-.53.25-.4.81l4.7 20.36a.84.82-18.6 0 1-.48.95l-1.83.8a1.01.99 79.4 0 0-.6.89l-.08 3.08q-.01.55.54.65 5.42.92 6.44-4.38 2.01-10.43 3.36-23.04.06-.49-.42-.63-2.21-.62-4.12.29a1.03 1.02-12 0 0-.58.89l-.33 7.43" vector-effect="non-scaling-stroke"/><path stroke="#e87d47" d="M305.173 17.087a1.11 1.11 0 0 0-1.087-1.133h-.04a1.11 1.11 0 0 0-1.133 1.086l-.706 33.713a1.11 1.11 0 0 0 1.087 1.133h.04a1.11 1.11 0 0 0 1.133-1.086l.706-33.713m-204.515 1.155a1.07 1.07 0 0 0-1.09-1.05l-.06.002a1.07 1.07 0 0 0-1.05 1.09l.644 33.554a1.07 1.07 0 0 0 1.09 1.05l.06-.002a1.07 1.07 0 0 0 1.05-1.09l-.644-33.554m60.586-.203a1.13 1.13 0 0 0-1.141-1.118h-.04a1.13 1.13 0 0 0-1.118 1.142l.35 33.498a1.13 1.13 0 0 0 1.142 1.118h.04a1.13 1.13 0 0 0 1.118-1.142l-.35-33.498m38.445-.171a1 1 0 0 0-1.001-.998h-.04a1 1 0 0 0-.999 1.002l.06 34.06a1 1 0 0 0 1.001.998h.04a1 1 0 0 0 .999-1.002l-.06-34.06" vector-effect="non-scaling-stroke"/><path stroke="#e87d47" d="m143.11 42.49 1.2.01a.27.27 0 0 0 .27-.26l.01-.19a17.54.85-89.5 0 0-.7-17.55h-.04a17.54.85-89.5 0 0-1 17.53l-.01.19a.27.27 0 0 0 .27.27m-26.69-24.451a.99.99 0 0 0-1.012-.968l-.06.002a.99.99 0 0 0-.967 1.012l.299 13.176a.99.99 0 0 0 1.012.968l.06-.002a.99.99 0 0 0 .967-1.012l-.299-13.176" vector-effect="non-scaling-stroke"/><path stroke="#2d2b0f" d="M35.78 18.16q-.38.33-.5.84" vector-effect="non-scaling-stroke"/><path stroke="#796c37" d="M35.28 19q-.54.66.06 1.43.37.49.86.11l.35-.28" vector-effect="non-scaling-stroke"/><path stroke="#2d2b0f" d="M36.55 20.26q.45-.77 1.21-.75M89.25 60.1l.72.17q.96.22.05.61l-.79.35" vector-effect="non-scaling-stroke"/><path stroke="#7c644f" d="M10.69 14.92q-.7 6.72-.17 13.17.05.58.63.65l2.67.3q.56.06.72-.48l1.57-5.15a.52.52 0 0 0-.62-.65q-1.15.27-1.93 1.25a.47.46 47.6 0 1-.76-.04q-.52-.79-.27-1.78.12-.49.6-.64 3.28-.98 6.71-.35a.37.37 0 0 1 .02.72l-1.65.44q-.64.17-.83.81l-1.42 4.79a.81.8-81.7 0 0 .77 1.04h10.75a.5.5 0 0 0 .5-.52c-.22-4.08-1.36-9.58 4.02-10.69" vector-effect="non-scaling-stroke"/><path stroke="#7d7b75" d="M33.4 28.89a.51.5 90 0 0 .53-.54l-.24-2.79a1.18 1.18 0 0 1 2.31-.45q.45 1.46.2 3.02a.6.59 2.2 0 0 .64.68l3.05-.24q.68-.06.79-.73.47-2.85 2.32-5.02.42-.5-.06-.95l-1.9-1.79q-.39-.36-.91-.27-2.63.45-2.81 3.02a.84.84 0 0 1-1.66.11q-.51-2.52-2.83-3.84-.4-.23-.84-.09c-3.89 1.2-3.33 5.94-2.46 9.12a.76.76 0 0 0 .68.56l3.19.2m15.008 9.49a8.06 4.97 90.3 0 0 5.012-8.034 8.06 4.97 90.3 0 0-4.928-8.086 8.06 4.97 90.3 0 0-5.012 8.034 8.06 4.97 90.3 0 0 4.928 8.086" vector-effect="non-scaling-stroke"/><path stroke="#7d7b75" d="m56.12 29.37 3.01-.67a1.26 1.26 0 0 0 .95-1.5l-.52-2.32a3.1 2.6 77.4 0 0-3.21-2.46l-.39.08a3.1 2.6 77.4 0 0-1.86 3.6l.52 2.32a1.26 1.26 0 0 0 1.5.95" vector-effect="non-scaling-stroke"/><path stroke="#7c644f" d="M47.06 39.69c-5.32-.42-5.62-4.15-6.74-8.32q-.14-.51-.67-.49l-21.93.77a.59.59 0 0 0-.53.8c3.42 8.91 9.78 7.5 17.42 6.78q.51-.05.93.23 11.25 7.23 24.28 4.59c4.01-.81 11.17-4.61 8.59-9.78-2.07-4.14-9.15-4.35-13-3.46q-.49.11-.61.61c-.99 4.12-3.26 8.62-7.74 8.27m-36.05.42 5.83-.73a.21.21 0 0 0 .19-.23l-.27-2.1a6.19 1.72 82.9 0 0-2.47-5.93l-2.84.35a6.19 1.72 82.9 0 0-.94 6.35l.26 2.11a.21.21 0 0 0 .24.18" vector-effect="non-scaling-stroke"/><path stroke="#7d7b75" d="M32.13 43.78c.28 5.75.39 9.81 2.03 15.44q.14.47.63.48l3.17.07q.49.01.49-.48l-.11-15.63q0-.19-.1-.35c-2.42-3.91-4.72-2.15-8.07-2.01q-9.51.38-19.18-.22a.46.46 0 0 0-.49.46v17.91q0 .37.38.36 5.56-.17 11.1.2c5.32.35 8.56-12.37 9.01-16.26a.57.57 0 0 1 1.14.03" vector-effect="non-scaling-stroke"/><path stroke="#7d7b75" d="M31.909 59.928a3.04.86 81.7 0 0 .412-3.132 3.04.86 81.7 0 0-1.29-2.884 3.04.86 81.7 0 0-.412 3.132 3.04.86 81.7 0 0 1.29 2.884" vector-effect="non-scaling-stroke"/><path stroke="#7d7b75" d="m27.64 56.12-1.77 3.63a.11.11 0 0 0 .05.14l.02.02a1.99 1.68-64 0 0 2.39-1.06l.12-.25a1.99 1.68-64 0 0-.64-2.52l-.03-.02a.11.11 0 0 0-.14.06" vector-effect="non-scaling-stroke"/><path stroke="#a69746" d="M36.55 20.26q.06-1.09-1.27-1.26" vector-effect="non-scaling-stroke"/><path stroke="#7d7b75" d="M38.962 27.642a1.74 1.1 78 0 0 .714-1.93 1.74 1.1 78 0 0-1.438-1.474 1.74 1.1 78 0 0-.714 1.93 1.74 1.1 78 0 0 1.438 1.474" vector-effect="non-scaling-stroke"/><path stroke="#2d2b0f" d="M250.25 124.24q.06-1.1 1.01-1.51" vector-effect="non-scaling-stroke"/><path stroke="#7e7720" d="M251.26 122.73q57.54-.39 115.18.34.76.01.29-.59-3.7-4.7-5.63-10.36a1.04 1.03.7 0 0-.63-.64q-9.69-3.58-6.91-13.12c.58-2 2.43-3.37 3.84-4.93a.64.64 0 0 0 .03-.84q-2.77-3.42-3.27-7.8a1.21 1.2-28.2 0 1 .28-.92c5.82-6.93 14.91-6.86 21.84-1.6a.62.61-48 0 0 .81-.05q2.41-2.41 5.44-3.47" vector-effect="non-scaling-stroke"/><path stroke="#7c644f" d="M382.53 78.75q2.09.2 3.84 1.54.42.32.95.24c11.22-1.58 9 10.92 3.38 11.42" vector-effect="non-scaling-stroke"/><path stroke="#7d7b75" d="M390.7 91.95c4.59-2.97 5.49-12.01-2.51-10.82-6.17.93-9.06 12.62 1.16 11.24" vector-effect="non-scaling-stroke"/><path stroke="#7c644f" d="m389.35 92.37-2.62 1.05a.71.71 0 0 0-.44.78q.09.49.7 1.05-2.51-1.33-4.26-3.48-.31-.38-.34-.88-.07-1.29-1-2.13a1.19 1.18 61.1 0 0-1-.29q-1.49.26-2-.61-5.07-8.71-15.43-7.72-4.57.44-7.24 4.09-.28.37-.13.81c2.97 9.26 12.23 14.07 21.14 9.6q.63-.32.52.37c-.32 2.11-6.33 3.38-8.13 3.58q-.54.06-.67.59l-1.84 7.14a.42.42 0 0 0 .65.45c3.58-2.53 10.53-6.46 14.84-5.25 5.57 1.57 7.57 14.37 2.9 13.2q-4.63-1.16-7.29-4.65a.76.76 0 0 0-1.36.36q-.46 3.42.99 6.53a.4.39-12.4 0 1-.36.56c-1.84-.02-1.49-7.79-1.32-8.84a.67.66-62.5 0 1 1.13-.36l3.06 3.13a.65.64 36 0 0 1.04-.16l3.21-6.47q.33-.66-.18-1.19c-4.36-4.5-14.24 2.08-17.33 5.33a.72.72 0 0 1-1.24-.47q-.15-4.9 1.2-9.58a.66.66 0 0 0-.45-.82l-2.35-.68q-.63-.19-.77.45c-1.7 7.52-.49 26.16 10.51 25.25 6.26-.51 12.16.12 18.3-.33 4.03-.29 6.18-3.46 6.16-7.21q0-.37.33-.2c15.2 7.88 20.47-14.84 7.97-14.33q-4.39.18-7.75 3.42a.39.39 0 0 1-.59-.51q3.39-4.56 9.01-4.75a.89.89 0 0 0 .83-.69c1.58-6.73 1.56-16.96-4.91-21.34a.95.94 3.9 0 0-1.38 1.2l.9 1.83a.37.37 0 0 1-.36.54l-.38-.03a.67.67 0 0 1-.62-.63q-.2-4.33-3.99-4.94c-1.59-.25-3.34.39-5.11.54a.43.43 0 0 0-.11.83q2.05.76 4.22-.01.48-.17.88.14 2.22 1.69 2.82 4.51a1.08 1.07 74 0 1-.68 1.23c-3.38 1.23-.81-5.76-7.12-4.52a.58.57-16.9 0 1-.64-.34l-.64-1.49a.43.43 0 0 0-.78-.02q-.48.96-.65 2.01-.09.53-.6.72c-2.19.82-5.36-3.77-6.07.01" vector-effect="non-scaling-stroke"/><path stroke="#7e7720" d="M382.53 78.75c-.86-3.05 2.36-2.99 4.18-2.54a1.76 1.75-47.2 0 0 .97-.04c2.26-.76 4.24-1.52 6.79-1.7q1.66-.12 3.17-.74a.81.79-38.4 0 1 .75.08l2.42 1.72a1.04 1.04 0 0 0 1.63-.7c.51-3.42-1.33-3.79-4.22-3.58-7.07.51-15.79-.02-21.04.01q-33.71.19-67.43.21" vector-effect="non-scaling-stroke"/><path stroke="#2f2e25" d="M309.75 71.47q-.32-.19-.45-.39a.33.33 0 0 1 .29-.5q.95.02 1.43-.37" vector-effect="non-scaling-stroke"/><path stroke="#7e7720" d="M403.27 72.68c.74 1.92-.46 4.45 2.22 5.37q.45.16.83-.13 4.54-3.43 10.24-3.3c1.56.04 2.85-.49 2.07-2.34a1.2 1.19-10.8 0 0-1.09-.74l-13.39-.13q-1.38-.01-.88 1.27" vector-effect="non-scaling-stroke"/><path stroke="#7e7720" d="M406.94 79.19c4.33 6.22 4.64 12.62 2.63 19.83a.7.69 24.6 0 0 .29.77c11.23 7.2 2.46 22.64-10.07 17.91q-.44-.17-.7.22l-2.88 4.31q-.41.61.32.6l20.96-.33q1.23-.02 1.23-1.24l.1-43.86a1.64 1.64 0 0 0-1.52-1.64q-5.62-.42-10.24 2.79-.38.26-.12.64" vector-effect="non-scaling-stroke"/><path stroke="#7d7b75" d="M377.63 84.44q.52 1.3 1.32 2.56a1.81 1.8-57.8 0 0 3.32-.76q.33-2.8 2.62-4.45a1.19 1.18 24.3 0 0-.81-2.14q-4.01.39-6.32 3.72-.35.5-.13 1.07" vector-effect="non-scaling-stroke"/><path stroke="#7c644f" d="m355.9 99.89 2.83 1.74a1.34 1.34 0 0 0 1.84-.44l.06-.11a4.5 2.08-58.5 0 0 .58-4.92l-1.57-.96a4.5 2.08-58.5 0 0-4.12 2.75l-.06.1a1.34 1.34 0 0 0 .44 1.84m1.36 5.25q-.08-.14-.35-.33a.39.39 0 0 1-.09-.55q1.56-2.15-.62-3.16a1.04 1.04 0 0 0-1.47.99q.21 4.72 3.9 7.52 1.84 1.39 1.67-.91c-.08-1.16.54-5.3-1.47-5.59q-.4-.06-.56.33l-.67 1.68a.19.19 0 0 1-.34.02" vector-effect="non-scaling-stroke"/><path stroke="#aca545" d="M309.75 71.47q-57.91.84-115.81.3c-24.07-.22-48.17.4-72.25.22Q60.84 71.54 0 71.79" vector-effect="non-scaling-stroke"/><path stroke="#aba22f" d="M251.26 122.73c-28.15-1.32-56.74-.66-84.95-.84q-16.93-.1-27.56.38" vector-effect="non-scaling-stroke"/><path stroke="#7e7720" d="M138.75 122.27q-68.2-.04-136.4-.02c-.81 0-1.5-.27-2.35-.31m146.26-21.92c7.16.32 7.69-6.58 6.15-11.63-1.31-4.31-6.63-3.57-10.29-3.32q-.62.04-.62.66v22.92q0 .6.6.61l3.23.07q.42.01.42-.41v-8.41q0-.51.51-.49M159.07 95a.32.32 0 0 1-.32-.32v-5.36a.32.32 0 0 1 .32-.32h5.68a.32.32 0 0 0 .32-.33l-.1-3.36a.32.32 0 0 0-.32-.31h-9.83a.32.32 0 0 0-.32.32v23.64a.32.32 0 0 0 .32.32l9.85.03a.32.32 0 0 0 .32-.32l.03-2.92a.32.32 0 0 0-.32-.32h-5.63a.32.32 0 0 1-.32-.32v-6.11a.32.32 0 0 1 .32-.32h4.36a.32.32 0 0 0 .32-.32v-3.36a.32.32 0 0 0-.32-.32h-4.36m18.45 2.05q2.36-4.38.89-9c-1.24-3.92-6.75-3.21-10.3-2.97q-.61.04-.61.65v22.92q0 .6.6.61l3.23.07q.42.01.42-.41V99.8q0-.73.69-.49l1.65.58q.5.18.51.71l.21 8.09q.01.56.58.57l3.43.07q.36.01.35-.35c-.13-2.82.43-9.19-1.55-11.19q-.32-.33-.1-.74" vector-effect="non-scaling-stroke"/><path stroke="#7e7720" d="m185.39 88.99 1.08.26q.53.12.53.67v1.91q0 .57.57.54l3.08-.16q.5-.02.57-.52c1.05-7.1-7.63-9.27-11.03-3.39q-.26.44-.22.94c.11 1.67-.25 3.19.49 4.72 1.78 3.67 7.45 6.67 6.29 10.92a1.17 1.16-62.4 0 1-1.87.59q-1.27-1.06-.83-2.74a.58.57-82.3 0 0-.55-.73h-2.68q-.59 0-.71.57-.86 4.09 2.29 6.38.43.31.96.31c2.47-.03 5.95.67 7.21-2.19 4.26-9.62-8.11-11.78-6.03-17.62q.22-.6.85-.46m19.548 1.17a5.12 5.12 0 0 0-5.13-5.111l-1.46.002a5.12 5.12 0 0 0-5.11 5.13l.024 14a5.12 5.12 0 0 0 5.13 5.11l1.46-.002a5.12 5.12 0 0 0 5.11-5.13l-.024-14m9.812 4.751a.33.33 0 0 1-.65.08l-2.33-9.74a.33.33 0 0 0-.32-.25h-4.62a.33.33 0 0 0-.33.33v23.63a.33.33 0 0 0 .33.33h3.11a.33.33 0 0 0 .33-.33l-.02-11.83a.33.33 0 0 1 .64-.09l3.2 12.03a.33.33 0 0 0 .33.24l3.76-.09a.33.33 0 0 0 .32-.33V85.33a.33.33 0 0 0-.33-.33h-3.09a.33.33 0 0 0-.33.33v9.58m13 11.07q.35 1 .3 2.82-.02.58.56.55l3.57-.14q.44-.02.37-.45l-3.62-23.32q-.06-.44-.5-.44h-4.55q-.65 0-.75.64l-3.56 23.19q-.12.79.66.61 1.21-.28 2.48-.21a.79.78 18.3 0 0 .71-.35q.81-1.22.38-3.01a2.26 1.65 37.6 0 1 3.95.11m6.89-.41q-.16-.08-.34-.1-.55-.04-.55.51v2.53q0 .53.51.64c6.23 1.44 7.02-2.73 7-7.72q-.02-7.95-.01-15.92 0-.51-.51-.51h-3.21q-.61 0-.59.6.19 8.72-.04 17.32-.06 2.48-1.73 2.74-.28.04-.53-.09m13.5.22a.38.38 0 0 1-.39-.38v-6.03a.38.38 0 0 1 .38-.38h4.24a.38.38 0 0 0 .38-.38v-3.24a.38.38 0 0 0-.38-.38h-4.24a.38.38 0 0 1-.38-.38v-5.24a.38.38 0 0 1 .38-.38h5.46a.38.38 0 0 0 .38-.37l.1-3.24a.38.38 0 0 0-.38-.39h-9.81a.38.38 0 0 0-.38.38v23.67a.38.38 0 0 0 .38.38l9.95-.08a.38.38 0 0 0 .38-.42l-.31-2.93a.38.38 0 0 0-.39-.34l-5.37.13" vector-effect="non-scaling-stroke"/><path stroke="#7e7720" d="M262 90.28v1.53q0 .55.55.53l3.13-.07q.43-.01.49-.43c1.41-9.49-13.37-9.29-11.13.95.94 4.28 9.68 9.01 6.02 12.74a.7.69-52.2 0 1-.84.11q-1.67-.96-1.17-2.92a.57.57 0 0 0-.55-.72h-2.98q-.68 0-.74.68-.35 3.85 2.5 6.19.43.35.98.37c3.6.09 6.89.69 7.81-3.91 1.75-8.76-7.33-9.36-6.83-15.17a1.38 1.38 0 0 1 2.76.12" vector-effect="non-scaling-stroke"/><path stroke="#f6e257" d="M334.8 109.31q.79 1.37 2.38.34a.46.46 0 0 0-.18-.84q-.9-.13-1.95 0-.51.06-.25.5" vector-effect="non-scaling-stroke"/><path stroke="#7c644f" d="M386.99 95.25q.44 1.26 1.53.95.46-.13.06-.39-.72-.49-1.59-.56" vector-effect="non-scaling-stroke"/><path stroke="#f9dfc3" d="m389.35 92.37 1.35-.42" vector-effect="non-scaling-stroke"/><path stroke="#7c644f" d="M372.64 88.57a.27.27 0 0 0-.306-.228l-6.41.947a.27.27 0 0 0-.228.306l.064.435a.27.27 0 0 0 .306.228l6.41-.947a.27.27 0 0 0 .228-.306l-.064-.435m20.33 20.45c-2.48-10.72-14.61-20.85-25.54-16.71a.24.24 0 0 0 .1.47c2.28-.11 4.71-.72 6.76-.6 2.76.16 5.13 1.95 7.44 3.19 5.5 2.97 8.51 7.37 10.46 13.41q.11.35.5.49.37.14.28-.25m10.45 1.45-.94 2.19a.43.43 0 0 0 .39.6c3.86.05.9-5.56 5.83-3.87a.38.38 0 0 0 .47-.53c-.8-1.61-11.27.72-10.93 1.66q.16.44.59.24 1.97-.9 4.09-1 .82-.04.5.71" vector-effect="non-scaling-stroke"/><path stroke="#7d7b75" d="M379.895 84.932a1.58 1.14 114.1 0 0 1.686-.977 1.58 1.14 114.1 0 0-.396-1.907 1.58 1.14 114.1 0 0-1.686.977 1.58 1.14 114.1 0 0 .396 1.907m6.304 3.293a2.31 1.55 105.6 0 0 2.114-1.808 2.31 1.55 105.6 0 0-.872-2.642 2.31 1.55 105.6 0 0-2.114 1.808 2.31 1.55 105.6 0 0 .872 2.642" vector-effect="non-scaling-stroke"/><path stroke="#7e7720" d="M148.618 90.095a1.06 1.06 0 0 0-1.056-1.064l-.78-.002a1.06 1.06 0 0 0-1.064 1.056l-.016 4.8a1.06 1.06 0 0 0 1.056 1.064l.78.002a1.06 1.06 0 0 0 1.064-1.056l.016-4.8m25.952-.113a.91.91 0 0 0-.901-.918l-1-.008a.91.91 0 0 0-.918.902l-.042 4.72a.91.91 0 0 0 .903.918l1 .008a.91.91 0 0 0 .917-.902l.042-4.72m26.127.575A1.56 1.56 0 0 0 199.135 89h-.08a1.56 1.56 0 0 0-1.557 1.563l.024 13.56a1.56 1.56 0 0 0 1.563 1.557h.08a1.56 1.56 0 0 0 1.557-1.563l-.024-13.56M225.2 101.02l1.42-.02a.32.32 0 0 0 .32-.32v-.18a7 .98 89.5 0 0-1.04-6.99h-.1a7 .98 89.5 0 0-.92 7.01v.18a.32.32 0 0 0 .32.32" vector-effect="non-scaling-stroke"/><path stroke="#2d2b0f" d="M138.45 123.84q.89-1.02.3-1.57" vector-effect="non-scaling-stroke"/></g><path fill="#faf6e9" d="M0 0h429v8.62c-146.36-.47-274.14.3-408.9.12-3.08-.01-6.27-.3-9.38-.46q-.5-.02-.71.43-1.26 2.84-.69 5.44l.23 45.34q0 .48-.24.9l-.6 1a.36.36 0 0 0 .45.52c5.25-2.15 11.57-.6 17.67-.87q6.39-.28 12.79-.1c16.54.46 33.08.33 49.61.29q1.78.13 3.52.13c112.64.02 220.42.23 330.57.09 1.63 0 3.72.47 5.68.32V132H0v-8.43l138.45.27c26.16.18 52.33-.04 78.49.5q16.65.35 33.31-.1 83.02-.35 166.03-.01c2.98.01 3.83-.76 3.76-3.73q-.45-19.83-.23-40.34a1.03 1.02-56.1 0 1 1.97-.39l.88 2.08q.31.75.5-.04c.81-3.31-1.23-4.57-3.4-6.37a.72.71 32 0 1-.2-.85q.76-1.69.12-3.44-.2-.53-.76-.67c-4.87-1.19-11.53-.46-16.61-.33q-.52.01-.83-.39-4.59-5.85-11.75-2.88c-.64.27-.92.97-.63 1.58q.25.49.76.27 5.11-2.23 10.02.43a.57.57 0 0 1 .12.92c-1.04 1.01-76.91.29-77.31.29q-7.57.08-11.67-.16-27.5.23-54.96-.01c-13.47-.11-29.1.36-40.49.16-48.4-.87-96.57.61-144.82.34q-35.38-.19-70.75.05V0Zm420.958 5.035a1.37.65 77 0 0 .325-1.481 1.37.65 77 0 0-.941-1.189 1.37.65 77 0 0-.325 1.481 1.37.65 77 0 0 .941 1.189ZM113.955 66.944a1.26.7 78.3 0 0 .43-1.376 1.26.7 78.3 0 0-.94-1.092 1.26.7 78.3 0 0-.43 1.376 1.26.7 78.3 0 0 .94 1.092ZM263.32 130.42a.62.62 0 0 0 .74.88l.75-.23a.57.57 0 0 0 .2-.97q-1.06-.9-1.69.32Z"/><ellipse cx="0.00" cy="0.00" fill="#f8c79d" rx="1.37" ry="0.65" transform="rotate(77 208 266.265)"/><path fill="#423b3a" d="M429 8.62v1.21q-4.78.31-9.51.14-7.53-.25-9.49-.24-37.32.28-74.63.24c-7.08 0-17.12-1.04-25.19-.33-3.33.29-5.59.15-8.47.17q-67.73.35-135.46.11c-51.63-.19-103.27.16-154.9-.1q-.54 0-.61.52l-.26 1.71q-.09.62.53.53 6.69-.97 13.42-.34c1.31.12 2.54 1.25 4.08.09a.95.95 0 0 1 1.49.52q.47 1.76 2.21 2.9l.21 2.01q.01.17-.15.11-.12-.04-.27-.08l.02-.31q.02-.38-.33-.55l-2.54-1.21q-.39-.19-.65.15l-1.75 2.22a.59.58 56.4 0 1-1.02-.21q-.39-1.39.03-2.83a.65.65 0 0 0-.94-.75q-1.39.78-1.7 2.62a.32.31-36.8 0 1-.63-.08q.16-1.08.03-2.01-.09-.57-.65-.66-5.81-.92-11.18.75l-1.37-.77q-.57-2.6.69-5.44.21-.45.71-.43c3.11.16 6.3.45 9.38.46 134.76.18 262.54-.59 408.9-.12Z"/><path fill="#fbed40" d="M429 9.83v50.74l-.24-.42q-.24-.41-.66-.2c-.32.16-.45.29-.82.29-41.99.03-84.08.49-126.07-.24q-8.11-.14-16.22 0c-29.34.55-58.67-.82-87.99.05-11.08.33-26.62-.14-33.37-.15q-37.19-.01-74.38.2L40.33 60q-.5 0-.52-.51l-.38-14.96a.68.68 0 0 1 1.05-.59q9.47 6.08 20.72 2.25 8.01-2.72 8.42-10.06c.24-4.38-3.34-6.69-7.19-7.37a.77.76 89.4 0 1-.62-.61c-1.03-5.17-3.36-10.58-9.74-6.04q-.43.31-.87.02-2.92-1.95-6.28-.53a.82.82 0 0 1-.94-.22q-1.19-1.4-2.73-2.4-.41-.26-.9-.25-1.33.05-2.59.78-1.02-1.09-1.98-1.35-.68-.43-.52-1.19a.69.68-78.9 0 1 .78-.53q2.62.46 3.05-1.86a.79.78-71.9 0 0-.42-.84c-2.42-1.21-4.57.68-6.46 2.01q-1.74-1.14-2.21-2.9a.95.95 0 0 0-1.49-.52c-1.54 1.16-2.77.03-4.08-.09q-6.73-.63-13.42.34-.62.09-.53-.53l.26-1.71q.07-.52.61-.52c51.63.26 103.27-.09 154.9.1q67.73.24 135.46-.11c2.88-.02 5.14.12 8.47-.17 8.07-.71 18.11.33 25.19.33q37.31.04 74.63-.24 1.96-.01 9.49.24 4.73.17 9.51-.14Zm-117.952 6.24a4.91 4.91 0 0 0-4.806-5.011l-4.159-.087a4.91 4.91 0 0 0-5.012 4.806l-.76 36.272a4.91 4.91 0 0 0 4.807 5.011l4.159.087a4.91 4.91 0 0 0 5.012-4.806l.76-36.272Zm6.802 21.5a.4.4 0 0 1 .8-.04l2.11 19.29a.4.4 0 0 0 .39.36l5.54.11a.4.4 0 0 0 .41-.39l.75-45.27a.4.4 0 0 0-.41-.41l-4.54.14a.4.4 0 0 0-.39.39l-.45 17.14a.4.4 0 0 1-.8.03l-1.81-17.26a.4.4 0 0 0-.4-.36l-5.83-.05a.4.4 0 0 0-.41.4l-.57 45.14a.4.4 0 0 0 .39.41l4.5.07a.4.4 0 0 0 .41-.39l.31-19.31Zm-36.81-.67 2.13 20.08q.08.72.8.7l2-.05a.57.57 0 0 0 .56-.53l1.6-19.57a.3.29-73.6 0 1 .43-.24l.31.16q.38.2.38.64v18.85q0 .7.69.71l3.84.1a.49.49 0 0 0 .5-.48l.74-44.86a.6.6 0 0 0-.6-.61l-6.23-.04a1.1 1.09-86.5 0 0-1.1.98l-1.51 14.76a.34.34 0 0 1-.67.03c-.96-5.03-.31-10.4-1.37-15.28q-.1-.48-.6-.49l-6.57-.12a.75.74-89.2 0 0-.75.74l-.46 44.09a1.29 1.28 89.6 0 0 1.31 1.3l3.23-.07q.64-.01.63-.65c-.05-1.86-.21-20.25.52-20.31a.18.17 83.5 0 1 .19.16ZM106.43 16.649a4.88 4.88 0 0 0-4.964-4.794l-4.44.077a4.88 4.88 0 0 0-4.793 4.965l.636 36.474a4.88 4.88 0 0 0 4.965 4.794l4.44-.077a4.88 4.88 0 0 0 4.793-4.965l-.636-36.474Zm46.56-3.619.22 43.56a1.23 1.23 0 0 0 1.24 1.22l7.74-.04a5.46 5.21 89.7 0 0 5.18-5.49l-.18-35.1a5.46 5.21 89.7 0 0-5.24-5.43l-7.74.04a1.23 1.23 0 0 0-1.22 1.24Zm22.91 3.72h1.82a.76.76 0 0 0 .76-.72l.21-3.54q.04-.74-.7-.74h-7.7a1.21 1.2-.2 0 0-1.21 1.21l.27 44.06q.01.6.6.6l7.9.08q.83.01.79-.81l-.17-3.57a.65.65 0 0 0-.82-.59q-1.43.39-2.17-.7-.19-.29-.18-.63l.28-15.57q.01-.58.59-.58h1.35q.64 0 .87-.6.74-1.92.11-3.8-.17-.52-.72-.55l-1.89-.12q-.67-.04-.67-.71l.08-12.13a.6.6 0 0 1 .6-.59Zm14.14 36.95a.76.76 0 0 0-.54-.66l-2.16-.62a.76.76 0 0 1-.55-.73l-.18-39.08a.76.76 0 0 0-.73-.76l-4.67-.16a.76.76 0 0 0-.78.76l.33 44.3a.76.76 0 0 0 .76.75h8.01a.76.76 0 0 0 .76-.82l-.25-2.98Zm15.648-36.922a4.92 4.92 0 0 0-4.928-4.911l-4.1.007a4.92 4.92 0 0 0-4.912 4.928l.064 36.28a4.92 4.92 0 0 0 4.928 4.911l4.1-.007a4.92 4.92 0 0 0 4.912-4.928l-.064-36.28Zm44.457-4.297a.6.6 0 0 0-.596-.605l-4.54-.031a.6.6 0 0 0-.604.595l-.31 44.44a.6.6 0 0 0 .596.604l4.54.031a.6.6 0 0 0 .604-.596l.31-44.438Zm9.535 40.049a1.86.18 30.1 0 1-1.43-1.03V12.52a.71.71 0 0 0-.73-.71l-4.79.1q-.52.01-.52.54l.06 44.44q0 .61.62.61h7.86q.75 0 .75-.75V53.7q0-.87-.87-.89-.49-.01-.95-.28Zm10.36-23.35-.1-11.89q-.01-.52.52-.53l2.08-.03q.4 0 .55-.38.8-2.03.32-4a.84.82-6.6 0 0-.81-.63l-7.75.1a.83.83 0 0 0-.82.83l-.13 44.07a.75.75 0 0 0 .75.75l7.65.05q.89 0 .89-.89v-3.01q0-.66-.65-.76l-2.21-.35q-.58-.1-.58-.68V35.56a.67.66 16.1 0 1 1.02-.56c2.54 1.61 2.83-2.57 2.69-3.86q-.07-.65-.7-.8l-2.21-.53q-.5-.12-.51-.63ZM133.31 52.27l.01-4.32-.63-30.02q-.01-.6.57-.74 3.56-.87 1.75-4.72-.22-.48-.75-.47l-9.91.21q-.52.01-.64.52-.81 3.42 2.1 4.63.51.21.53.76.44 19.63 1.02 39.27a.66.66 0 0 0 .72.64l4.47-.35a.68.67-1.4 0 0 .62-.65l.14-4.76Zm11.91-3.48.38 8.24q.04.71.75.71l4.6.01q.71.01.66-.71l-3.23-44.24q-.06-.76-.82-.76h-7.9q-.73 0-.77.73l-2.79 44.4q-.03.59.56.58l4.92-.01q.44 0 .47-.45l.5-8.52a1.34 1.34 0 0 1 2.67.02Zm93.55-31.04a.67.67 0 0 1 .59-.67l2.21-.25a.67.67 0 0 0 .59-.61l.27-3.35a.67.67 0 0 0-.65-.72l-8.36-.22a.67.67 0 0 0-.69.67l.03 44.46a.67.67 0 0 0 .67.67h4.58a.67.67 0 0 0 .67-.67l.1-20.82a.67.67 0 0 1 .56-.66l2.46-.38a.67.67 0 0 0 .57-.68l-.11-3.33a.67.67 0 0 0-.58-.64l-2.36-.31a.67.67 0 0 1-.58-.67l.03-11.82ZM77.93 37.95q1.16 9.6 1.95 19.23.05.59.64.65l2.04.22q.59.06.65-.52c.21-1.85 1.73-19.63 1.81-19.66q.43-.15.45.32l.79 19.34q.03.75.78.71l3.79-.22a.52.52 0 0 0 .5-.53l-.65-44.72a.58.58 0 0 0-.6-.58l-6.7.22q-.59.01-.62.6-.39 7.51-1.09 14.98-.03.23-.08.4a.35.35 0 0 1-.67-.08l-1.61-15.18q-.05-.55-.61-.58l-6.57-.31a.68.68 0 0 0-.71.7l1.04 44.42q.02.65.66.62l3.46-.16a.82.82 0 0 0 .78-.83l-.08-19a.33.33 0 0 1 .65-.04Zm38.79 1.06c1.38 2.58.74 14.77.81 18.39a.65.64-1.3 0 0 .67.63l4.18-.14q.71-.02.75-.74.57-9.79-.51-19.52a1.46 1.46 0 0 0-.46-.91q-1.8-1.65-.02-3.04.36-.29.39-.75.41-6.06.18-12.14c-.18-4.67.18-8.5-5.42-8.5q-4.39.01-8.47.28a.93.93 0 0 0-.87.98q.62 11.62.77 22.79c.07 4.87.91 13.92.2 21.01q-.06.59.53.6l4.87.08q.55.01.54-.54l-.16-17.96a1.07 1.07 0 0 1 2.02-.52Zm103.54-.76a.36.36 0 0 1-.72.04q-.62-3.68-1.06-7.4-.07-.56-.58-.79-1.91-.86-3.84.05-.53.25-.4.81l4.7 20.36a.84.82-18.6 0 1-.48.95l-1.83.8a1.01.99 79.4 0 0-.6.89l-.08 3.08q-.01.55.54.65 5.42.92 6.44-4.38 2.01-10.43 3.36-23.04.06-.49-.42-.63-2.21-.62-4.12.29a1.03 1.02-12 0 0-.58.89l-.33 7.43Z"/><path fill="#de2321" d="M310.289 52.342a4.91 4.91 0 0 1-5.012 4.806l-4.16-.087a4.91 4.91 0 0 1-4.805-5.011l.76-36.272a4.91 4.91 0 0 1 5.011-4.806l4.16.087a4.91 4.91 0 0 1 4.805 5.011l-.76 36.272Zm-5.116-35.255a1.11 1.11 0 0 0-1.087-1.133h-.04a1.11 1.11 0 0 0-1.133 1.086l-.706 33.713a1.11 1.11 0 0 0 1.087 1.133h.04a1.11 1.11 0 0 0 1.133-1.086l.706-33.713ZM317.85 37.57l-.31 19.31a.4.4 0 0 1-.41.39l-4.5-.07a.4.4 0 0 1-.39-.41l.57-45.14a.4.4 0 0 1 .41-.4l5.83.05a.4.4 0 0 1 .4.36l1.81 17.26a.4.4 0 0 0 .8-.03l.45-17.14a.4.4 0 0 1 .39-.39l4.54-.14a.4.4 0 0 1 .41.41l-.75 45.27a.4.4 0 0 1-.41.39l-5.54-.11a.4.4 0 0 1-.39-.36l-2.11-19.29a.4.4 0 0 0-.8.04Zm-37-.83c-.73.06-.57 18.45-.52 20.31q.01.64-.63.65l-3.23.07a1.29 1.28 89.6 0 1-1.31-1.3l.46-44.09a.75.74-89.2 0 1 .75-.74l6.57.12q.5.01.6.49c1.06 4.88.41 10.25 1.37 15.28a.34.34 0 0 0 .67-.03l1.51-14.76a1.1 1.09-86.5 0 1 1.1-.98l6.23.04a.6.6 0 0 1 .6.61l-.74 44.86a.49.49 0 0 1-.5.48l-3.84-.1q-.69-.01-.69-.71V38.09q0-.44-.38-.64l-.31-.16a.3.29-73.6 0 0-.43.24l-1.6 19.57a.57.57 0 0 1-.56.53l-2 .05q-.72.02-.8-.7l-2.13-20.08a.18.17 83.5 0 0-.19-.16ZM107.067 53.123a4.88 4.88 0 0 1-4.794 4.965l-4.44.077a4.88 4.88 0 0 1-4.964-4.794l-.636-36.474a4.88 4.88 0 0 1 4.794-4.965l4.44-.077a4.88 4.88 0 0 1 4.964 4.794l.636 36.474Zm-6.41-34.881a1.07 1.07 0 0 0-1.09-1.05l-.06.002a1.07 1.07 0 0 0-1.049 1.09l.644 33.554a1.07 1.07 0 0 0 1.09 1.05l.06-.002a1.07 1.07 0 0 0 1.05-1.09l-.644-33.554Zm52.333-5.212a1.23 1.23 0 0 1 1.22-1.24l7.74-.04a5.46 5.21 89.7 0 1 5.24 5.43l.18 35.1a5.46 5.21 89.7 0 1-5.18 5.49l-7.74.04a1.23 1.23 0 0 1-1.24-1.22l-.22-43.56Zm8.254 5.009a1.13 1.13 0 0 0-1.141-1.118h-.04a1.13 1.13 0 0 0-1.118 1.142l.35 33.498a1.13 1.13 0 0 0 1.142 1.118h.04a1.13 1.13 0 0 0 1.118-1.142l-.35-33.498Z"/><path fill="#de2321" d="m175.3 17.34-.08 12.13q0 .67.67.71l1.89.12q.55.03.72.55.63 1.88-.11 3.8-.23.6-.87.6h-1.35q-.58 0-.59.58l-.28 15.57q-.01.34.18.63.74 1.09 2.17.7a.65.65 0 0 1 .82.59l.17 3.57q.04.82-.79.81l-7.9-.08q-.59 0-.6-.6l-.27-44.06a1.21 1.2-.2 0 1 1.21-1.21h7.7q.74 0 .7.74l-.21 3.54a.76.76 0 0 1-.76.72h-1.82a.6.6 0 0 0-.6.59Zm14.74 36.36.25 2.98a.76.76 0 0 1-.76.82h-8.01a.76.76 0 0 1-.76-.75l-.33-44.3a.76.76 0 0 1 .78-.76l4.67.16a.76.76 0 0 1 .73.76l.18 39.08a.76.76 0 0 0 .55.73l2.16.62a.76.76 0 0 1 .54.66Zm15.712-.642a4.92 4.92 0 0 1-4.912 4.928l-4.1.008a4.92 4.92 0 0 1-4.928-4.912l-.064-36.28a4.92 4.92 0 0 1 4.912-4.928l4.1-.008a4.92 4.92 0 0 1 4.928 4.912l.064 36.28Zm-6.062-35.19a1 1 0 0 0-1.001-.998h-.04a1 1 0 0 0-.999 1.002l.06 34.06a1 1 0 0 0 1.001.998h.04a1 1 0 0 0 .999-1.002l-.06-34.06Z"/><rect width="5.74" height="45.64" x="-2.87" y="-22.82" fill="#de2321" rx="0.60" transform="rotate(.4 -4843.964 35414.529)"/><path fill="#de2321" d="M259.68 52.53q.46.27.95.28.87.02.87.89v3.05q0 .75-.75.75h-7.86q-.62 0-.62-.61l-.06-44.44q0-.53.52-.54l4.79-.1a.71.71 0 0 1 .73.71V51.5a1.86.18 30.1 0 0 1.43 1.03Zm10.87-22.72 2.21.53q.63.15.7.8c.14 1.29-.15 5.47-2.69 3.86a.67.66 16.1 0 0-1.02.56v16.27q0 .58.58.68l2.21.35q.65.1.65.76v3.01q0 .89-.89.89l-7.65-.05a.75.75 0 0 1-.75-.75l.13-44.07a.83.83 0 0 1 .82-.83l7.75-.1a.84.82-6.6 0 1 .81.63q.48 1.97-.32 4-.15.38-.55.38l-2.08.03q-.53.01-.52.53l.1 11.89q.01.51.51.63ZM133.32 47.95q-.74 1.95-.01 4.32l-.14 4.76a.68.67-1.4 0 1-.62.65l-4.47.35a.66.66 0 0 1-.72-.64q-.58-19.64-1.02-39.27-.02-.55-.53-.76-2.91-1.21-2.1-4.63.12-.51.64-.52l9.91-.21q.53-.01.75.47 1.81 3.85-1.75 4.72-.58.14-.57.74l.63 30.02Z"/><path fill="#de2321" d="M145.22 48.79a1.34 1.34 0 0 0-2.67-.02l-.5 8.52q-.03.45-.47.45l-4.92.01q-.59.01-.56-.58l2.79-44.4q.04-.73.77-.73h7.9q.76 0 .82.76l3.23 44.24q.05.72-.66.71l-4.6-.01q-.71 0-.75-.71l-.38-8.24Zm-2.11-6.3 1.2.01a.27.27 0 0 0 .27-.26l.01-.19a17.54.85-89.5 0 0-.7-17.55h-.04a17.54.85-89.5 0 0-1 17.53l-.01.19a.27.27 0 0 0 .27.27Zm95.66-24.74-.03 11.82a.67.67 0 0 0 .58.67l2.36.31a.67.67 0 0 1 .58.64l.11 3.33a.67.67 0 0 1-.57.68l-2.46.38a.67.67 0 0 0-.56.66l-.1 20.82a.67.67 0 0 1-.67.67h-4.58a.67.67 0 0 1-.67-.67l-.03-44.46a.67.67 0 0 1 .69-.67l8.36.22a.67.67 0 0 1 .65.72l-.27 3.35a.67.67 0 0 1-.59.61l-2.21.25a.67.67 0 0 0-.59.67ZM77.93 37.95a.33.33 0 0 0-.65.04l.08 19a.82.82 0 0 1-.78.83l-3.46.16q-.64.03-.66-.62l-1.04-44.42a.68.68 0 0 1 .71-.7l6.57.31q.56.03.61.58l1.61 15.18a.35.35 0 0 0 .67.08q.05-.17.08-.4.7-7.47 1.09-14.98.03-.59.62-.6l6.7-.22a.58.58 0 0 1 .6.58l.65 44.72a.52.52 0 0 1-.5.53l-3.79.22q-.75.04-.78-.71l-.79-19.34q-.02-.47-.45-.32c-.08.03-1.6 17.81-1.81 19.66q-.06.58-.65.52l-2.04-.22q-.59-.06-.64-.65-.79-9.63-1.95-19.23Zm38.79 1.06a1.07 1.07 0 0 0-2.02.52l.16 17.96q.01.55-.54.54l-4.87-.08q-.59-.01-.53-.6c.71-7.09-.13-16.14-.2-21.01q-.15-11.17-.77-22.79a.93.93 0 0 1 .87-.98q4.08-.27 8.47-.28c5.6 0 5.24 3.83 5.42 8.5q.23 6.08-.18 12.14-.03.46-.39.75-1.78 1.39.02 3.04a1.46 1.46 0 0 1 .46.91q1.08 9.73.51 19.52-.04.72-.75.74l-4.18.14a.65.64-1.3 0 1-.67-.63c-.07-3.62.57-15.81-.81-18.39Zm-.3-20.971a.99.99 0 0 0-1.012-.968l-.06.002a.99.99 0 0 0-.967 1.012l.299 13.176a.99.99 0 0 0 1.012.968l.06-.002a.99.99 0 0 0 .967-1.012l-.299-13.176Z"/><path d="M35.78 18.16q-.38.33-.5.84-.54.66.06 1.43.37.49.86.11l.35-.28q.45-.77 1.21-.75 1.26-.73 2.59-.78.49-.01.9.25 1.54 1 2.73 2.4a.82.82 0 0 0 .94.22q3.36-1.42 6.28.53.44.29.87-.02c6.38-4.54 8.71.87 9.74 6.04a.77.76 89.4 0 0 .62.61c3.85.68 7.43 2.99 7.19 7.37q-.41 7.34-8.42 10.06-11.25 3.83-20.72-2.25a.68.68 0 0 0-1.05.59l.38 14.96q.02.51.52.51l48.92.1.72.17q.96.22.05.61l-.79.35c-16.53.04-33.07.17-49.61-.29q-6.4-.18-12.79.1c-6.1.27-12.42-1.28-17.67.87a.36.36 0 0 1-.45-.52l.6-1q.24-.42.24-.9l-.23-45.34 1.37.77q-.7 6.72-.17 13.17.05.58.63.65l2.67.3q.56.06.72-.48l1.57-5.15a.52.52 0 0 0-.62-.65q-1.15.27-1.93 1.25a.47.46 47.6 0 1-.76-.04q-.52-.79-.27-1.78.12-.49.6-.64 3.28-.98 6.71-.35a.37.37 0 0 1 .02.72l-1.65.44q-.64.17-.83.81l-1.42 4.79a.81.8-81.7 0 0 .77 1.04h10.75a.5.5 0 0 0 .5-.52c-.22-4.08-1.36-9.58 4.02-10.69q.15.04.27.08.16.06.15-.11l-.21-2.01c1.89-1.33 4.04-3.22 6.46-2.01a.79.78-71.9 0 1 .42.84q-.43 2.32-3.05 1.86a.69.68-78.9 0 0-.78.53q-.16.76.52 1.19ZM33.4 28.89a.51.5 90 0 0 .53-.54l-.24-2.79a1.18 1.18 0 0 1 2.31-.45q.45 1.46.2 3.02a.6.59 2.2 0 0 .64.68l3.05-.24q.68-.06.79-.73.47-2.85 2.32-5.02.42-.5-.06-.95l-1.9-1.79q-.39-.36-.91-.27-2.63.45-2.81 3.02a.84.84 0 0 1-1.66.11q-.51-2.52-2.83-3.84-.4-.23-.84-.09c-3.89 1.2-3.33 5.94-2.46 9.12a.76.76 0 0 0 .68.56l3.19.2Zm15.008 9.49a8.06 4.97 90.3 0 0 5.012-8.034 8.06 4.97 90.3 0 0-4.928-8.086 8.06 4.97 90.3 0 0-5.012 8.034 8.06 4.97 90.3 0 0 4.928 8.086Zm7.712-9.01 3.01-.67a1.26 1.26 0 0 0 .95-1.5l-.52-2.32a3.1 2.6 77.4 0 0-3.21-2.46l-.39.08a3.1 2.6 77.4 0 0-1.86 3.6l.52 2.32a1.26 1.26 0 0 0 1.5.95Zm-9.06 10.32c-5.32-.42-5.62-4.15-6.74-8.32q-.14-.51-.67-.49l-21.93.77a.59.59 0 0 0-.53.8c3.42 8.91 9.78 7.5 17.42 6.78q.51-.05.93.23 11.25 7.23 24.28 4.59c4.01-.81 11.17-4.61 8.59-9.78-2.07-4.14-9.15-4.35-13-3.46q-.49.11-.61.61c-.99 4.12-3.26 8.62-7.74 8.27Zm-36.05.42 5.83-.73a.21.21 0 0 0 .19-.23l-.27-2.1a6.19 1.72 82.9 0 0-2.47-5.93l-2.84.35a6.19 1.72 82.9 0 0-.94 6.35l.26 2.11a.21.21 0 0 0 .24.18Zm21.12 3.67c.28 5.75.39 9.81 2.03 15.44q.14.47.63.48l3.17.07q.49.01.49-.48l-.11-15.63q0-.19-.1-.35c-2.42-3.91-4.72-2.15-8.07-2.01q-9.51.38-19.18-.22a.46.46 0 0 0-.49.46v17.91q0 .37.38.36 5.56-.17 11.1.2c5.32.35 8.56-12.37 9.01-16.26a.57.57 0 0 1 1.14.03Zm-.221 16.148a3.04.86 81.7 0 0 .412-3.132 3.04.86 81.7 0 0-1.29-2.884 3.04.86 81.7 0 0-.412 3.132 3.04.86 81.7 0 0 1.29 2.884ZM27.64 56.12l-1.77 3.63a.11.11 0 0 0 .05.14l.02.02a1.99 1.68-64 0 0 2.39-1.06l.12-.25a1.99 1.68-64 0 0-.64-2.52l-.03-.02a.11.11 0 0 0-.14.06Z"/><path fill="#f8c79d" d="M32 17.79c-5.38 1.11-4.24 6.61-4.02 10.69a.5.5 0 0 1-.5.52H16.73a.81.8-81.7 0 1-.77-1.04l1.42-4.79q.19-.64.83-.81l1.65-.44a.37.37 0 0 0-.02-.72q-3.43-.63-6.71.35-.48.15-.6.64-.25.99.27 1.78a.47.46 47.6 0 0 .76.04q.78-.98 1.93-1.25a.52.52 0 0 1 .62.65l-1.57 5.15q-.16.54-.72.48l-2.67-.3q-.58-.07-.63-.65-.53-6.45.17-13.17 5.37-1.67 11.18-.75.56.09.65.66.13.93-.03 2.01a.32.31-36.8 0 0 .63.08q.31-1.84 1.7-2.62a.65.65 0 0 1 .94.75q-.42 1.44-.03 2.83a.59.58 56.4 0 0 1.02.21l1.75-2.22q.26-.34.65-.15l2.54 1.21q.35.17.33.55l-.02.31Z"/><rect width="2.26" height="35.94" x="-1.13" y="-17.97" fill="#f1d76d" rx="1.11" transform="rotate(1.2 -1467.656 14516.56)"/><rect width="2.30" height="35.76" x="-1.15" y="-17.88" fill="#f1d76d" rx="1.13" transform="rotate(-.6 3403.26 -15287.118)"/><rect width="2.04" height="36.06" x="-1.02" y="-18.03" fill="#f1d76d" rx="1.00" transform="rotate(-.1 20095.572 -113829.235)"/><rect width="2.20" height="35.70" x="-1.10" y="-17.85" fill="#f1d76d" rx="1.07" transform="rotate(-1.1 1875.015 -5184.777)"/><rect width="2.04" height="15.16" x="-1.02" y="-7.58" fill="#f1d76d" rx="0.99" transform="rotate(-1.3 1144.145 -5080.17)"/><path fill="#5a561e" d="M35.78 18.16q.96.26 1.98 1.35-.76-.02-1.21.75.06-1.09-1.27-1.26.12-.51.5-.84Z"/><path fill="#faf6e9" d="m33.4 28.89-3.19-.2a.76.76 0 0 1-.68-.56c-.87-3.18-1.43-7.92 2.46-9.12q.44-.14.84.09 2.32 1.32 2.83 3.84a.84.84 0 0 0 1.66-.11q.18-2.57 2.81-3.02.52-.09.91.27l1.9 1.79q.48.45.06.95-1.85 2.17-2.32 5.02-.11.67-.79.73l-3.05.24a.6.59 2.2 0 1-.64-.68q.25-1.56-.2-3.02a1.18 1.18 0 0 0-2.31.45l.24 2.79a.51.5 90 0 1-.53.54Zm5.562-1.248a1.74 1.1 78 0 0 .714-1.93 1.74 1.1 78 0 0-1.438-1.474 1.74 1.1 78 0 0-.714 1.93 1.74 1.1 78 0 0 1.438 1.474Z"/><path fill="#f1d76d" d="M35.28 19q1.33.17 1.27 1.26l-.35.28q-.49.38-.86-.11-.6-.77-.06-1.43Z"/><ellipse cx="0.00" cy="0.00" fill="#faf6e9" rx="8.06" ry="4.97" transform="rotate(90.3 9.144 39.258)"/><path fill="#faf6e9" d="M56.12 29.37a1.26 1.26 0 0 1-1.5-.95l-.52-2.32a3.1 2.6 77.4 0 1 1.86-3.6l.39-.08a3.1 2.6 77.4 0 1 3.21 2.46l.52 2.32a1.26 1.26 0 0 1-.95 1.5l-3.01.67Z"/><ellipse cx="0.00" cy="0.00" rx="1.74" ry="1.10" transform="rotate(78 3.283 36.804)"/><path fill="#f1d76d" d="M143.11 42.49a.27.27 0 0 1-.27-.27l.01-.19a17.54.85-89.5 0 1 1-17.53h.04a17.54.85-89.5 0 1 .7 17.55l-.01.19a.27.27 0 0 1-.27.26l-1.2-.01Z"/><path fill="#de2321" d="m220.26 38.25.33-7.43a1.03 1.02-12 0 1 .58-.89q1.91-.91 4.12-.29.48.14.42.63-1.35 12.61-3.36 23.04-1.02 5.3-6.44 4.38-.55-.1-.54-.65l.08-3.08a1.01.99 79.4 0 1 .6-.89l1.83-.8a.84.82-18.6 0 0 .48-.95l-4.7-20.36q-.13-.56.4-.81 1.93-.91 3.84-.05.51.23.58.79.44 3.72 1.06 7.4a.36.36 0 0 0 .72-.04Z"/><path fill="#f8c79d" d="M47.06 39.69c4.48.35 6.75-4.15 7.74-8.27q.12-.5.61-.61c3.85-.89 10.93-.68 13 3.46 2.58 5.17-4.58 8.97-8.59 9.78q-13.03 2.64-24.28-4.59-.42-.28-.93-.23c-7.64.72-14 2.13-17.42-6.78a.59.59 0 0 1 .53-.8l21.93-.77q.53-.02.67.49c1.12 4.17 1.42 7.9 6.74 8.32Z"/><path fill="#f8c79d" d="M11.01 40.11a.21.21 0 0 1-.24-.18l-.26-2.11a6.19 1.72 82.9 0 1 .94-6.35l2.84-.35a6.19 1.72 82.9 0 1 2.47 5.93l.27 2.1a.21.21 0 0 1-.19.23l-5.83.73Z"/><path fill="#faf6e9" d="M32.13 43.78a.57.57 0 0 0-1.14-.03c-.45 3.89-3.69 16.61-9.01 16.26q-5.54-.37-11.1-.2-.38.01-.38-.36V41.54a.46.46 0 0 1 .49-.46q9.67.6 19.18.22c3.35-.14 5.65-1.9 8.07 2.01q.1.16.1.35l.11 15.63q0 .49-.49.48l-3.17-.07q-.49-.01-.63-.48c-1.64-5.63-1.75-9.69-2.03-15.44Z"/><path fill="#f1d76d" d="m133.32 47.95-.01 4.32q-.73-2.37.01-4.32Z"/><ellipse cx="0.00" cy="0.00" fill="#faf6e9" rx="3.04" ry="0.86" transform="rotate(81.7 -17.178 46.657)"/><path fill="#faf6e9" d="M27.64 56.12a.11.11 0 0 1 .14-.06l.03.02a1.99 1.68-64 0 1 .64 2.52l-.12.25a1.99 1.68-64 0 1-2.39 1.06l-.02-.02a.11.11 0 0 1-.05-.14l1.77-3.63Z"/><path fill="#5a561e" d="M429 60.57v1.2c-1.96.15-4.05-.32-5.68-.32-110.15.14-217.93-.07-330.57-.09q-1.74 0-3.52-.13l.79-.35q.91-.39-.05-.61l-.72-.17q37.19-.21 74.38-.2c6.75.01 22.29.48 33.37.15 29.32-.87 58.65.5 87.99-.05q8.11-.14 16.22 0c41.99.73 84.08.27 126.07.24.37 0 .5-.13.82-.29q.42-.21.66.2l.24.42Z"/><ellipse cx="0.00" cy="0.00" fill="#f8c79d" rx="1.26" ry="0.70" transform="rotate(78.3 16.494 102.684)"/><path d="M250.25 124.24q.06-1.1 1.01-1.51 57.54-.39 115.18.34.76.01.29-.59-3.7-4.7-5.63-10.36a1.04 1.03.7 0 0-.63-.64q-9.69-3.58-6.91-13.12c.58-2 2.43-3.37 3.84-4.93a.64.64 0 0 0 .03-.84q-2.77-3.42-3.27-7.8a1.21 1.2-28.2 0 1 .28-.92c5.82-6.93 14.91-6.86 21.84-1.6a.62.61-48 0 0 .81-.05q2.41-2.41 5.44-3.47 2.09.2 3.84 1.54.42.32.95.24c11.22-1.58 9 10.92 3.38 11.42 4.59-2.97 5.49-12.01-2.51-10.82-6.17.93-9.06 12.62 1.16 11.24l-2.62 1.05a.71.71 0 0 0-.44.78q.09.49.7 1.05-2.51-1.33-4.26-3.48-.31-.38-.34-.88-.07-1.29-1-2.13a1.19 1.18 61.1 0 0-1-.29q-1.49.26-2-.61-5.07-8.71-15.43-7.72-4.57.44-7.24 4.09-.28.37-.13.81c2.97 9.26 12.23 14.07 21.14 9.6q.63-.32.52.37c-.32 2.11-6.33 3.38-8.13 3.58q-.54.06-.67.59l-1.84 7.14a.42.42 0 0 0 .65.45c3.58-2.53 10.53-6.46 14.84-5.25 5.57 1.57 7.57 14.37 2.9 13.2q-4.63-1.16-7.29-4.65a.76.76 0 0 0-1.36.36q-.46 3.42.99 6.53a.4.39-12.4 0 1-.36.56c-1.84-.02-1.49-7.79-1.32-8.84a.67.66-62.5 0 1 1.13-.36l3.06 3.13a.65.64 36 0 0 1.04-.16l3.21-6.47q.33-.66-.18-1.19c-4.36-4.5-14.24 2.08-17.33 5.33a.72.72 0 0 1-1.24-.47q-.15-4.9 1.2-9.58a.66.66 0 0 0-.45-.82l-2.35-.68q-.63-.19-.77.45c-1.7 7.52-.49 26.16 10.51 25.25 6.26-.51 12.16.12 18.3-.33 4.03-.29 6.18-3.46 6.16-7.21q0-.37.33-.2c15.2 7.88 20.47-14.84 7.97-14.33q-4.39.18-7.75 3.42a.39.39 0 0 1-.59-.51q3.39-4.56 9.01-4.75a.89.89 0 0 0 .83-.69c1.58-6.73 1.56-16.96-4.91-21.34a.95.94 3.9 0 0-1.38 1.2l.9 1.83a.37.37 0 0 1-.36.54l-.38-.03a.67.67 0 0 1-.62-.63q-.2-4.33-3.99-4.94c-1.59-.25-3.34.39-5.11.54a.43.43 0 0 0-.11.83q2.05.76 4.22-.01.48-.17.88.14 2.22 1.69 2.82 4.51a1.08 1.07 74 0 1-.68 1.23c-3.38 1.23-.81-5.76-7.12-4.52a.58.57-16.9 0 1-.64-.34l-.64-1.49a.43.43 0 0 0-.78-.02q-.48.96-.65 2.01-.09.53-.6.72c-2.19.82-5.36-3.77-6.07.01-.86-3.05 2.36-2.99 4.18-2.54a1.76 1.75-47.2 0 0 .97-.04c2.26-.76 4.24-1.52 6.79-1.7q1.66-.12 3.17-.74a.81.79-38.4 0 1 .75.08l2.42 1.72a1.04 1.04 0 0 0 1.63-.7c.51-3.42-1.33-3.79-4.22-3.58-7.07.51-15.79-.02-21.04.01q-33.71.19-67.43.21-.32-.19-.45-.39a.33.33 0 0 1 .29-.5q.95.02 1.43-.37 4.1.24 11.67.16c.4 0 76.27.72 77.31-.29a.57.57 0 0 0-.12-.92q-4.91-2.66-10.02-.43-.51.22-.76-.27c-.29-.61-.01-1.31.63-1.58q7.16-2.97 11.75 2.88.31.4.83.39c5.08-.13 11.74-.86 16.61.33q.56.14.76.67.64 1.75-.12 3.44a.72.71 32 0 0 .2.85c2.17 1.8 4.21 3.06 3.4 6.37q-.19.79-.5.04l-.88-2.08a1.03 1.02-56.1 0 0-1.97.39q-.22 20.51.23 40.34c.07 2.97-.78 3.74-3.76 3.73q-83.01-.34-166.03.01Zm153.02-51.56c.74 1.92-.46 4.45 2.22 5.37q.45.16.83-.13 4.54-3.43 10.24-3.3c1.56.04 2.85-.49 2.07-2.34a1.2 1.19-10.8 0 0-1.09-.74l-13.39-.13q-1.38-.01-.88 1.27Zm3.67 6.51c4.33 6.22 4.64 12.62 2.63 19.83a.7.69 24.6 0 0 .29.77c11.23 7.2 2.46 22.64-10.07 17.91q-.44-.17-.7.22l-2.88 4.31q-.41.61.32.6l20.96-.33q1.23-.02 1.23-1.24l.1-43.86a1.64 1.64 0 0 0-1.52-1.64q-5.62-.42-10.24 2.79-.38.26-.12.64Zm-29.31 5.25q.52 1.3 1.32 2.56a1.81 1.8-57.8 0 0 3.32-.76q.33-2.8 2.62-4.45a1.19 1.18 24.3 0 0-.81-2.14q-4.01.39-6.32 3.72-.35.5-.13 1.07ZM355.9 99.89l2.83 1.74a1.34 1.34 0 0 0 1.84-.44l.06-.11a4.5 2.08-58.5 0 0 .58-4.92l-1.57-.96a4.5 2.08-58.5 0 0-4.12 2.75l-.06.1a1.34 1.34 0 0 0 .44 1.84Zm1.36 5.25q-.08-.14-.35-.33a.39.39 0 0 1-.09-.55q1.56-2.15-.62-3.16a1.04 1.04 0 0 0-1.47.99q.21 4.72 3.9 7.52 1.84 1.39 1.67-.91c-.08-1.16.54-5.3-1.47-5.59q-.4-.06-.56.33l-.67 1.68a.19.19 0 0 1-.34.02Z"/><path fill="#5d5c4a" d="M311.02 70.21q-.48.39-1.43.37a.33.33 0 0 0-.29.5q.13.2.45.39-57.91.84-115.81.3c-24.07-.22-48.17.4-72.25.22Q60.84 71.54 0 71.79v-1.04q35.37-.24 70.75-.05c48.25.27 96.42-1.21 144.82-.34 11.39.2 27.02-.27 40.49-.16q27.46.24 54.96.01Z"/><path fill="#fbed40" d="M0 71.79q60.84-.25 121.69.2c24.08.18 48.18-.44 72.25-.22q57.9.54 115.81-.3 33.72-.02 67.43-.21c5.25-.03 13.97.5 21.04-.01 2.89-.21 4.73.16 4.22 3.58a1.04 1.04 0 0 1-1.63.7l-2.42-1.72a.81.79-38.4 0 0-.75-.08q-1.51.62-3.17.74c-2.55.18-4.53.94-6.79 1.7a1.76 1.75-47.2 0 1-.97.04c-1.82-.45-5.04-.51-4.18 2.54q-3.03 1.06-5.44 3.47a.62.61-48 0 1-.81.05c-6.93-5.26-16.02-5.33-21.84 1.6a1.21 1.2-28.2 0 0-.28.92q.5 4.38 3.27 7.8a.64.64 0 0 1-.03.84c-1.41 1.56-3.26 2.93-3.84 4.93q-2.78 9.54 6.91 13.12a1.04 1.03.7 0 1 .63.64q1.93 5.66 5.63 10.36.47.6-.29.59-57.64-.73-115.18-.34c-28.15-1.32-56.74-.66-84.95-.84q-16.93-.1-27.56.38-68.2-.04-136.4-.02c-.81 0-1.5-.27-2.35-.31V71.79Zm146.26 28.23c7.16.32 7.69-6.58 6.15-11.63-1.31-4.31-6.63-3.57-10.29-3.32q-.62.04-.62.66v22.92q0 .6.6.61l3.23.07q.42.01.42-.41v-8.41q0-.51.51-.49ZM159.07 95a.32.32 0 0 1-.32-.32v-5.36a.32.32 0 0 1 .32-.32h5.68a.32.32 0 0 0 .32-.33l-.1-3.36a.32.32 0 0 0-.32-.31h-9.83a.32.32 0 0 0-.32.32v23.64a.32.32 0 0 0 .32.32l9.85.03a.32.32 0 0 0 .32-.32l.03-2.92a.32.32 0 0 0-.32-.32h-5.63a.32.32 0 0 1-.32-.32v-6.11a.32.32 0 0 1 .32-.32h4.36a.32.32 0 0 0 .32-.32v-3.36a.32.32 0 0 0-.32-.32h-4.36Zm18.45 2.05q2.36-4.38.89-9c-1.24-3.92-6.75-3.21-10.3-2.97q-.61.04-.61.65v22.92q0 .6.6.61l3.23.07q.42.01.42-.41V99.8q0-.73.69-.49l1.65.58q.5.18.51.71l.21 8.09q.01.56.58.57l3.43.07q.36.01.35-.35c-.13-2.82.43-9.19-1.55-11.19q-.32-.33-.1-.74Zm7.87-8.06 1.08.26q.53.12.53.67v1.91q0 .57.57.54l3.08-.16q.5-.02.57-.52c1.05-7.1-7.63-9.27-11.03-3.39q-.26.44-.22.94c.11 1.67-.25 3.19.49 4.72 1.78 3.67 7.45 6.67 6.29 10.92a1.17 1.16-62.4 0 1-1.87.59q-1.27-1.06-.83-2.74a.58.57-82.3 0 0-.55-.73h-2.68q-.59 0-.71.57-.86 4.09 2.29 6.38.43.31.96.31c2.47-.03 5.95.67 7.21-2.19 4.26-9.62-8.11-11.78-6.03-17.62q.22-.6.85-.46Zm19.548 1.17a5.12 5.12 0 0 0-5.13-5.111l-1.46.002a5.12 5.12 0 0 0-5.11 5.13l.024 14a5.12 5.12 0 0 0 5.13 5.11l1.46-.002a5.12 5.12 0 0 0 5.11-5.13l-.024-14Zm9.812 4.75a.33.33 0 0 1-.65.08l-2.33-9.74a.33.33 0 0 0-.32-.25h-4.62a.33.33 0 0 0-.33.33v23.63a.33.33 0 0 0 .33.33h3.11a.33.33 0 0 0 .33-.33l-.02-11.83a.33.33 0 0 1 .64-.09l3.2 12.03a.33.33 0 0 0 .33.24l3.76-.09a.33.33 0 0 0 .32-.33V85.33a.33.33 0 0 0-.33-.33h-3.09a.33.33 0 0 0-.33.33v9.58Zm13 11.07q.35 1 .3 2.82-.02.58.56.55l3.57-.14q.44-.02.37-.45l-3.62-23.32q-.06-.44-.5-.44h-4.55q-.65 0-.75.64l-3.56 23.19q-.12.79.66.61 1.21-.28 2.48-.21a.79.78 18.3 0 0 .71-.35q.81-1.22.38-3.01a2.26 1.65 37.6 0 1 3.95.11Zm6.89-.41q-.16-.08-.34-.1-.55-.04-.55.51v2.53q0 .53.51.64c6.23 1.44 7.02-2.73 7-7.72q-.02-7.95-.01-15.92 0-.51-.51-.51h-3.21q-.61 0-.59.6.19 8.72-.04 17.32-.06 2.48-1.73 2.74-.28.04-.53-.09Zm13.5.22a.38.38 0 0 1-.39-.38v-6.03a.38.38 0 0 1 .38-.38h4.24a.38.38 0 0 0 .38-.38v-3.24a.38.38 0 0 0-.38-.38h-4.24a.38.38 0 0 1-.38-.38v-5.24a.38.38 0 0 1 .38-.38h5.46a.38.38 0 0 0 .38-.37l.1-3.24a.38.38 0 0 0-.38-.39h-9.81a.38.38 0 0 0-.38.38v23.67a.38.38 0 0 0 .38.38l9.95-.08a.38.38 0 0 0 .38-.42l-.31-2.93a.38.38 0 0 0-.39-.34l-5.37.13ZM262 90.28v1.53q0 .55.55.53l3.13-.07q.43-.01.49-.43c1.41-9.49-13.37-9.29-11.13.95.94 4.28 9.68 9.01 6.02 12.74a.7.69-52.2 0 1-.84.11q-1.67-.96-1.17-2.92a.57.57 0 0 0-.55-.72h-2.98q-.68 0-.74.68-.35 3.85 2.5 6.19.43.35.98.37c3.6.09 6.89.69 7.81-3.91 1.75-8.76-7.33-9.36-6.83-15.17a1.38 1.38 0 0 1 2.76.12Zm72.8 19.03q.79 1.37 2.38.34a.46.46 0 0 0-.18-.84q-.9-.13-1.95 0-.51.06-.25.5Zm70.69-31.26c-2.68-.92-1.48-3.45-2.22-5.37q-.5-1.28.88-1.27l13.39.13a1.2 1.19-10.8 0 1 1.09.74c.78 1.85-.51 2.38-2.07 2.34q-5.7-.13-10.24 3.3-.38.29-.83.13Z"/><path fill="#f8c79d" d="M386.99 95.25q.44 1.26 1.53.95.46-.13.06-.39-.72-.49-1.59-.56-.61-.56-.7-1.05a.71.71 0 0 1 .44-.78l2.62-1.05 1.35-.42c5.62-.5 7.84-13-3.38-11.42q-.53.08-.95-.24-1.75-1.34-3.84-1.54c.71-3.78 3.88.81 6.07-.01q.51-.19.6-.72.17-1.05.65-2.01a.43.43 0 0 1 .78.02l.64 1.49a.58.57-16.9 0 0 .64.34c6.31-1.24 3.74 5.75 7.12 4.52a1.08 1.07 74 0 0 .68-1.23q-.6-2.82-2.82-4.51-.4-.31-.88-.14-2.17.77-4.22.01a.43.43 0 0 1 .11-.83c1.77-.15 3.52-.79 5.11-.54q3.79.61 3.99 4.94a.67.67 0 0 0 .62.63l.38.03a.37.37 0 0 0 .36-.54l-.9-1.83a.95.94 3.9 0 1 1.38-1.2c6.47 4.38 6.49 14.61 4.91 21.34a.89.89 0 0 1-.83.69q-5.62.19-9.01 4.75a.39.39 0 0 0 .59.51q3.36-3.24 7.75-3.42c12.5-.51 7.23 22.21-7.97 14.33q-.33-.17-.33.2c.02 3.75-2.13 6.92-6.16 7.21-6.14.45-12.04-.18-18.3.33-11 .91-12.21-17.73-10.51-25.25q.14-.64.77-.45l2.35.68a.66.66 0 0 1 .45.82q-1.35 4.68-1.2 9.58a.72.72 0 0 0 1.24.47c3.09-3.25 12.97-9.83 17.33-5.33q.51.53.18 1.19l-3.21 6.47a.65.64 36 0 1-1.04.16l-3.06-3.13a.67.66-62.5 0 0-1.13.36c-.17 1.05-.52 8.82 1.32 8.84a.4.39-12.4 0 0 .36-.56q-1.45-3.11-.99-6.53a.76.76 0 0 1 1.36-.36q2.66 3.49 7.29 4.65c4.67 1.17 2.67-11.63-2.9-13.2-4.31-1.21-11.26 2.72-14.84 5.25a.42.42 0 0 1-.65-.45l1.84-7.14q.13-.53.67-.59c1.8-.2 7.81-1.47 8.13-3.58q.11-.69-.52-.37c-8.91 4.47-18.17-.34-21.14-9.6q-.15-.44.13-.81 2.67-3.65 7.24-4.09 10.36-.99 15.43 7.72.51.87 2 .61a1.19 1.18 61.1 0 1 1 .29q.93.84 1 2.13.03.5.34.88 1.75 2.15 4.26 3.48Zm-14.35-6.68a.27.27 0 0 0-.306-.228l-6.41.947a.27.27 0 0 0-.228.306l.064.435a.27.27 0 0 0 .306.228l6.41-.947a.27.27 0 0 0 .228-.306l-.064-.435Zm20.33 20.45c-2.48-10.72-14.61-20.85-25.54-16.71a.24.24 0 0 0 .1.47c2.28-.11 4.71-.72 6.76-.6 2.76.16 5.13 1.95 7.44 3.19 5.5 2.97 8.51 7.37 10.46 13.41q.11.35.5.49.37.14.28-.25Zm10.45 1.45-.94 2.19a.43.43 0 0 0 .39.6c3.86.05.9-5.56 5.83-3.87a.38.38 0 0 0 .47-.53c-.8-1.61-11.27.72-10.93 1.66q.16.44.59.24 1.97-.9 4.09-1 .82-.04.5.71Z"/><path fill="#fbed40" d="M409.57 99.02c2.01-7.21 1.7-13.61-2.63-19.83q-.26-.38.12-.64 4.62-3.21 10.24-2.79a1.64 1.64 0 0 1 1.52 1.64l-.1 43.86q0 1.22-1.23 1.24l-20.96.33q-.73.01-.32-.6l2.88-4.31q.26-.39.7-.22c12.53 4.73 21.3-10.71 10.07-17.91a.7.69 24.6 0 1-.29-.77Z"/><path fill="#faf6e9" d="M377.76 83.37q2.31-3.33 6.32-3.72a1.19 1.18 24.3 0 1 .81 2.14q-2.29 1.65-2.62 4.45a1.81 1.8-57.8 0 1-3.32.76q-.8-1.26-1.32-2.56-.22-.57.13-1.07Zm2.135 1.562a1.58 1.14 114.1 0 0 1.686-.977 1.58 1.14 114.1 0 0-.396-1.907 1.58 1.14 114.1 0 0-1.686.977 1.58 1.14 114.1 0 0 .396 1.907Z"/><path fill="#faf6e9" d="m390.7 91.95-1.35.42c-10.22 1.38-7.33-10.31-1.16-11.24 8-1.19 7.1 7.85 2.51 10.82Zm-4.501-3.725a2.31 1.55 105.6 0 0 2.114-1.808 2.31 1.55 105.6 0 0-.872-2.642 2.31 1.55 105.6 0 0-2.114 1.808 2.31 1.55 105.6 0 0 .872 2.642Z"/><ellipse cx="0.00" cy="0.00" rx="1.58" ry="1.14" transform="rotate(114.1 163.212 165.072)"/><ellipse cx="0.00" cy="0.00" rx="2.31" ry="1.55" transform="rotate(105.6 160.771 189.806)"/><path d="M145.75 100.51v8.41q0 .42-.42.41l-3.23-.07q-.6-.01-.6-.61V85.73q0-.62.62-.66c3.66-.25 8.98-.99 10.29 3.32 1.54 5.05 1.01 11.95-6.15 11.63q-.51-.02-.51.49Zm2.868-10.415a1.06 1.06 0 0 0-1.056-1.064l-.78-.002a1.06 1.06 0 0 0-1.064 1.056l-.016 4.8a1.06 1.06 0 0 0 1.056 1.064l.78.002a1.06 1.06 0 0 0 1.064-1.056l.016-4.8ZM159.07 95h4.36a.32.32 0 0 1 .32.32v3.36a.32.32 0 0 1-.32.32h-4.36a.32.32 0 0 0-.32.32v6.11a.32.32 0 0 0 .32.32h5.63a.32.32 0 0 1 .32.32l-.03 2.92a.32.32 0 0 1-.32.32l-9.85-.03a.32.32 0 0 1-.32-.32V85.32a.32.32 0 0 1 .32-.32h9.83a.32.32 0 0 1 .32.31l.1 3.36a.32.32 0 0 1-.32.33h-5.68a.32.32 0 0 0-.32.32v5.36a.32.32 0 0 0 .32.32Zm18.55 2.79c1.98 2 1.42 8.37 1.55 11.19q.01.36-.35.35l-3.43-.07q-.57-.01-.58-.57l-.21-8.09q-.01-.53-.51-.71l-1.65-.58q-.69-.24-.69.49v9.12q0 .42-.42.41l-3.23-.07q-.6-.01-.6-.61V85.73q0-.61.61-.65c3.55-.24 9.06-.95 10.3 2.97q1.47 4.62-.89 9-.22.41.1.74Zm-3.05-7.808a.91.91 0 0 0-.901-.918l-1-.008a.91.91 0 0 0-.918.902l-.042 4.72a.91.91 0 0 0 .903.918l1 .008a.91.91 0 0 0 .917-.902l.042-4.72Z"/><path d="M184.54 89.45c-2.08 5.84 10.29 8 6.03 17.62-1.26 2.86-4.74 2.16-7.21 2.19q-.53 0-.96-.31-3.15-2.29-2.29-6.38.12-.57.71-.57h2.68a.58.57-82.3 0 1 .55.73q-.44 1.68.83 2.74a1.17 1.16-62.4 0 0 1.87-.59c1.16-4.25-4.51-7.25-6.29-10.92-.74-1.53-.38-3.05-.49-4.72q-.04-.5.22-.94c3.4-5.88 12.08-3.71 11.03 3.39q-.07.5-.57.52l-3.08.16q-.57.03-.57-.54v-1.91q0-.55-.53-.67l-1.08-.26q-.63-.14-.85.46Zm20.422 14.71a5.12 5.12 0 0 1-5.11 5.129l-1.46.002a5.12 5.12 0 0 1-5.13-5.11l-.024-14a5.12 5.12 0 0 1 5.11-5.13l1.46-.002a5.12 5.12 0 0 1 5.13 5.11l.024 14Zm-4.264-13.603A1.56 1.56 0 0 0 199.135 89h-.08a1.56 1.56 0 0 0-1.557 1.563l.024 13.56a1.56 1.56 0 0 0 1.563 1.557h.08a1.56 1.56 0 0 0 1.557-1.563l-.024-13.56Zm14.052 4.353v-9.58a.33.33 0 0 1 .33-.33h3.09a.33.33 0 0 1 .33.33v23.56a.33.33 0 0 1-.32.33l-3.76.09a.33.33 0 0 1-.33-.24l-3.2-12.03a.33.33 0 0 0-.64.09l.02 11.83a.33.33 0 0 1-.33.33h-3.11a.33.33 0 0 1-.33-.33V85.33a.33.33 0 0 1 .33-.33h4.62a.33.33 0 0 1 .32.25l2.33 9.74a.33.33 0 0 0 .65-.08Zm13 11.07a2.26 1.65 37.6 0 0-3.95-.11q.43 1.79-.38 3.01a.79.78 18.3 0 1-.71.35q-1.27-.07-2.48.21-.78.18-.66-.61l3.56-23.19q.1-.64.75-.64h4.55q.44 0 .5.44l3.62 23.32q.07.43-.37.45l-3.57.14q-.58.03-.56-.55.05-1.82-.3-2.82Zm-2.55-4.96 1.42-.02a.32.32 0 0 0 .32-.32v-.18a7 .98 89.5 0 0-1.04-6.99h-.1a7 .98 89.5 0 0-.92 7.01v.18a.32.32 0 0 0 .32.32Zm9.97 4.64q1.67-.26 1.73-2.74.23-8.6.04-17.32-.02-.6.59-.6h3.21q.51 0 .51.51-.01 7.97.01 15.92c.02 4.99-.77 9.16-7 7.72q-.51-.11-.51-.64v-2.53q0-.55.55-.51.18.02.34.1.25.13.53.09Zm12.97.13 5.37-.13a.38.38 0 0 1 .39.34l.31 2.93a.38.38 0 0 1-.38.42l-9.95.08a.38.38 0 0 1-.38-.38V85.38a.38.38 0 0 1 .38-.38h9.81a.38.38 0 0 1 .38.39l-.1 3.24a.38.38 0 0 1-.38.37h-5.46a.38.38 0 0 0-.38.38v5.24a.38.38 0 0 0 .38.38h4.24a.38.38 0 0 1 .38.38v3.24a.38.38 0 0 1-.38.38h-4.24a.38.38 0 0 0-.38.38v6.03a.38.38 0 0 0 .39.38Z"/><path d="M262 90.28a1.38 1.38 0 0 0-2.76-.12c-.5 5.81 8.58 6.41 6.83 15.17-.92 4.6-4.21 4-7.81 3.91q-.55-.02-.98-.37-2.85-2.34-2.5-6.19.06-.68.74-.68h2.98a.57.57 0 0 1 .55.72q-.5 1.96 1.17 2.92a.7.69-52.2 0 0 .84-.11c3.66-3.73-5.08-8.46-6.02-12.74-2.24-10.24 12.54-10.44 11.13-.95q-.06.42-.49.43l-3.13.07q-.55.02-.55-.53v-1.53Z"/><rect width="7.02" height="0.98" x="-3.51" y="-0.49" rx="0.27" transform="rotate(-8.4 792.617 -2469.124)"/><rect width="2.90" height="6.92" x="-1.45" y="-3.46" fill="#fbed40" rx="1.06" transform="rotate(.2 -26422.826 42204.437)"/><rect width="2.82" height="6.54" x="-1.41" y="-3.27" fill="#fbed40" rx="0.91" transform="rotate(.5 -10493.602 19886.422)"/><rect width="3.20" height="16.68" x="-1.60" y="-8.34" fill="#fbed40" rx="1.56" transform="rotate(-.1 55871.253 -114032.928)"/><path d="M367.43 92.31c10.93-4.14 23.06 5.99 25.54 16.71q.09.39-.28.25-.39-.14-.5-.49c-1.95-6.04-4.96-10.44-10.46-13.41-2.31-1.24-4.68-3.03-7.44-3.19-2.05-.12-4.48.49-6.76.6a.24.24 0 0 1-.1-.47Z"/><path fill="#fbed40" d="M225.2 101.02a.32.32 0 0 1-.32-.32v-.18a7 .98 89.5 0 1 .92-7.01h.1a7 .98 89.5 0 1 1.04 6.99v.18a.32.32 0 0 1-.32.32l-1.42.02Z"/><path fill="#f8c79d" d="M355.9 99.89a1.34 1.34 0 0 1-.44-1.84l.06-.1a4.5 2.08-58.5 0 1 4.12-2.75l1.57.96a4.5 2.08-58.5 0 1-.58 4.92l-.06.11a1.34 1.34 0 0 1-1.84.44l-2.83-1.74Z"/><path d="M386.99 95.25q.87.07 1.59.56.4.26-.06.39-1.09.31-1.53-.95Z"/><path fill="#f8c79d" d="m357.6 105.12.67-1.68q.16-.39.56-.33c2.01.29 1.39 4.43 1.47 5.59q.17 2.3-1.67.91-3.69-2.8-3.9-7.52a1.04 1.04 0 0 1 1.47-.99q2.18 1.01.62 3.16a.39.39 0 0 0 .09.55q.27.19.35.33a.19.19 0 0 0 .34-.02Z"/><path d="M402.92 109.76q-2.12.1-4.09 1-.43.2-.59-.24c-.34-.94 10.13-3.27 10.93-1.66a.38.38 0 0 1-.47.53c-4.93-1.69-1.97 3.92-5.83 3.87a.43.43 0 0 1-.39-.6l.94-2.19q.32-.75-.5-.71Z"/><path fill="#f1d76d" d="M335.05 108.81q1.05-.13 1.95 0a.46.46 0 0 1 .18.84q-1.59 1.03-2.38-.34-.26-.44.25-.5Z"/><path fill="#5a561e" d="M251.26 122.73q-.95.41-1.01 1.51-16.66.45-33.31.1c-26.16-.54-52.33-.32-78.49-.5q.89-1.02.3-1.57 10.63-.48 27.56-.38c28.21.18 56.8-.48 84.95.84Z"/><path d="M0 121.94c.85.04 1.54.31 2.35.31q68.2-.02 136.4.02.59.55-.3 1.57L0 123.57v-1.63Z"/><path fill="#5d5c4a" d="M263.32 130.42q.63-1.22 1.69-.32a.57.57 0 0 1-.2.97l-.75.23a.62.62 0 0 1-.74-.88Z"/></svg>