<svg width="55" height="56" viewBox="0 0 55 56" fill="none" xmlns="http://www.w3.org/2000/svg">
<rect width="54.7" height="56" fill="#FBED40"/>
<path d="M11.5103 30.7603C11.4929 30.6841 11.4489 30.6165 11.3863 30.5696C11.3237 30.5228 11.2464 30.4997 11.1683 30.5045C11.0903 30.5093 11.0164 30.5417 10.96 30.5959C10.9036 30.6501 10.8683 30.7225 10.8603 30.8003L10.9403 49.8003C10.9432 50.0128 10.8634 50.218 10.7179 50.3729C10.5724 50.5277 10.3725 50.62 10.1603 50.6303L6.70032 50.7903C6.27365 50.8103 6.05365 50.6037 6.04032 50.1703L5.00031 5.75034C4.99747 5.6568 5.01396 5.56367 5.04877 5.47679C5.08357 5.38991 5.13595 5.31115 5.20259 5.24544C5.26924 5.17973 5.34873 5.12849 5.4361 5.09492C5.52346 5.06135 5.61681 5.04617 5.71031 5.05035L12.2803 5.36035C12.6536 5.38035 12.857 5.57368 12.8903 5.94035L14.5003 21.1203C14.5118 21.1961 14.5478 21.2659 14.6028 21.3192C14.6578 21.3725 14.7288 21.4063 14.8049 21.4154C14.8809 21.4245 14.9579 21.4084 15.0239 21.3695C15.0899 21.3307 15.1413 21.2712 15.1703 21.2003C15.2036 21.087 15.2303 20.9537 15.2503 20.8003C15.717 15.8203 16.0803 10.827 16.3403 5.82035C16.3603 5.42701 16.567 5.22701 16.9603 5.22035L23.6603 5.00034C23.7382 4.99766 23.8157 5.01068 23.8884 5.03862C23.9611 5.06656 24.0274 5.10886 24.0834 5.16299C24.1394 5.21712 24.1839 5.28196 24.2143 5.35367C24.2447 5.42537 24.2604 5.50247 24.2603 5.58035L24.9103 50.3003C24.913 50.4366 24.8622 50.5684 24.7687 50.6676C24.6752 50.7667 24.5465 50.8251 24.4103 50.8303L20.6203 51.0503C20.1203 51.077 19.8603 50.8403 19.8403 50.3403L19.0503 31.0003C19.037 30.687 18.887 30.5803 18.6003 30.6803C18.5203 30.7103 17.0003 48.4903 16.7903 50.3403C16.7503 50.727 16.5336 50.9003 16.1403 50.8603L14.1003 50.6403C13.707 50.6003 13.4936 50.3837 13.4603 49.9903C12.9336 43.5703 12.2836 37.1603 11.5103 30.7603Z" fill="#DE2321"/>
<path d="M32.6256 31.8612L32.9556 24.4312C32.9612 24.2449 33.0183 24.0634 33.1205 23.9065C33.2228 23.7495 33.3663 23.6232 33.5356 23.5412C34.8089 22.9346 36.1823 22.8379 37.6556 23.2512C37.9756 23.3446 38.1156 23.5546 38.0756 23.8812C37.1756 32.2879 36.0556 39.9679 34.7156 46.9212C34.0356 50.4546 31.8889 51.9146 28.2756 51.3012C27.9089 51.2346 27.7289 51.0179 27.7356 50.6512L27.8156 47.5712C27.8218 47.3795 27.8816 47.194 27.9878 47.0363C28.0941 46.8787 28.2425 46.7555 28.4156 46.6812L30.2456 45.8812C30.4256 45.8016 30.5723 45.6628 30.66 45.4892C30.7478 45.3155 30.771 45.1181 30.7256 44.9312L26.0256 24.5712C25.9389 24.1979 26.0723 23.9279 26.4256 23.7612C27.7123 23.1546 28.9923 23.1379 30.2656 23.7112C30.6056 23.8646 30.7989 24.1279 30.8456 24.5012C31.1389 26.9812 31.4923 29.4479 31.9056 31.9012C31.9109 31.9967 31.9539 32.0862 32.0252 32.1499C32.0964 32.2137 32.1901 32.2465 32.2856 32.2412C32.3811 32.2359 32.4705 32.1929 32.5343 32.1217C32.5981 32.0504 32.6309 31.9567 32.6256 31.8612Z" fill="#DE2321"/>
<path d="M46.04 10.8203L46.01 22.6403C46.0085 22.8034 46.0666 22.9615 46.1734 23.0849C46.2802 23.2082 46.4283 23.2884 46.59 23.3103L48.95 23.6203C49.1066 23.6414 49.2508 23.7173 49.3569 23.8344C49.463 23.9515 49.5243 24.1023 49.53 24.2603L49.64 27.5903C49.6443 27.7537 49.5887 27.9129 49.4837 28.0382C49.3787 28.1634 49.2316 28.246 49.07 28.2703L46.61 28.6503C46.4537 28.6763 46.3116 28.7569 46.2091 28.8777C46.1066 28.9986 46.0502 29.1518 46.05 29.3103L45.95 50.1303C45.95 50.308 45.8794 50.4784 45.7538 50.6041C45.6281 50.7297 45.4577 50.8003 45.28 50.8003H40.7C40.5223 50.8003 40.3519 50.7297 40.2262 50.6041C40.1006 50.4784 40.03 50.308 40.03 50.1303L40 5.6703C40 5.5806 40.0179 5.49181 40.0528 5.4092C40.0878 5.32658 40.1389 5.25181 40.2033 5.18932C40.2676 5.12684 40.3438 5.07791 40.4275 5.04544C40.5111 5.01297 40.6003 4.99762 40.69 5.0003L49.05 5.2203C49.1407 5.22275 49.2299 5.24358 49.3123 5.28153C49.3946 5.31949 49.4684 5.37376 49.5292 5.44108C49.59 5.5084 49.6365 5.58736 49.6658 5.67317C49.6952 5.75898 49.7068 5.84986 49.7 5.9403L49.43 9.2903C49.4172 9.44445 49.3514 9.58943 49.2439 9.70062C49.1364 9.81181 48.9937 9.88236 48.84 9.9003L46.63 10.1503C46.4665 10.17 46.316 10.2491 46.2072 10.3727C46.0983 10.4963 46.0388 10.6556 46.04 10.8203Z" fill="#DE2321"/>
</svg>
