<svg xmlns="http://www.w3.org/2000/svg" viewBox="0.00 0.00 720.00 71.00"><g fill="none" stroke-width="2.00"><path stroke="#f9dfc3" d="M404.811 4.97a1.33.59 80 0 0 .35-1.412 1.33.59 80 0 0-.812-1.208 1.33.59 80 0 0-.35 1.413 1.33.59 80 0 0 .812 1.207" vector-effect="non-scaling-stroke"/><path stroke="#adaa9e" d="M607.75 8.17q-45.09-.42-90.18.09c-18.65.21-37.57-.51-56.41-.04-12.24.3-23.76.12-35.66.17-35.15.18-70.3-.14-105.45.05-79.76.43-159.53.1-239.3.31" vector-effect="non-scaling-stroke"/><path stroke="#7d7b75" d="M80.75 8.75c-23.5.01-46.96.17-70.45-.46q-.59-.01-.55.57.1 1.29-.53 2.45-.25.47-.15 1.01c.68 3.6.11 8.04.15 10.59q.15 9.92.32 19.84" vector-effect="non-scaling-stroke"/><path stroke="#9f9a81" d="m9.54 42.75-.03 16.59a2.34 2.3-34.5 0 1-.17.87l-.69 1.68a.5.5 0 0 0 .65.65q.9-.38 1.33-1.33.21-.46.72-.47c5.74-.03 11.33.42 17.09.18 7.51-.32 16.08.34 22.41.33q27.92-.04 55.84.26c50.88.55 101.93.37 152.82.25q36.15-.09 72.3-.44 9.75-.09 19.5-.05 72.57.32 145.13.8 39.04.26 55.56.07" vector-effect="non-scaling-stroke"/><path stroke="#7d7b75" d="M552 62.14c51.27-.39 102.6-.27 153.87.12 2.64.02 5.3.36 5.22-3.25q-.47-20.2-.3-41.13a.87.87 0 0 1 1.64-.41l1.26 2.35q.34.64.49-.07c.74-3.42-1.23-4.48-3.44-6.34a.71.71 0 0 1-.18-.84q.97-2.08-.3-4a.95.95 0 0 0-.8-.44l-16.27-.1q-.46-.01-.75-.36-4.52-5.55-11.51-2.89c-.72.28-1.13.83-.86 1.58a.57.56 69 0 0 .75.34q5.36-2.25 10.36.59a.55.55 0 0 1-.28 1.03l-83.15-.15" vector-effect="non-scaling-stroke"/><path stroke="#221f0c" d="M552 62.14q-.97 0-.5-1.38" vector-effect="non-scaling-stroke"/><path stroke="#7e7722" d="m551.5 60.76 106.04.3a.32.32 0 0 0 .25-.51q-3.76-4.76-5.69-10.51a1.09 1.08-1 0 0-.72-.69c-8.13-2.36-10.39-12.33-3.31-17.4a1.1 1.1 0 0 0 .21-1.59q-2.86-3.5-3.11-8-.03-.57.39-.96 10.28-9.39 21.74-1.12.39.28.75-.05 2.25-2.03 4.86-3.08" vector-effect="non-scaling-stroke"/><path stroke="#7c644f" d="M672.91 17.15q2.65-.26 4.51 1.12.4.3.87.18c9.14-2.25 10.72 8.99 3.93 11.39" vector-effect="non-scaling-stroke"/><path stroke="#7d7b75" d="M682.22 29.84q4.88-4.94 1.82-9.72a1.34 1.33-9.3 0 0-.77-.55c-11.25-3.01-13.28 13.28-2.98 10.68" vector-effect="non-scaling-stroke"/><path stroke="#7c644f" d="m680.29 30.25-2.35 1.2q-.6.31-.28.9.78 1.42 2.67 1.4a.2.2 0 0 1 .05.4q-2.02.46-2.71-1.26-.18-.46-.66-.63-3.42-1.19-3.99-4.77a1.2 1.2 0 0 0-1.61-.93c-2.02.77-4.19-4.47-5.95-5.6-4.93-3.17-14.38-4.94-18.38.94a2.42 2.4 50.7 0 0-.22 2.29c3.35 8 12.52 13.33 20.69 8.34q.43-.27.62.2c.86 2.17-6.31 3.65-8 3.87q-.58.08-.73.64l-1.86 7.06a.45.45 0 0 0 .7.48c3.62-2.55 10.95-6.84 15.36-5.09 4.37 1.75 5.37 7.98 4.56 12.19a1.26 1.26 0 0 1-1.51.99q-5.02-1.14-8.36-4.98a.51.51 0 0 0-.89.25q-.71 3.82 1.09 7.26a.3.29-87.6 0 1-.42.39c-2.33-1.52-1.68-7.61-1.41-9.59a.47.46 30 0 1 .83-.22q1.52 1.94 3.57 3.33a.72.72 0 0 0 1.06-.29l2.88-6.26a.98.98 0 0 0-.13-1.02c-3.99-4.82-14.24 2.12-17.29 5.16a.92.92 0 0 1-1.56-.78l1.3-9.3q.04-.26-.16-.44c-1.9-1.69-3.19-1.11-3.59 1.36q-1.32 8.19 2.24 17.21c2.82 7.15 6.12 5.95 13.71 6.05q7.45.1 14.91-.24.54-.02.95-.37 1.9-1.6 3.14-3.72a3.62 3.49-24.3 0 0 .38-.95q.18-.83-.04-1.45-.41-1.12.69-.66 6.41 2.65 11.04-.54c9.97-6.9-1.16-20.4-10.96-10.7a.41.41 0 0 1-.63-.52q3.23-4.55 8.79-4.66a1.04 1.03-83.9 0 0 .99-.81c1.32-5.89 1.64-18.41-5.34-21.12a.75.74.6 0 0-.97.95l.82 2.21a.25.25 0 0 1-.23.33h-.37q-.22.01-.27-.21-1.79-7.75-9.46-4.52a.36.36 0 0 0 0 .66q1.94.8 3.8-.21a.91.91 0 0 1 .98.07q2.51 1.89 2.92 5.16.08.59-.52.64l-1.51.13a.66.66 0 0 1-.72-.62q-.25-4.93-5.21-3.95-.57.11-.65-.46l-.14-1.05q-.07-.49-.55-.39-1.28.27-1.15 1.59a1.27 1.27 0 0 1-1.85 1.25l-3.56-1.85a.72.72 0 0 0-1.05.59l-.05.67q-.01.17-.15.07-.19-.15-.27-.33" vector-effect="non-scaling-stroke"/><path stroke="#7e7722" d="M673.32 15.99c-.67-2.25 3.26-2.06 4.58-1.8q.48.1.94-.07 2.68-.99 5.47-1.64c1.4-.33 2.57.33 4.04-.89q.33-.28.69-.03l3.02 2.17a.94.94 0 0 0 1.48-.9l-.37-2.61q-.09-.62-.72-.64-34.23-.61-68.46-.03" vector-effect="non-scaling-stroke"/><path stroke="#7b773f" d="m623.99 9.55-16.24.1" vector-effect="non-scaling-stroke"/><path stroke="#302f29" d="M607.75 9.65V8.17" vector-effect="non-scaling-stroke"/><path stroke="#f9dfc3" d="m680.29 30.25 1.93-.41" vector-effect="non-scaling-stroke"/><path stroke="#aba668" d="M607.75 9.65c-63.66-.04-127.34.22-191 .35" vector-effect="non-scaling-stroke"/><path stroke="#aea54b" d="M416.75 10q-41.43 0-82.87-.03c-5.87-.01-13.48-.68-20.27-.48q-12 .36-12.12.36c-73.58.36-147.16.07-220.74.15" vector-effect="non-scaling-stroke"/><path stroke="#302f29" d="M80.75 10V8.75" vector-effect="non-scaling-stroke"/><path stroke="#fada70" d="m673.32 15.99-.41 1.16" vector-effect="non-scaling-stroke"/><path stroke="#9f962e" d="M551.5 60.76c-39.62-.58-79.34-1.16-118.96-.54-54.29.85-108.67-.5-162.98-.06-20.02.15-40.04-.56-60.06-.23-27.19.43-54.35-.03-81.55.28-.44 0-1.14-.36-1.51-.35q-42.22.37-85.91.09-.68 0-.7-.68l-.34-15.21" vector-effect="non-scaling-stroke"/><path stroke="#aea54b" d="M37.76 19.51q-1.01-1.08-1.98-1.35" vector-effect="non-scaling-stroke"/><path stroke="#f9ee60" d="M416.75 10q.7.46 1.12 1.12.26.4.72.45c8.48.96 18.59.14 25.24.27 14.43.27 28.89-.33 43.3.24 5.34.21 10.7-1.09 16.61-.56q1.03.09 1.67-.82.3-.42.81-.42c4.6-.06 10.92-.49 12.22.63q.31.26.72.27l10.72.26q.46.01.86-.21 3.45-1.84 6.98-.76 2.97.9 4.14.97c15.01.94 30.33.21 44.88.48q17.95.32 35.91-.86.52-.03.78-.49l.56-1.02" vector-effect="non-scaling-stroke"/><path stroke="#9f9a81" d="m38.54 43.67.06 15.44q.01.68-.67.66l-3.1-.07q-.45-.01-.6-.43-2.54-7.04-2.07-14.53.03-.48-.03-.78a.61.61 0 0 0-1.2.04q-.94 8.55-6.26 15.31-.34.44-.9.44H11.03a.5.49-90 0 1-.49-.5l-.02-15.95" vector-effect="non-scaling-stroke"/><path stroke="#7e7722" d="M80.75 10 11.4 9.77q-.64 0-.7.63l-.16 1.73q-.07.64.57.52 7.79-1.44 15.57.07.47.09.92-.04l1.71-.48q.5-.14.61.37.42 1.97 2.11 2.95.52.3.92-.14 1.85-1.98 4.57-2.06a1.54 1.54 0 0 1 1.55 1.27c.32 1.87-2.22 1.81-3.34 2.03q-.52.1-.5.63.03.55.55.91" vector-effect="non-scaling-stroke"/><path stroke="#302f29" d="M35.78 18.16q-.37.33-.51.85" vector-effect="non-scaling-stroke"/><path stroke="#786936" d="M35.27 19.01q-.55.65.17 1.44.35.38.76.08l.35-.26" vector-effect="non-scaling-stroke"/><path stroke="#302f29" d="M36.55 20.27q.43-.78 1.21-.76" vector-effect="non-scaling-stroke"/><path stroke="#7e7722" d="M37.76 19.51q1.39-.8 2.85-.78.54.01.93.37l2.6 2.34a.79.79 0 0 0 .83.14q3.4-1.42 6.36.64a.71.7 40.6 0 0 .88-.06c2.91-2.66 6.92-1.86 8.62 1.53.57 1.16.59 2.89.97 4.3a.95.94-89.6 0 0 .63.65c4.88 1.51 8.95 4.45 7.03 10.09-2.03 5.94-8.52 8.23-14.51 8.78q-7.82.72-14.76-3.68-.27-.18-.7.23" vector-effect="non-scaling-stroke"/><path stroke="#221f0c" d="m39.49 44.06-.95-.39" vector-effect="non-scaling-stroke"/><path stroke="#7d7b75" d="M38.54 43.67q-.97-1.53-2.72-2.66a1.43 1.4 58 0 0-.91-.22q-11.79 1.16-23.65.23-.56-.05-.73.49-.21.66-.01 1.79" vector-effect="non-scaling-stroke"/><path stroke="#221f0c" d="M10.52 43.3q-.5-.75-.98-.55" vector-effect="non-scaling-stroke"/><path stroke="#a8985f" d="M36.55 20.27q.06-1.12-1.28-1.26" vector-effect="non-scaling-stroke"/><path stroke="#adaa9e" d="M553.92 68.93q-.37 1.31.78.59l1.41-.87a.47.47 0 0 0-.16-.86q-1.62-.32-2.03 1.14" vector-effect="non-scaling-stroke"/><path stroke="#7b773f" d="M709.59 11.86c.69-1.79-.48-2.33-2-2.31q-6.32.06-12.7-.23a.59.59 0 0 0-.61.67l.53 4.47a1.75 1.75 0 0 0 2.73 1.23q4.95-3.42 10.85-3.07a1.2 1.2 0 0 0 1.2-.76" vector-effect="non-scaling-stroke"/><path stroke="#7e7722" d="M698.02 17.23c4.7 6.89 3.94 12.17 2.59 19.94q-.08.49.35.74c4.9 2.82 6.35 8.14 3.68 13.16q-4.1 7.71-14 4.67a.54.54 0 0 0-.61.22l-2.85 4.41q-.31.49.27.48l21.26-.23a1.07 1.06-.6 0 0 1.05-1.06q-.03-20.7.01-41.63c0-1.13.9-3.83-1.28-4.21q-5.14-.89-10.36 2.86-.37.27-.11.65" vector-effect="non-scaling-stroke"/><path stroke="#7d7b75" d="m671.5 26.32 4.79-7.49a.18.18 0 0 0-.06-.24l-.06-.05a4.62 4.58 32.6 0 0-6.36 1.37l-.05.07a4.62 4.58 32.6 0 0 1.43 6.35l.06.04a.18.18 0 0 0 .25-.05" vector-effect="non-scaling-stroke"/><path stroke="#7c644f" d="m646.71 37.57 3.2 2.16a1.09 1.09 0 0 0 1.51-.29l.07-.11a4.82 2.48-55.9 0 0 .65-5.38l-.89-.6a4.82 2.48-55.9 0 0-4.76 2.6l-.07.11a1.09 1.09 0 0 0 .29 1.51m1.3 5.46q-.09-1.03.34-2 .21-.46-.01-.91-.59-1.18-1.98-1.13-.61.02-.61.63-.07 5.67 4.62 8.46a.68.68 0 0 0 1.03-.63l-.32-5.47a.99.99 0 0 0-1.93-.26q-.26.76-.55 1.41a.31.31 0 0 1-.59-.1M25.57 17.57l.12-2.61a.59.59 0 0 0-.85-.56q-1.42.7-1.97 2.39-.23.68-.27-.04l-.13-2.12q-.03-.43-.46-.49-5.47-.72-10.8.54a.76.76 0 0 0-.59.66q-.67 6.4-.08 12.78.05.53.58.6l2.56.34q.66.08.86-.55l1.64-5.17a.48.48 0 0 0-.55-.61q-1.25.24-2.07 1.28a.47.46 47.6 0 1-.76-.04q-.52-.79-.27-1.78.12-.49.6-.64 3.29-.98 6.71-.35a.37.37 0 0 1 .02.72l-1.71.46q-.64.17-.82.8l-1.36 4.8a.8.8 0 0 0 .77 1.02h10.74a.63.63 0 0 0 .62-.77c-.75-3.5-1.12-9.32 3.55-10.35a.51.51 0 0 0 .1-.97l-2.57-1.15q-.48-.22-.8.21l-1.5 2.06a.73.72-25.6 0 1-1.31-.46" vector-effect="non-scaling-stroke"/><path stroke="#7d7b75" d="M33.11 29.02q.2.05.39.02.54-.1.48-.64l-.3-2.85a1.19 1.18 33.4 0 1 2.31-.47q.46 1.47.21 3.05a.6.59 1.9 0 0 .64.68l3.05-.24q.68-.06.79-.73.46-2.77 2.21-4.9.34-.41.07-.86-.83-1.41-2.31-2.12-.45-.21-.92-.09-2.22.59-2.42 2.96a.85.85 0 0 1-1.68.08q-.45-2.57-2.83-3.81-.41-.22-.86-.08c-3.84 1.21-3.27 5.97-2.41 9.11q.14.51.67.58.99.12 2.01.11.12 0 .9.2m15.274 9.36a8.04 5 90.4 0 0 5.056-8.005 8.04 5 90.4 0 0-4.944-8.075 8.04 5 90.4 0 0-5.056 8.005 8.04 5 90.4 0 0 4.944 8.075" vector-effect="non-scaling-stroke"/><path stroke="#7d7b75" d="m55.57 29.31 3.97-.87a.75.75 0 0 0 .57-.89l-.63-2.91a2.81 2.69 77.7 0 0-3.23-2.17l-.17.03a2.81 2.69 77.7 0 0-2.03 3.32l.63 2.91a.75.75 0 0 0 .89.58" vector-effect="non-scaling-stroke"/><path stroke="#7c644f" d="M47.31 39.69c-5.47-.19-5.92-4.25-7.02-8.44q-.09-.37-.48-.36l-21.87.58a.76.75 79.7 0 0-.69 1c3.05 8.99 9.61 7.27 17.31 6.77q.51-.03.94.25c8.12 5.32 22.37 8.12 30.86 1.46 2.1-1.64 3.1-4.19 2.02-6.64-1.88-4.22-9.23-4.35-13-3.5q-.49.11-.61.61c-.93 4.1-3.21 8.42-7.46 8.27M11 40.11l5.85-.73a.21.21 0 0 0 .19-.23l-.24-1.91a6.39 1.72 82.9 0 0-2.5-6.13l-2.86.36a6.39 1.72 82.9 0 0-.91 6.55l.23 1.91a.21.21 0 0 0 .24.18" vector-effect="non-scaling-stroke"/><path stroke="#ed8832" d="M311.036 16.108a4.97 4.97 0 0 0-4.874-5.065l-4.079-.078a4.97 4.97 0 0 0-5.064 4.874l-.695 36.173a4.97 4.97 0 0 0 4.874 5.065l4.079.078a4.97 4.97 0 0 0 5.064-4.874l.695-36.173m7.644 21.842 2.05 18.71q.06.55.61.55l5.05.06q.65 0 .66-.65l.81-44.58q.01-.65-.64-.67l-3.96-.09q-.74-.02-.76.72l-.41 15.72a.1.1 0 0 1-.03.07q-.87.88-1.03-.8-.68-7.34-1.58-15.05a.76.75 86.6 0 0-.75-.67h-5.33q-.54 0-.55.55l-.6 44.37q-.02 1.04 1.03 1.05l3.75.02q.74 0 .7-.73-.44-9.35.31-18.57a.34.34 0 0 1 .67-.01m-33.31-10.26a.33.33 0 0 1-.65-.03l-1.04-14.96q-.06-.93-.99-.94l-6.35-.12q-.78-.01-.78.77l-.4 44.3a.81.8-79.2 0 0 .52.77c1.71.66 5.28.88 4.84-2.23q-.54-3.79.06-18.38 0-.05.05-.07.14-.06.26-.06.11-.01.13.11l2.02 19.56q.06.62.61.92 1.29.72 2.49.05.4-.22.44-.68l1.58-18.92q.02-.28.3-.28h.43a.35.35 0 0 1 .36.35V56.9q0 .57.57.62l3.92.29a.7.69 1.9 0 0 .75-.7q-.27-19.77.67-39.43c.08-1.53-.28-3.15-.13-4.77a1.06 1.06 0 0 0-1.06-1.16h-5.65a1.37 1.37 0 0 0-1.37 1.3q-.39 7.37-1.58 14.64m-178.9-10.984a4.95 4.95 0 0 0-5.045-4.854l-4.399.085a4.95 4.95 0 0 0-4.854 5.044l.699 36.373a4.95 4.95 0 0 0 5.044 4.854l4.399-.084a4.95 4.95 0 0 0 4.854-5.045l-.699-36.373m46.541-3.766.22 43.7a1.18 1.18 0 0 0 1.19 1.17l7.61-.04a5.82 5.43 89.7 0 0 5.4-5.85l-.18-34.42a5.82 5.43 89.7 0 0-5.46-5.79l-7.61.04a1.18 1.18 0 0 0-1.17 1.19m22.96 3.82 1.81-.03q.57-.01.63-.58l.34-3.22a1.07 1.07 0 0 0-1.07-1.18l-7.51.01a1.13 1.13 0 0 0-1.13 1.14l.28 44.06q.01.56.57.58l7.91.3a.88.88 0 0 0 .91-.9l-.06-3.42q-.01-.65-.66-.59-2.8.24-2.76-3.18.1-6.63.25-13.29c.03-.88.32-1.71 1.4-1.17a1.09 1.09 0 0 0 1.5-.58q.83-2.14 0-4.19a.63.62-20.4 0 0-.79-.36c-1.58.54-2.23.02-2.31-1.62q-.27-5.64.11-11.23.04-.54.58-.55m14.26 40.22c1.2-3.56-.96-3.43-2.98-4.61q-.46-.27-.46-.81l-.17-39.07q0-.62-.63-.64l-4.74-.14a.79.78.4 0 0-.81.79l.32 44.38q.01.62.62.62h8.12q.55 0 .73-.52m15.468-40.222a4.89 4.89 0 0 0-4.898-4.882l-4.16.008a4.89 4.89 0 0 0-4.882 4.898l.064 36.34a4.89 4.89 0 0 0 4.898 4.882l4.16-.008a4.89 4.89 0 0 0 4.882-4.898l-.064-36.34m44.438-4.093a.8.8 0 0 0-.796-.804l-4.18-.022a.8.8 0 0 0-.804.796l-.232 44.18a.8.8 0 0 0 .796.804l4.18.022a.8.8 0 0 0 .804-.796l.232-44.18m2.574 44.805 8.16.04q.63.01.63-.63V53.6a.78.78 0 0 0-.66-.77l-2.01-.32q-.58-.1-.58-.68V12.75q0-.54-.52-.68-2.53-.68-5.02-.02a.69.68 82.2 0 0-.5.66l.06 44.32a.44.44 0 0 0 .44.44m17.33-28.27-.1-11.89q-.01-.51.5-.53l2.28-.09a.65.64.5 0 0 .61-.59l.3-3.64a.68.67-88.4 0 0-.68-.73l-8.2.11a.72.72 0 0 0-.71.72l-.18 43.99a.95.95 0 0 0 .95.95h7.58q.83 0 .83-.83v-3.08q0-.64-.63-.73l-2.26-.35q-.58-.09-.58-.68V35.99q0-1.18 1.14-.89c2.69.69 3.04-2.64 2.39-4.26a.91.9 85.1 0 0-.66-.56l-2.06-.45a.66.66 0 0 1-.52-.63M133.12 17.17l1.73-.49q.62-.18.6-.83l-.1-3.07a.82.81-1.1 0 0-.83-.79l-10.18.22a.77.77 0 0 0-.73.63q-.59 3.32 2.22 4.54.5.22.52.77.41 19.65 1 39.3.02.66.67.62l4.8-.28a.58.58 0 0 0 .55-.59l-.72-39.39a.65.65 0 0 1 .47-.64m11.31 30.89c1.31 1.31 1.11 7.23 1.1 9.11a.55.55 0 0 0 .55.56l5-.01a.52.52 0 0 0 .52-.56l-3.21-44.25q-.06-.89-.96-.89l-7.77.03q-.72 0-.76.72l-2.83 44.37a.83.82-89.1 0 0 .85.88l4.58-.17q.63-.03.67-.66l.44-8.43a1.07 1.07 0 0 1 1.82-.7m94.34-30.28a.71.71 0 0 1 .63-.7l2.16-.24a.71.71 0 0 0 .63-.66l.2-3.28a.71.71 0 0 0-.69-.76l-8.24-.21a.71.71 0 0 0-.73.71l.03 44.39a.71.71 0 0 0 .71.71l4.57.02a.71.71 0 0 0 .71-.71V36.29a.71.71 0 0 1 .6-.7l2.42-.38a.71.71 0 0 0 .6-.73l-.11-3.26a.71.71 0 0 0-.62-.68l-2.28-.3a.71.71 0 0 1-.62-.7l.03-11.76M85.42 38.36q.44 9.47.73 18.94.02.53.53.69 2.23.69 4.37-.26a.71.71 0 0 0 .43-.67l-.81-44.29q-.01-.59-.59-.57l-6.61.18q-.64.02-.68.65l-1.04 15.24a.42.41 44.1 0 1-.83.01l-1.6-15.12q-.07-.59-.66-.63l-6.15-.35a1.04 1.03-89 0 0-1.09 1.06l1.04 44.1q.02.62.64.62l3.51-.05q.76-.01.76-.77l-.06-19.36q-.01-.86.37-.08.3.61.41 1.74.84 8.5 1.74 17 .22 2.12 3.03 1.48.52-.12.56-.64l1.48-18.93a.26.26 0 0 1 .52.01" vector-effect="non-scaling-stroke"/><path stroke="#ed8832" d="m109.95 58.03 4.57.04q.62 0 .59-.62c-.12-2.6-1.07-17.56.21-18.65a1.08 1.08 0 0 1 1.79.8l.23 17.69q.01.68.69.68l4.54-.05q.67 0 .7-.68c.23-6.43.99-17.5-1.98-21.62q-.36-.49.02-.98l.83-1.06q.34-.45.39-1.02c.27-3.48 1.85-19.63-3.27-20.07q-5.41-.47-10.49.14a.74.73-4.3 0 0-.65.75l1.05 43.89a.78.78 0 0 0 .78.76" vector-effect="non-scaling-stroke"/><path stroke="#7e7722" d="M439.26 38.01q6.43.18 6.86-6.21c.6-8.9-3.98-9.2-11-8.74q-.62.05-.62.67v22.93q0 .66.66.66h3.18q.41 0 .41-.41v-8.4q0-.51.51-.5M452.09 33a.34.34 0 0 1-.34-.34v-5.32a.34.34 0 0 1 .34-.34h5.64a.34.34 0 0 0 .34-.35l-.1-3.32a.34.34 0 0 0-.34-.33h-9.79a.34.34 0 0 0-.34.34v23.8a.34.34 0 0 0 .34.34l9.98.04a.34.34 0 0 0 .34-.36l-.22-3.21a.34.34 0 0 0-.35-.32l-5.49.17a.34.34 0 0 1-.35-.34v-6.12a.34.34 0 0 1 .34-.34h4.32a.34.34 0 0 0 .34-.34v-3.32a.34.34 0 0 0-.34-.34h-4.32m12.66 5.53a1.41 1.41 0 0 1 2.82-.04l.25 8.3q.02.45.47.45l3.45.02q.46.01.43-.45c-.19-3.17.52-8.63-1.56-11.11q-.31-.37-.06-.78 2.45-4.18.9-8.71c-1.43-4.16-6.87-3.37-10.31-3.17q-.64.04-.64.68v22.91q0 .58.57.61l3.21.18a.44.44 0 0 0 .47-.44v-8.45" vector-effect="non-scaling-stroke"/><path stroke="#7e7722" d="M480 28.24v1.74q0 .47.47.44l3.19-.18q.29-.02.36-.3c1.94-8.18-10.05-9.52-11.01-2.43-1.01 7.43 8.68 10.53 6.62 15.43a1.31 1.31 0 0 1-2.51-.38l-.19-1.99a.64.62 86.9 0 0-.62-.57h-2.5q-.61 0-.72.59-.74 3.93 2.2 6.31a1.5 1.47-24.7 0 0 .95.34c2.42.03 5.93.67 7.24-2.02 4.57-9.44-6.83-10.88-6.23-17.12a1.38 1.38 0 0 1 2.75.14m17.948-.05a5.15 5.15 0 0 0-5.16-5.141l-1.42.002a5.15 5.15 0 0 0-5.14 5.16l.024 13.94a5.15 5.15 0 0 0 5.16 5.14l1.42-.002a5.15 5.15 0 0 0 5.14-5.16l-.024-13.94m9.262 5.291-2.42-9.98q-.12-.5-.63-.5h-4.04q-.62 0-.62.63V46.7q0 .63.63.61l2.77-.08q.37-.01.37-.38l.02-11.83a.26.25-53.8 0 1 .5-.08q1.8 5.87 3.15 11.86.1.45.56.45h3.5q.5 0 .5-.5V23.5q0-.5-.5-.5h-2.75q-.5 0-.5.5l-.01 9.92a.27.27 0 0 1-.53.06m13.27 9.55a.34.34 0 0 1 .33.31l.27 3.64a.34.34 0 0 0 .34.32l3.83-.05a.34.34 0 0 0 .33-.4l-3.69-23.56a.34.34 0 0 0-.33-.29h-5.03a.34.34 0 0 0-.33.29l-3.66 23.68a.34.34 0 0 0 .36.39l3.42-.16a.34.34 0 0 0 .32-.29l.49-3.62a.34.34 0 0 1 .34-.3l3.01.04m7 .49q-.17-.06-.35.02-.38.15-.38.56v2.38q0 .45.43.56c6.39 1.63 7.09-2.56 7.08-7.62q-.02-7.95-.01-15.91 0-.51-.51-.51h-3.14q-.59 0-.59.59l-.05 18.66a1.93 1.51 11 0 1-2.48 1.27m13.27-6.07a.45.45 0 0 1 .45-.45h4.1a.45.45 0 0 0 .45-.45v-3.1a.45.45 0 0 0-.45-.45h-4.1a.45.45 0 0 1-.45-.45v-5.1a.45.45 0 0 1 .45-.45h5.27a.45.45 0 0 0 .45-.42l.18-3.1a.45.45 0 0 0-.45-.48h-9.7a.45.45 0 0 0-.45.45v23.34a.45.45 0 0 0 .45.45l9.74.07a.45.45 0 0 0 .45-.49l-.23-2.77a.45.45 0 0 0-.47-.42l-5.23.17a.45.45 0 0 1-.46-.45v-5.9M555 28.06v1.92q0 .47.48.44l3.18-.18q.3-.02.36-.31c2-8.46-11-9.63-11.17-1.4-.13 6.55 8.56 9.5 6.87 14.3a1.37 1.36-37.2 0 1-2.65-.36l-.11-1.88a.63.63 0 0 0-.63-.59h-3.01q-.45 0-.5.44c-1.06 8.45 10.25 9.46 11.39 2.59.6-3.62-.39-5.71-3-8.46-1.66-1.74-5.08-4.34-3.71-7.09a1.32 1.32 0 0 1 2.5.58" vector-effect="non-scaling-stroke"/><path stroke="#ed8832" d="M219.53 38.22q-.66-3.64-1.04-7.31-.06-.57-.57-.8-1.92-.88-3.86.04-.53.25-.4.82l4.71 20.36a.86.86 0 0 1-.49.98l-1.66.72q-.44.19-.61.64-.65 1.83-.02 3.59a.73.73 0 0 0 .69.49h2.7q.48 0 .82-.33c3.05-3.01 2.76-5.64 3.46-9.51q1.56-8.71 2.43-17.58.06-.59-.52-.75-2.29-.6-4.09.46-.47.28-.49.83l-.31 7.3a.38.38 0 0 1-.75.05" vector-effect="non-scaling-stroke"/><path stroke="#f5e058" d="M628.537 47.571a1.69.63 11.3 0 0-1.534-.949 1.69.63 11.3 0 0-1.78.287 1.69.63 11.3 0 0 1.534.949 1.69.63 11.3 0 0 1.78-.287" vector-effect="non-scaling-stroke"/><path stroke="#ea894f" d="M305.154 17.037a1.08 1.08 0 0 0-1.058-1.102l-.06-.002a1.08 1.08 0 0 0-1.102 1.058l-.708 33.792a1.08 1.08 0 0 0 1.058 1.102l.06.002a1.08 1.08 0 0 0 1.102-1.057l.708-33.793" vector-effect="non-scaling-stroke"/><path stroke="#e77b47" d="M100.627 18.203a1.05 1.05 0 0 0-1.07-1.03h-.04a1.05 1.05 0 0 0-1.03 1.07l.646 33.634a1.05 1.05 0 0 0 1.07 1.03h.04a1.05 1.05 0 0 0 1.03-1.07l-.646-33.634m60.558-.185a1.08 1.08 0 0 0-1.093-1.067h-.06a1.08 1.08 0 0 0-1.067 1.094l.41 33.537a1.08 1.08 0 0 0 1.093 1.067h.06a1.08 1.08 0 0 0 1.067-1.094l-.41-33.537m38.475-.25a.94.94 0 0 0-.941-.938h-.06a.94.94 0 0 0-.939.942l.06 34.26a.94.94 0 0 0 .941.938h.06a.94.94 0 0 0 .939-.942l-.06-34.26" vector-effect="non-scaling-stroke"/><path stroke="#e77b47" d="M143.15 42.49h1.18a.27.27 0 0 0 .27-.26v-.17a17.3.84-89.6 0 0-.72-17.31h-.04a17.3.84-89.6 0 0-.96 17.29v.17a.27.27 0 0 0 .27.28m-26.762-24.661a.95.95 0 0 0-.972-.928l-.1.002a.95.95 0 0 0-.928.971l.304 13.417a.95.95 0 0 0 .972.928l.1-.002a.95.95 0 0 0 .928-.971l-.304-13.417" vector-effect="non-scaling-stroke"/><path stroke="#9e835b" d="M663.49 26.18c-1.29.17-6.51.55-6.94 1.75q-.15.45.32.39l5.86-.82a1.29 1.28-71.7 0 0 .75-.38l.56-.59" vector-effect="non-scaling-stroke"/><path stroke="#f4cd85" d="M664.04 26.53q.91-.79.68-1.57-.11-.38-.34-.05l-.89 1.27" vector-effect="non-scaling-stroke"/><path stroke="#998842" d="M664.04 26.53q-.02-.29-.55-.35" vector-effect="non-scaling-stroke"/><path stroke="#7c644f" d="M683.91 47.11c-2.51-11.23-14.97-20.93-25.67-16.81a.38.38 0 0 0 .23.73c3.55-.84 6.34-1.23 9.86.07q10.98 4.06 14.89 15.62.14.4.46.57.31.16.23-.18m10.37 1.44-.87 2.1a.49.49 0 0 0 .56.67q2.55-.53 2.51-3.29-.01-.63.63-.67l2.74-.16q.44-.03.26-.44c-.65-1.5-8.99.68-10.69 1.32q-.53.2-.12.58c.1.09 3.91-.75 4.57-.73a.46.45 11.7 0 1 .41.62" vector-effect="non-scaling-stroke"/><path stroke="#7d7b75" d="M670.968 22.92a1.51 1.15 113.9 0 0 1.663-.914 1.51 1.15 113.9 0 0-.44-1.846 1.51 1.15 113.9 0 0-1.662.914 1.51 1.15 113.9 0 0 .44 1.846M38.962 27.642a1.74 1.1 78 0 0 .714-1.93 1.74 1.1 78 0 0-1.438-1.474 1.74 1.1 78 0 0-.714 1.93 1.74 1.1 78 0 0 1.438 1.474m638.241-1.42a2.29 1.57 105.9 0 0 2.137-1.772 2.29 1.57 105.9 0 0-.883-2.632 2.29 1.57 105.9 0 0-2.137 1.772 2.29 1.57 105.9 0 0 .883 2.632" vector-effect="non-scaling-stroke"/><path stroke="#7e7722" d="M441.604 27.983a.93.93 0 0 0-.928-.932l-1.02-.002a.93.93 0 0 0-.932.928l-.008 5.04a.93.93 0 0 0 .928.932l1.02.002a.93.93 0 0 0 .932-.928l.008-5.04m25.969.017a.92.92 0 0 0-.907-.933l-.98-.014a.92.92 0 0 0-.933.907l-.066 4.7a.92.92 0 0 0 .907.933l.98.013a.92.92 0 0 0 .933-.907l.066-4.7m26.149.564A1.56 1.56 0 0 0 492.165 27h-.08a1.56 1.56 0 0 0-1.563 1.557l-.024 13.56a1.56 1.56 0 0 0 1.557 1.563h.08a1.56 1.56 0 0 0 1.563-1.557l.024-13.56M518.29 39h1.3a.43.43 0 0 0 .42-.44v-.17a6.64.99 89.6 0 0-1.04-6.63h-.18a6.64.99 89.6 0 0-.94 6.65v.17a.43.43 0 0 0 .44.42" vector-effect="non-scaling-stroke"/><path stroke="#9f9a81" d="m31.2 59.83 1.32-.18a.27.27 0 0 0 .23-.31l-.01-.1a5.67.81 82 0 0-1.59-5.5l-.26.04a5.67.81 82 0 0-.01 5.73l.01.09a.27.27 0 0 0 .31.23" vector-effect="non-scaling-stroke"/><path stroke="#9f9a81" d="m26.34 59.66 1.14.42a.41.41 0 0 0 .53-.25l.06-.16a3.04.86-70 0 0 .23-3.15l-.3-.11a3.04.86-70 0 0-1.85 2.57l-.06.16a.41.41 0 0 0 .25.52" vector-effect="non-scaling-stroke"/></g><path fill="#faf6e9" d="M0 0h720v71H0V0Zm404.811 4.97a1.33.59 80 0 0 .35-1.412 1.33.59 80 0 0-.812-1.208 1.33.59 80 0 0-.35 1.413 1.33.59 80 0 0 .812 1.207Zm202.939 3.2q-45.09-.42-90.18.09c-18.65.21-37.57-.51-56.41-.04-12.24.3-23.76.12-35.66.17-35.15.18-70.3-.14-105.45.05-79.76.43-159.53.1-239.3.31-23.5.01-46.96.17-70.45-.46q-.59-.01-.55.57.1 1.29-.53 2.45-.25.47-.15 1.01c.68 3.6.11 8.04.15 10.59q.15 9.92.32 19.84l-.03 16.59a2.34 2.3-34.5 0 1-.17.87l-.69 1.68a.5.5 0 0 0 .65.65q.9-.38 1.33-1.33.21-.46.72-.47c5.74-.03 11.33.42 17.09.18 7.51-.32 16.08.34 22.41.33q27.92-.04 55.84.26c50.88.55 101.93.37 152.82.25q36.15-.09 72.3-.44 9.75-.09 19.5-.05 72.57.32 145.13.8 39.04.26 55.56.07c51.27-.39 102.6-.27 153.87.12 2.64.02 5.3.36 5.22-3.25q-.47-20.2-.3-41.13a.87.87 0 0 1 1.64-.41l1.26 2.35q.34.64.49-.07c.74-3.42-1.23-4.48-3.44-6.34a.71.71 0 0 1-.18-.84q.97-2.08-.3-4a.95.95 0 0 0-.8-.44l-16.27-.1q-.46-.01-.75-.36-4.52-5.55-11.51-2.89c-.72.28-1.13.83-.86 1.58a.57.56 69 0 0 .75.34q5.36-2.25 10.36.59a.55.55 0 0 1-.28 1.03l-83.15-.15Zm-53.83 60.76q-.37 1.31.78.59l1.41-.87a.47.47 0 0 0-.16-.86q-1.62-.32-2.03 1.14Z"/><ellipse cx="0.00" cy="0.00" fill="#f8c79d" rx="1.33" ry="0.59" transform="rotate(80 200.11 242.91)"/><path d="M552 62.14q-.97 0-.5-1.38l106.04.3a.32.32 0 0 0 .25-.51q-3.76-4.76-5.69-10.51a1.09 1.08-1 0 0-.72-.69c-8.13-2.36-10.39-12.33-3.31-17.4a1.1 1.1 0 0 0 .21-1.59q-2.86-3.5-3.11-8-.03-.57.39-.96 10.28-9.39 21.74-1.12.39.28.75-.05 2.25-2.03 4.86-3.08 2.65-.26 4.51 1.12.4.3.87.18c9.14-2.25 10.72 8.99 3.93 11.39q4.88-4.94 1.82-9.72a1.34 1.33-9.3 0 0-.77-.55c-11.25-3.01-13.28 13.28-2.98 10.68l-2.35 1.2q-.6.31-.28.9.78 1.42 2.67 1.4a.2.2 0 0 1 .05.4q-2.02.46-2.71-1.26-.18-.46-.66-.63-3.42-1.19-3.99-4.77a1.2 1.2 0 0 0-1.61-.93c-2.02.77-4.19-4.47-5.95-5.6-4.93-3.17-14.38-4.94-18.38.94a2.42 2.4 50.7 0 0-.22 2.29c3.35 8 12.52 13.33 20.69 8.34q.43-.27.62.2c.86 2.17-6.31 3.65-8 3.87q-.58.08-.73.64l-1.86 7.06a.45.45 0 0 0 .7.48c3.62-2.55 10.95-6.84 15.36-5.09 4.37 1.75 5.37 7.98 4.56 12.19a1.26 1.26 0 0 1-1.51.99q-5.02-1.14-8.36-4.98a.51.51 0 0 0-.89.25q-.71 3.82 1.09 7.26a.3.29-87.6 0 1-.42.39c-2.33-1.52-1.68-7.61-1.41-9.59a.47.46 30 0 1 .83-.22q1.52 1.94 3.57 3.33a.72.72 0 0 0 1.06-.29l2.88-6.26a.98.98 0 0 0-.13-1.02c-3.99-4.82-14.24 2.12-17.29 5.16a.92.92 0 0 1-1.56-.78l1.3-9.3q.04-.26-.16-.44c-1.9-1.69-3.19-1.11-3.59 1.36q-1.32 8.19 2.24 17.21c2.82 7.15 6.12 5.95 13.71 6.05q7.45.1 14.91-.24.54-.02.95-.37 1.9-1.6 3.14-3.72a3.62 3.49-24.3 0 0 .38-.95q.18-.83-.04-1.45-.41-1.12.69-.66 6.41 2.65 11.04-.54c9.97-6.9-1.16-20.4-10.96-10.7a.41.41 0 0 1-.63-.52q3.23-4.55 8.79-4.66a1.04 1.03-83.9 0 0 .99-.81c1.32-5.89 1.64-18.41-5.34-21.12a.75.74.6 0 0-.97.95l.82 2.21a.25.25 0 0 1-.23.33h-.37q-.22.01-.27-.21-1.79-7.75-9.46-4.52a.36.36 0 0 0 0 .66q1.94.8 3.8-.21a.91.91 0 0 1 .98.07q2.51 1.89 2.92 5.16.08.59-.52.64l-1.51.13a.66.66 0 0 1-.72-.62q-.25-4.93-5.21-3.95-.57.11-.65-.46l-.14-1.05q-.07-.49-.55-.39-1.28.27-1.15 1.59a1.27 1.27 0 0 1-1.85 1.25l-3.56-1.85a.72.72 0 0 0-1.05.59l-.05.67q-.01.17-.15.07-.19-.15-.27-.33c-.67-2.25 3.26-2.06 4.58-1.8q.48.1.94-.07 2.68-.99 5.47-1.64c1.4-.33 2.57.33 4.04-.89q.33-.28.69-.03l3.02 2.17a.94.94 0 0 0 1.48-.9l-.37-2.61q-.09-.62-.72-.64-34.23-.61-68.46-.03l-16.24.1V8.17l83.15.15a.55.55 0 0 0 .28-1.03q-5-2.84-10.36-.59a.57.56 69 0 1-.75-.34c-.27-.75.14-1.3.86-1.58q6.99-2.66 11.51 2.89.29.35.75.36l16.27.1a.95.95 0 0 1 .8.44q1.27 1.92.3 4a.71.71 0 0 0 .18.84c2.21 1.86 4.18 2.92 3.44 6.34q-.15.71-.49.07l-1.26-2.35a.87.87 0 0 0-1.64.41q-.17 20.93.3 41.13c.08 3.61-2.58 3.27-5.22 3.25-51.27-.39-102.6-.51-153.87-.12Zm157.59-50.28c.69-1.79-.48-2.33-2-2.31q-6.32.06-12.7-.23a.59.59 0 0 0-.61.67l.53 4.47a1.75 1.75 0 0 0 2.73 1.23q4.95-3.42 10.85-3.07a1.2 1.2 0 0 0 1.2-.76Zm-11.57 5.37c4.7 6.89 3.94 12.17 2.59 19.94q-.08.49.35.74c4.9 2.82 6.35 8.14 3.68 13.16q-4.1 7.71-14 4.67a.54.54 0 0 0-.61.22l-2.85 4.41q-.31.49.27.48l21.26-.23a1.07 1.06-.6 0 0 1.05-1.06q-.03-20.7.01-41.63c0-1.13.9-3.83-1.28-4.21q-5.14-.89-10.36 2.86-.37.27-.11.65Zm-26.52 9.09 4.79-7.49a.18.18 0 0 0-.06-.24l-.06-.05a4.62 4.58 32.6 0 0-6.36 1.37l-.05.07a4.62 4.58 32.6 0 0 1.43 6.35l.06.04a.18.18 0 0 0 .25-.05Zm-24.79 11.25 3.2 2.16a1.09 1.09 0 0 0 1.51-.29l.07-.11a4.82 2.48-55.9 0 0 .65-5.38l-.89-.6a4.82 2.48-55.9 0 0-4.76 2.6l-.07.11a1.09 1.09 0 0 0 .29 1.51Zm1.3 5.46q-.09-1.03.34-2 .21-.46-.01-.91-.59-1.18-1.98-1.13-.61.02-.61.63-.07 5.67 4.62 8.46a.68.68 0 0 0 1.03-.63l-.32-5.47a.99.99 0 0 0-1.93-.26q-.26.76-.55 1.41a.31.31 0 0 1-.59-.1Z"/><path fill="#605d52" d="M607.75 8.17v1.48c-63.66-.04-127.34.22-191 .35q-41.43 0-82.87-.03c-5.87-.01-13.48-.68-20.27-.48q-12 .36-12.12.36c-73.58.36-147.16.07-220.74.15V8.75c79.77-.21 159.54.12 239.3-.31 35.15-.19 70.3.13 105.45-.05 11.9-.05 23.42.13 35.66-.17 18.84-.47 37.76.25 56.41.04q45.09-.51 90.18-.09Z"/><path d="M80.75 8.75V10L11.4 9.77q-.64 0-.7.63l-.16 1.73q-.07.64.57.52 7.79-1.44 15.57.07.47.09.92-.04l1.71-.48q.5-.14.61.37.42 1.97 2.11 2.95.52.3.92-.14 1.85-1.98 4.57-2.06a1.54 1.54 0 0 1 1.55 1.27c.32 1.87-2.22 1.81-3.34 2.03q-.52.1-.5.63.03.55.55.91-.37.33-.51.85-.55.65.17 1.44.35.38.76.08l.35-.26q.43-.78 1.21-.76 1.39-.8 2.85-.78.54.01.93.37l2.6 2.34a.79.79 0 0 0 .83.14q3.4-1.42 6.36.64a.71.7 40.6 0 0 .88-.06c2.91-2.66 6.92-1.86 8.62 1.53.57 1.16.59 2.89.97 4.3a.95.94-89.6 0 0 .63.65c4.88 1.51 8.95 4.45 7.03 10.09-2.03 5.94-8.52 8.23-14.51 8.78q-7.82.72-14.76-3.68-.27-.18-.7.23l-.95-.39q-.97-1.53-2.72-2.66a1.43 1.4 58 0 0-.91-.22q-11.79 1.16-23.65.23-.56-.05-.73.49-.21.66-.01 1.79-.5-.75-.98-.55-.17-9.92-.32-19.84c-.04-2.55.53-6.99-.15-10.59q-.1-.54.15-1.01.63-1.16.53-2.45-.04-.58.55-.57c23.49.63 46.95.47 70.45.46Zm-55.18 8.82.12-2.61a.59.59 0 0 0-.85-.56q-1.42.7-1.97 2.39-.23.68-.27-.04l-.13-2.12q-.03-.43-.46-.49-5.47-.72-10.8.54a.76.76 0 0 0-.59.66q-.67 6.4-.08 12.78.05.53.58.6l2.56.34q.66.08.86-.55l1.64-5.17a.48.48 0 0 0-.55-.61q-1.25.24-2.07 1.28a.47.46 47.6 0 1-.76-.04q-.52-.79-.27-1.78.12-.49.6-.64 3.29-.98 6.71-.35a.37.37 0 0 1 .02.72l-1.71.46q-.64.17-.82.8l-1.36 4.8a.8.8 0 0 0 .77 1.02h10.74a.63.63 0 0 0 .62-.77c-.75-3.5-1.12-9.32 3.55-10.35a.51.51 0 0 0 .1-.97l-2.57-1.15q-.48-.22-.8.21l-1.5 2.06a.73.72-25.6 0 1-1.31-.46Zm7.54 11.45q.2.05.39.02.54-.1.48-.64l-.3-2.85a1.19 1.18 33.4 0 1 2.31-.47q.46 1.47.21 3.05a.6.59 1.9 0 0 .64.68l3.05-.24q.68-.06.79-.73.46-2.77 2.21-4.9.34-.41.07-.86-.83-1.41-2.31-2.12-.45-.21-.92-.09-2.22.59-2.42 2.96a.85.85 0 0 1-1.68.08q-.45-2.57-2.83-3.81-.41-.22-.86-.08c-3.84 1.21-3.27 5.97-2.41 9.11q.14.51.67.58.99.12 2.01.11.12 0 .9.2Zm15.274 9.36a8.04 5 90.4 0 0 5.056-8.005 8.04 5 90.4 0 0-4.944-8.075 8.04 5 90.4 0 0-5.056 8.005 8.04 5 90.4 0 0 4.944 8.075Zm7.186-9.07 3.97-.87a.75.75 0 0 0 .57-.89l-.63-2.91a2.81 2.69 77.7 0 0-3.23-2.17l-.17.03a2.81 2.69 77.7 0 0-2.03 3.32l.63 2.91a.75.75 0 0 0 .89.58Zm-8.26 10.38c-5.47-.19-5.92-4.25-7.02-8.44q-.09-.37-.48-.36l-21.87.58a.76.75 79.7 0 0-.69 1c3.05 8.99 9.61 7.27 17.31 6.77q.51-.03.94.25c8.12 5.32 22.37 8.12 30.86 1.46 2.1-1.64 3.1-4.19 2.02-6.64-1.88-4.22-9.23-4.35-13-3.5q-.49.11-.61.61c-.93 4.1-3.21 8.42-7.46 8.27ZM11 40.11l5.85-.73a.21.21 0 0 0 .19-.23l-.24-1.91a6.39 1.72 82.9 0 0-2.5-6.13l-2.86.36a6.39 1.72 82.9 0 0-.91 6.55l.23 1.91a.21.21 0 0 0 .24.18Z"/><path fill="#fbed43" d="m673.32 15.99-.41 1.16q-2.61 1.05-4.86 3.08-.36.33-.75.05-11.46-8.27-21.74 1.12-.42.39-.39.96.25 4.5 3.11 8a1.1 1.1 0 0 1-.21 1.59c-7.08 5.07-4.82 15.04 3.31 17.4a1.09 1.08-1 0 1 .72.69q1.93 5.75 5.69 10.51a.32.32 0 0 1-.25.51l-106.04-.3c-39.62-.58-79.34-1.16-118.96-.54-54.29.85-108.67-.5-162.98-.06-20.02.15-40.04-.56-60.06-.23-27.19.43-54.35-.03-81.55.28-.44 0-1.14-.36-1.51-.35q-42.22.37-85.91.09-.68 0-.7-.68l-.34-15.21q.43-.41.7-.23 6.94 4.4 14.76 3.68c5.99-.55 12.48-2.84 14.51-8.78 1.92-5.64-2.15-8.58-7.03-10.09a.95.94-89.6 0 1-.63-.65c-.38-1.41-.4-3.14-.97-4.3-1.7-3.39-5.71-4.19-8.62-1.53a.71.7 40.6 0 1-.88.06q-2.96-2.06-6.36-.64a.79.79 0 0 1-.83-.14l-2.6-2.34q-.39-.36-.93-.37-1.46-.02-2.85.78-1.01-1.08-1.98-1.35-.52-.36-.55-.91-.02-.53.5-.63c1.12-.22 3.66-.16 3.34-2.03a1.54 1.54 0 0 0-1.55-1.27q-2.72.08-4.57 2.06-.4.44-.92.14-1.69-.98-2.11-2.95-.11-.51-.61-.37l-1.71.48q-.45.13-.92.04-7.78-1.51-15.57-.07-.64.12-.57-.52l.16-1.73q.06-.63.7-.63l69.35.23c73.58-.08 147.16.21 220.74-.15q.12 0 12.12-.36c6.79-.2 14.4.47 20.27.48q41.44.03 82.87.03.7.46 1.12 1.12.26.4.72.45c8.48.96 18.59.14 25.24.27 14.43.27 28.89-.33 43.3.24 5.34.21 10.7-1.09 16.61-.56q1.03.09 1.67-.82.3-.42.81-.42c4.6-.06 10.92-.49 12.22.63q.31.26.72.27l10.72.26q.46.01.86-.21 3.45-1.84 6.98-.76 2.97.9 4.14.97c15.01.94 30.33.21 44.88.48q17.95.32 35.91-.86.52-.03.78-.49l.56-1.02q34.23-.58 68.46.03.63.02.72.64l.37 2.61a.94.94 0 0 1-1.48.9l-3.02-2.17q-.36-.25-.69.03c-1.47 1.22-2.64.56-4.04.89q-2.79.65-5.47 1.64-.46.17-.94.07c-1.32-.26-5.25-.45-4.58 1.8Zm-362.284.118a4.97 4.97 0 0 0-4.874-5.065l-4.079-.078a4.97 4.97 0 0 0-5.064 4.874l-.695 36.173a4.97 4.97 0 0 0 4.874 5.065l4.079.078a4.97 4.97 0 0 0 5.064-4.874l.695-36.173Zm7.644 21.842 2.05 18.71q.06.55.61.55l5.05.06q.65 0 .66-.65l.81-44.58q.01-.65-.64-.67l-3.96-.09q-.74-.02-.76.72l-.41 15.72a.1.1 0 0 1-.03.07q-.87.88-1.03-.8-.68-7.34-1.58-15.05a.76.75 86.6 0 0-.75-.67h-5.33q-.54 0-.55.55l-.6 44.37q-.02 1.04 1.03 1.05l3.75.02q.74 0 .7-.73-.44-9.35.31-18.57a.34.34 0 0 1 .67-.01Zm-33.31-10.26a.33.33 0 0 1-.65-.03l-1.04-14.96q-.06-.93-.99-.94l-6.35-.12q-.78-.01-.78.77l-.4 44.3a.81.8-79.2 0 0 .52.77c1.71.66 5.28.88 4.84-2.23q-.54-3.79.06-18.38 0-.05.05-.07.14-.06.26-.06.11-.01.13.11l2.02 19.56q.06.62.61.92 1.29.72 2.49.05.4-.22.44-.68l1.58-18.92q.02-.28.3-.28h.43a.35.35 0 0 1 .36.35V56.9q0 .57.57.62l3.92.29a.7.69 1.9 0 0 .75-.7q-.27-19.77.67-39.43c.08-1.53-.28-3.15-.13-4.77a1.06 1.06 0 0 0-1.06-1.16h-5.65a1.37 1.37 0 0 0-1.37 1.3q-.39 7.37-1.58 14.64Zm-178.9-10.984a4.95 4.95 0 0 0-5.045-4.854l-4.399.085a4.95 4.95 0 0 0-4.854 5.044l.699 36.373a4.95 4.95 0 0 0 5.044 4.854l4.399-.084a4.95 4.95 0 0 0 4.854-5.045l-.699-36.373Zm46.54-3.766.22 43.7a1.18 1.18 0 0 0 1.19 1.17l7.61-.04a5.82 5.43 89.7 0 0 5.4-5.85l-.18-34.42a5.82 5.43 89.7 0 0-5.46-5.79l-7.61.04a1.18 1.18 0 0 0-1.17 1.19Zm22.96 3.82 1.81-.03q.57-.01.63-.58l.34-3.22a1.07 1.07 0 0 0-1.07-1.18l-7.51.01a1.13 1.13 0 0 0-1.13 1.14l.28 44.06q.01.56.57.58l7.91.3a.88.88 0 0 0 .91-.9l-.06-3.42q-.01-.65-.66-.59-2.8.24-2.76-3.18.1-6.63.25-13.29c.03-.88.32-1.71 1.4-1.17a1.09 1.09 0 0 0 1.5-.58q.83-2.14 0-4.19a.63.62-20.4 0 0-.79-.36c-1.58.54-2.23.02-2.31-1.62q-.27-5.64.11-11.23.04-.54.58-.55Zm14.26 40.22c1.2-3.56-.96-3.43-2.98-4.61q-.46-.27-.46-.81l-.17-39.07q0-.62-.63-.64l-4.74-.14a.79.78.4 0 0-.81.79l.32 44.38q.01.62.62.62h8.12q.55 0 .73-.52Zm15.468-40.222a4.89 4.89 0 0 0-4.898-4.882l-4.16.008a4.89 4.89 0 0 0-4.882 4.898l.064 36.34a4.89 4.89 0 0 0 4.898 4.882l4.16-.008a4.89 4.89 0 0 0 4.882-4.898l-.064-36.34Zm44.438-4.093a.8.8 0 0 0-.796-.804l-4.18-.022a.8.8 0 0 0-.804.796l-.232 44.18a.8.8 0 0 0 .796.804l4.18.022a.8.8 0 0 0 .804-.796l.232-44.18Zm2.574 44.805 8.16.04q.63.01.63-.63V53.6a.78.78 0 0 0-.66-.77l-2.01-.32q-.58-.1-.58-.68V12.75q0-.54-.52-.68-2.53-.68-5.02-.02a.69.68 82.2 0 0-.5.66l.06 44.32a.44.44 0 0 0 .44.44Zm17.33-28.27-.1-11.89q-.01-.51.5-.53l2.28-.09a.65.64.5 0 0 .61-.59l.3-3.64a.68.67-88.4 0 0-.68-.73l-8.2.11a.72.72 0 0 0-.71.72l-.18 43.99a.95.95 0 0 0 .95.95h7.58q.83 0 .83-.83v-3.08q0-.64-.63-.73l-2.26-.35q-.58-.09-.58-.68V35.99q0-1.18 1.14-.89c2.69.69 3.04-2.64 2.39-4.26a.91.9 85.1 0 0-.66-.56l-2.06-.45a.66.66 0 0 1-.52-.63ZM133.12 17.17l1.73-.49q.62-.18.6-.83l-.1-3.07a.82.81-1.1 0 0-.83-.79l-10.18.22a.77.77 0 0 0-.73.63q-.59 3.32 2.22 4.54.5.22.52.77.41 19.65 1 39.3.02.66.67.62l4.8-.28a.58.58 0 0 0 .55-.59l-.72-39.39a.65.65 0 0 1 .47-.64Zm11.31 30.89c1.31 1.31 1.11 7.23 1.1 9.11a.55.55 0 0 0 .55.56l5-.01a.52.52 0 0 0 .52-.56l-3.21-44.25q-.06-.89-.96-.89l-7.77.03q-.72 0-.76.72l-2.83 44.37a.83.82-89.1 0 0 .85.88l4.58-.17q.63-.03.67-.66l.44-8.43a1.07 1.07 0 0 1 1.82-.7Zm94.34-30.28a.71.71 0 0 1 .63-.7l2.16-.24a.71.71 0 0 0 .63-.66l.2-3.28a.71.71 0 0 0-.69-.76l-8.24-.21a.71.71 0 0 0-.73.71l.03 44.39a.71.71 0 0 0 .71.71l4.57.02a.71.71 0 0 0 .71-.71V36.29a.71.71 0 0 1 .6-.7l2.42-.38a.71.71 0 0 0 .6-.73l-.11-3.26a.71.71 0 0 0-.62-.68l-2.28-.3a.71.71 0 0 1-.62-.7l.03-11.76ZM85.42 38.36q.44 9.47.73 18.94.02.53.53.69 2.23.69 4.37-.26a.71.71 0 0 0 .43-.67l-.81-44.29q-.01-.59-.59-.57l-6.61.18q-.64.02-.68.65l-1.04 15.24a.42.41 44.1 0 1-.83.01l-1.6-15.12q-.07-.59-.66-.63l-6.15-.35a1.04 1.03-89 0 0-1.09 1.06l1.04 44.1q.02.62.64.62l3.51-.05q.76-.01.76-.77l-.06-19.36q-.01-.86.37-.08.3.61.41 1.74.84 8.5 1.74 17 .22 2.12 3.03 1.48.52-.12.56-.64l1.48-18.93a.26.26 0 0 1 .52.01Zm24.53 19.67 4.57.04q.62 0 .59-.62c-.12-2.6-1.07-17.56.21-18.65a1.08 1.08 0 0 1 1.79.8l.23 17.69q.01.68.69.68l4.54-.05q.67 0 .7-.68c.23-6.43.99-17.5-1.98-21.62q-.36-.49.02-.98l.83-1.06q.34-.45.39-1.02c.27-3.48 1.85-19.63-3.27-20.07q-5.41-.47-10.49.14a.74.73-4.3 0 0-.65.75l1.05 43.89a.78.78 0 0 0 .78.76Zm329.31-20.02q6.43.18 6.86-6.21c.6-8.9-3.98-9.2-11-8.74q-.62.05-.62.67v22.93q0 .66.66.66h3.18q.41 0 .41-.41v-8.4q0-.51.51-.5ZM452.09 33a.34.34 0 0 1-.34-.34v-5.32a.34.34 0 0 1 .34-.34h5.64a.34.34 0 0 0 .34-.35l-.1-3.32a.34.34 0 0 0-.34-.33h-9.79a.34.34 0 0 0-.34.34v23.8a.34.34 0 0 0 .34.34l9.98.04a.34.34 0 0 0 .34-.36l-.22-3.21a.34.34 0 0 0-.35-.32l-5.49.17a.34.34 0 0 1-.35-.34v-6.12a.34.34 0 0 1 .34-.34h4.32a.34.34 0 0 0 .34-.34v-3.32a.34.34 0 0 0-.34-.34h-4.32Zm12.66 5.53a1.41 1.41 0 0 1 2.82-.04l.25 8.3q.02.45.47.45l3.45.02q.46.01.43-.45c-.19-3.17.52-8.63-1.56-11.11q-.31-.37-.06-.78 2.45-4.18.9-8.71c-1.43-4.16-6.87-3.37-10.31-3.17q-.64.04-.64.68v22.91q0 .58.57.61l3.21.18a.44.44 0 0 0 .47-.44v-8.45ZM480 28.24v1.74q0 .47.47.44l3.19-.18q.29-.02.36-.3c1.94-8.18-10.05-9.52-11.01-2.43-1.01 7.43 8.68 10.53 6.62 15.43a1.31 1.31 0 0 1-2.51-.38l-.19-1.99a.64.62 86.9 0 0-.62-.57h-2.5q-.61 0-.72.59-.74 3.93 2.2 6.31a1.5 1.47-24.7 0 0 .95.34c2.42.03 5.93.67 7.24-2.02 4.57-9.44-6.83-10.88-6.23-17.12a1.38 1.38 0 0 1 2.75.14Zm17.948-.05a5.15 5.15 0 0 0-5.16-5.141l-1.42.002a5.15 5.15 0 0 0-5.14 5.16l.024 13.94a5.15 5.15 0 0 0 5.16 5.14l1.42-.002a5.15 5.15 0 0 0 5.14-5.16l-.024-13.94Zm9.262 5.29-2.42-9.98q-.12-.5-.63-.5h-4.04q-.62 0-.62.63V46.7q0 .63.63.61l2.77-.08q.37-.01.37-.38l.02-11.83a.26.25-53.8 0 1 .5-.08q1.8 5.87 3.15 11.86.1.45.56.45h3.5q.5 0 .5-.5V23.5q0-.5-.5-.5h-2.75q-.5 0-.5.5l-.01 9.92a.27.27 0 0 1-.53.06Zm13.27 9.55a.34.34 0 0 1 .33.31l.27 3.64a.34.34 0 0 0 .34.32l3.83-.05a.34.34 0 0 0 .33-.4l-3.69-23.56a.34.34 0 0 0-.33-.29h-5.03a.34.34 0 0 0-.33.29l-3.66 23.68a.34.34 0 0 0 .36.39l3.42-.16a.34.34 0 0 0 .32-.29l.49-3.62a.34.34 0 0 1 .34-.3l3.01.04Zm7 .49q-.17-.06-.35.02-.38.15-.38.56v2.38q0 .45.43.56c6.39 1.63 7.09-2.56 7.08-7.62q-.02-7.95-.01-15.91 0-.51-.51-.51h-3.14q-.59 0-.59.59l-.05 18.66a1.93 1.51 11 0 1-2.48 1.27Zm13.27-6.07a.45.45 0 0 1 .45-.45h4.1a.45.45 0 0 0 .45-.45v-3.1a.45.45 0 0 0-.45-.45h-4.1a.45.45 0 0 1-.45-.45v-5.1a.45.45 0 0 1 .45-.45h5.27a.45.45 0 0 0 .45-.42l.18-3.1a.45.45 0 0 0-.45-.48h-9.7a.45.45 0 0 0-.45.45v23.34a.45.45 0 0 0 .45.45l9.74.07a.45.45 0 0 0 .45-.49l-.23-2.77a.45.45 0 0 0-.47-.42l-5.23.17a.45.45 0 0 1-.46-.45v-5.9ZM555 28.06v1.92q0 .47.48.44l3.18-.18q.3-.02.36-.31c2-8.46-11-9.63-11.17-1.4-.13 6.55 8.56 9.5 6.87 14.3a1.37 1.36-37.2 0 1-2.65-.36l-.11-1.88a.63.63 0 0 0-.63-.59h-3.01q-.45 0-.5.44c-1.06 8.45 10.25 9.46 11.39 2.59.6-3.62-.39-5.71-3-8.46-1.66-1.74-5.08-4.34-3.71-7.09a1.32 1.32 0 0 1 2.5.58ZM219.53 38.22q-.66-3.64-1.04-7.31-.06-.57-.57-.8-1.92-.88-3.86.04-.53.25-.4.82l4.71 20.36a.86.86 0 0 1-.49.98l-1.66.72q-.44.19-.61.64-.65 1.83-.02 3.59a.73.73 0 0 0 .69.49h2.7q.48 0 .82-.33c3.05-3.01 2.76-5.64 3.46-9.51q1.56-8.71 2.43-17.58.06-.59-.52-.75-2.29-.6-4.09.46-.47.28-.49.83l-.31 7.3a.38.38 0 0 1-.75.05Zm409.007 9.351a1.69.63 11.3 0 0-1.534-.949 1.69.63 11.3 0 0-1.78.287 1.69.63 11.3 0 0 1.534.949 1.69.63 11.3 0 0 1.78-.287Z"/><path fill="#f6ee7d" d="M709.59 11.86a1.2 1.2 0 0 1-1.2.76q-5.9-.35-10.85 3.07a1.75 1.75 0 0 1-2.73-1.23l-.53-4.47a.59.59 0 0 1 .61-.67q6.38.29 12.7.23c1.52-.02 2.69.52 2 2.31ZM607.75 9.65l16.24-.1-.56 1.02q-.26.46-.78.49-17.96 1.18-35.91.86c-14.55-.27-29.87.46-44.88-.48q-1.17-.07-4.14-.97-3.53-1.08-6.98.76-.4.22-.86.21l-10.72-.26q-.41-.01-.72-.27c-1.3-1.12-7.62-.69-12.22-.63q-.51 0-.81.42-.64.91-1.67.82c-5.91-.53-11.27.77-16.61.56-14.41-.57-28.87.03-43.3-.24-6.65-.13-16.76.69-25.24-.27q-.46-.05-.72-.45-.42-.66-1.12-1.12c63.66-.13 127.34-.39 191-.35Z"/><path fill="#de2321" d="M310.341 52.281a4.97 4.97 0 0 1-5.064 4.874l-4.08-.078a4.97 4.97 0 0 1-4.873-5.065l.695-36.173a4.97 4.97 0 0 1 5.064-4.874l4.08.078a4.97 4.97 0 0 1 4.873 5.065l-.695 36.173Zm-5.187-35.244a1.08 1.08 0 0 0-1.058-1.102l-.06-.002a1.08 1.08 0 0 0-1.102 1.058l-.708 33.792a1.08 1.08 0 0 0 1.058 1.102l.06.002a1.08 1.08 0 0 0 1.102-1.057l.708-33.793ZM318.01 37.96q-.75 9.22-.31 18.57.04.73-.7.73l-3.75-.02q-1.05-.01-1.03-1.05l.6-44.37q.01-.55.55-.55h5.33a.76.75 86.6 0 1 .75.67q.9 7.71 1.58 15.05.16 1.68 1.03.8a.1.1 0 0 0 .03-.07L322.5 12q.02-.74.76-.72l3.96.09q.65.02.64.67l-.81 44.58q-.01.65-.66.65l-5.05-.06q-.55 0-.61-.55l-2.05-18.71a.34.34 0 0 0-.67.01Zm-32.64-10.27q1.19-7.27 1.58-14.64a1.37 1.37 0 0 1 1.37-1.3h5.65a1.06 1.06 0 0 1 1.06 1.16c-.15 1.62.21 3.24.13 4.77q-.94 19.66-.67 39.43a.7.69 1.9 0 1-.75.7l-3.92-.29q-.57-.05-.57-.62V37.85a.35.35 0 0 0-.36-.35h-.43q-.28 0-.3.28l-1.58 18.92q-.04.46-.44.68-1.2.67-2.49-.05-.55-.3-.61-.92l-2.02-19.56q-.02-.12-.13-.11-.12 0-.26.06-.05.02-.05.07-.6 14.59-.06 18.38c.44 3.11-3.13 2.89-4.84 2.23a.81.8-79.2 0 1-.52-.77l.4-44.3q0-.78.78-.77l6.35.12q.93.01.99.94l1.04 14.96a.33.33 0 0 0 .65.03ZM107.168 53.08a4.95 4.95 0 0 1-4.854 5.044l-4.4.084a4.95 4.95 0 0 1-5.043-4.854l-.699-36.373a4.95 4.95 0 0 1 4.854-5.045l4.4-.084a4.95 4.95 0 0 1 5.043 4.854l.699 36.373Zm-6.541-34.877a1.05 1.05 0 0 0-1.07-1.03h-.04a1.05 1.05 0 0 0-1.03 1.07l.646 33.634a1.05 1.05 0 0 0 1.07 1.03h.04a1.05 1.05 0 0 0 1.03-1.07l-.646-33.634Zm52.383-5.263a1.18 1.18 0 0 1 1.17-1.19l7.61-.04a5.82 5.43 89.7 0 1 5.46 5.79l.18 34.42a5.82 5.43 89.7 0 1-5.4 5.85l-7.61.04a1.18 1.18 0 0 1-1.19-1.17l-.22-43.7Zm8.175 5.078a1.08 1.08 0 0 0-1.093-1.067h-.06a1.08 1.08 0 0 0-1.067 1.094l.41 33.537a1.08 1.08 0 0 0 1.093 1.067h.06a1.08 1.08 0 0 0 1.067-1.094l-.41-33.537Z"/><path fill="#de2321" d="M175.39 17.31q-.38 5.59-.11 11.23c.08 1.64.73 2.16 2.31 1.62a.63.62-20.4 0 1 .79.36q.83 2.05 0 4.19a1.09 1.09 0 0 1-1.5.58c-1.08-.54-1.37.29-1.4 1.17q-.15 6.66-.25 13.29-.04 3.42 2.76 3.18.65-.06.66.59l.06 3.42a.88.88 0 0 1-.91.9l-7.91-.3q-.56-.02-.57-.58l-.28-44.06a1.13 1.13 0 0 1 1.13-1.14l7.51-.01a1.07 1.07 0 0 1 1.07 1.18l-.34 3.22q-.06.57-.63.58l-1.81.03q-.54.01-.58.55Zm11.86 35.06c2.02 1.18 4.18 1.05 2.98 4.61q-.18.52-.73.52h-8.12q-.61 0-.62-.62l-.32-44.38a.79.78.4 0 1 .81-.79l4.74.14q.63.02.63.64l.17 39.07q0 .54.46.81Zm18.512.728a4.89 4.89 0 0 1-4.882 4.898l-4.16.008a4.89 4.89 0 0 1-4.898-4.882l-.064-36.34a4.89 4.89 0 0 1 4.882-4.898l4.16-.008a4.89 4.89 0 0 1 4.898 4.882l.064 36.34Zm-6.102-35.33a.94.94 0 0 0-.941-.938h-.06a.94.94 0 0 0-.939.942l.06 34.26a.94.94 0 0 0 .941.938h.06a.94.94 0 0 0 .939-.942l-.06-34.26Z"/><rect width="5.78" height="45.78" x="-2.89" y="-22.89" fill="#de2321" rx="0.80" transform="rotate(.3 -6511.271 47215.615)"/><path fill="#de2321" d="M252.71 57.47a.44.44 0 0 1-.44-.44l-.06-44.32a.69.68 82.2 0 1 .5-.66q2.49-.66 5.02.02.52.14.52.68v39.08q0 .58.58.68l2.01.32a.78.78 0 0 1 .66.77v3.28q0 .64-.63.63l-8.16-.04Zm17.85-27.64 2.06.45a.91.9 85.1 0 1 .66.56c.65 1.62.3 4.95-2.39 4.26q-1.14-.29-1.14.89v15.84q0 .59.58.68l2.26.35q.63.09.63.73v3.08q0 .83-.83.83h-7.58a.95.95 0 0 1-.95-.95l.18-43.99a.72.72 0 0 1 .71-.72l8.2-.11a.68.67-88.4 0 1 .68.73l-.3 3.64a.65.64.5 0 1-.61.59l-2.28.09q-.51.02-.5.53l.1 11.89a.66.66 0 0 0 .52.63ZM132.65 17.81l.72 39.39a.58.58 0 0 1-.55.59l-4.8.28q-.65.04-.67-.62-.59-19.65-1-39.3-.02-.55-.52-.77-2.81-1.22-2.22-4.54a.77.77 0 0 1 .73-.63l10.18-.22a.82.81-1.1 0 1 .83.79l.1 3.07q.02.65-.6.83l-1.73.49a.65.65 0 0 0-.47.64Z"/><path fill="#de2321" d="M144.43 48.06a1.07 1.07 0 0 0-1.82.7l-.44 8.43q-.04.63-.67.66l-4.58.17a.83.82-89.1 0 1-.85-.88l2.83-44.37q.04-.72.76-.72l7.77-.03q.9 0 .96.89l3.21 44.25a.52.52 0 0 1-.52.56l-5 .01a.55.55 0 0 1-.55-.56c.01-1.88.21-7.8-1.1-9.11Zm-1.28-5.57h1.18a.27.27 0 0 0 .27-.26v-.17a17.3.84-89.6 0 0-.72-17.31h-.04a17.3.84-89.6 0 0-.96 17.29v.17a.27.27 0 0 0 .27.28Zm95.62-24.71-.03 11.76a.71.71 0 0 0 .62.7l2.28.3a.71.71 0 0 1 .62.68l.11 3.26a.71.71 0 0 1-.6.73l-2.42.38a.71.71 0 0 0-.6.7v20.76a.71.71 0 0 1-.71.71l-4.57-.02a.71.71 0 0 1-.71-.71l-.03-44.39a.71.71 0 0 1 .73-.71l8.24.21a.71.71 0 0 1 .69.76l-.2 3.28a.71.71 0 0 1-.63.66l-2.16.24a.71.71 0 0 0-.63.7ZM85.42 38.36a.26.26 0 0 0-.52-.01l-1.48 18.93q-.04.52-.56.64-2.81.64-3.03-1.48-.9-8.5-1.74-17-.11-1.13-.41-1.74-.38-.78-.37.08l.06 19.36q0 .76-.76.77l-3.51.05q-.62 0-.64-.62l-1.04-44.1a1.04 1.03-89 0 1 1.09-1.06l6.15.35q.59.04.66.63l1.6 15.12a.42.41 44.1 0 0 .83-.01l1.04-15.24q.04-.63.68-.65l6.61-.18q.58-.02.59.57l.81 44.29a.71.71 0 0 1-.43.67q-2.14.95-4.37.26-.51-.16-.53-.69-.29-9.47-.73-18.94Zm24.53 19.67a.78.78 0 0 1-.78-.76l-1.05-43.89a.74.73-4.3 0 1 .65-.75q5.08-.61 10.49-.14c5.12.44 3.54 16.59 3.27 20.07q-.05.57-.39 1.02l-.83 1.06q-.38.49-.02.98c2.97 4.12 2.21 15.19 1.98 21.62q-.03.68-.7.68l-4.54.05q-.68 0-.69-.68l-.23-17.69a1.08 1.08 0 0 0-1.79-.8c-1.28 1.09-.33 16.05-.21 18.65q.03.62-.59.62l-4.57-.04Zm6.438-40.201a.95.95 0 0 0-.972-.928l-.1.002a.95.95 0 0 0-.928.971l.304 13.417a.95.95 0 0 0 .972.928l.1-.002a.95.95 0 0 0 .928-.971l-.304-13.417Z"/><path fill="#f8c79d" d="m680.29 30.25 1.93-.41c6.79-2.4 5.21-13.64-3.93-11.39q-.47.12-.87-.18-1.86-1.38-4.51-1.12l.41-1.16q.08.18.27.33.14.1.15-.07l.05-.67a.72.72 0 0 1 1.05-.59l3.56 1.85a1.27 1.27 0 0 0 1.85-1.25q-.13-1.32 1.15-1.59.48-.1.55.39l.14 1.05q.08.57.65.46 4.96-.98 5.21 3.95a.66.66 0 0 0 .72.62l1.51-.13q.6-.05.52-.64-.41-3.27-2.92-5.16a.91.91 0 0 0-.98-.07q-1.86 1.01-3.8.21a.36.36 0 0 1 0-.66q7.67-3.23 9.46 4.52.05.22.27.21h.37a.25.25 0 0 0 .23-.33l-.82-2.21a.75.74.6 0 1 .97-.95c6.98 2.71 6.66 15.23 5.34 21.12a1.04 1.03-83.9 0 1-.99.81q-5.56.11-8.79 4.66a.41.41 0 0 0 .63.52c9.8-9.7 20.93 3.8 10.96 10.7q-4.63 3.19-11.04.54-1.1-.46-.69.66.22.62.04 1.45a3.62 3.49-24.3 0 1-.38.95q-1.24 2.12-3.14 3.72-.41.35-.95.37-7.46.34-14.91.24c-7.59-.1-10.89 1.1-13.71-6.05q-3.56-9.02-2.24-17.21c.4-2.47 1.69-3.05 3.59-1.36q.2.18.16.44l-1.3 9.3a.92.92 0 0 0 1.56.78c3.05-3.04 13.3-9.98 17.29-5.16a.98.98 0 0 1 .13 1.02l-2.88 6.26a.72.72 0 0 1-1.06.29q-2.05-1.39-3.57-3.33a.47.46 30 0 0-.83.22c-.27 1.98-.92 8.07 1.41 9.59a.3.29-87.6 0 0 .42-.39q-1.8-3.44-1.09-7.26a.51.51 0 0 1 .89-.25q3.34 3.84 8.36 4.98a1.26 1.26 0 0 0 1.51-.99c.81-4.21-.19-10.44-4.56-12.19-4.41-1.75-11.74 2.54-15.36 5.09a.45.45 0 0 1-.7-.48l1.86-7.06q.15-.56.73-.64c1.69-.22 8.86-1.7 8-3.87q-.19-.47-.62-.2c-8.17 4.99-17.34-.34-20.69-8.34a2.42 2.4 50.7 0 1 .22-2.29c4-5.88 13.45-4.11 18.38-.94 1.76 1.13 3.93 6.37 5.95 5.6a1.2 1.2 0 0 1 1.61.93q.57 3.58 3.99 4.77.48.17.66.63.69 1.72 2.71 1.26a.2.2 0 0 0-.05-.4q-1.89.02-2.67-1.4-.32-.59.28-.9l2.35-1.2Zm-16.8-4.07c-1.29.17-6.51.55-6.94 1.75q-.15.45.32.39l5.86-.82a1.29 1.28-71.7 0 0 .75-.38l.56-.59q.91-.79.68-1.57-.11-.38-.34-.05l-.89 1.27Zm20.42 20.93c-2.51-11.23-14.97-20.93-25.67-16.81a.38.38 0 0 0 .23.73c3.55-.84 6.34-1.23 9.86.07q10.98 4.06 14.89 15.62.14.4.46.57.31.16.23-.18Zm10.37 1.44-.87 2.1a.49.49 0 0 0 .56.67q2.55-.53 2.51-3.29-.01-.63.63-.67l2.74-.16q.44-.03.26-.44c-.65-1.5-8.99.68-10.69 1.32q-.53.2-.12.58c.1.09 3.91-.75 4.57-.73a.46.45 11.7 0 1 .41.62Z"/><path fill="#fbed43" d="M700.61 37.17c1.35-7.77 2.11-13.05-2.59-19.94q-.26-.38.11-.65 5.22-3.75 10.36-2.86c2.18.38 1.28 3.08 1.28 4.21q-.04 20.93-.01 41.63a1.07 1.06-.6 0 1-1.05 1.06l-21.26.23q-.58.01-.27-.48l2.85-4.41a.54.54 0 0 1 .61-.22q9.9 3.04 14-4.67c2.67-5.02 1.22-10.34-3.68-13.16q-.43-.25-.35-.74Z"/><path fill="#f8c79d" d="M25.57 17.57a.73.72-25.6 0 0 1.31.46l1.5-2.06q.32-.43.8-.21l2.57 1.15a.51.51 0 0 1-.1.97c-4.67 1.03-4.3 6.85-3.55 10.35a.63.63 0 0 1-.62.77H16.74a.8.8 0 0 1-.77-1.02l1.36-4.8q.18-.63.82-.8l1.71-.46a.37.37 0 0 0-.02-.72q-3.42-.63-6.71.35-.48.15-.6.64-.25.99.27 1.78a.47.46 47.6 0 0 .76.04q.82-1.04 2.07-1.28a.48.48 0 0 1 .55.61l-1.64 5.17q-.2.63-.86.55l-2.56-.34q-.53-.07-.58-.6-.59-6.38.08-12.78a.76.76 0 0 1 .59-.66q5.33-1.26 10.8-.54.43.06.46.49l.13 2.12q.04.72.27.04.55-1.69 1.97-2.39a.59.59 0 0 1 .85.56l-.12 2.61Z"/><rect width="2.22" height="35.96" x="-1.11" y="-17.98" fill="#f6ee7d" rx="1.08" transform="rotate(1.2 -1467.18 14516.554)"/><rect width="2.00" height="15.32" x="-1.00" y="-7.66" fill="#efd26c" rx="0.95" transform="rotate(-1.3 1140.173 -5079.774)"/><rect width="2.22" height="35.70" x="-1.11" y="-17.85" fill="#efd26c" rx="1.08" transform="rotate(-.7 2928.523 -13101.533)"/><rect width="1.94" height="36.14" x="-0.97" y="-18.07" fill="#efd26c" rx="0.94" transform="rotate(-.1 20095.582 -113840.694)"/><rect width="2.14" height="35.74" x="-1.07" y="-17.87" fill="#efd26c" rx="1.05" transform="rotate(-1.1 1875.015 -5184.777)"/><path fill="#faf6e9" d="M671.5 26.32a.18.18 0 0 1-.25.05l-.06-.04a4.62 4.58 32.6 0 1-1.43-6.35l.05-.07a4.62 4.58 32.6 0 1 6.36-1.37l.06.05a.18.18 0 0 1 .06.24l-4.79 7.49Zm-.532-3.4a1.51 1.15 113.9 0 0 1.663-.914 1.51 1.15 113.9 0 0-.44-1.846 1.51 1.15 113.9 0 0-1.662.914 1.51 1.15 113.9 0 0 .44 1.846Z"/><path fill="#605d52" d="M35.78 18.16q.97.27 1.98 1.35-.78-.02-1.21.76.06-1.12-1.28-1.26.14-.52.51-.85Z"/><path fill="#faf6e9" d="M32.21 28.82q-1.02.01-2.01-.11-.53-.07-.67-.58c-.86-3.14-1.43-7.9 2.41-9.11q.45-.14.86.08 2.38 1.24 2.83 3.81a.85.85 0 0 0 1.68-.08q.2-2.37 2.42-2.96.47-.12.92.09 1.48.71 2.31 2.12.27.45-.07.86-1.75 2.13-2.21 4.9-.11.67-.79.73l-3.05.24a.6.59 1.9 0 1-.64-.68q.25-1.58-.21-3.05a1.19 1.18 33.4 0 0-2.31.47l.3 2.85q.06.54-.48.64-.19.03-.39-.02-.78-.2-.9-.2Zm6.752-1.178a1.74 1.1 78 0 0 .714-1.93 1.74 1.1 78 0 0-1.438-1.474 1.74 1.1 78 0 0-.714 1.93 1.74 1.1 78 0 0 1.438 1.474Z"/><path fill="#efd26c" d="M35.27 19.01q1.34.14 1.28 1.26l-.35.26q-.41.3-.76-.08-.72-.79-.17-1.44Z"/><path fill="#faf6e9" d="m682.22 29.84-1.93.41c-10.3 2.6-8.27-13.69 2.98-10.68a1.34 1.33-9.3 0 1 .77.55q3.06 4.78-1.82 9.72Zm-5.017-3.618a2.29 1.57 105.9 0 0 2.137-1.772 2.29 1.57 105.9 0 0-.883-2.632 2.29 1.57 105.9 0 0-2.137 1.772 2.29 1.57 105.9 0 0 .883 2.632Z"/><ellipse cx="0.00" cy="0.00" rx="1.51" ry="1.15" transform="rotate(113.9 328.783 229.251)"/><ellipse cx="0.00" cy="0.00" rx="2.29" ry="1.57" transform="rotate(105.9 329.848 267.865)"/><ellipse cx="0.00" cy="0.00" fill="#faf6e9" rx="8.04" ry="5.00" transform="rotate(90.4 9.156 39.221)"/><path fill="#faf6e9" d="M55.57 29.31a.75.75 0 0 1-.89-.58l-.63-2.91a2.81 2.69 77.7 0 1 2.03-3.32l.17-.03a2.81 2.69 77.7 0 1 3.23 2.17l.63 2.91a.75.75 0 0 1-.57.89l-3.97.87Z"/><path d="M438.75 38.51v8.4q0 .41-.41.41h-3.18q-.66 0-.66-.66V23.73q0-.62.62-.67c7.02-.46 11.6-.16 11 8.74q-.43 6.39-6.86 6.21-.51-.01-.51.5Zm2.854-10.527a.93.93 0 0 0-.928-.932l-1.02-.002a.93.93 0 0 0-.932.928l-.008 5.04a.93.93 0 0 0 .928.932l1.02.002a.93.93 0 0 0 .932-.928l.008-5.04ZM452.09 33h4.32a.34.34 0 0 1 .34.34v3.32a.34.34 0 0 1-.34.34h-4.32a.34.34 0 0 0-.34.34v6.12a.34.34 0 0 0 .35.34l5.49-.17a.34.34 0 0 1 .35.32l.22 3.21a.34.34 0 0 1-.34.36l-9.98-.04a.34.34 0 0 1-.34-.34v-23.8a.34.34 0 0 1 .34-.34h9.79a.34.34 0 0 1 .34.33l.1 3.32a.34.34 0 0 1-.34.35h-5.64a.34.34 0 0 0-.34.34v5.32a.34.34 0 0 0 .34.34Zm12.66 5.53v8.45a.44.44 0 0 1-.47.44l-3.21-.18q-.57-.03-.57-.61V23.72q0-.64.64-.68c3.44-.2 8.88-.99 10.31 3.17q1.55 4.53-.9 8.71-.25.41.06.78c2.08 2.48 1.37 7.94 1.56 11.11q.03.46-.43.45l-3.45-.02q-.45 0-.47-.45l-.25-8.3a1.41 1.41 0 0 0-2.82.04ZM467.573 28a.92.92 0 0 0-.907-.933l-.98-.014a.92.92 0 0 0-.933.907l-.066 4.7a.92.92 0 0 0 .907.933l.98.013a.92.92 0 0 0 .933-.907l.066-4.7Z"/><path d="M480 28.24a1.38 1.38 0 0 0-2.75-.14c-.6 6.24 10.8 7.68 6.23 17.12-1.31 2.69-4.82 2.05-7.24 2.02a1.5 1.47-24.7 0 1-.95-.34q-2.94-2.38-2.2-6.31.11-.59.72-.59h2.5a.64.62 86.9 0 1 .62.57l.19 1.99a1.31 1.31 0 0 0 2.51.38c2.06-4.9-7.63-8-6.62-15.43.96-7.09 12.95-5.75 11.01 2.43q-.07.28-.36.3l-3.19.18q-.47.03-.47-.44v-1.74Zm17.972 13.89a5.15 5.15 0 0 1-5.14 5.159l-1.42.002a5.15 5.15 0 0 1-5.16-5.14l-.024-13.94a5.15 5.15 0 0 1 5.14-5.16l1.42-.002a5.15 5.15 0 0 1 5.16 5.14l.024 13.94Zm-4.25-13.567A1.56 1.56 0 0 0 492.165 27h-.08a1.56 1.56 0 0 0-1.563 1.557l-.024 13.56a1.56 1.56 0 0 0 1.557 1.563h.08a1.56 1.56 0 0 0 1.563-1.557l.024-13.56Zm13.488 4.917a.27.27 0 0 0 .53-.06l.01-9.92q0-.5.5-.5H511q.5 0 .5.5v23.25q0 .5-.5.5h-3.5q-.46 0-.56-.45-1.35-5.99-3.15-11.86a.26.25-53.8 0 0-.5.08l-.02 11.83q0 .37-.37.38l-2.77.08q-.63.02-.63-.61V23.63q0-.63.62-.63h4.04q.51 0 .63.5l2.42 9.98Zm13.27 9.55-3.01-.04a.34.34 0 0 0-.34.3l-.49 3.62a.34.34 0 0 1-.32.29l-3.42.16a.34.34 0 0 1-.36-.39l3.66-23.68a.34.34 0 0 1 .33-.29h5.03a.34.34 0 0 1 .33.29l3.69 23.56a.34.34 0 0 1-.33.4l-3.83.05a.34.34 0 0 1-.34-.32l-.27-3.64a.34.34 0 0 0-.33-.31ZM518.29 39h1.3a.43.43 0 0 0 .42-.44v-.17a6.64.99 89.6 0 0-1.04-6.63h-.18a6.64.99 89.6 0 0-.94 6.65v.17a.43.43 0 0 0 .44.42Zm9.19 4.52a1.93 1.51 11 0 0 2.48-1.27l.05-18.66q0-.59.59-.59h3.14q.51 0 .51.51-.01 7.96.01 15.91c.01 5.06-.69 9.25-7.08 7.62q-.43-.11-.43-.56V44.1q0-.41.38-.56.18-.08.35-.02Zm13.27-6.07v5.9a.45.45 0 0 0 .46.45l5.23-.17a.45.45 0 0 1 .47.42l.23 2.77a.45.45 0 0 1-.45.49l-9.74-.07a.45.45 0 0 1-.45-.45V23.45a.45.45 0 0 1 .45-.45h9.7a.45.45 0 0 1 .45.48l-.18 3.1a.45.45 0 0 1-.45.42h-5.27a.45.45 0 0 0-.45.45v5.1a.45.45 0 0 0 .45.45h4.1a.45.45 0 0 1 .45.45v3.1a.45.45 0 0 1-.45.45h-4.1a.45.45 0 0 0-.45.45ZM555 28.06a1.32 1.32 0 0 0-2.5-.58c-1.37 2.75 2.05 5.35 3.71 7.09 2.61 2.75 3.6 4.84 3 8.46-1.14 6.87-12.45 5.86-11.39-2.59q.05-.44.5-.44h3.01a.63.63 0 0 1 .63.59l.11 1.88a1.37 1.36-37.2 0 0 2.65.36c1.69-4.8-7-7.75-6.87-14.3.17-8.23 13.17-7.06 11.17 1.4q-.06.29-.36.31l-3.18.18q-.48.03-.48-.44v-1.92Z"/><ellipse cx="0.00" cy="0.00" rx="1.74" ry="1.10" transform="rotate(78 3.283 36.804)"/><path fill="#efd26c" d="M664.04 26.53q-.02-.29-.55-.35l.89-1.27q.23-.33.34.05.23.78-.68 1.57ZM143.15 42.49a.27.27 0 0 1-.27-.28v-.17a17.3.84-89.6 0 1 .96-17.29h.04a17.3.84-89.6 0 1 .72 17.31v.17a.27.27 0 0 1-.27.26h-1.18Z"/><path fill="#433e18" d="M663.49 26.18q.53.06.55.35l-.56.59a1.29 1.28-71.7 0 1-.75.38l-5.86.82q-.47.06-.32-.39c.43-1.2 5.65-1.58 6.94-1.75Z"/><rect width="2.88" height="6.90" x="-1.44" y="-3.45" fill="#fbed43" rx="0.93" transform="rotate(.1 -17255.128 252208.29)"/><rect width="2.82" height="6.54" x="-1.41" y="-3.27" fill="#fbed43" rx="0.92" transform="rotate(.8 -1939.126 33398.725)"/><rect width="3.20" height="16.68" x="-1.60" y="-8.34" fill="#fbed43" rx="1.56" transform="rotate(.1 -20002.268 281975.859)"/><path d="M658.24 30.3c10.7-4.12 23.16 5.58 25.67 16.81q.08.34-.23.18-.32-.17-.46-.57-3.91-11.56-14.89-15.62c-3.52-1.3-6.31-.91-9.86-.07a.38.38 0 0 1-.23-.73Z"/><path fill="#de2321" d="M219.53 38.22a.38.38 0 0 0 .75-.05l.31-7.3q.02-.55.49-.83 1.8-1.06 4.09-.46.58.16.52.75-.87 8.87-2.43 17.58c-.7 3.87-.41 6.5-3.46 9.51q-.34.33-.82.33h-2.7a.73.73 0 0 1-.69-.49q-.63-1.76.02-3.59.17-.45.61-.64l1.66-.72a.86.86 0 0 0 .49-.98l-4.71-20.36q-.13-.57.4-.82 1.94-.92 3.86-.04.51.23.57.8.38 3.67 1.04 7.31Z"/><path fill="#f8c79d" d="M47.31 39.69c4.25.15 6.53-4.17 7.46-8.27q.12-.5.61-.61c3.77-.85 11.12-.72 13 3.5 1.08 2.45.08 5-2.02 6.64-8.49 6.66-22.74 3.86-30.86-1.46q-.43-.28-.94-.25c-7.7.5-14.26 2.22-17.31-6.77a.76.75 79.7 0 1 .69-1l21.87-.58q.39-.01.48.36c1.1 4.19 1.55 8.25 7.02 8.44Z"/><path fill="#f8c79d" d="M11 40.11a.21.21 0 0 1-.24-.18l-.23-1.91a6.39 1.72 82.9 0 1 .91-6.55l2.86-.36a6.39 1.72 82.9 0 1 2.5 6.13l.24 1.91a.21.21 0 0 1-.19.23l-5.85.73Z"/><path fill="#fbed43" d="M518.29 39a.43.43 0 0 1-.44-.42v-.17a6.64.99 89.6 0 1 .94-6.65h.18a6.64.99 89.6 0 1 1.04 6.63v.17a.43.43 0 0 1-.42.44h-1.3Z"/><path fill="#f8c79d" d="M646.71 37.57a1.09 1.09 0 0 1-.29-1.51l.07-.11a4.82 2.48-55.9 0 1 4.76-2.6l.89.6a4.82 2.48-55.9 0 1-.65 5.38l-.07.11a1.09 1.09 0 0 1-1.51.29l-3.2-2.16Zm1.89 5.56q.29-.65.55-1.41a.99.99 0 0 1 1.93.26l.32 5.47a.68.68 0 0 1-1.03.63q-4.69-2.79-4.62-8.46 0-.61.61-.63 1.39-.05 1.98 1.13.22.45.01.91-.43.97-.34 2a.31.31 0 0 0 .59.1Z"/><path fill="#faf6e9" d="m38.54 43.67.06 15.44q.01.68-.67.66l-3.1-.07q-.45-.01-.6-.43-2.54-7.04-2.07-14.53.03-.48-.03-.78a.61.61 0 0 0-1.2.04q-.94 8.55-6.26 15.31-.34.44-.9.44H11.03a.5.49-90 0 1-.49-.5l-.02-15.95q-.2-1.13.01-1.79.17-.54.73-.49 11.86.93 23.65-.23a1.43 1.4 58 0 1 .91.22q1.75 1.13 2.72 2.66Z"/><path fill="#433e18" d="M9.54 42.75q.48-.2.98.55l.02 15.95a.5.49 90 0 0 .49.5h12.74q.56 0 .9-.44 5.32-6.76 6.26-15.31a.61.61 0 0 1 1.2-.04q.06.3.03.78-.47 7.49 2.07 14.53.15.42.6.43l3.1.07q.68.02.67-.66l-.06-15.44.95.39.34 15.21q.02.68.7.68 43.69.28 85.91-.09c.37-.01 1.07.35 1.51.35 27.2-.31 54.36.15 81.55-.28 20.02-.33 40.04.38 60.06.23 54.31-.44 108.69.91 162.98.06 39.62-.62 79.34-.04 118.96.54q-.47 1.38.5 1.38-16.52.19-55.56-.07-72.56-.48-145.13-.8-9.75-.04-19.5.05-36.15.35-72.3.44c-50.89.12-101.94.3-152.82-.25q-27.92-.3-55.84-.26c-6.33.01-14.9-.65-22.41-.33-5.76.24-11.35-.21-17.09-.18q-.51.01-.72.47-.43.95-1.33 1.33a.5.5 0 0 1-.65-.65l.69-1.68a2.34 2.3-34.5 0 0 .17-.87l.03-16.59ZM31.2 59.83l1.32-.18a.27.27 0 0 0 .23-.31l-.01-.1a5.67.81 82 0 0-1.59-5.5l-.26.04a5.67.81 82 0 0-.01 5.73l.01.09a.27.27 0 0 0 .31.23Zm-4.86-.17 1.14.42a.41.41 0 0 0 .53-.25l.06-.16a3.04.86-70 0 0 .23-3.15l-.3-.11a3.04.86-70 0 0-1.85 2.57l-.06.16a.41.41 0 0 0 .25.52Z"/><path d="M693.87 47.93c-.66-.02-4.47.82-4.57.73q-.41-.38.12-.58c1.7-.64 10.04-2.82 10.69-1.32q.18.41-.26.44l-2.74.16q-.64.04-.63.67.04 2.76-2.51 3.29a.49.49 0 0 1-.56-.67l.87-2.1a.46.45 11.7 0 0-.41-.62Z"/><ellipse cx="0.00" cy="0.00" fill="#efd26c" rx="1.69" ry="0.63" transform="rotate(11.3 74.69 3191.857)"/><path fill="#faf6e9" d="M31.2 59.83a.27.27 0 0 1-.31-.23l-.01-.09a5.67.81 82 0 1 .01-5.73l.26-.04a5.67.81 82 0 1 1.59 5.5l.01.1a.27.27 0 0 1-.23.31l-1.32.18Z"/><path fill="#faf6e9" d="M26.34 59.66a.41.41 0 0 1-.25-.52l.06-.16A3.04.86-70 0 1 28 56.41l.3.11a3.04.86-70 0 1-.23 3.15l-.06.16a.41.41 0 0 1-.53.25l-1.14-.42Z"/><path fill="#605d52" d="M553.92 68.93q.41-1.46 2.03-1.14a.47.47 0 0 1 .16.86l-1.41.87q-1.15.72-.78-.59Z"/></svg>