<?xml version="1.0" encoding="UTF-8" standalone="no"?>
<!DOCTYPE svg PUBLIC "-//W3C//DTD SVG 1.1//EN" "http://www.w3.org/Graphics/SVG/1.1/DTD/svg11.dtd">
<svg xmlns="http://www.w3.org/2000/svg" version="1.1" viewBox="0.00 0.00 720.00 71.00">
<g stroke-width="2.00" fill="none" stroke-linecap="butt">
<path stroke="#f9dfc3" vector-effect="non-scaling-stroke" d="
  M 404.8110 4.9698
  A 1.33 0.59 80.0 0 0 405.1610 3.5575
  A 1.33 0.59 80.0 0 0 404.3490 2.3502
  A 1.33 0.59 80.0 0 0 403.9990 3.7625
  A 1.33 0.59 80.0 0 0 404.8110 4.9698"
/>
<path stroke="#adaa9e" vector-effect="non-scaling-stroke" d="
  M 607.75 8.17
  Q 562.66 7.75 517.57 8.26
  C 498.92 8.47 480.00 7.75 461.16 8.22
  C 448.92 8.52 437.40 8.34 425.50 8.39
  C 390.35 8.57 355.20 8.25 320.05 8.44
  C 240.29 8.87 160.52 8.54 80.75 8.75"
/>
<path stroke="#7d7b75" vector-effect="non-scaling-stroke" d="
  M 80.75 8.75
  C 57.25 8.76 33.79 8.92 10.30 8.29
  Q 9.71 8.28 9.75 8.86
  Q 9.85 10.15 9.22 11.31
  Q 8.97 11.78 9.07 12.32
  C 9.75 15.92 9.18 20.36 9.22 22.91
  Q 9.37 32.83 9.54 42.75"
/>
<path stroke="#9f9a81" vector-effect="non-scaling-stroke" d="
  M 9.54 42.75
  L 9.51 59.34
  A 2.34 2.30 -34.5 0 1 9.34 60.21
  L 8.65 61.89
  A 0.50 0.50 0.0 0 0 9.30 62.54
  Q 10.20 62.16 10.63 61.21
  Q 10.84 60.75 11.35 60.74
  C 17.09 60.71 22.68 61.16 28.44 60.92
  C 35.95 60.60 44.52 61.26 50.85 61.25
  Q 78.77 61.21 106.69 61.51
  C 157.57 62.06 208.62 61.88 259.51 61.76
  Q 295.66 61.67 331.81 61.32
  Q 341.56 61.23 351.31 61.27
  Q 423.88 61.59 496.44 62.07
  Q 535.48 62.33 552.00 62.14"
/>
<path stroke="#7d7b75" vector-effect="non-scaling-stroke" d="
  M 552.00 62.14
  C 603.27 61.75 654.60 61.87 705.87 62.26
  C 708.51 62.28 711.17 62.62 711.09 59.01
  Q 710.62 38.81 710.79 17.88
  A 0.87 0.87 0.0 0 1 712.43 17.47
  L 713.69 19.82
  Q 714.03 20.46 714.18 19.75
  C 714.92 16.33 712.95 15.27 710.74 13.41
  A 0.71 0.71 0.0 0 1 710.56 12.57
  Q 711.53 10.49 710.26 8.57
  A 0.95 0.95 0.0 0 0 709.46 8.13
  L 693.19 8.03
  Q 692.73 8.02 692.44 7.67
  Q 687.92 2.12 680.93 4.78
  C 680.21 5.06 679.80 5.61 680.07 6.36
  A 0.57 0.56 69.0 0 0 680.82 6.70
  Q 686.18 4.45 691.18 7.29
  A 0.55 0.55 0.0 0 1 690.90 8.32
  L 607.75 8.17"
/>
<path stroke="#221f0c" vector-effect="non-scaling-stroke" d="
  M 552.00 62.14
  Q 551.03 62.14 551.50 60.76"
/>
<path stroke="#7e7722" vector-effect="non-scaling-stroke" d="
  M 551.50 60.76
  L 657.54 61.06
  A 0.32 0.32 0.0 0 0 657.79 60.55
  Q 654.03 55.79 652.10 50.04
  A 1.09 1.08 -1.0 0 0 651.38 49.35
  C 643.25 46.99 640.99 37.02 648.07 31.95
  A 1.10 1.10 0.0 0 0 648.28 30.36
  Q 645.42 26.86 645.17 22.36
  Q 645.14 21.79 645.56 21.40
  Q 655.84 12.01 667.30 20.28
  Q 667.69 20.56 668.05 20.23
  Q 670.30 18.20 672.91 17.15"
/>
<path stroke="#7c644f" vector-effect="non-scaling-stroke" d="
  M 672.91 17.15
  Q 675.56 16.89 677.42 18.27
  Q 677.82 18.57 678.29 18.45
  C 687.43 16.20 689.01 27.44 682.22 29.84"
/>
<path stroke="#7d7b75" vector-effect="non-scaling-stroke" d="
  M 682.22 29.84
  Q 687.10 24.90 684.04 20.12
  A 1.34 1.33 -9.3 0 0 683.27 19.57
  C 672.02 16.56 669.99 32.85 680.29 30.25"
/>
<path stroke="#7c644f" vector-effect="non-scaling-stroke" d="
  M 680.29 30.25
  L 677.94 31.45
  Q 677.34 31.76 677.66 32.35
  Q 678.44 33.77 680.33 33.75
  A 0.20 0.20 0.0 0 1 680.38 34.15
  Q 678.36 34.61 677.67 32.89
  Q 677.49 32.43 677.01 32.26
  Q 673.59 31.07 673.02 27.49
  A 1.20 1.20 0.0 0 0 671.41 26.56
  C 669.39 27.33 667.22 22.09 665.46 20.96
  C 660.53 17.79 651.08 16.02 647.08 21.90
  A 2.42 2.40 50.7 0 0 646.86 24.19
  C 650.21 32.19 659.38 37.52 667.55 32.53
  Q 667.98 32.26 668.17 32.73
  C 669.03 34.90 661.86 36.38 660.17 36.60
  Q 659.59 36.68 659.44 37.24
  L 657.58 44.30
  A 0.45 0.45 0.0 0 0 658.28 44.78
  C 661.90 42.23 669.23 37.94 673.64 39.69
  C 678.01 41.44 679.01 47.67 678.20 51.88
  A 1.26 1.26 0.0 0 1 676.69 52.87
  Q 671.67 51.73 668.33 47.89
  A 0.51 0.51 0.0 0 0 667.44 48.14
  Q 666.73 51.96 668.53 55.40
  A 0.30 0.29 -87.6 0 1 668.11 55.79
  C 665.78 54.27 666.43 48.18 666.70 46.20
  A 0.47 0.46 30.0 0 1 667.53 45.98
  Q 669.05 47.92 671.10 49.31
  A 0.72 0.72 0.0 0 0 672.16 49.02
  L 675.04 42.76
  A 0.98 0.98 0.0 0 0 674.91 41.74
  C 670.92 36.92 660.67 43.86 657.62 46.90
  A 0.92 0.92 0.0 0 1 656.06 46.12
  L 657.36 36.82
  Q 657.40 36.56 657.20 36.38
  C 655.30 34.69 654.01 35.27 653.61 37.74
  Q 652.29 45.93 655.85 54.95
  C 658.67 62.10 661.97 60.90 669.56 61.00
  Q 677.01 61.10 684.47 60.76
  Q 685.01 60.74 685.42 60.39
  Q 687.32 58.79 688.56 56.67
  A 3.62 3.49 -24.3 0 0 688.94 55.72
  Q 689.12 54.89 688.90 54.27
  Q 688.49 53.15 689.59 53.61
  Q 696.00 56.26 700.63 53.07
  C 710.60 46.17 699.47 32.67 689.67 42.37
  A 0.41 0.41 0.0 0 1 689.04 41.85
  Q 692.27 37.30 697.83 37.19
  A 1.04 1.03 -83.9 0 0 698.82 36.38
  C 700.14 30.49 700.46 17.97 693.48 15.26
  A 0.75 0.74 0.6 0 0 692.51 16.21
  L 693.33 18.42
  A 0.25 0.25 0.0 0 1 693.10 18.75
  Q 692.91 18.75 692.73 18.75
  Q 692.51 18.76 692.46 18.54
  Q 690.67 10.79 683.00 14.02
  A 0.36 0.36 0.0 0 0 683.00 14.68
  Q 684.94 15.48 686.80 14.47
  A 0.91 0.91 0.0 0 1 687.78 14.54
  Q 690.29 16.43 690.70 19.70
  Q 690.78 20.29 690.18 20.34
  L 688.67 20.47
  A 0.66 0.66 0.0 0 1 687.95 19.85
  Q 687.70 14.92 682.74 15.90
  Q 682.17 16.01 682.09 15.44
  L 681.95 14.39
  Q 681.88 13.90 681.40 14.00
  Q 680.12 14.27 680.25 15.59
  A 1.27 1.27 0.0 0 1 678.40 16.84
  L 674.84 14.99
  A 0.72 0.72 0.0 0 0 673.79 15.58
  L 673.74 16.25
  Q 673.73 16.42 673.59 16.32
  Q 673.40 16.17 673.32 15.99"
/>
<path stroke="#7e7722" vector-effect="non-scaling-stroke" d="
  M 673.32 15.99
  C 672.65 13.74 676.58 13.93 677.90 14.19
  Q 678.38 14.29 678.84 14.12
  Q 681.52 13.13 684.31 12.48
  C 685.71 12.15 686.88 12.81 688.35 11.59
  Q 688.68 11.31 689.04 11.56
  L 692.06 13.73
  A 0.94 0.94 0.0 0 0 693.54 12.83
  L 693.17 10.22
  Q 693.08 9.60 692.45 9.58
  Q 658.22 8.97 623.99 9.55"
/>
<path stroke="#7b773f" vector-effect="non-scaling-stroke" d="
  M 623.99 9.55
  L 607.75 9.65"
/>
<path stroke="#302f29" vector-effect="non-scaling-stroke" d="
  M 607.75 9.65
  L 607.75 8.17"
/>
<path stroke="#f9dfc3" vector-effect="non-scaling-stroke" d="
  M 680.29 30.25
  L 682.22 29.84"
/>
<path stroke="#aba668" vector-effect="non-scaling-stroke" d="
  M 607.75 9.65
  C 544.09 9.61 480.41 9.87 416.75 10.00"
/>
<path stroke="#aea54b" vector-effect="non-scaling-stroke" d="
  M 416.75 10.00
  Q 375.32 10.00 333.88 9.97
  C 328.01 9.96 320.40 9.29 313.61 9.49
  Q 301.61 9.85 301.49 9.85
  C 227.91 10.21 154.33 9.92 80.75 10.00"
/>
<path stroke="#302f29" vector-effect="non-scaling-stroke" d="
  M 80.75 10.00
  L 80.75 8.75"
/>
<path stroke="#fada70" vector-effect="non-scaling-stroke" d="
  M 673.32 15.99
  L 672.91 17.15"
/>
<path stroke="#9f962e" vector-effect="non-scaling-stroke" d="
  M 551.50 60.76
  C 511.88 60.18 472.16 59.60 432.54 60.22
  C 378.25 61.07 323.87 59.72 269.56 60.16
  C 249.54 60.31 229.52 59.60 209.50 59.93
  C 182.31 60.36 155.15 59.90 127.95 60.21
  C 127.51 60.21 126.81 59.85 126.44 59.86
  Q 84.22 60.23 40.53 59.95
  Q 39.85 59.95 39.83 59.27
  L 39.49 44.06"
/>
<path stroke="#aea54b" vector-effect="non-scaling-stroke" d="
  M 37.76 19.51
  Q 36.75 18.43 35.78 18.16"
/>
<path stroke="#f9ee60" vector-effect="non-scaling-stroke" d="
  M 416.75 10.00
  Q 417.45 10.46 417.87 11.12
  Q 418.13 11.52 418.59 11.57
  C 427.07 12.53 437.18 11.71 443.83 11.84
  C 458.26 12.11 472.72 11.51 487.13 12.08
  C 492.47 12.29 497.83 10.99 503.74 11.52
  Q 504.77 11.61 505.41 10.70
  Q 505.71 10.28 506.22 10.28
  C 510.82 10.22 517.14 9.79 518.44 10.91
  Q 518.75 11.17 519.16 11.18
  L 529.88 11.44
  Q 530.34 11.45 530.74 11.23
  Q 534.19 9.39 537.72 10.47
  Q 540.69 11.37 541.86 11.44
  C 556.87 12.38 572.19 11.65 586.74 11.92
  Q 604.69 12.24 622.65 11.06
  Q 623.17 11.03 623.43 10.57
  L 623.99 9.55"
/>
<path stroke="#9f9a81" vector-effect="non-scaling-stroke" d="
  M 38.54 43.67
  L 38.60 59.11
  Q 38.61 59.79 37.93 59.77
  L 34.83 59.70
  Q 34.38 59.69 34.23 59.27
  Q 31.69 52.23 32.16 44.74
  Q 32.19 44.26 32.13 43.96
  A 0.61 0.61 0.0 0 0 30.93 44.00
  Q 29.99 52.55 24.67 59.31
  Q 24.33 59.75 23.77 59.75
  L 11.03 59.75
  A 0.50 0.49 -90.0 0 1 10.54 59.25
  L 10.52 43.30"
/>
<path stroke="#7e7722" vector-effect="non-scaling-stroke" d="
  M 80.75 10.00
  L 11.40 9.77
  Q 10.76 9.77 10.70 10.40
  L 10.54 12.13
  Q 10.47 12.77 11.11 12.65
  Q 18.90 11.21 26.68 12.72
  Q 27.15 12.81 27.60 12.68
  L 29.31 12.20
  Q 29.81 12.06 29.92 12.57
  Q 30.34 14.54 32.03 15.52
  Q 32.55 15.82 32.95 15.38
  Q 34.80 13.40 37.52 13.32
  A 1.54 1.54 0.0 0 1 39.07 14.59
  C 39.39 16.46 36.85 16.40 35.73 16.62
  Q 35.21 16.72 35.23 17.25
  Q 35.26 17.80 35.78 18.16"
/>
<path stroke="#302f29" vector-effect="non-scaling-stroke" d="
  M 35.78 18.16
  Q 35.41 18.49 35.27 19.01"
/>
<path stroke="#786936" vector-effect="non-scaling-stroke" d="
  M 35.27 19.01
  Q 34.72 19.66 35.44 20.45
  Q 35.79 20.83 36.20 20.53
  L 36.55 20.27"
/>
<path stroke="#302f29" vector-effect="non-scaling-stroke" d="
  M 36.55 20.27
  Q 36.98 19.49 37.76 19.51"
/>
<path stroke="#7e7722" vector-effect="non-scaling-stroke" d="
  M 37.76 19.51
  Q 39.15 18.71 40.61 18.73
  Q 41.15 18.74 41.54 19.10
  L 44.14 21.44
  A 0.79 0.79 0.0 0 0 44.97 21.58
  Q 48.37 20.16 51.33 22.22
  A 0.71 0.70 40.6 0 0 52.21 22.16
  C 55.12 19.50 59.13 20.30 60.83 23.69
  C 61.40 24.85 61.42 26.58 61.80 27.99
  A 0.95 0.94 -89.6 0 0 62.43 28.64
  C 67.31 30.15 71.38 33.09 69.46 38.73
  C 67.43 44.67 60.94 46.96 54.95 47.51
  Q 47.13 48.23 40.19 43.83
  Q 39.92 43.65 39.49 44.06"
/>
<path stroke="#221f0c" vector-effect="non-scaling-stroke" d="
  M 39.49 44.06
  L 38.54 43.67"
/>
<path stroke="#7d7b75" vector-effect="non-scaling-stroke" d="
  M 38.54 43.67
  Q 37.57 42.14 35.82 41.01
  A 1.43 1.40 58.0 0 0 34.91 40.79
  Q 23.12 41.95 11.26 41.02
  Q 10.70 40.97 10.53 41.51
  Q 10.32 42.17 10.52 43.30"
/>
<path stroke="#221f0c" vector-effect="non-scaling-stroke" d="
  M 10.52 43.30
  Q 10.02 42.55 9.54 42.75"
/>
<path stroke="#a8985f" vector-effect="non-scaling-stroke" d="
  M 36.55 20.27
  Q 36.61 19.15 35.27 19.01"
/>
<path stroke="#adaa9e" vector-effect="non-scaling-stroke" d="
  M 553.92 68.93
  Q 553.55 70.24 554.70 69.52
  L 556.11 68.65
  A 0.47 0.47 0.0 0 0 555.95 67.79
  Q 554.33 67.47 553.92 68.93"
/>
<path stroke="#7b773f" vector-effect="non-scaling-stroke" d="
  M 709.59 11.86
  C 710.28 10.07 709.11 9.53 707.59 9.55
  Q 701.27 9.61 694.89 9.32
  A 0.59 0.59 0.0 0 0 694.28 9.99
  L 694.81 14.46
  A 1.75 1.75 0.0 0 0 697.54 15.69
  Q 702.49 12.27 708.39 12.62
  A 1.20 1.20 0.0 0 0 709.59 11.86"
/>
<path stroke="#7e7722" vector-effect="non-scaling-stroke" d="
  M 698.02 17.23
  C 702.72 24.12 701.96 29.40 700.61 37.17
  Q 700.53 37.66 700.96 37.91
  C 705.86 40.73 707.31 46.05 704.64 51.07
  Q 700.54 58.78 690.64 55.74
  A 0.54 0.54 0.0 0 0 690.03 55.96
  L 687.18 60.37
  Q 686.87 60.86 687.45 60.85
  L 708.71 60.62
  A 1.07 1.06 -0.6 0 0 709.76 59.56
  Q 709.73 38.86 709.77 17.93
  C 709.77 16.80 710.67 14.10 708.49 13.72
  Q 703.35 12.83 698.13 16.58
  Q 697.76 16.85 698.02 17.23"
/>
<path stroke="#7d7b75" vector-effect="non-scaling-stroke" d="
  M 671.50 26.32
  L 676.29 18.83
  A 0.18 0.18 0.0 0 0 676.23 18.59
  L 676.17 18.54
  A 4.62 4.58 32.6 0 0 669.81 19.91
  L 669.76 19.98
  A 4.62 4.58 32.6 0 0 671.19 26.33
  L 671.25 26.37
  A 0.18 0.18 0.0 0 0 671.50 26.32"
/>
<path stroke="#7c644f" vector-effect="non-scaling-stroke" d="
  M 646.71 37.57
  L 649.91 39.73
  A 1.09 1.09 0.0 0 0 651.42 39.44
  L 651.49 39.33
  A 4.82 2.48 -55.9 0 0 652.14 33.95
  L 651.25 33.35
  A 4.82 2.48 -55.9 0 0 646.49 35.95
  L 646.42 36.06
  A 1.09 1.09 0.0 0 0 646.71 37.57"
/>
<path stroke="#7c644f" vector-effect="non-scaling-stroke" d="
  M 648.01 43.03
  Q 647.92 42.00 648.35 41.03
  Q 648.56 40.57 648.34 40.12
  Q 647.75 38.94 646.36 38.99
  Q 645.75 39.01 645.75 39.62
  Q 645.68 45.29 650.37 48.08
  A 0.68 0.68 0.0 0 0 651.40 47.45
  L 651.08 41.98
  A 0.99 0.99 0.0 0 0 649.15 41.72
  Q 648.89 42.48 648.60 43.13
  A 0.31 0.31 0.0 0 1 648.01 43.03"
/>
<path stroke="#7c644f" vector-effect="non-scaling-stroke" d="
  M 25.57 17.57
  L 25.69 14.96
  A 0.59 0.59 0.0 0 0 24.84 14.40
  Q 23.42 15.10 22.87 16.79
  Q 22.64 17.47 22.60 16.75
  L 22.47 14.63
  Q 22.44 14.20 22.01 14.14
  Q 16.54 13.42 11.21 14.68
  A 0.76 0.76 0.0 0 0 10.62 15.34
  Q 9.95 21.74 10.54 28.12
  Q 10.59 28.65 11.12 28.72
  L 13.68 29.06
  Q 14.34 29.14 14.54 28.51
  L 16.18 23.34
  A 0.48 0.48 0.0 0 0 15.63 22.73
  Q 14.38 22.97 13.56 24.01
  A 0.47 0.46 47.6 0 1 12.80 23.97
  Q 12.28 23.18 12.53 22.19
  Q 12.65 21.70 13.13 21.55
  Q 16.42 20.57 19.84 21.20
  A 0.37 0.37 0.0 0 1 19.86 21.92
  L 18.15 22.38
  Q 17.51 22.55 17.33 23.18
  L 15.97 27.98
  A 0.80 0.80 0.0 0 0 16.74 29.00
  L 27.48 29.00
  A 0.63 0.63 0.0 0 0 28.10 28.23
  C 27.35 24.73 26.98 18.91 31.65 17.88
  A 0.51 0.51 0.0 0 0 31.75 16.91
  L 29.18 15.76
  Q 28.70 15.54 28.38 15.97
  L 26.88 18.03
  A 0.73 0.72 -25.6 0 1 25.57 17.57"
/>
<path stroke="#7d7b75" vector-effect="non-scaling-stroke" d="
  M 33.11 29.02
  Q 33.31 29.07 33.50 29.04
  Q 34.04 28.94 33.98 28.40
  L 33.68 25.55
  A 1.19 1.18 33.4 0 1 35.99 25.08
  Q 36.45 26.55 36.20 28.13
  A 0.60 0.59 1.9 0 0 36.84 28.81
  L 39.89 28.57
  Q 40.57 28.51 40.68 27.84
  Q 41.14 25.07 42.89 22.94
  Q 43.23 22.53 42.96 22.08
  Q 42.13 20.67 40.65 19.96
  Q 40.20 19.75 39.73 19.87
  Q 37.51 20.46 37.31 22.83
  A 0.85 0.85 0.0 0 1 35.63 22.91
  Q 35.18 20.34 32.80 19.10
  Q 32.39 18.88 31.94 19.02
  C 28.10 20.23 28.67 24.99 29.53 28.13
  Q 29.67 28.64 30.20 28.71
  Q 31.19 28.83 32.21 28.82
  Q 32.33 28.82 33.11 29.02"
/>
<path stroke="#7d7b75" vector-effect="non-scaling-stroke" d="
  M 48.3839 38.3798
  A 8.04 5.00 90.4 0 0 53.4399 30.3749
  A 8.04 5.00 90.4 0 0 48.4961 22.3002
  A 8.04 5.00 90.4 0 0 43.4401 30.3051
  A 8.04 5.00 90.4 0 0 48.3839 38.3798"
/>
<path stroke="#7d7b75" vector-effect="non-scaling-stroke" d="
  M 55.57 29.31
  L 59.54 28.44
  A 0.75 0.75 0.0 0 0 60.11 27.55
  L 59.48 24.64
  A 2.81 2.69 77.7 0 0 56.25 22.47
  L 56.08 22.50
  A 2.81 2.69 77.7 0 0 54.05 25.82
  L 54.68 28.73
  A 0.75 0.75 0.0 0 0 55.57 29.31"
/>
<path stroke="#7c644f" vector-effect="non-scaling-stroke" d="
  M 47.31 39.69
  C 41.84 39.50 41.39 35.44 40.29 31.25
  Q 40.20 30.88 39.81 30.89
  L 17.94 31.47
  A 0.76 0.75 79.7 0 0 17.25 32.47
  C 20.30 41.46 26.86 39.74 34.56 39.24
  Q 35.07 39.21 35.50 39.49
  C 43.62 44.81 57.87 47.61 66.36 40.95
  C 68.46 39.31 69.46 36.76 68.38 34.31
  C 66.50 30.09 59.15 29.96 55.38 30.81
  Q 54.89 30.92 54.77 31.42
  C 53.84 35.52 51.56 39.84 47.31 39.69"
/>
<path stroke="#7c644f" vector-effect="non-scaling-stroke" d="
  M 11.00 40.11
  L 16.85 39.38
  A 0.21 0.21 0.0 0 0 17.04 39.15
  L 16.80 37.24
  A 6.39 1.72 82.9 0 0 14.30 31.11
  L 11.44 31.47
  A 6.39 1.72 82.9 0 0 10.53 38.02
  L 10.76 39.93
  A 0.21 0.21 0.0 0 0 11.00 40.11"
/>
<path stroke="#ed8832" vector-effect="non-scaling-stroke" d="
  M 311.0360 16.1079
  A 4.97 4.97 0.0 0 0 306.1623 11.0434
  L 302.0831 10.9651
  A 4.97 4.97 0.0 0 0 297.0186 15.8388
  L 296.3240 52.0121
  A 4.97 4.97 0.0 0 0 301.1977 57.0766
  L 305.2769 57.1549
  A 4.97 4.97 0.0 0 0 310.3414 52.2812
  L 311.0360 16.1079"
/>
<path stroke="#ed8832" vector-effect="non-scaling-stroke" d="
  M 318.68 37.95
  L 320.73 56.66
  Q 320.79 57.21 321.34 57.21
  L 326.39 57.27
  Q 327.04 57.27 327.05 56.62
  L 327.86 12.04
  Q 327.87 11.39 327.22 11.37
  L 323.26 11.28
  Q 322.52 11.26 322.50 12.00
  L 322.09 27.72
  A 0.10 0.10 0.0 0 1 322.06 27.79
  Q 321.19 28.67 321.03 26.99
  Q 320.35 19.65 319.45 11.94
  A 0.76 0.75 86.6 0 0 318.70 11.27
  L 313.37 11.27
  Q 312.83 11.27 312.82 11.82
  L 312.22 56.19
  Q 312.20 57.23 313.25 57.24
  L 317.00 57.26
  Q 317.74 57.26 317.70 56.53
  Q 317.26 47.18 318.01 37.96
  A 0.34 0.34 0.0 0 1 318.68 37.95"
/>
<path stroke="#ed8832" vector-effect="non-scaling-stroke" d="
  M 285.37 27.69
  A 0.33 0.33 0.0 0 1 284.72 27.66
  L 283.68 12.70
  Q 283.62 11.77 282.69 11.76
  L 276.34 11.64
  Q 275.56 11.63 275.56 12.41
  L 275.16 56.71
  A 0.81 0.80 -79.2 0 0 275.68 57.48
  C 277.39 58.14 280.96 58.36 280.52 55.25
  Q 279.98 51.46 280.58 36.87
  Q 280.58 36.82 280.63 36.80
  Q 280.77 36.74 280.89 36.74
  Q 281.00 36.73 281.02 36.85
  L 283.04 56.41
  Q 283.10 57.03 283.65 57.33
  Q 284.94 58.05 286.14 57.38
  Q 286.54 57.16 286.58 56.70
  L 288.16 37.78
  Q 288.18 37.50 288.46 37.50
  Q 288.67 37.50 288.89 37.50
  A 0.35 0.35 0.0 0 1 289.25 37.85
  L 289.25 56.90
  Q 289.25 57.47 289.82 57.52
  L 293.74 57.81
  A 0.70 0.69 1.9 0 0 294.49 57.11
  Q 294.22 37.34 295.16 17.68
  C 295.24 16.15 294.88 14.53 295.03 12.91
  A 1.06 1.06 0.0 0 0 293.97 11.75
  L 288.32 11.75
  A 1.37 1.37 0.0 0 0 286.95 13.05
  Q 286.56 20.42 285.37 27.69"
/>
<path stroke="#ed8832" vector-effect="non-scaling-stroke" d="
  M 106.4695 16.7061
  A 4.95 4.95 0.0 0 0 101.4254 11.8520
  L 97.0262 11.9365
  A 4.95 4.95 0.0 0 0 92.1721 16.9806
  L 92.8705 53.3539
  A 4.95 4.95 0.0 0 0 97.9146 58.2080
  L 102.3138 58.1235
  A 4.95 4.95 0.0 0 0 107.1679 53.0794
  L 106.4695 16.7061"
/>
<path stroke="#ed8832" vector-effect="non-scaling-stroke" d="
  M 153.01 12.94
  L 153.23 56.64
  A 1.18 1.18 0.0 0 0 154.42 57.81
  L 162.03 57.77
  A 5.82 5.43 89.7 0 0 167.43 51.92
  L 167.25 17.50
  A 5.82 5.43 89.7 0 0 161.79 11.71
  L 154.18 11.75
  A 1.18 1.18 0.0 0 0 153.01 12.94"
/>
<path stroke="#ed8832" vector-effect="non-scaling-stroke" d="
  M 175.97 16.76
  L 177.78 16.73
  Q 178.35 16.72 178.41 16.15
  L 178.75 12.93
  A 1.07 1.07 0.0 0 0 177.68 11.75
  L 170.17 11.76
  A 1.13 1.13 0.0 0 0 169.04 12.90
  L 169.32 56.96
  Q 169.33 57.52 169.89 57.54
  L 177.80 57.84
  A 0.88 0.88 0.0 0 0 178.71 56.94
  L 178.65 53.52
  Q 178.64 52.87 177.99 52.93
  Q 175.19 53.17 175.23 49.75
  Q 175.33 43.12 175.48 36.46
  C 175.51 35.58 175.80 34.75 176.88 35.29
  A 1.09 1.09 0.0 0 0 178.38 34.71
  Q 179.21 32.57 178.38 30.52
  A 0.63 0.62 -20.4 0 0 177.59 30.16
  C 176.01 30.70 175.36 30.18 175.28 28.54
  Q 175.01 22.90 175.39 17.31
  Q 175.43 16.77 175.97 16.76"
/>
<path stroke="#ed8832" vector-effect="non-scaling-stroke" d="
  M 190.23 56.98
  C 191.43 53.42 189.27 53.55 187.25 52.37
  Q 186.79 52.10 186.79 51.56
  L 186.62 12.49
  Q 186.62 11.87 185.99 11.85
  L 181.25 11.71
  A 0.79 0.78 0.4 0 0 180.44 12.50
  L 180.76 56.88
  Q 180.77 57.50 181.38 57.50
  L 189.50 57.50
  Q 190.05 57.50 190.23 56.98"
/>
<path stroke="#ed8832" vector-effect="non-scaling-stroke" d="
  M 205.6983 16.7579
  A 4.89 4.89 0.0 0 0 200.7997 11.8764
  L 196.6398 11.8837
  A 4.89 4.89 0.0 0 0 191.7583 16.7822
  L 191.8217 53.1221
  A 4.89 4.89 0.0 0 0 196.7203 58.0036
  L 200.8802 57.9963
  A 4.89 4.89 0.0 0 0 205.7617 53.0978
  L 205.6983 16.7579"
/>
<path stroke="#ed8832" vector-effect="non-scaling-stroke" d="
  M 250.1356 12.6654
  A 0.80 0.80 0.0 0 0 249.3398 11.8613
  L 245.1599 11.8394
  A 0.80 0.80 0.0 0 0 244.3557 12.6352
  L 244.1244 56.8146
  A 0.80 0.80 0.0 0 0 244.9202 57.6187
  L 249.1001 57.6406
  A 0.80 0.80 0.0 0 0 249.9043 56.8448
  L 250.1356 12.6654"
/>
<path stroke="#ed8832" vector-effect="non-scaling-stroke" d="
  M 252.71 57.47
  L 260.87 57.51
  Q 261.50 57.52 261.50 56.88
  L 261.50 53.60
  A 0.78 0.78 0.0 0 0 260.84 52.83
  L 258.83 52.51
  Q 258.25 52.41 258.25 51.83
  L 258.25 12.75
  Q 258.25 12.21 257.73 12.07
  Q 255.20 11.39 252.71 12.05
  A 0.69 0.68 82.2 0 0 252.21 12.71
  L 252.27 57.03
  A 0.44 0.44 0.0 0 0 252.71 57.47"
/>
<path stroke="#ed8832" vector-effect="non-scaling-stroke" d="
  M 270.04 29.20
  L 269.94 17.31
  Q 269.93 16.80 270.44 16.78
  L 272.72 16.69
  A 0.65 0.64 0.5 0 0 273.33 16.10
  L 273.63 12.46
  A 0.68 0.67 -88.4 0 0 272.95 11.73
  L 264.75 11.84
  A 0.72 0.72 0.0 0 0 264.04 12.56
  L 263.86 56.55
  A 0.95 0.95 0.0 0 0 264.81 57.50
  L 272.39 57.50
  Q 273.22 57.50 273.22 56.67
  L 273.22 53.59
  Q 273.22 52.95 272.59 52.86
  L 270.33 52.51
  Q 269.75 52.42 269.75 51.83
  L 269.75 35.99
  Q 269.75 34.81 270.89 35.10
  C 273.58 35.79 273.93 32.46 273.28 30.84
  A 0.91 0.90 85.1 0 0 272.62 30.28
  L 270.56 29.83
  A 0.66 0.66 0.0 0 1 270.04 29.20"
/>
<path stroke="#ed8832" vector-effect="non-scaling-stroke" d="
  M 133.12 17.17
  L 134.85 16.68
  Q 135.47 16.50 135.45 15.85
  L 135.35 12.78
  A 0.82 0.81 -1.1 0 0 134.52 11.99
  L 124.34 12.21
  A 0.77 0.77 0.0 0 0 123.61 12.84
  Q 123.02 16.16 125.83 17.38
  Q 126.33 17.60 126.35 18.15
  Q 126.76 37.80 127.35 57.45
  Q 127.37 58.11 128.02 58.07
  L 132.82 57.79
  A 0.58 0.58 0.0 0 0 133.37 57.20
  L 132.65 17.81
  A 0.65 0.65 0.0 0 1 133.12 17.17"
/>
<path stroke="#ed8832" vector-effect="non-scaling-stroke" d="
  M 144.43 48.06
  C 145.74 49.37 145.54 55.29 145.53 57.17
  A 0.55 0.55 0.0 0 0 146.08 57.73
  L 151.08 57.72
  A 0.52 0.52 0.0 0 0 151.60 57.16
  L 148.39 12.91
  Q 148.33 12.02 147.43 12.02
  L 139.66 12.05
  Q 138.94 12.05 138.90 12.77
  L 136.07 57.14
  A 0.83 0.82 -89.1 0 0 136.92 58.02
  L 141.50 57.85
  Q 142.13 57.82 142.17 57.19
  L 142.61 48.76
  A 1.07 1.07 0.0 0 1 144.43 48.06"
/>
<path stroke="#ed8832" vector-effect="non-scaling-stroke" d="
  M 238.77 17.78
  A 0.71 0.71 0.0 0 1 239.40 17.08
  L 241.56 16.84
  A 0.71 0.71 0.0 0 0 242.19 16.18
  L 242.39 12.90
  A 0.71 0.71 0.0 0 0 241.70 12.14
  L 233.46 11.93
  A 0.71 0.71 0.0 0 0 232.73 12.64
  L 232.76 57.03
  A 0.71 0.71 0.0 0 0 233.47 57.74
  L 238.04 57.76
  A 0.71 0.71 0.0 0 0 238.75 57.05
  L 238.75 36.29
  A 0.71 0.71 0.0 0 1 239.35 35.59
  L 241.77 35.21
  A 0.71 0.71 0.0 0 0 242.37 34.48
  L 242.26 31.22
  A 0.71 0.71 0.0 0 0 241.64 30.54
  L 239.36 30.24
  A 0.71 0.71 0.0 0 1 238.74 29.54
  L 238.77 17.78"
/>
<path stroke="#ed8832" vector-effect="non-scaling-stroke" d="
  M 85.42 38.36
  Q 85.86 47.83 86.15 57.30
  Q 86.17 57.83 86.68 57.99
  Q 88.91 58.68 91.05 57.73
  A 0.71 0.71 0.0 0 0 91.48 57.06
  L 90.67 12.77
  Q 90.66 12.18 90.08 12.20
  L 83.47 12.38
  Q 82.83 12.40 82.79 13.03
  L 81.75 28.27
  A 0.42 0.41 44.1 0 1 80.92 28.28
  L 79.32 13.16
  Q 79.25 12.57 78.66 12.53
  L 72.51 12.18
  A 1.04 1.03 -89.0 0 0 71.42 13.24
  L 72.46 57.34
  Q 72.48 57.96 73.10 57.96
  L 76.61 57.91
  Q 77.37 57.90 77.37 57.14
  L 77.31 37.78
  Q 77.30 36.92 77.68 37.70
  Q 77.98 38.31 78.09 39.44
  Q 78.93 47.94 79.83 56.44
  Q 80.05 58.56 82.86 57.92
  Q 83.38 57.80 83.42 57.28
  L 84.90 38.35
  A 0.26 0.26 0.0 0 1 85.42 38.36"
/>
<path stroke="#ed8832" vector-effect="non-scaling-stroke" d="
  M 109.95 58.03
  L 114.52 58.07
  Q 115.14 58.07 115.11 57.45
  C 114.99 54.85 114.04 39.89 115.32 38.80
  A 1.08 1.08 0.0 0 1 117.11 39.60
  L 117.34 57.29
  Q 117.35 57.97 118.03 57.97
  L 122.57 57.92
  Q 123.24 57.92 123.27 57.24
  C 123.50 50.81 124.26 39.74 121.29 35.62
  Q 120.93 35.13 121.31 34.64
  L 122.14 33.58
  Q 122.48 33.13 122.53 32.56
  C 122.80 29.08 124.38 12.93 119.26 12.49
  Q 113.85 12.02 108.77 12.63
  A 0.74 0.73 -4.3 0 0 108.12 13.38
  L 109.17 57.27
  A 0.78 0.78 0.0 0 0 109.95 58.03"
/>
<path stroke="#7e7722" vector-effect="non-scaling-stroke" d="
  M 439.26 38.01
  Q 445.69 38.19 446.12 31.80
  C 446.72 22.90 442.14 22.60 435.12 23.06
  Q 434.50 23.11 434.50 23.73
  L 434.50 46.66
  Q 434.50 47.32 435.16 47.32
  L 438.34 47.32
  Q 438.75 47.32 438.75 46.91
  L 438.75 38.51
  Q 438.75 38.00 439.26 38.01"
/>
<path stroke="#7e7722" vector-effect="non-scaling-stroke" d="
  M 452.09 33.00
  A 0.34 0.34 0.0 0 1 451.75 32.66
  L 451.75 27.34
  A 0.34 0.34 0.0 0 1 452.09 27.00
  L 457.73 27.00
  A 0.34 0.34 0.0 0 0 458.07 26.65
  L 457.97 23.33
  A 0.34 0.34 0.0 0 0 457.63 23.00
  L 447.84 23.00
  A 0.34 0.34 0.0 0 0 447.50 23.34
  L 447.50 47.14
  A 0.34 0.34 0.0 0 0 447.84 47.48
  L 457.82 47.52
  A 0.34 0.34 0.0 0 0 458.16 47.16
  L 457.94 43.95
  A 0.34 0.34 0.0 0 0 457.59 43.63
  L 452.10 43.80
  A 0.34 0.34 0.0 0 1 451.75 43.46
  L 451.75 37.34
  A 0.34 0.34 0.0 0 1 452.09 37.00
  L 456.41 37.00
  A 0.34 0.34 0.0 0 0 456.75 36.66
  L 456.75 33.34
  A 0.34 0.34 0.0 0 0 456.41 33.00
  L 452.09 33.00"
/>
<path stroke="#7e7722" vector-effect="non-scaling-stroke" d="
  M 464.75 38.53
  A 1.41 1.41 0.0 0 1 467.57 38.49
  L 467.82 46.79
  Q 467.84 47.24 468.29 47.24
  L 471.74 47.26
  Q 472.20 47.27 472.17 46.81
  C 471.98 43.64 472.69 38.18 470.61 35.70
  Q 470.30 35.33 470.55 34.92
  Q 473.00 30.74 471.45 26.21
  C 470.02 22.05 464.58 22.84 461.14 23.04
  Q 460.50 23.08 460.50 23.72
  L 460.50 46.63
  Q 460.50 47.21 461.07 47.24
  L 464.28 47.42
  A 0.44 0.44 0.0 0 0 464.75 46.98
  L 464.75 38.53"
/>
<path stroke="#7e7722" vector-effect="non-scaling-stroke" d="
  M 480.00 28.24
  L 480.00 29.98
  Q 480.00 30.45 480.47 30.42
  L 483.66 30.24
  Q 483.95 30.22 484.02 29.94
  C 485.96 21.76 473.97 20.42 473.01 27.51
  C 472.00 34.94 481.69 38.04 479.63 42.94
  A 1.31 1.31 0.0 0 1 477.12 42.56
  L 476.93 40.57
  A 0.64 0.62 86.9 0 0 476.31 40.00
  L 473.81 40.00
  Q 473.20 40.00 473.09 40.59
  Q 472.35 44.52 475.29 46.90
  A 1.50 1.47 -24.7 0 0 476.24 47.24
  C 478.66 47.27 482.17 47.91 483.48 45.22
  C 488.05 35.78 476.65 34.34 477.25 28.10
  A 1.38 1.38 0.0 0 1 480.00 28.24"
/>
<path stroke="#7e7722" vector-effect="non-scaling-stroke" d="
  M 497.9478 28.1898
  A 5.15 5.15 0.0 0 0 492.7888 23.0488
  L 491.3688 23.0513
  A 5.15 5.15 0.0 0 0 486.2278 28.2102
  L 486.2522 42.1502
  A 5.15 5.15 0.0 0 0 491.4112 47.2912
  L 492.8312 47.2887
  A 5.15 5.15 0.0 0 0 497.9722 42.1298
  L 497.9478 28.1898"
/>
<path stroke="#7e7722" vector-effect="non-scaling-stroke" d="
  M 507.21 33.48
  L 504.79 23.50
  Q 504.67 23.00 504.16 23.00
  L 500.12 23.00
  Q 499.50 23.00 499.50 23.63
  L 499.50 46.70
  Q 499.50 47.33 500.13 47.31
  L 502.90 47.23
  Q 503.27 47.22 503.27 46.85
  L 503.29 35.02
  A 0.26 0.25 -53.8 0 1 503.79 34.94
  Q 505.59 40.81 506.94 46.80
  Q 507.04 47.25 507.50 47.25
  L 511.00 47.25
  Q 511.50 47.25 511.50 46.75
  L 511.50 23.50
  Q 511.50 23.00 511.00 23.00
  L 508.25 23.00
  Q 507.75 23.00 507.75 23.50
  L 507.74 33.42
  A 0.27 0.27 0.0 0 1 507.21 33.48"
/>
<path stroke="#7e7722" vector-effect="non-scaling-stroke" d="
  M 520.48 43.03
  A 0.34 0.34 0.0 0 1 520.81 43.34
  L 521.08 46.98
  A 0.34 0.34 0.0 0 0 521.42 47.30
  L 525.25 47.25
  A 0.34 0.34 0.0 0 0 525.58 46.85
  L 521.89 23.29
  A 0.34 0.34 0.0 0 0 521.56 23.00
  L 516.53 23.00
  A 0.34 0.34 0.0 0 0 516.20 23.29
  L 512.54 46.97
  A 0.34 0.34 0.0 0 0 512.90 47.36
  L 516.32 47.20
  A 0.34 0.34 0.0 0 0 516.64 46.91
  L 517.13 43.29
  A 0.34 0.34 0.0 0 1 517.47 42.99
  L 520.48 43.03"
/>
<path stroke="#7e7722" vector-effect="non-scaling-stroke" d="
  M 527.48 43.52
  Q 527.31 43.46 527.13 43.54
  Q 526.75 43.69 526.75 44.10
  L 526.75 46.48
  Q 526.75 46.93 527.18 47.04
  C 533.57 48.67 534.27 44.48 534.26 39.42
  Q 534.24 31.47 534.25 23.51
  Q 534.25 23.00 533.74 23.00
  L 530.60 23.00
  Q 530.01 23.00 530.01 23.59
  L 529.96 42.25
  A 1.93 1.51 11.0 0 1 527.48 43.52"
/>
<path stroke="#7e7722" vector-effect="non-scaling-stroke" d="
  M 540.75 37.45
  A 0.45 0.45 0.0 0 1 541.20 37.00
  L 545.30 37.00
  A 0.45 0.45 0.0 0 0 545.75 36.55
  L 545.75 33.45
  A 0.45 0.45 0.0 0 0 545.30 33.00
  L 541.20 33.00
  A 0.45 0.45 0.0 0 1 540.75 32.55
  L 540.75 27.45
  A 0.45 0.45 0.0 0 1 541.20 27.00
  L 546.47 27.00
  A 0.45 0.45 0.0 0 0 546.92 26.58
  L 547.10 23.48
  A 0.45 0.45 0.0 0 0 546.65 23.00
  L 536.95 23.00
  A 0.45 0.45 0.0 0 0 536.50 23.45
  L 536.50 46.79
  A 0.45 0.45 0.0 0 0 536.95 47.24
  L 546.69 47.31
  A 0.45 0.45 0.0 0 0 547.14 46.82
  L 546.91 44.05
  A 0.45 0.45 0.0 0 0 546.44 43.63
  L 541.21 43.80
  A 0.45 0.45 0.0 0 1 540.75 43.35
  L 540.75 37.45"
/>
<path stroke="#7e7722" vector-effect="non-scaling-stroke" d="
  M 555.00 28.06
  L 555.00 29.98
  Q 555.00 30.45 555.48 30.42
  L 558.66 30.24
  Q 558.96 30.22 559.02 29.93
  C 561.02 21.47 548.02 20.30 547.85 28.53
  C 547.72 35.08 556.41 38.03 554.72 42.83
  A 1.37 1.36 -37.2 0 1 552.07 42.47
  L 551.96 40.59
  A 0.63 0.63 0.0 0 0 551.33 40.00
  L 548.32 40.00
  Q 547.87 40.00 547.82 40.44
  C 546.76 48.89 558.07 49.90 559.21 43.03
  C 559.81 39.41 558.82 37.32 556.21 34.57
  C 554.55 32.83 551.13 30.23 552.50 27.48
  A 1.32 1.32 0.0 0 1 555.00 28.06"
/>
<path stroke="#ed8832" vector-effect="non-scaling-stroke" d="
  M 219.53 38.22
  Q 218.87 34.58 218.49 30.91
  Q 218.43 30.34 217.92 30.11
  Q 216.00 29.23 214.06 30.15
  Q 213.53 30.40 213.66 30.97
  L 218.37 51.33
  A 0.86 0.86 0.0 0 1 217.88 52.31
  L 216.22 53.03
  Q 215.78 53.22 215.61 53.67
  Q 214.96 55.50 215.59 57.26
  A 0.73 0.73 0.0 0 0 216.28 57.75
  L 218.98 57.75
  Q 219.46 57.75 219.80 57.42
  C 222.85 54.41 222.56 51.78 223.26 47.91
  Q 224.82 39.20 225.69 30.33
  Q 225.75 29.74 225.17 29.58
  Q 222.88 28.98 221.08 30.04
  Q 220.61 30.32 220.59 30.87
  L 220.28 38.17
  A 0.38 0.38 0.0 0 1 219.53 38.22"
/>
<path stroke="#f5e058" vector-effect="non-scaling-stroke" d="
  M 628.5372 47.5711
  A 1.69 0.63 11.3 0 0 627.0034 46.6222
  A 1.69 0.63 11.3 0 0 625.2228 46.9089
  A 1.69 0.63 11.3 0 0 626.7566 47.8578
  A 1.69 0.63 11.3 0 0 628.5372 47.5711"
/>
<path stroke="#ea894f" vector-effect="non-scaling-stroke" d="
  M 305.1537 17.0370
  A 1.08 1.08 0.0 0 0 304.0965 15.9346
  L 304.0366 15.9333
  A 1.08 1.08 0.0 0 0 302.9342 16.9905
  L 302.2263 50.7830
  A 1.08 1.08 0.0 0 0 303.2835 51.8854
  L 303.3434 51.8867
  A 1.08 1.08 0.0 0 0 304.4458 50.8295
  L 305.1537 17.0370"
/>
<path stroke="#e77b47" vector-effect="non-scaling-stroke" d="
  M 100.6269 18.2026
  A 1.05 1.05 0.0 0 0 99.5569 17.1729
  L 99.5169 17.1737
  A 1.05 1.05 0.0 0 0 98.4873 18.2436
  L 99.1331 51.8774
  A 1.05 1.05 0.0 0 0 100.2031 52.9071
  L 100.2431 52.9063
  A 1.05 1.05 0.0 0 0 101.2727 51.8364
  L 100.6269 18.2026"
/>
<path stroke="#e77b47" vector-effect="non-scaling-stroke" d="
  M 161.1850 18.0177
  A 1.08 1.08 0.0 0 0 160.0919 16.9510
  L 160.0319 16.9517
  A 1.08 1.08 0.0 0 0 158.9652 18.0448
  L 159.3750 51.5823
  A 1.08 1.08 0.0 0 0 160.4681 52.6490
  L 160.5281 52.6483
  A 1.08 1.08 0.0 0 0 161.5948 51.5552
  L 161.1850 18.0177"
/>
<path stroke="#e77b47" vector-effect="non-scaling-stroke" d="
  M 199.6601 17.7683
  A 0.94 0.94 0.0 0 0 198.7185 16.8300
  L 198.6585 16.8301
  A 0.94 0.94 0.0 0 0 197.7201 17.7717
  L 197.7799 52.0317
  A 0.94 0.94 0.0 0 0 198.7215 52.9700
  L 198.7815 52.9699
  A 0.94 0.94 0.0 0 0 199.7199 52.0283
  L 199.6601 17.7683"
/>
<path stroke="#e77b47" vector-effect="non-scaling-stroke" d="
  M 143.15 42.49
  L 144.33 42.49
  A 0.27 0.27 0.0 0 0 144.60 42.23
  L 144.60 42.06
  A 17.30 0.84 -89.6 0 0 143.88 24.75
  L 143.84 24.75
  A 17.30 0.84 -89.6 0 0 142.88 42.04
  L 142.88 42.21
  A 0.27 0.27 0.0 0 0 143.15 42.49"
/>
<path stroke="#e77b47" vector-effect="non-scaling-stroke" d="
  M 116.3875 17.8290
  A 0.95 0.95 0.0 0 0 115.4162 16.9008
  L 115.3162 16.9031
  A 0.95 0.95 0.0 0 0 114.3880 17.8744
  L 114.6925 31.2910
  A 0.95 0.95 0.0 0 0 115.6638 32.2192
  L 115.7638 32.2169
  A 0.95 0.95 0.0 0 0 116.6920 31.2456
  L 116.3875 17.8290"
/>
<path stroke="#9e835b" vector-effect="non-scaling-stroke" d="
  M 663.49 26.18
  C 662.20 26.35 656.98 26.73 656.55 27.93
  Q 656.40 28.38 656.87 28.32
  L 662.73 27.50
  A 1.29 1.28 -71.7 0 0 663.48 27.12
  L 664.04 26.53"
/>
<path stroke="#f4cd85" vector-effect="non-scaling-stroke" d="
  M 664.04 26.53
  Q 664.95 25.74 664.72 24.96
  Q 664.61 24.58 664.38 24.91
  L 663.49 26.18"
/>
<path stroke="#998842" vector-effect="non-scaling-stroke" d="
  M 664.04 26.53
  Q 664.02 26.24 663.49 26.18"
/>
<path stroke="#7c644f" vector-effect="non-scaling-stroke" d="
  M 683.91 47.11
  C 681.40 35.88 668.94 26.18 658.24 30.30
  A 0.38 0.38 0.0 0 0 658.47 31.03
  C 662.02 30.19 664.81 29.80 668.33 31.10
  Q 679.31 35.16 683.22 46.72
  Q 683.36 47.12 683.68 47.29
  Q 683.99 47.45 683.91 47.11"
/>
<path stroke="#7c644f" vector-effect="non-scaling-stroke" d="
  M 694.28 48.55
  L 693.41 50.65
  A 0.49 0.49 0.0 0 0 693.97 51.32
  Q 696.52 50.79 696.48 48.03
  Q 696.47 47.40 697.11 47.36
  L 699.85 47.20
  Q 700.29 47.17 700.11 46.76
  C 699.46 45.26 691.12 47.44 689.42 48.08
  Q 688.89 48.28 689.30 48.66
  C 689.40 48.75 693.21 47.91 693.87 47.93
  A 0.46 0.45 11.7 0 1 694.28 48.55"
/>
<path stroke="#7d7b75" vector-effect="non-scaling-stroke" d="
  M 670.9682 22.9205
  A 1.51 1.15 113.9 0 0 672.6314 22.0059
  A 1.51 1.15 113.9 0 0 672.1918 20.1595
  A 1.51 1.15 113.9 0 0 670.5286 21.0741
  A 1.51 1.15 113.9 0 0 670.9682 22.9205"
/>
<path stroke="#7d7b75" vector-effect="non-scaling-stroke" d="
  M 38.9618 27.6420
  A 1.74 1.10 78.0 0 0 39.6760 25.7113
  A 1.74 1.10 78.0 0 0 38.2382 24.2380
  A 1.74 1.10 78.0 0 0 37.5240 26.1687
  A 1.74 1.10 78.0 0 0 38.9618 27.6420"
/>
<path stroke="#7d7b75" vector-effect="non-scaling-stroke" d="
  M 677.2026 26.2224
  A 2.29 1.57 105.9 0 0 679.3399 24.4501
  A 2.29 1.57 105.9 0 0 678.4574 21.8176
  A 2.29 1.57 105.9 0 0 676.3201 23.5899
  A 2.29 1.57 105.9 0 0 677.2026 26.2224"
/>
<path stroke="#7e7722" vector-effect="non-scaling-stroke" d="
  M 441.6044 27.9825
  A 0.93 0.93 0.0 0 0 440.6760 27.0509
  L 439.6560 27.0491
  A 0.93 0.93 0.0 0 0 438.7244 27.9775
  L 438.7156 33.0175
  A 0.93 0.93 0.0 0 0 439.6440 33.9491
  L 440.6640 33.9509
  A 0.93 0.93 0.0 0 0 441.5956 33.0225
  L 441.6044 27.9825"
/>
<path stroke="#7e7722" vector-effect="non-scaling-stroke" d="
  M 467.5727 27.9999
  A 0.92 0.92 0.0 0 0 466.6656 27.0672
  L 465.6857 27.0535
  A 0.92 0.92 0.0 0 0 464.7529 27.9605
  L 464.6873 32.6601
  A 0.92 0.92 0.0 0 0 465.5944 33.5928
  L 466.5743 33.6065
  A 0.92 0.92 0.0 0 0 467.5071 32.6995
  L 467.5727 27.9999"
/>
<path stroke="#7e7722" vector-effect="non-scaling-stroke" d="
  M 493.7218 28.5628
  A 1.56 1.56 0.0 0 0 492.1646 27.0001
  L 492.0846 26.9999
  A 1.56 1.56 0.0 0 0 490.5218 28.5572
  L 490.4982 42.1172
  A 1.56 1.56 0.0 0 0 492.0554 43.6799
  L 492.1354 43.6801
  A 1.56 1.56 0.0 0 0 493.6982 42.1228
  L 493.7218 28.5628"
/>
<path stroke="#7e7722" vector-effect="non-scaling-stroke" d="
  M 518.29 39.00
  L 519.59 39.00
  A 0.43 0.43 0.0 0 0 520.01 38.56
  L 520.01 38.39
  A 6.64 0.99 89.6 0 0 518.97 31.76
  L 518.79 31.76
  A 6.64 0.99 89.6 0 0 517.85 38.41
  L 517.85 38.58
  A 0.43 0.43 0.0 0 0 518.29 39.00"
/>
<path stroke="#9f9a81" vector-effect="non-scaling-stroke" d="
  M 31.20 59.83
  L 32.52 59.65
  A 0.27 0.27 0.0 0 0 32.75 59.34
  L 32.74 59.24
  A 5.67 0.81 82.0 0 0 31.15 53.74
  L 30.89 53.78
  A 5.67 0.81 82.0 0 0 30.88 59.51
  L 30.89 59.60
  A 0.27 0.27 0.0 0 0 31.20 59.83"
/>
<path stroke="#9f9a81" vector-effect="non-scaling-stroke" d="
  M 26.34 59.66
  L 27.48 60.08
  A 0.41 0.41 0.0 0 0 28.01 59.83
  L 28.07 59.67
  A 3.04 0.86 -70.0 0 0 28.30 56.52
  L 28.00 56.41
  A 3.04 0.86 -70.0 0 0 26.15 58.98
  L 26.09 59.14
  A 0.41 0.41 0.0 0 0 26.34 59.66"
/>
</g>
<path fill="#faf6e9" d="
  M 0.00 0.00
  L 720.00 0.00
  L 720.00 71.00
  L 0.00 71.00
  L 0.00 0.00
  Z
  M 404.8110 4.9698
  A 1.33 0.59 80.0 0 0 405.1610 3.5575
  A 1.33 0.59 80.0 0 0 404.3490 2.3502
  A 1.33 0.59 80.0 0 0 403.9990 3.7625
  A 1.33 0.59 80.0 0 0 404.8110 4.9698
  Z
  M 607.75 8.17
  Q 562.66 7.75 517.57 8.26
  C 498.92 8.47 480.00 7.75 461.16 8.22
  C 448.92 8.52 437.40 8.34 425.50 8.39
  C 390.35 8.57 355.20 8.25 320.05 8.44
  C 240.29 8.87 160.52 8.54 80.75 8.75
  C 57.25 8.76 33.79 8.92 10.30 8.29
  Q 9.71 8.28 9.75 8.86
  Q 9.85 10.15 9.22 11.31
  Q 8.97 11.78 9.07 12.32
  C 9.75 15.92 9.18 20.36 9.22 22.91
  Q 9.37 32.83 9.54 42.75
  L 9.51 59.34
  A 2.34 2.30 -34.5 0 1 9.34 60.21
  L 8.65 61.89
  A 0.50 0.50 0.0 0 0 9.30 62.54
  Q 10.20 62.16 10.63 61.21
  Q 10.84 60.75 11.35 60.74
  C 17.09 60.71 22.68 61.16 28.44 60.92
  C 35.95 60.60 44.52 61.26 50.85 61.25
  Q 78.77 61.21 106.69 61.51
  C 157.57 62.06 208.62 61.88 259.51 61.76
  Q 295.66 61.67 331.81 61.32
  Q 341.56 61.23 351.31 61.27
  Q 423.88 61.59 496.44 62.07
  Q 535.48 62.33 552.00 62.14
  C 603.27 61.75 654.60 61.87 705.87 62.26
  C 708.51 62.28 711.17 62.62 711.09 59.01
  Q 710.62 38.81 710.79 17.88
  A 0.87 0.87 0.0 0 1 712.43 17.47
  L 713.69 19.82
  Q 714.03 20.46 714.18 19.75
  C 714.92 16.33 712.95 15.27 710.74 13.41
  A 0.71 0.71 0.0 0 1 710.56 12.57
  Q 711.53 10.49 710.26 8.57
  A 0.95 0.95 0.0 0 0 709.46 8.13
  L 693.19 8.03
  Q 692.73 8.02 692.44 7.67
  Q 687.92 2.12 680.93 4.78
  C 680.21 5.06 679.80 5.61 680.07 6.36
  A 0.57 0.56 69.0 0 0 680.82 6.70
  Q 686.18 4.45 691.18 7.29
  A 0.55 0.55 0.0 0 1 690.90 8.32
  L 607.75 8.17
  Z
  M 553.92 68.93
  Q 553.55 70.24 554.70 69.52
  L 556.11 68.65
  A 0.47 0.47 0.0 0 0 555.95 67.79
  Q 554.33 67.47 553.92 68.93
  Z"
/>
<ellipse fill="#f8c79d" cx="0.00" cy="0.00" transform="translate(404.58,3.66) rotate(80.0)" rx="1.33" ry="0.59"/>
<path fill="#000000" d="
  M 552.00 62.14
  Q 551.03 62.14 551.50 60.76
  L 657.54 61.06
  A 0.32 0.32 0.0 0 0 657.79 60.55
  Q 654.03 55.79 652.10 50.04
  A 1.09 1.08 -1.0 0 0 651.38 49.35
  C 643.25 46.99 640.99 37.02 648.07 31.95
  A 1.10 1.10 0.0 0 0 648.28 30.36
  Q 645.42 26.86 645.17 22.36
  Q 645.14 21.79 645.56 21.40
  Q 655.84 12.01 667.30 20.28
  Q 667.69 20.56 668.05 20.23
  Q 670.30 18.20 672.91 17.15
  Q 675.56 16.89 677.42 18.27
  Q 677.82 18.57 678.29 18.45
  C 687.43 16.20 689.01 27.44 682.22 29.84
  Q 687.10 24.90 684.04 20.12
  A 1.34 1.33 -9.3 0 0 683.27 19.57
  C 672.02 16.56 669.99 32.85 680.29 30.25
  L 677.94 31.45
  Q 677.34 31.76 677.66 32.35
  Q 678.44 33.77 680.33 33.75
  A 0.20 0.20 0.0 0 1 680.38 34.15
  Q 678.36 34.61 677.67 32.89
  Q 677.49 32.43 677.01 32.26
  Q 673.59 31.07 673.02 27.49
  A 1.20 1.20 0.0 0 0 671.41 26.56
  C 669.39 27.33 667.22 22.09 665.46 20.96
  C 660.53 17.79 651.08 16.02 647.08 21.90
  A 2.42 2.40 50.7 0 0 646.86 24.19
  C 650.21 32.19 659.38 37.52 667.55 32.53
  Q 667.98 32.26 668.17 32.73
  C 669.03 34.90 661.86 36.38 660.17 36.60
  Q 659.59 36.68 659.44 37.24
  L 657.58 44.30
  A 0.45 0.45 0.0 0 0 658.28 44.78
  C 661.90 42.23 669.23 37.94 673.64 39.69
  C 678.01 41.44 679.01 47.67 678.20 51.88
  A 1.26 1.26 0.0 0 1 676.69 52.87
  Q 671.67 51.73 668.33 47.89
  A 0.51 0.51 0.0 0 0 667.44 48.14
  Q 666.73 51.96 668.53 55.40
  A 0.30 0.29 -87.6 0 1 668.11 55.79
  C 665.78 54.27 666.43 48.18 666.70 46.20
  A 0.47 0.46 30.0 0 1 667.53 45.98
  Q 669.05 47.92 671.10 49.31
  A 0.72 0.72 0.0 0 0 672.16 49.02
  L 675.04 42.76
  A 0.98 0.98 0.0 0 0 674.91 41.74
  C 670.92 36.92 660.67 43.86 657.62 46.90
  A 0.92 0.92 0.0 0 1 656.06 46.12
  L 657.36 36.82
  Q 657.40 36.56 657.20 36.38
  C 655.30 34.69 654.01 35.27 653.61 37.74
  Q 652.29 45.93 655.85 54.95
  C 658.67 62.10 661.97 60.90 669.56 61.00
  Q 677.01 61.10 684.47 60.76
  Q 685.01 60.74 685.42 60.39
  Q 687.32 58.79 688.56 56.67
  A 3.62 3.49 -24.3 0 0 688.94 55.72
  Q 689.12 54.89 688.90 54.27
  Q 688.49 53.15 689.59 53.61
  Q 696.00 56.26 700.63 53.07
  C 710.60 46.17 699.47 32.67 689.67 42.37
  A 0.41 0.41 0.0 0 1 689.04 41.85
  Q 692.27 37.30 697.83 37.19
  A 1.04 1.03 -83.9 0 0 698.82 36.38
  C 700.14 30.49 700.46 17.97 693.48 15.26
  A 0.75 0.74 0.6 0 0 692.51 16.21
  L 693.33 18.42
  A 0.25 0.25 0.0 0 1 693.10 18.75
  Q 692.91 18.75 692.73 18.75
  Q 692.51 18.76 692.46 18.54
  Q 690.67 10.79 683.00 14.02
  A 0.36 0.36 0.0 0 0 683.00 14.68
  Q 684.94 15.48 686.80 14.47
  A 0.91 0.91 0.0 0 1 687.78 14.54
  Q 690.29 16.43 690.70 19.70
  Q 690.78 20.29 690.18 20.34
  L 688.67 20.47
  A 0.66 0.66 0.0 0 1 687.95 19.85
  Q 687.70 14.92 682.74 15.90
  Q 682.17 16.01 682.09 15.44
  L 681.95 14.39
  Q 681.88 13.90 681.40 14.00
  Q 680.12 14.27 680.25 15.59
  A 1.27 1.27 0.0 0 1 678.40 16.84
  L 674.84 14.99
  A 0.72 0.72 0.0 0 0 673.79 15.58
  L 673.74 16.25
  Q 673.73 16.42 673.59 16.32
  Q 673.40 16.17 673.32 15.99
  C 672.65 13.74 676.58 13.93 677.90 14.19
  Q 678.38 14.29 678.84 14.12
  Q 681.52 13.13 684.31 12.48
  C 685.71 12.15 686.88 12.81 688.35 11.59
  Q 688.68 11.31 689.04 11.56
  L 692.06 13.73
  A 0.94 0.94 0.0 0 0 693.54 12.83
  L 693.17 10.22
  Q 693.08 9.60 692.45 9.58
  Q 658.22 8.97 623.99 9.55
  L 607.75 9.65
  L 607.75 8.17
  L 690.90 8.32
  A 0.55 0.55 0.0 0 0 691.18 7.29
  Q 686.18 4.45 680.82 6.70
  A 0.57 0.56 69.0 0 1 680.07 6.36
  C 679.80 5.61 680.21 5.06 680.93 4.78
  Q 687.92 2.12 692.44 7.67
  Q 692.73 8.02 693.19 8.03
  L 709.46 8.13
  A 0.95 0.95 0.0 0 1 710.26 8.57
  Q 711.53 10.49 710.56 12.57
  A 0.71 0.71 0.0 0 0 710.74 13.41
  C 712.95 15.27 714.92 16.33 714.18 19.75
  Q 714.03 20.46 713.69 19.82
  L 712.43 17.47
  A 0.87 0.87 0.0 0 0 710.79 17.88
  Q 710.62 38.81 711.09 59.01
  C 711.17 62.62 708.51 62.28 705.87 62.26
  C 654.60 61.87 603.27 61.75 552.00 62.14
  Z
  M 709.59 11.86
  C 710.28 10.07 709.11 9.53 707.59 9.55
  Q 701.27 9.61 694.89 9.32
  A 0.59 0.59 0.0 0 0 694.28 9.99
  L 694.81 14.46
  A 1.75 1.75 0.0 0 0 697.54 15.69
  Q 702.49 12.27 708.39 12.62
  A 1.20 1.20 0.0 0 0 709.59 11.86
  Z
  M 698.02 17.23
  C 702.72 24.12 701.96 29.40 700.61 37.17
  Q 700.53 37.66 700.96 37.91
  C 705.86 40.73 707.31 46.05 704.64 51.07
  Q 700.54 58.78 690.64 55.74
  A 0.54 0.54 0.0 0 0 690.03 55.96
  L 687.18 60.37
  Q 686.87 60.86 687.45 60.85
  L 708.71 60.62
  A 1.07 1.06 -0.6 0 0 709.76 59.56
  Q 709.73 38.86 709.77 17.93
  C 709.77 16.80 710.67 14.10 708.49 13.72
  Q 703.35 12.83 698.13 16.58
  Q 697.76 16.85 698.02 17.23
  Z
  M 671.50 26.32
  L 676.29 18.83
  A 0.18 0.18 0.0 0 0 676.23 18.59
  L 676.17 18.54
  A 4.62 4.58 32.6 0 0 669.81 19.91
  L 669.76 19.98
  A 4.62 4.58 32.6 0 0 671.19 26.33
  L 671.25 26.37
  A 0.18 0.18 0.0 0 0 671.50 26.32
  Z
  M 646.71 37.57
  L 649.91 39.73
  A 1.09 1.09 0.0 0 0 651.42 39.44
  L 651.49 39.33
  A 4.82 2.48 -55.9 0 0 652.14 33.95
  L 651.25 33.35
  A 4.82 2.48 -55.9 0 0 646.49 35.95
  L 646.42 36.06
  A 1.09 1.09 0.0 0 0 646.71 37.57
  Z
  M 648.01 43.03
  Q 647.92 42.00 648.35 41.03
  Q 648.56 40.57 648.34 40.12
  Q 647.75 38.94 646.36 38.99
  Q 645.75 39.01 645.75 39.62
  Q 645.68 45.29 650.37 48.08
  A 0.68 0.68 0.0 0 0 651.40 47.45
  L 651.08 41.98
  A 0.99 0.99 0.0 0 0 649.15 41.72
  Q 648.89 42.48 648.60 43.13
  A 0.31 0.31 0.0 0 1 648.01 43.03
  Z"
/>
<path fill="#605d52" d="
  M 607.75 8.17
  L 607.75 9.65
  C 544.09 9.61 480.41 9.87 416.75 10.00
  Q 375.32 10.00 333.88 9.97
  C 328.01 9.96 320.40 9.29 313.61 9.49
  Q 301.61 9.85 301.49 9.85
  C 227.91 10.21 154.33 9.92 80.75 10.00
  L 80.75 8.75
  C 160.52 8.54 240.29 8.87 320.05 8.44
  C 355.20 8.25 390.35 8.57 425.50 8.39
  C 437.40 8.34 448.92 8.52 461.16 8.22
  C 480.00 7.75 498.92 8.47 517.57 8.26
  Q 562.66 7.75 607.75 8.17
  Z"
/>
<path fill="#000000" d="
  M 80.75 8.75
  L 80.75 10.00
  L 11.40 9.77
  Q 10.76 9.77 10.70 10.40
  L 10.54 12.13
  Q 10.47 12.77 11.11 12.65
  Q 18.90 11.21 26.68 12.72
  Q 27.15 12.81 27.60 12.68
  L 29.31 12.20
  Q 29.81 12.06 29.92 12.57
  Q 30.34 14.54 32.03 15.52
  Q 32.55 15.82 32.95 15.38
  Q 34.80 13.40 37.52 13.32
  A 1.54 1.54 0.0 0 1 39.07 14.59
  C 39.39 16.46 36.85 16.40 35.73 16.62
  Q 35.21 16.72 35.23 17.25
  Q 35.26 17.80 35.78 18.16
  Q 35.41 18.49 35.27 19.01
  Q 34.72 19.66 35.44 20.45
  Q 35.79 20.83 36.20 20.53
  L 36.55 20.27
  Q 36.98 19.49 37.76 19.51
  Q 39.15 18.71 40.61 18.73
  Q 41.15 18.74 41.54 19.10
  L 44.14 21.44
  A 0.79 0.79 0.0 0 0 44.97 21.58
  Q 48.37 20.16 51.33 22.22
  A 0.71 0.70 40.6 0 0 52.21 22.16
  C 55.12 19.50 59.13 20.30 60.83 23.69
  C 61.40 24.85 61.42 26.58 61.80 27.99
  A 0.95 0.94 -89.6 0 0 62.43 28.64
  C 67.31 30.15 71.38 33.09 69.46 38.73
  C 67.43 44.67 60.94 46.96 54.95 47.51
  Q 47.13 48.23 40.19 43.83
  Q 39.92 43.65 39.49 44.06
  L 38.54 43.67
  Q 37.57 42.14 35.82 41.01
  A 1.43 1.40 58.0 0 0 34.91 40.79
  Q 23.12 41.95 11.26 41.02
  Q 10.70 40.97 10.53 41.51
  Q 10.32 42.17 10.52 43.30
  Q 10.02 42.55 9.54 42.75
  Q 9.37 32.83 9.22 22.91
  C 9.18 20.36 9.75 15.92 9.07 12.32
  Q 8.97 11.78 9.22 11.31
  Q 9.85 10.15 9.75 8.86
  Q 9.71 8.28 10.30 8.29
  C 33.79 8.92 57.25 8.76 80.75 8.75
  Z
  M 25.57 17.57
  L 25.69 14.96
  A 0.59 0.59 0.0 0 0 24.84 14.40
  Q 23.42 15.10 22.87 16.79
  Q 22.64 17.47 22.60 16.75
  L 22.47 14.63
  Q 22.44 14.20 22.01 14.14
  Q 16.54 13.42 11.21 14.68
  A 0.76 0.76 0.0 0 0 10.62 15.34
  Q 9.95 21.74 10.54 28.12
  Q 10.59 28.65 11.12 28.72
  L 13.68 29.06
  Q 14.34 29.14 14.54 28.51
  L 16.18 23.34
  A 0.48 0.48 0.0 0 0 15.63 22.73
  Q 14.38 22.97 13.56 24.01
  A 0.47 0.46 47.6 0 1 12.80 23.97
  Q 12.28 23.18 12.53 22.19
  Q 12.65 21.70 13.13 21.55
  Q 16.42 20.57 19.84 21.20
  A 0.37 0.37 0.0 0 1 19.86 21.92
  L 18.15 22.38
  Q 17.51 22.55 17.33 23.18
  L 15.97 27.98
  A 0.80 0.80 0.0 0 0 16.74 29.00
  L 27.48 29.00
  A 0.63 0.63 0.0 0 0 28.10 28.23
  C 27.35 24.73 26.98 18.91 31.65 17.88
  A 0.51 0.51 0.0 0 0 31.75 16.91
  L 29.18 15.76
  Q 28.70 15.54 28.38 15.97
  L 26.88 18.03
  A 0.73 0.72 -25.6 0 1 25.57 17.57
  Z
  M 33.11 29.02
  Q 33.31 29.07 33.50 29.04
  Q 34.04 28.94 33.98 28.40
  L 33.68 25.55
  A 1.19 1.18 33.4 0 1 35.99 25.08
  Q 36.45 26.55 36.20 28.13
  A 0.60 0.59 1.9 0 0 36.84 28.81
  L 39.89 28.57
  Q 40.57 28.51 40.68 27.84
  Q 41.14 25.07 42.89 22.94
  Q 43.23 22.53 42.96 22.08
  Q 42.13 20.67 40.65 19.96
  Q 40.20 19.75 39.73 19.87
  Q 37.51 20.46 37.31 22.83
  A 0.85 0.85 0.0 0 1 35.63 22.91
  Q 35.18 20.34 32.80 19.10
  Q 32.39 18.88 31.94 19.02
  C 28.10 20.23 28.67 24.99 29.53 28.13
  Q 29.67 28.64 30.20 28.71
  Q 31.19 28.83 32.21 28.82
  Q 32.33 28.82 33.11 29.02
  Z
  M 48.3839 38.3798
  A 8.04 5.00 90.4 0 0 53.4399 30.3749
  A 8.04 5.00 90.4 0 0 48.4961 22.3002
  A 8.04 5.00 90.4 0 0 43.4401 30.3051
  A 8.04 5.00 90.4 0 0 48.3839 38.3798
  Z
  M 55.57 29.31
  L 59.54 28.44
  A 0.75 0.75 0.0 0 0 60.11 27.55
  L 59.48 24.64
  A 2.81 2.69 77.7 0 0 56.25 22.47
  L 56.08 22.50
  A 2.81 2.69 77.7 0 0 54.05 25.82
  L 54.68 28.73
  A 0.75 0.75 0.0 0 0 55.57 29.31
  Z
  M 47.31 39.69
  C 41.84 39.50 41.39 35.44 40.29 31.25
  Q 40.20 30.88 39.81 30.89
  L 17.94 31.47
  A 0.76 0.75 79.7 0 0 17.25 32.47
  C 20.30 41.46 26.86 39.74 34.56 39.24
  Q 35.07 39.21 35.50 39.49
  C 43.62 44.81 57.87 47.61 66.36 40.95
  C 68.46 39.31 69.46 36.76 68.38 34.31
  C 66.50 30.09 59.15 29.96 55.38 30.81
  Q 54.89 30.92 54.77 31.42
  C 53.84 35.52 51.56 39.84 47.31 39.69
  Z
  M 11.00 40.11
  L 16.85 39.38
  A 0.21 0.21 0.0 0 0 17.04 39.15
  L 16.80 37.24
  A 6.39 1.72 82.9 0 0 14.30 31.11
  L 11.44 31.47
  A 6.39 1.72 82.9 0 0 10.53 38.02
  L 10.76 39.93
  A 0.21 0.21 0.0 0 0 11.00 40.11
  Z"
/>
<path fill="#fbed43" d="
  M 673.32 15.99
  L 672.91 17.15
  Q 670.30 18.20 668.05 20.23
  Q 667.69 20.56 667.30 20.28
  Q 655.84 12.01 645.56 21.40
  Q 645.14 21.79 645.17 22.36
  Q 645.42 26.86 648.28 30.36
  A 1.10 1.10 0.0 0 1 648.07 31.95
  C 640.99 37.02 643.25 46.99 651.38 49.35
  A 1.09 1.08 -1.0 0 1 652.10 50.04
  Q 654.03 55.79 657.79 60.55
  A 0.32 0.32 0.0 0 1 657.54 61.06
  L 551.50 60.76
  C 511.88 60.18 472.16 59.60 432.54 60.22
  C 378.25 61.07 323.87 59.72 269.56 60.16
  C 249.54 60.31 229.52 59.60 209.50 59.93
  C 182.31 60.36 155.15 59.90 127.95 60.21
  C 127.51 60.21 126.81 59.85 126.44 59.86
  Q 84.22 60.23 40.53 59.95
  Q 39.85 59.95 39.83 59.27
  L 39.49 44.06
  Q 39.92 43.65 40.19 43.83
  Q 47.13 48.23 54.95 47.51
  C 60.94 46.96 67.43 44.67 69.46 38.73
  C 71.38 33.09 67.31 30.15 62.43 28.64
  A 0.95 0.94 -89.6 0 1 61.80 27.99
  C 61.42 26.58 61.40 24.85 60.83 23.69
  C 59.13 20.30 55.12 19.50 52.21 22.16
  A 0.71 0.70 40.6 0 1 51.33 22.22
  Q 48.37 20.16 44.97 21.58
  A 0.79 0.79 0.0 0 1 44.14 21.44
  L 41.54 19.10
  Q 41.15 18.74 40.61 18.73
  Q 39.15 18.71 37.76 19.51
  Q 36.75 18.43 35.78 18.16
  Q 35.26 17.80 35.23 17.25
  Q 35.21 16.72 35.73 16.62
  C 36.85 16.40 39.39 16.46 39.07 14.59
  A 1.54 1.54 0.0 0 0 37.52 13.32
  Q 34.80 13.40 32.95 15.38
  Q 32.55 15.82 32.03 15.52
  Q 30.34 14.54 29.92 12.57
  Q 29.81 12.06 29.31 12.20
  L 27.60 12.68
  Q 27.15 12.81 26.68 12.72
  Q 18.90 11.21 11.11 12.65
  Q 10.47 12.77 10.54 12.13
  L 10.70 10.40
  Q 10.76 9.77 11.40 9.77
  L 80.75 10.00
  C 154.33 9.92 227.91 10.21 301.49 9.85
  Q 301.61 9.85 313.61 9.49
  C 320.40 9.29 328.01 9.96 333.88 9.97
  Q 375.32 10.00 416.75 10.00
  Q 417.45 10.46 417.87 11.12
  Q 418.13 11.52 418.59 11.57
  C 427.07 12.53 437.18 11.71 443.83 11.84
  C 458.26 12.11 472.72 11.51 487.13 12.08
  C 492.47 12.29 497.83 10.99 503.74 11.52
  Q 504.77 11.61 505.41 10.70
  Q 505.71 10.28 506.22 10.28
  C 510.82 10.22 517.14 9.79 518.44 10.91
  Q 518.75 11.17 519.16 11.18
  L 529.88 11.44
  Q 530.34 11.45 530.74 11.23
  Q 534.19 9.39 537.72 10.47
  Q 540.69 11.37 541.86 11.44
  C 556.87 12.38 572.19 11.65 586.74 11.92
  Q 604.69 12.24 622.65 11.06
  Q 623.17 11.03 623.43 10.57
  L 623.99 9.55
  Q 658.22 8.97 692.45 9.58
  Q 693.08 9.60 693.17 10.22
  L 693.54 12.83
  A 0.94 0.94 0.0 0 1 692.06 13.73
  L 689.04 11.56
  Q 688.68 11.31 688.35 11.59
  C 686.88 12.81 685.71 12.15 684.31 12.48
  Q 681.52 13.13 678.84 14.12
  Q 678.38 14.29 677.90 14.19
  C 676.58 13.93 672.65 13.74 673.32 15.99
  Z
  M 311.0360 16.1079
  A 4.97 4.97 0.0 0 0 306.1623 11.0434
  L 302.0831 10.9651
  A 4.97 4.97 0.0 0 0 297.0186 15.8388
  L 296.3240 52.0121
  A 4.97 4.97 0.0 0 0 301.1977 57.0766
  L 305.2769 57.1549
  A 4.97 4.97 0.0 0 0 310.3414 52.2812
  L 311.0360 16.1079
  Z
  M 318.68 37.95
  L 320.73 56.66
  Q 320.79 57.21 321.34 57.21
  L 326.39 57.27
  Q 327.04 57.27 327.05 56.62
  L 327.86 12.04
  Q 327.87 11.39 327.22 11.37
  L 323.26 11.28
  Q 322.52 11.26 322.50 12.00
  L 322.09 27.72
  A 0.10 0.10 0.0 0 1 322.06 27.79
  Q 321.19 28.67 321.03 26.99
  Q 320.35 19.65 319.45 11.94
  A 0.76 0.75 86.6 0 0 318.70 11.27
  L 313.37 11.27
  Q 312.83 11.27 312.82 11.82
  L 312.22 56.19
  Q 312.20 57.23 313.25 57.24
  L 317.00 57.26
  Q 317.74 57.26 317.70 56.53
  Q 317.26 47.18 318.01 37.96
  A 0.34 0.34 0.0 0 1 318.68 37.95
  Z
  M 285.37 27.69
  A 0.33 0.33 0.0 0 1 284.72 27.66
  L 283.68 12.70
  Q 283.62 11.77 282.69 11.76
  L 276.34 11.64
  Q 275.56 11.63 275.56 12.41
  L 275.16 56.71
  A 0.81 0.80 -79.2 0 0 275.68 57.48
  C 277.39 58.14 280.96 58.36 280.52 55.25
  Q 279.98 51.46 280.58 36.87
  Q 280.58 36.82 280.63 36.80
  Q 280.77 36.74 280.89 36.74
  Q 281.00 36.73 281.02 36.85
  L 283.04 56.41
  Q 283.10 57.03 283.65 57.33
  Q 284.94 58.05 286.14 57.38
  Q 286.54 57.16 286.58 56.70
  L 288.16 37.78
  Q 288.18 37.50 288.46 37.50
  Q 288.67 37.50 288.89 37.50
  A 0.35 0.35 0.0 0 1 289.25 37.85
  L 289.25 56.90
  Q 289.25 57.47 289.82 57.52
  L 293.74 57.81
  A 0.70 0.69 1.9 0 0 294.49 57.11
  Q 294.22 37.34 295.16 17.68
  C 295.24 16.15 294.88 14.53 295.03 12.91
  A 1.06 1.06 0.0 0 0 293.97 11.75
  L 288.32 11.75
  A 1.37 1.37 0.0 0 0 286.95 13.05
  Q 286.56 20.42 285.37 27.69
  Z
  M 106.4695 16.7061
  A 4.95 4.95 0.0 0 0 101.4254 11.8520
  L 97.0262 11.9365
  A 4.95 4.95 0.0 0 0 92.1721 16.9806
  L 92.8705 53.3539
  A 4.95 4.95 0.0 0 0 97.9146 58.2080
  L 102.3138 58.1235
  A 4.95 4.95 0.0 0 0 107.1679 53.0794
  L 106.4695 16.7061
  Z
  M 153.01 12.94
  L 153.23 56.64
  A 1.18 1.18 0.0 0 0 154.42 57.81
  L 162.03 57.77
  A 5.82 5.43 89.7 0 0 167.43 51.92
  L 167.25 17.50
  A 5.82 5.43 89.7 0 0 161.79 11.71
  L 154.18 11.75
  A 1.18 1.18 0.0 0 0 153.01 12.94
  Z
  M 175.97 16.76
  L 177.78 16.73
  Q 178.35 16.72 178.41 16.15
  L 178.75 12.93
  A 1.07 1.07 0.0 0 0 177.68 11.75
  L 170.17 11.76
  A 1.13 1.13 0.0 0 0 169.04 12.90
  L 169.32 56.96
  Q 169.33 57.52 169.89 57.54
  L 177.80 57.84
  A 0.88 0.88 0.0 0 0 178.71 56.94
  L 178.65 53.52
  Q 178.64 52.87 177.99 52.93
  Q 175.19 53.17 175.23 49.75
  Q 175.33 43.12 175.48 36.46
  C 175.51 35.58 175.80 34.75 176.88 35.29
  A 1.09 1.09 0.0 0 0 178.38 34.71
  Q 179.21 32.57 178.38 30.52
  A 0.63 0.62 -20.4 0 0 177.59 30.16
  C 176.01 30.70 175.36 30.18 175.28 28.54
  Q 175.01 22.90 175.39 17.31
  Q 175.43 16.77 175.97 16.76
  Z
  M 190.23 56.98
  C 191.43 53.42 189.27 53.55 187.25 52.37
  Q 186.79 52.10 186.79 51.56
  L 186.62 12.49
  Q 186.62 11.87 185.99 11.85
  L 181.25 11.71
  A 0.79 0.78 0.4 0 0 180.44 12.50
  L 180.76 56.88
  Q 180.77 57.50 181.38 57.50
  L 189.50 57.50
  Q 190.05 57.50 190.23 56.98
  Z
  M 205.6983 16.7579
  A 4.89 4.89 0.0 0 0 200.7997 11.8764
  L 196.6398 11.8837
  A 4.89 4.89 0.0 0 0 191.7583 16.7822
  L 191.8217 53.1221
  A 4.89 4.89 0.0 0 0 196.7203 58.0036
  L 200.8802 57.9963
  A 4.89 4.89 0.0 0 0 205.7617 53.0978
  L 205.6983 16.7579
  Z
  M 250.1356 12.6654
  A 0.80 0.80 0.0 0 0 249.3398 11.8613
  L 245.1599 11.8394
  A 0.80 0.80 0.0 0 0 244.3557 12.6352
  L 244.1244 56.8146
  A 0.80 0.80 0.0 0 0 244.9202 57.6187
  L 249.1001 57.6406
  A 0.80 0.80 0.0 0 0 249.9043 56.8448
  L 250.1356 12.6654
  Z
  M 252.71 57.47
  L 260.87 57.51
  Q 261.50 57.52 261.50 56.88
  L 261.50 53.60
  A 0.78 0.78 0.0 0 0 260.84 52.83
  L 258.83 52.51
  Q 258.25 52.41 258.25 51.83
  L 258.25 12.75
  Q 258.25 12.21 257.73 12.07
  Q 255.20 11.39 252.71 12.05
  A 0.69 0.68 82.2 0 0 252.21 12.71
  L 252.27 57.03
  A 0.44 0.44 0.0 0 0 252.71 57.47
  Z
  M 270.04 29.20
  L 269.94 17.31
  Q 269.93 16.80 270.44 16.78
  L 272.72 16.69
  A 0.65 0.64 0.5 0 0 273.33 16.10
  L 273.63 12.46
  A 0.68 0.67 -88.4 0 0 272.95 11.73
  L 264.75 11.84
  A 0.72 0.72 0.0 0 0 264.04 12.56
  L 263.86 56.55
  A 0.95 0.95 0.0 0 0 264.81 57.50
  L 272.39 57.50
  Q 273.22 57.50 273.22 56.67
  L 273.22 53.59
  Q 273.22 52.95 272.59 52.86
  L 270.33 52.51
  Q 269.75 52.42 269.75 51.83
  L 269.75 35.99
  Q 269.75 34.81 270.89 35.10
  C 273.58 35.79 273.93 32.46 273.28 30.84
  A 0.91 0.90 85.1 0 0 272.62 30.28
  L 270.56 29.83
  A 0.66 0.66 0.0 0 1 270.04 29.20
  Z
  M 133.12 17.17
  L 134.85 16.68
  Q 135.47 16.50 135.45 15.85
  L 135.35 12.78
  A 0.82 0.81 -1.1 0 0 134.52 11.99
  L 124.34 12.21
  A 0.77 0.77 0.0 0 0 123.61 12.84
  Q 123.02 16.16 125.83 17.38
  Q 126.33 17.60 126.35 18.15
  Q 126.76 37.80 127.35 57.45
  Q 127.37 58.11 128.02 58.07
  L 132.82 57.79
  A 0.58 0.58 0.0 0 0 133.37 57.20
  L 132.65 17.81
  A 0.65 0.65 0.0 0 1 133.12 17.17
  Z
  M 144.43 48.06
  C 145.74 49.37 145.54 55.29 145.53 57.17
  A 0.55 0.55 0.0 0 0 146.08 57.73
  L 151.08 57.72
  A 0.52 0.52 0.0 0 0 151.60 57.16
  L 148.39 12.91
  Q 148.33 12.02 147.43 12.02
  L 139.66 12.05
  Q 138.94 12.05 138.90 12.77
  L 136.07 57.14
  A 0.83 0.82 -89.1 0 0 136.92 58.02
  L 141.50 57.85
  Q 142.13 57.82 142.17 57.19
  L 142.61 48.76
  A 1.07 1.07 0.0 0 1 144.43 48.06
  Z
  M 238.77 17.78
  A 0.71 0.71 0.0 0 1 239.40 17.08
  L 241.56 16.84
  A 0.71 0.71 0.0 0 0 242.19 16.18
  L 242.39 12.90
  A 0.71 0.71 0.0 0 0 241.70 12.14
  L 233.46 11.93
  A 0.71 0.71 0.0 0 0 232.73 12.64
  L 232.76 57.03
  A 0.71 0.71 0.0 0 0 233.47 57.74
  L 238.04 57.76
  A 0.71 0.71 0.0 0 0 238.75 57.05
  L 238.75 36.29
  A 0.71 0.71 0.0 0 1 239.35 35.59
  L 241.77 35.21
  A 0.71 0.71 0.0 0 0 242.37 34.48
  L 242.26 31.22
  A 0.71 0.71 0.0 0 0 241.64 30.54
  L 239.36 30.24
  A 0.71 0.71 0.0 0 1 238.74 29.54
  L 238.77 17.78
  Z
  M 85.42 38.36
  Q 85.86 47.83 86.15 57.30
  Q 86.17 57.83 86.68 57.99
  Q 88.91 58.68 91.05 57.73
  A 0.71 0.71 0.0 0 0 91.48 57.06
  L 90.67 12.77
  Q 90.66 12.18 90.08 12.20
  L 83.47 12.38
  Q 82.83 12.40 82.79 13.03
  L 81.75 28.27
  A 0.42 0.41 44.1 0 1 80.92 28.28
  L 79.32 13.16
  Q 79.25 12.57 78.66 12.53
  L 72.51 12.18
  A 1.04 1.03 -89.0 0 0 71.42 13.24
  L 72.46 57.34
  Q 72.48 57.96 73.10 57.96
  L 76.61 57.91
  Q 77.37 57.90 77.37 57.14
  L 77.31 37.78
  Q 77.30 36.92 77.68 37.70
  Q 77.98 38.31 78.09 39.44
  Q 78.93 47.94 79.83 56.44
  Q 80.05 58.56 82.86 57.92
  Q 83.38 57.80 83.42 57.28
  L 84.90 38.35
  A 0.26 0.26 0.0 0 1 85.42 38.36
  Z
  M 109.95 58.03
  L 114.52 58.07
  Q 115.14 58.07 115.11 57.45
  C 114.99 54.85 114.04 39.89 115.32 38.80
  A 1.08 1.08 0.0 0 1 117.11 39.60
  L 117.34 57.29
  Q 117.35 57.97 118.03 57.97
  L 122.57 57.92
  Q 123.24 57.92 123.27 57.24
  C 123.50 50.81 124.26 39.74 121.29 35.62
  Q 120.93 35.13 121.31 34.64
  L 122.14 33.58
  Q 122.48 33.13 122.53 32.56
  C 122.80 29.08 124.38 12.93 119.26 12.49
  Q 113.85 12.02 108.77 12.63
  A 0.74 0.73 -4.3 0 0 108.12 13.38
  L 109.17 57.27
  A 0.78 0.78 0.0 0 0 109.95 58.03
  Z
  M 439.26 38.01
  Q 445.69 38.19 446.12 31.80
  C 446.72 22.90 442.14 22.60 435.12 23.06
  Q 434.50 23.11 434.50 23.73
  L 434.50 46.66
  Q 434.50 47.32 435.16 47.32
  L 438.34 47.32
  Q 438.75 47.32 438.75 46.91
  L 438.75 38.51
  Q 438.75 38.00 439.26 38.01
  Z
  M 452.09 33.00
  A 0.34 0.34 0.0 0 1 451.75 32.66
  L 451.75 27.34
  A 0.34 0.34 0.0 0 1 452.09 27.00
  L 457.73 27.00
  A 0.34 0.34 0.0 0 0 458.07 26.65
  L 457.97 23.33
  A 0.34 0.34 0.0 0 0 457.63 23.00
  L 447.84 23.00
  A 0.34 0.34 0.0 0 0 447.50 23.34
  L 447.50 47.14
  A 0.34 0.34 0.0 0 0 447.84 47.48
  L 457.82 47.52
  A 0.34 0.34 0.0 0 0 458.16 47.16
  L 457.94 43.95
  A 0.34 0.34 0.0 0 0 457.59 43.63
  L 452.10 43.80
  A 0.34 0.34 0.0 0 1 451.75 43.46
  L 451.75 37.34
  A 0.34 0.34 0.0 0 1 452.09 37.00
  L 456.41 37.00
  A 0.34 0.34 0.0 0 0 456.75 36.66
  L 456.75 33.34
  A 0.34 0.34 0.0 0 0 456.41 33.00
  L 452.09 33.00
  Z
  M 464.75 38.53
  A 1.41 1.41 0.0 0 1 467.57 38.49
  L 467.82 46.79
  Q 467.84 47.24 468.29 47.24
  L 471.74 47.26
  Q 472.20 47.27 472.17 46.81
  C 471.98 43.64 472.69 38.18 470.61 35.70
  Q 470.30 35.33 470.55 34.92
  Q 473.00 30.74 471.45 26.21
  C 470.02 22.05 464.58 22.84 461.14 23.04
  Q 460.50 23.08 460.50 23.72
  L 460.50 46.63
  Q 460.50 47.21 461.07 47.24
  L 464.28 47.42
  A 0.44 0.44 0.0 0 0 464.75 46.98
  L 464.75 38.53
  Z
  M 480.00 28.24
  L 480.00 29.98
  Q 480.00 30.45 480.47 30.42
  L 483.66 30.24
  Q 483.95 30.22 484.02 29.94
  C 485.96 21.76 473.97 20.42 473.01 27.51
  C 472.00 34.94 481.69 38.04 479.63 42.94
  A 1.31 1.31 0.0 0 1 477.12 42.56
  L 476.93 40.57
  A 0.64 0.62 86.9 0 0 476.31 40.00
  L 473.81 40.00
  Q 473.20 40.00 473.09 40.59
  Q 472.35 44.52 475.29 46.90
  A 1.50 1.47 -24.7 0 0 476.24 47.24
  C 478.66 47.27 482.17 47.91 483.48 45.22
  C 488.05 35.78 476.65 34.34 477.25 28.10
  A 1.38 1.38 0.0 0 1 480.00 28.24
  Z
  M 497.9478 28.1898
  A 5.15 5.15 0.0 0 0 492.7888 23.0488
  L 491.3688 23.0513
  A 5.15 5.15 0.0 0 0 486.2278 28.2102
  L 486.2522 42.1502
  A 5.15 5.15 0.0 0 0 491.4112 47.2912
  L 492.8312 47.2887
  A 5.15 5.15 0.0 0 0 497.9722 42.1298
  L 497.9478 28.1898
  Z
  M 507.21 33.48
  L 504.79 23.50
  Q 504.67 23.00 504.16 23.00
  L 500.12 23.00
  Q 499.50 23.00 499.50 23.63
  L 499.50 46.70
  Q 499.50 47.33 500.13 47.31
  L 502.90 47.23
  Q 503.27 47.22 503.27 46.85
  L 503.29 35.02
  A 0.26 0.25 -53.8 0 1 503.79 34.94
  Q 505.59 40.81 506.94 46.80
  Q 507.04 47.25 507.50 47.25
  L 511.00 47.25
  Q 511.50 47.25 511.50 46.75
  L 511.50 23.50
  Q 511.50 23.00 511.00 23.00
  L 508.25 23.00
  Q 507.75 23.00 507.75 23.50
  L 507.74 33.42
  A 0.27 0.27 0.0 0 1 507.21 33.48
  Z
  M 520.48 43.03
  A 0.34 0.34 0.0 0 1 520.81 43.34
  L 521.08 46.98
  A 0.34 0.34 0.0 0 0 521.42 47.30
  L 525.25 47.25
  A 0.34 0.34 0.0 0 0 525.58 46.85
  L 521.89 23.29
  A 0.34 0.34 0.0 0 0 521.56 23.00
  L 516.53 23.00
  A 0.34 0.34 0.0 0 0 516.20 23.29
  L 512.54 46.97
  A 0.34 0.34 0.0 0 0 512.90 47.36
  L 516.32 47.20
  A 0.34 0.34 0.0 0 0 516.64 46.91
  L 517.13 43.29
  A 0.34 0.34 0.0 0 1 517.47 42.99
  L 520.48 43.03
  Z
  M 527.48 43.52
  Q 527.31 43.46 527.13 43.54
  Q 526.75 43.69 526.75 44.10
  L 526.75 46.48
  Q 526.75 46.93 527.18 47.04
  C 533.57 48.67 534.27 44.48 534.26 39.42
  Q 534.24 31.47 534.25 23.51
  Q 534.25 23.00 533.74 23.00
  L 530.60 23.00
  Q 530.01 23.00 530.01 23.59
  L 529.96 42.25
  A 1.93 1.51 11.0 0 1 527.48 43.52
  Z
  M 540.75 37.45
  A 0.45 0.45 0.0 0 1 541.20 37.00
  L 545.30 37.00
  A 0.45 0.45 0.0 0 0 545.75 36.55
  L 545.75 33.45
  A 0.45 0.45 0.0 0 0 545.30 33.00
  L 541.20 33.00
  A 0.45 0.45 0.0 0 1 540.75 32.55
  L 540.75 27.45
  A 0.45 0.45 0.0 0 1 541.20 27.00
  L 546.47 27.00
  A 0.45 0.45 0.0 0 0 546.92 26.58
  L 547.10 23.48
  A 0.45 0.45 0.0 0 0 546.65 23.00
  L 536.95 23.00
  A 0.45 0.45 0.0 0 0 536.50 23.45
  L 536.50 46.79
  A 0.45 0.45 0.0 0 0 536.95 47.24
  L 546.69 47.31
  A 0.45 0.45 0.0 0 0 547.14 46.82
  L 546.91 44.05
  A 0.45 0.45 0.0 0 0 546.44 43.63
  L 541.21 43.80
  A 0.45 0.45 0.0 0 1 540.75 43.35
  L 540.75 37.45
  Z
  M 555.00 28.06
  L 555.00 29.98
  Q 555.00 30.45 555.48 30.42
  L 558.66 30.24
  Q 558.96 30.22 559.02 29.93
  C 561.02 21.47 548.02 20.30 547.85 28.53
  C 547.72 35.08 556.41 38.03 554.72 42.83
  A 1.37 1.36 -37.2 0 1 552.07 42.47
  L 551.96 40.59
  A 0.63 0.63 0.0 0 0 551.33 40.00
  L 548.32 40.00
  Q 547.87 40.00 547.82 40.44
  C 546.76 48.89 558.07 49.90 559.21 43.03
  C 559.81 39.41 558.82 37.32 556.21 34.57
  C 554.55 32.83 551.13 30.23 552.50 27.48
  A 1.32 1.32 0.0 0 1 555.00 28.06
  Z
  M 219.53 38.22
  Q 218.87 34.58 218.49 30.91
  Q 218.43 30.34 217.92 30.11
  Q 216.00 29.23 214.06 30.15
  Q 213.53 30.40 213.66 30.97
  L 218.37 51.33
  A 0.86 0.86 0.0 0 1 217.88 52.31
  L 216.22 53.03
  Q 215.78 53.22 215.61 53.67
  Q 214.96 55.50 215.59 57.26
  A 0.73 0.73 0.0 0 0 216.28 57.75
  L 218.98 57.75
  Q 219.46 57.75 219.80 57.42
  C 222.85 54.41 222.56 51.78 223.26 47.91
  Q 224.82 39.20 225.69 30.33
  Q 225.75 29.74 225.17 29.58
  Q 222.88 28.98 221.08 30.04
  Q 220.61 30.32 220.59 30.87
  L 220.28 38.17
  A 0.38 0.38 0.0 0 1 219.53 38.22
  Z
  M 628.5372 47.5711
  A 1.69 0.63 11.3 0 0 627.0034 46.6222
  A 1.69 0.63 11.3 0 0 625.2228 46.9089
  A 1.69 0.63 11.3 0 0 626.7566 47.8578
  A 1.69 0.63 11.3 0 0 628.5372 47.5711
  Z"
/>
<path fill="#f6ee7d" d="
  M 709.59 11.86
  A 1.20 1.20 0.0 0 1 708.39 12.62
  Q 702.49 12.27 697.54 15.69
  A 1.75 1.75 0.0 0 1 694.81 14.46
  L 694.28 9.99
  A 0.59 0.59 0.0 0 1 694.89 9.32
  Q 701.27 9.61 707.59 9.55
  C 709.11 9.53 710.28 10.07 709.59 11.86
  Z"
/>
<path fill="#f6ee7d" d="
  M 607.75 9.65
  L 623.99 9.55
  L 623.43 10.57
  Q 623.17 11.03 622.65 11.06
  Q 604.69 12.24 586.74 11.92
  C 572.19 11.65 556.87 12.38 541.86 11.44
  Q 540.69 11.37 537.72 10.47
  Q 534.19 9.39 530.74 11.23
  Q 530.34 11.45 529.88 11.44
  L 519.16 11.18
  Q 518.75 11.17 518.44 10.91
  C 517.14 9.79 510.82 10.22 506.22 10.28
  Q 505.71 10.28 505.41 10.70
  Q 504.77 11.61 503.74 11.52
  C 497.83 10.99 492.47 12.29 487.13 12.08
  C 472.72 11.51 458.26 12.11 443.83 11.84
  C 437.18 11.71 427.07 12.53 418.59 11.57
  Q 418.13 11.52 417.87 11.12
  Q 417.45 10.46 416.75 10.00
  C 480.41 9.87 544.09 9.61 607.75 9.65
  Z"
/>
<path fill="#de2321" d="
  M 310.3414 52.2812
  A 4.97 4.97 0.0 0 1 305.2769 57.1549
  L 301.1977 57.0766
  A 4.97 4.97 0.0 0 1 296.3240 52.0121
  L 297.0186 15.8388
  A 4.97 4.97 0.0 0 1 302.0831 10.9651
  L 306.1623 11.0434
  A 4.97 4.97 0.0 0 1 311.0360 16.1079
  L 310.3414 52.2812
  Z
  M 305.1537 17.0370
  A 1.08 1.08 0.0 0 0 304.0965 15.9346
  L 304.0366 15.9333
  A 1.08 1.08 0.0 0 0 302.9342 16.9905
  L 302.2263 50.7830
  A 1.08 1.08 0.0 0 0 303.2835 51.8854
  L 303.3434 51.8867
  A 1.08 1.08 0.0 0 0 304.4458 50.8295
  L 305.1537 17.0370
  Z"
/>
<path fill="#de2321" d="
  M 318.01 37.96
  Q 317.26 47.18 317.70 56.53
  Q 317.74 57.26 317.00 57.26
  L 313.25 57.24
  Q 312.20 57.23 312.22 56.19
  L 312.82 11.82
  Q 312.83 11.27 313.37 11.27
  L 318.70 11.27
  A 0.76 0.75 86.6 0 1 319.45 11.94
  Q 320.35 19.65 321.03 26.99
  Q 321.19 28.67 322.06 27.79
  A 0.10 0.10 0.0 0 0 322.09 27.72
  L 322.50 12.00
  Q 322.52 11.26 323.26 11.28
  L 327.22 11.37
  Q 327.87 11.39 327.86 12.04
  L 327.05 56.62
  Q 327.04 57.27 326.39 57.27
  L 321.34 57.21
  Q 320.79 57.21 320.73 56.66
  L 318.68 37.95
  A 0.34 0.34 0.0 0 0 318.01 37.96
  Z"
/>
<path fill="#de2321" d="
  M 285.37 27.69
  Q 286.56 20.42 286.95 13.05
  A 1.37 1.37 0.0 0 1 288.32 11.75
  L 293.97 11.75
  A 1.06 1.06 0.0 0 1 295.03 12.91
  C 294.88 14.53 295.24 16.15 295.16 17.68
  Q 294.22 37.34 294.49 57.11
  A 0.70 0.69 1.9 0 1 293.74 57.81
  L 289.82 57.52
  Q 289.25 57.47 289.25 56.90
  L 289.25 37.85
  A 0.35 0.35 0.0 0 0 288.89 37.50
  Q 288.67 37.50 288.46 37.50
  Q 288.18 37.50 288.16 37.78
  L 286.58 56.70
  Q 286.54 57.16 286.14 57.38
  Q 284.94 58.05 283.65 57.33
  Q 283.10 57.03 283.04 56.41
  L 281.02 36.85
  Q 281.00 36.73 280.89 36.74
  Q 280.77 36.74 280.63 36.80
  Q 280.58 36.82 280.58 36.87
  Q 279.98 51.46 280.52 55.25
  C 280.96 58.36 277.39 58.14 275.68 57.48
  A 0.81 0.80 -79.2 0 1 275.16 56.71
  L 275.56 12.41
  Q 275.56 11.63 276.34 11.64
  L 282.69 11.76
  Q 283.62 11.77 283.68 12.70
  L 284.72 27.66
  A 0.33 0.33 0.0 0 0 285.37 27.69
  Z"
/>
<path fill="#de2321" d="
  M 107.1679 53.0794
  A 4.95 4.95 0.0 0 1 102.3138 58.1235
  L 97.9146 58.2080
  A 4.95 4.95 0.0 0 1 92.8705 53.3539
  L 92.1721 16.9806
  A 4.95 4.95 0.0 0 1 97.0262 11.9365
  L 101.4254 11.8520
  A 4.95 4.95 0.0 0 1 106.4695 16.7061
  L 107.1679 53.0794
  Z
  M 100.6269 18.2026
  A 1.05 1.05 0.0 0 0 99.5569 17.1729
  L 99.5169 17.1737
  A 1.05 1.05 0.0 0 0 98.4873 18.2436
  L 99.1331 51.8774
  A 1.05 1.05 0.0 0 0 100.2031 52.9071
  L 100.2431 52.9063
  A 1.05 1.05 0.0 0 0 101.2727 51.8364
  L 100.6269 18.2026
  Z"
/>
<path fill="#de2321" d="
  M 153.01 12.94
  A 1.18 1.18 0.0 0 1 154.18 11.75
  L 161.79 11.71
  A 5.82 5.43 89.7 0 1 167.25 17.50
  L 167.43 51.92
  A 5.82 5.43 89.7 0 1 162.03 57.77
  L 154.42 57.81
  A 1.18 1.18 0.0 0 1 153.23 56.64
  L 153.01 12.94
  Z
  M 161.1850 18.0177
  A 1.08 1.08 0.0 0 0 160.0919 16.9510
  L 160.0319 16.9517
  A 1.08 1.08 0.0 0 0 158.9652 18.0448
  L 159.3750 51.5823
  A 1.08 1.08 0.0 0 0 160.4681 52.6490
  L 160.5281 52.6483
  A 1.08 1.08 0.0 0 0 161.5948 51.5552
  L 161.1850 18.0177
  Z"
/>
<path fill="#de2321" d="
  M 175.39 17.31
  Q 175.01 22.90 175.28 28.54
  C 175.36 30.18 176.01 30.70 177.59 30.16
  A 0.63 0.62 -20.4 0 1 178.38 30.52
  Q 179.21 32.57 178.38 34.71
  A 1.09 1.09 0.0 0 1 176.88 35.29
  C 175.80 34.75 175.51 35.58 175.48 36.46
  Q 175.33 43.12 175.23 49.75
  Q 175.19 53.17 177.99 52.93
  Q 178.64 52.87 178.65 53.52
  L 178.71 56.94
  A 0.88 0.88 0.0 0 1 177.80 57.84
  L 169.89 57.54
  Q 169.33 57.52 169.32 56.96
  L 169.04 12.90
  A 1.13 1.13 0.0 0 1 170.17 11.76
  L 177.68 11.75
  A 1.07 1.07 0.0 0 1 178.75 12.93
  L 178.41 16.15
  Q 178.35 16.72 177.78 16.73
  L 175.97 16.76
  Q 175.43 16.77 175.39 17.31
  Z"
/>
<path fill="#de2321" d="
  M 187.25 52.37
  C 189.27 53.55 191.43 53.42 190.23 56.98
  Q 190.05 57.50 189.50 57.50
  L 181.38 57.50
  Q 180.77 57.50 180.76 56.88
  L 180.44 12.50
  A 0.79 0.78 0.4 0 1 181.25 11.71
  L 185.99 11.85
  Q 186.62 11.87 186.62 12.49
  L 186.79 51.56
  Q 186.79 52.10 187.25 52.37
  Z"
/>
<path fill="#de2321" d="
  M 205.7617 53.0978
  A 4.89 4.89 0.0 0 1 200.8802 57.9963
  L 196.7203 58.0036
  A 4.89 4.89 0.0 0 1 191.8217 53.1221
  L 191.7583 16.7822
  A 4.89 4.89 0.0 0 1 196.6398 11.8837
  L 200.7997 11.8764
  A 4.89 4.89 0.0 0 1 205.6983 16.7579
  L 205.7617 53.0978
  Z
  M 199.6601 17.7683
  A 0.94 0.94 0.0 0 0 198.7185 16.8300
  L 198.6585 16.8301
  A 0.94 0.94 0.0 0 0 197.7201 17.7717
  L 197.7799 52.0317
  A 0.94 0.94 0.0 0 0 198.7215 52.9700
  L 198.7815 52.9699
  A 0.94 0.94 0.0 0 0 199.7199 52.0283
  L 199.6601 17.7683
  Z"
/>
<rect fill="#de2321" x="-2.89" y="-22.89" transform="translate(247.13,34.74) rotate(0.3)" width="5.78" height="45.78" rx="0.80"/>
<path fill="#de2321" d="
  M 252.71 57.47
  A 0.44 0.44 0.0 0 1 252.27 57.03
  L 252.21 12.71
  A 0.69 0.68 82.2 0 1 252.71 12.05
  Q 255.20 11.39 257.73 12.07
  Q 258.25 12.21 258.25 12.75
  L 258.25 51.83
  Q 258.25 52.41 258.83 52.51
  L 260.84 52.83
  A 0.78 0.78 0.0 0 1 261.50 53.60
  L 261.50 56.88
  Q 261.50 57.52 260.87 57.51
  L 252.71 57.47
  Z"
/>
<path fill="#de2321" d="
  M 270.56 29.83
  L 272.62 30.28
  A 0.91 0.90 85.1 0 1 273.28 30.84
  C 273.93 32.46 273.58 35.79 270.89 35.10
  Q 269.75 34.81 269.75 35.99
  L 269.75 51.83
  Q 269.75 52.42 270.33 52.51
  L 272.59 52.86
  Q 273.22 52.95 273.22 53.59
  L 273.22 56.67
  Q 273.22 57.50 272.39 57.50
  L 264.81 57.50
  A 0.95 0.95 0.0 0 1 263.86 56.55
  L 264.04 12.56
  A 0.72 0.72 0.0 0 1 264.75 11.84
  L 272.95 11.73
  A 0.68 0.67 -88.4 0 1 273.63 12.46
  L 273.33 16.10
  A 0.65 0.64 0.5 0 1 272.72 16.69
  L 270.44 16.78
  Q 269.93 16.80 269.94 17.31
  L 270.04 29.20
  A 0.66 0.66 0.0 0 0 270.56 29.83
  Z"
/>
<path fill="#de2321" d="
  M 132.65 17.81
  L 133.37 57.20
  A 0.58 0.58 0.0 0 1 132.82 57.79
  L 128.02 58.07
  Q 127.37 58.11 127.35 57.45
  Q 126.76 37.80 126.35 18.15
  Q 126.33 17.60 125.83 17.38
  Q 123.02 16.16 123.61 12.84
  A 0.77 0.77 0.0 0 1 124.34 12.21
  L 134.52 11.99
  A 0.82 0.81 -1.1 0 1 135.35 12.78
  L 135.45 15.85
  Q 135.47 16.50 134.85 16.68
  L 133.12 17.17
  A 0.65 0.65 0.0 0 0 132.65 17.81
  Z"
/>
<path fill="#de2321" d="
  M 144.43 48.06
  A 1.07 1.07 0.0 0 0 142.61 48.76
  L 142.17 57.19
  Q 142.13 57.82 141.50 57.85
  L 136.92 58.02
  A 0.83 0.82 -89.1 0 1 136.07 57.14
  L 138.90 12.77
  Q 138.94 12.05 139.66 12.05
  L 147.43 12.02
  Q 148.33 12.02 148.39 12.91
  L 151.60 57.16
  A 0.52 0.52 0.0 0 1 151.08 57.72
  L 146.08 57.73
  A 0.55 0.55 0.0 0 1 145.53 57.17
  C 145.54 55.29 145.74 49.37 144.43 48.06
  Z
  M 143.15 42.49
  L 144.33 42.49
  A 0.27 0.27 0.0 0 0 144.60 42.23
  L 144.60 42.06
  A 17.30 0.84 -89.6 0 0 143.88 24.75
  L 143.84 24.75
  A 17.30 0.84 -89.6 0 0 142.88 42.04
  L 142.88 42.21
  A 0.27 0.27 0.0 0 0 143.15 42.49
  Z"
/>
<path fill="#de2321" d="
  M 238.77 17.78
  L 238.74 29.54
  A 0.71 0.71 0.0 0 0 239.36 30.24
  L 241.64 30.54
  A 0.71 0.71 0.0 0 1 242.26 31.22
  L 242.37 34.48
  A 0.71 0.71 0.0 0 1 241.77 35.21
  L 239.35 35.59
  A 0.71 0.71 0.0 0 0 238.75 36.29
  L 238.75 57.05
  A 0.71 0.71 0.0 0 1 238.04 57.76
  L 233.47 57.74
  A 0.71 0.71 0.0 0 1 232.76 57.03
  L 232.73 12.64
  A 0.71 0.71 0.0 0 1 233.46 11.93
  L 241.70 12.14
  A 0.71 0.71 0.0 0 1 242.39 12.90
  L 242.19 16.18
  A 0.71 0.71 0.0 0 1 241.56 16.84
  L 239.40 17.08
  A 0.71 0.71 0.0 0 0 238.77 17.78
  Z"
/>
<path fill="#de2321" d="
  M 85.42 38.36
  A 0.26 0.26 0.0 0 0 84.90 38.35
  L 83.42 57.28
  Q 83.38 57.80 82.86 57.92
  Q 80.05 58.56 79.83 56.44
  Q 78.93 47.94 78.09 39.44
  Q 77.98 38.31 77.68 37.70
  Q 77.30 36.92 77.31 37.78
  L 77.37 57.14
  Q 77.37 57.90 76.61 57.91
  L 73.10 57.96
  Q 72.48 57.96 72.46 57.34
  L 71.42 13.24
  A 1.04 1.03 -89.0 0 1 72.51 12.18
  L 78.66 12.53
  Q 79.25 12.57 79.32 13.16
  L 80.92 28.28
  A 0.42 0.41 44.1 0 0 81.75 28.27
  L 82.79 13.03
  Q 82.83 12.40 83.47 12.38
  L 90.08 12.20
  Q 90.66 12.18 90.67 12.77
  L 91.48 57.06
  A 0.71 0.71 0.0 0 1 91.05 57.73
  Q 88.91 58.68 86.68 57.99
  Q 86.17 57.83 86.15 57.30
  Q 85.86 47.83 85.42 38.36
  Z"
/>
<path fill="#de2321" d="
  M 109.95 58.03
  A 0.78 0.78 0.0 0 1 109.17 57.27
  L 108.12 13.38
  A 0.74 0.73 -4.3 0 1 108.77 12.63
  Q 113.85 12.02 119.26 12.49
  C 124.38 12.93 122.80 29.08 122.53 32.56
  Q 122.48 33.13 122.14 33.58
  L 121.31 34.64
  Q 120.93 35.13 121.29 35.62
  C 124.26 39.74 123.50 50.81 123.27 57.24
  Q 123.24 57.92 122.57 57.92
  L 118.03 57.97
  Q 117.35 57.97 117.34 57.29
  L 117.11 39.60
  A 1.08 1.08 0.0 0 0 115.32 38.80
  C 114.04 39.89 114.99 54.85 115.11 57.45
  Q 115.14 58.07 114.52 58.07
  L 109.95 58.03
  Z
  M 116.3875 17.8290
  A 0.95 0.95 0.0 0 0 115.4162 16.9008
  L 115.3162 16.9031
  A 0.95 0.95 0.0 0 0 114.3880 17.8744
  L 114.6925 31.2910
  A 0.95 0.95 0.0 0 0 115.6638 32.2192
  L 115.7638 32.2169
  A 0.95 0.95 0.0 0 0 116.6920 31.2456
  L 116.3875 17.8290
  Z"
/>
<path fill="#f8c79d" d="
  M 680.29 30.25
  L 682.22 29.84
  C 689.01 27.44 687.43 16.20 678.29 18.45
  Q 677.82 18.57 677.42 18.27
  Q 675.56 16.89 672.91 17.15
  L 673.32 15.99
  Q 673.40 16.17 673.59 16.32
  Q 673.73 16.42 673.74 16.25
  L 673.79 15.58
  A 0.72 0.72 0.0 0 1 674.84 14.99
  L 678.40 16.84
  A 1.27 1.27 0.0 0 0 680.25 15.59
  Q 680.12 14.27 681.40 14.00
  Q 681.88 13.90 681.95 14.39
  L 682.09 15.44
  Q 682.17 16.01 682.74 15.90
  Q 687.70 14.92 687.95 19.85
  A 0.66 0.66 0.0 0 0 688.67 20.47
  L 690.18 20.34
  Q 690.78 20.29 690.70 19.70
  Q 690.29 16.43 687.78 14.54
  A 0.91 0.91 0.0 0 0 686.80 14.47
  Q 684.94 15.48 683.00 14.68
  A 0.36 0.36 0.0 0 1 683.00 14.02
  Q 690.67 10.79 692.46 18.54
  Q 692.51 18.76 692.73 18.75
  Q 692.91 18.75 693.10 18.75
  A 0.25 0.25 0.0 0 0 693.33 18.42
  L 692.51 16.21
  A 0.75 0.74 0.6 0 1 693.48 15.26
  C 700.46 17.97 700.14 30.49 698.82 36.38
  A 1.04 1.03 -83.9 0 1 697.83 37.19
  Q 692.27 37.30 689.04 41.85
  A 0.41 0.41 0.0 0 0 689.67 42.37
  C 699.47 32.67 710.60 46.17 700.63 53.07
  Q 696.00 56.26 689.59 53.61
  Q 688.49 53.15 688.90 54.27
  Q 689.12 54.89 688.94 55.72
  A 3.62 3.49 -24.3 0 1 688.56 56.67
  Q 687.32 58.79 685.42 60.39
  Q 685.01 60.74 684.47 60.76
  Q 677.01 61.10 669.56 61.00
  C 661.97 60.90 658.67 62.10 655.85 54.95
  Q 652.29 45.93 653.61 37.74
  C 654.01 35.27 655.30 34.69 657.20 36.38
  Q 657.40 36.56 657.36 36.82
  L 656.06 46.12
  A 0.92 0.92 0.0 0 0 657.62 46.90
  C 660.67 43.86 670.92 36.92 674.91 41.74
  A 0.98 0.98 0.0 0 1 675.04 42.76
  L 672.16 49.02
  A 0.72 0.72 0.0 0 1 671.10 49.31
  Q 669.05 47.92 667.53 45.98
  A 0.47 0.46 30.0 0 0 666.70 46.20
  C 666.43 48.18 665.78 54.27 668.11 55.79
  A 0.30 0.29 -87.6 0 0 668.53 55.40
  Q 666.73 51.96 667.44 48.14
  A 0.51 0.51 0.0 0 1 668.33 47.89
  Q 671.67 51.73 676.69 52.87
  A 1.26 1.26 0.0 0 0 678.20 51.88
  C 679.01 47.67 678.01 41.44 673.64 39.69
  C 669.23 37.94 661.90 42.23 658.28 44.78
  A 0.45 0.45 0.0 0 1 657.58 44.30
  L 659.44 37.24
  Q 659.59 36.68 660.17 36.60
  C 661.86 36.38 669.03 34.90 668.17 32.73
  Q 667.98 32.26 667.55 32.53
  C 659.38 37.52 650.21 32.19 646.86 24.19
  A 2.42 2.40 50.7 0 1 647.08 21.90
  C 651.08 16.02 660.53 17.79 665.46 20.96
  C 667.22 22.09 669.39 27.33 671.41 26.56
  A 1.20 1.20 0.0 0 1 673.02 27.49
  Q 673.59 31.07 677.01 32.26
  Q 677.49 32.43 677.67 32.89
  Q 678.36 34.61 680.38 34.15
  A 0.20 0.20 0.0 0 0 680.33 33.75
  Q 678.44 33.77 677.66 32.35
  Q 677.34 31.76 677.94 31.45
  L 680.29 30.25
  Z
  M 663.49 26.18
  C 662.20 26.35 656.98 26.73 656.55 27.93
  Q 656.40 28.38 656.87 28.32
  L 662.73 27.50
  A 1.29 1.28 -71.7 0 0 663.48 27.12
  L 664.04 26.53
  Q 664.95 25.74 664.72 24.96
  Q 664.61 24.58 664.38 24.91
  L 663.49 26.18
  Z
  M 683.91 47.11
  C 681.40 35.88 668.94 26.18 658.24 30.30
  A 0.38 0.38 0.0 0 0 658.47 31.03
  C 662.02 30.19 664.81 29.80 668.33 31.10
  Q 679.31 35.16 683.22 46.72
  Q 683.36 47.12 683.68 47.29
  Q 683.99 47.45 683.91 47.11
  Z
  M 694.28 48.55
  L 693.41 50.65
  A 0.49 0.49 0.0 0 0 693.97 51.32
  Q 696.52 50.79 696.48 48.03
  Q 696.47 47.40 697.11 47.36
  L 699.85 47.20
  Q 700.29 47.17 700.11 46.76
  C 699.46 45.26 691.12 47.44 689.42 48.08
  Q 688.89 48.28 689.30 48.66
  C 689.40 48.75 693.21 47.91 693.87 47.93
  A 0.46 0.45 11.7 0 1 694.28 48.55
  Z"
/>
<path fill="#fbed43" d="
  M 700.61 37.17
  C 701.96 29.40 702.72 24.12 698.02 17.23
  Q 697.76 16.85 698.13 16.58
  Q 703.35 12.83 708.49 13.72
  C 710.67 14.10 709.77 16.80 709.77 17.93
  Q 709.73 38.86 709.76 59.56
  A 1.07 1.06 -0.6 0 1 708.71 60.62
  L 687.45 60.85
  Q 686.87 60.86 687.18 60.37
  L 690.03 55.96
  A 0.54 0.54 0.0 0 1 690.64 55.74
  Q 700.54 58.78 704.64 51.07
  C 707.31 46.05 705.86 40.73 700.96 37.91
  Q 700.53 37.66 700.61 37.17
  Z"
/>
<path fill="#f8c79d" d="
  M 25.57 17.57
  A 0.73 0.72 -25.6 0 0 26.88 18.03
  L 28.38 15.97
  Q 28.70 15.54 29.18 15.76
  L 31.75 16.91
  A 0.51 0.51 0.0 0 1 31.65 17.88
  C 26.98 18.91 27.35 24.73 28.10 28.23
  A 0.63 0.63 0.0 0 1 27.48 29.00
  L 16.74 29.00
  A 0.80 0.80 0.0 0 1 15.97 27.98
  L 17.33 23.18
  Q 17.51 22.55 18.15 22.38
  L 19.86 21.92
  A 0.37 0.37 0.0 0 0 19.84 21.20
  Q 16.42 20.57 13.13 21.55
  Q 12.65 21.70 12.53 22.19
  Q 12.28 23.18 12.80 23.97
  A 0.47 0.46 47.6 0 0 13.56 24.01
  Q 14.38 22.97 15.63 22.73
  A 0.48 0.48 0.0 0 1 16.18 23.34
  L 14.54 28.51
  Q 14.34 29.14 13.68 29.06
  L 11.12 28.72
  Q 10.59 28.65 10.54 28.12
  Q 9.95 21.74 10.62 15.34
  A 0.76 0.76 0.0 0 1 11.21 14.68
  Q 16.54 13.42 22.01 14.14
  Q 22.44 14.20 22.47 14.63
  L 22.60 16.75
  Q 22.64 17.47 22.87 16.79
  Q 23.42 15.10 24.84 14.40
  A 0.59 0.59 0.0 0 1 25.69 14.96
  L 25.57 17.57
  Z"
/>
<rect fill="#f6ee7d" x="-1.11" y="-17.98" transform="translate(303.69,33.91) rotate(1.2)" width="2.22" height="35.96" rx="1.08"/>
<rect fill="#efd26c" x="-1.00" y="-7.66" transform="translate(115.54,24.56) rotate(-1.3)" width="2.00" height="15.32" rx="0.95"/>
<rect fill="#efd26c" x="-1.11" y="-17.85" transform="translate(160.28,34.80) rotate(-0.7)" width="2.22" height="35.70" rx="1.08"/>
<rect fill="#efd26c" x="-0.97" y="-18.07" transform="translate(198.72,34.90) rotate(-0.1)" width="1.94" height="36.14" rx="0.94"/>
<rect fill="#efd26c" x="-1.07" y="-17.87" transform="translate(99.88,35.04) rotate(-1.1)" width="2.14" height="35.74" rx="1.05"/>
<path fill="#faf6e9" d="
  M 671.50 26.32
  A 0.18 0.18 0.0 0 1 671.25 26.37
  L 671.19 26.33
  A 4.62 4.58 32.6 0 1 669.76 19.98
  L 669.81 19.91
  A 4.62 4.58 32.6 0 1 676.17 18.54
  L 676.23 18.59
  A 0.18 0.18 0.0 0 1 676.29 18.83
  L 671.50 26.32
  Z
  M 670.9682 22.9205
  A 1.51 1.15 113.9 0 0 672.6314 22.0059
  A 1.51 1.15 113.9 0 0 672.1918 20.1595
  A 1.51 1.15 113.9 0 0 670.5286 21.0741
  A 1.51 1.15 113.9 0 0 670.9682 22.9205
  Z"
/>
<path fill="#605d52" d="
  M 35.78 18.16
  Q 36.75 18.43 37.76 19.51
  Q 36.98 19.49 36.55 20.27
  Q 36.61 19.15 35.27 19.01
  Q 35.41 18.49 35.78 18.16
  Z"
/>
<path fill="#faf6e9" d="
  M 32.21 28.82
  Q 31.19 28.83 30.20 28.71
  Q 29.67 28.64 29.53 28.13
  C 28.67 24.99 28.10 20.23 31.94 19.02
  Q 32.39 18.88 32.80 19.10
  Q 35.18 20.34 35.63 22.91
  A 0.85 0.85 0.0 0 0 37.31 22.83
  Q 37.51 20.46 39.73 19.87
  Q 40.20 19.75 40.65 19.96
  Q 42.13 20.67 42.96 22.08
  Q 43.23 22.53 42.89 22.94
  Q 41.14 25.07 40.68 27.84
  Q 40.57 28.51 39.89 28.57
  L 36.84 28.81
  A 0.60 0.59 1.9 0 1 36.20 28.13
  Q 36.45 26.55 35.99 25.08
  A 1.19 1.18 33.4 0 0 33.68 25.55
  L 33.98 28.40
  Q 34.04 28.94 33.50 29.04
  Q 33.31 29.07 33.11 29.02
  Q 32.33 28.82 32.21 28.82
  Z
  M 38.9618 27.6420
  A 1.74 1.10 78.0 0 0 39.6760 25.7113
  A 1.74 1.10 78.0 0 0 38.2382 24.2380
  A 1.74 1.10 78.0 0 0 37.5240 26.1687
  A 1.74 1.10 78.0 0 0 38.9618 27.6420
  Z"
/>
<path fill="#efd26c" d="
  M 35.27 19.01
  Q 36.61 19.15 36.55 20.27
  L 36.20 20.53
  Q 35.79 20.83 35.44 20.45
  Q 34.72 19.66 35.27 19.01
  Z"
/>
<path fill="#faf6e9" d="
  M 682.22 29.84
  L 680.29 30.25
  C 669.99 32.85 672.02 16.56 683.27 19.57
  A 1.34 1.33 -9.3 0 1 684.04 20.12
  Q 687.10 24.90 682.22 29.84
  Z
  M 677.2026 26.2224
  A 2.29 1.57 105.9 0 0 679.3399 24.4501
  A 2.29 1.57 105.9 0 0 678.4574 21.8176
  A 2.29 1.57 105.9 0 0 676.3201 23.5899
  A 2.29 1.57 105.9 0 0 677.2026 26.2224
  Z"
/>
<ellipse fill="#000000" cx="0.00" cy="0.00" transform="translate(671.58,21.54) rotate(113.9)" rx="1.51" ry="1.15"/>
<ellipse fill="#000000" cx="0.00" cy="0.00" transform="translate(677.83,24.02) rotate(105.9)" rx="2.29" ry="1.57"/>
<ellipse fill="#faf6e9" cx="0.00" cy="0.00" transform="translate(48.44,30.34) rotate(90.4)" rx="8.04" ry="5.00"/>
<path fill="#faf6e9" d="
  M 55.57 29.31
  A 0.75 0.75 0.0 0 1 54.68 28.73
  L 54.05 25.82
  A 2.81 2.69 77.7 0 1 56.08 22.50
  L 56.25 22.47
  A 2.81 2.69 77.7 0 1 59.48 24.64
  L 60.11 27.55
  A 0.75 0.75 0.0 0 1 59.54 28.44
  L 55.57 29.31
  Z"
/>
<path fill="#000000" d="
  M 438.75 38.51
  L 438.75 46.91
  Q 438.75 47.32 438.34 47.32
  L 435.16 47.32
  Q 434.50 47.32 434.50 46.66
  L 434.50 23.73
  Q 434.50 23.11 435.12 23.06
  C 442.14 22.60 446.72 22.90 446.12 31.80
  Q 445.69 38.19 439.26 38.01
  Q 438.75 38.00 438.75 38.51
  Z
  M 441.6044 27.9825
  A 0.93 0.93 0.0 0 0 440.6760 27.0509
  L 439.6560 27.0491
  A 0.93 0.93 0.0 0 0 438.7244 27.9775
  L 438.7156 33.0175
  A 0.93 0.93 0.0 0 0 439.6440 33.9491
  L 440.6640 33.9509
  A 0.93 0.93 0.0 0 0 441.5956 33.0225
  L 441.6044 27.9825
  Z"
/>
<path fill="#000000" d="
  M 452.09 33.00
  L 456.41 33.00
  A 0.34 0.34 0.0 0 1 456.75 33.34
  L 456.75 36.66
  A 0.34 0.34 0.0 0 1 456.41 37.00
  L 452.09 37.00
  A 0.34 0.34 0.0 0 0 451.75 37.34
  L 451.75 43.46
  A 0.34 0.34 0.0 0 0 452.10 43.80
  L 457.59 43.63
  A 0.34 0.34 0.0 0 1 457.94 43.95
  L 458.16 47.16
  A 0.34 0.34 0.0 0 1 457.82 47.52
  L 447.84 47.48
  A 0.34 0.34 0.0 0 1 447.50 47.14
  L 447.50 23.34
  A 0.34 0.34 0.0 0 1 447.84 23.00
  L 457.63 23.00
  A 0.34 0.34 0.0 0 1 457.97 23.33
  L 458.07 26.65
  A 0.34 0.34 0.0 0 1 457.73 27.00
  L 452.09 27.00
  A 0.34 0.34 0.0 0 0 451.75 27.34
  L 451.75 32.66
  A 0.34 0.34 0.0 0 0 452.09 33.00
  Z"
/>
<path fill="#000000" d="
  M 464.75 38.53
  L 464.75 46.98
  A 0.44 0.44 0.0 0 1 464.28 47.42
  L 461.07 47.24
  Q 460.50 47.21 460.50 46.63
  L 460.50 23.72
  Q 460.50 23.08 461.14 23.04
  C 464.58 22.84 470.02 22.05 471.45 26.21
  Q 473.00 30.74 470.55 34.92
  Q 470.30 35.33 470.61 35.70
  C 472.69 38.18 471.98 43.64 472.17 46.81
  Q 472.20 47.27 471.74 47.26
  L 468.29 47.24
  Q 467.84 47.24 467.82 46.79
  L 467.57 38.49
  A 1.41 1.41 0.0 0 0 464.75 38.53
  Z
  M 467.5727 27.9999
  A 0.92 0.92 0.0 0 0 466.6656 27.0672
  L 465.6857 27.0535
  A 0.92 0.92 0.0 0 0 464.7529 27.9605
  L 464.6873 32.6601
  A 0.92 0.92 0.0 0 0 465.5944 33.5928
  L 466.5743 33.6065
  A 0.92 0.92 0.0 0 0 467.5071 32.6995
  L 467.5727 27.9999
  Z"
/>
<path fill="#000000" d="
  M 480.00 28.24
  A 1.38 1.38 0.0 0 0 477.25 28.10
  C 476.65 34.34 488.05 35.78 483.48 45.22
  C 482.17 47.91 478.66 47.27 476.24 47.24
  A 1.50 1.47 -24.7 0 1 475.29 46.90
  Q 472.35 44.52 473.09 40.59
  Q 473.20 40.00 473.81 40.00
  L 476.31 40.00
  A 0.64 0.62 86.9 0 1 476.93 40.57
  L 477.12 42.56
  A 1.31 1.31 0.0 0 0 479.63 42.94
  C 481.69 38.04 472.00 34.94 473.01 27.51
  C 473.97 20.42 485.96 21.76 484.02 29.94
  Q 483.95 30.22 483.66 30.24
  L 480.47 30.42
  Q 480.00 30.45 480.00 29.98
  L 480.00 28.24
  Z"
/>
<path fill="#000000" d="
  M 497.9722 42.1298
  A 5.15 5.15 0.0 0 1 492.8312 47.2887
  L 491.4112 47.2912
  A 5.15 5.15 0.0 0 1 486.2522 42.1502
  L 486.2278 28.2102
  A 5.15 5.15 0.0 0 1 491.3688 23.0513
  L 492.7888 23.0488
  A 5.15 5.15 0.0 0 1 497.9478 28.1898
  L 497.9722 42.1298
  Z
  M 493.7218 28.5628
  A 1.56 1.56 0.0 0 0 492.1646 27.0001
  L 492.0846 26.9999
  A 1.56 1.56 0.0 0 0 490.5218 28.5572
  L 490.4982 42.1172
  A 1.56 1.56 0.0 0 0 492.0554 43.6799
  L 492.1354 43.6801
  A 1.56 1.56 0.0 0 0 493.6982 42.1228
  L 493.7218 28.5628
  Z"
/>
<path fill="#000000" d="
  M 507.21 33.48
  A 0.27 0.27 0.0 0 0 507.74 33.42
  L 507.75 23.50
  Q 507.75 23.00 508.25 23.00
  L 511.00 23.00
  Q 511.50 23.00 511.50 23.50
  L 511.50 46.75
  Q 511.50 47.25 511.00 47.25
  L 507.50 47.25
  Q 507.04 47.25 506.94 46.80
  Q 505.59 40.81 503.79 34.94
  A 0.26 0.25 -53.8 0 0 503.29 35.02
  L 503.27 46.85
  Q 503.27 47.22 502.90 47.23
  L 500.13 47.31
  Q 499.50 47.33 499.50 46.70
  L 499.50 23.63
  Q 499.50 23.00 500.12 23.00
  L 504.16 23.00
  Q 504.67 23.00 504.79 23.50
  L 507.21 33.48
  Z"
/>
<path fill="#000000" d="
  M 520.48 43.03
  L 517.47 42.99
  A 0.34 0.34 0.0 0 0 517.13 43.29
  L 516.64 46.91
  A 0.34 0.34 0.0 0 1 516.32 47.20
  L 512.90 47.36
  A 0.34 0.34 0.0 0 1 512.54 46.97
  L 516.20 23.29
  A 0.34 0.34 0.0 0 1 516.53 23.00
  L 521.56 23.00
  A 0.34 0.34 0.0 0 1 521.89 23.29
  L 525.58 46.85
  A 0.34 0.34 0.0 0 1 525.25 47.25
  L 521.42 47.30
  A 0.34 0.34 0.0 0 1 521.08 46.98
  L 520.81 43.34
  A 0.34 0.34 0.0 0 0 520.48 43.03
  Z
  M 518.29 39.00
  L 519.59 39.00
  A 0.43 0.43 0.0 0 0 520.01 38.56
  L 520.01 38.39
  A 6.64 0.99 89.6 0 0 518.97 31.76
  L 518.79 31.76
  A 6.64 0.99 89.6 0 0 517.85 38.41
  L 517.85 38.58
  A 0.43 0.43 0.0 0 0 518.29 39.00
  Z"
/>
<path fill="#000000" d="
  M 527.48 43.52
  A 1.93 1.51 11.0 0 0 529.96 42.25
  L 530.01 23.59
  Q 530.01 23.00 530.60 23.00
  L 533.74 23.00
  Q 534.25 23.00 534.25 23.51
  Q 534.24 31.47 534.26 39.42
  C 534.27 44.48 533.57 48.67 527.18 47.04
  Q 526.75 46.93 526.75 46.48
  L 526.75 44.10
  Q 526.75 43.69 527.13 43.54
  Q 527.31 43.46 527.48 43.52
  Z"
/>
<path fill="#000000" d="
  M 540.75 37.45
  L 540.75 43.35
  A 0.45 0.45 0.0 0 0 541.21 43.80
  L 546.44 43.63
  A 0.45 0.45 0.0 0 1 546.91 44.05
  L 547.14 46.82
  A 0.45 0.45 0.0 0 1 546.69 47.31
  L 536.95 47.24
  A 0.45 0.45 0.0 0 1 536.50 46.79
  L 536.50 23.45
  A 0.45 0.45 0.0 0 1 536.95 23.00
  L 546.65 23.00
  A 0.45 0.45 0.0 0 1 547.10 23.48
  L 546.92 26.58
  A 0.45 0.45 0.0 0 1 546.47 27.00
  L 541.20 27.00
  A 0.45 0.45 0.0 0 0 540.75 27.45
  L 540.75 32.55
  A 0.45 0.45 0.0 0 0 541.20 33.00
  L 545.30 33.00
  A 0.45 0.45 0.0 0 1 545.75 33.45
  L 545.75 36.55
  A 0.45 0.45 0.0 0 1 545.30 37.00
  L 541.20 37.00
  A 0.45 0.45 0.0 0 0 540.75 37.45
  Z"
/>
<path fill="#000000" d="
  M 555.00 28.06
  A 1.32 1.32 0.0 0 0 552.50 27.48
  C 551.13 30.23 554.55 32.83 556.21 34.57
  C 558.82 37.32 559.81 39.41 559.21 43.03
  C 558.07 49.90 546.76 48.89 547.82 40.44
  Q 547.87 40.00 548.32 40.00
  L 551.33 40.00
  A 0.63 0.63 0.0 0 1 551.96 40.59
  L 552.07 42.47
  A 1.37 1.36 -37.2 0 0 554.72 42.83
  C 556.41 38.03 547.72 35.08 547.85 28.53
  C 548.02 20.30 561.02 21.47 559.02 29.93
  Q 558.96 30.22 558.66 30.24
  L 555.48 30.42
  Q 555.00 30.45 555.00 29.98
  L 555.00 28.06
  Z"
/>
<ellipse fill="#000000" cx="0.00" cy="0.00" transform="translate(38.60,25.94) rotate(78.0)" rx="1.74" ry="1.10"/>
<path fill="#efd26c" d="
  M 664.04 26.53
  Q 664.02 26.24 663.49 26.18
  L 664.38 24.91
  Q 664.61 24.58 664.72 24.96
  Q 664.95 25.74 664.04 26.53
  Z"
/>
<path fill="#efd26c" d="
  M 143.15 42.49
  A 0.27 0.27 0.0 0 1 142.88 42.21
  L 142.88 42.04
  A 17.30 0.84 -89.6 0 1 143.84 24.75
  L 143.88 24.75
  A 17.30 0.84 -89.6 0 1 144.60 42.06
  L 144.60 42.23
  A 0.27 0.27 0.0 0 1 144.33 42.49
  L 143.15 42.49
  Z"
/>
<path fill="#433e18" d="
  M 663.49 26.18
  Q 664.02 26.24 664.04 26.53
  L 663.48 27.12
  A 1.29 1.28 -71.7 0 1 662.73 27.50
  L 656.87 28.32
  Q 656.40 28.38 656.55 27.93
  C 656.98 26.73 662.20 26.35 663.49 26.18
  Z"
/>
<rect fill="#fbed43" x="-1.44" y="-3.45" transform="translate(440.16,30.50) rotate(0.1)" width="2.88" height="6.90" rx="0.93"/>
<rect fill="#fbed43" x="-1.41" y="-3.27" transform="translate(466.13,30.33) rotate(0.8)" width="2.82" height="6.54" rx="0.92"/>
<rect fill="#fbed43" x="-1.60" y="-8.34" transform="translate(492.11,35.34) rotate(0.1)" width="3.20" height="16.68" rx="1.56"/>
<path fill="#000000" d="
  M 658.24 30.30
  C 668.94 26.18 681.40 35.88 683.91 47.11
  Q 683.99 47.45 683.68 47.29
  Q 683.36 47.12 683.22 46.72
  Q 679.31 35.16 668.33 31.10
  C 664.81 29.80 662.02 30.19 658.47 31.03
  A 0.38 0.38 0.0 0 1 658.24 30.30
  Z"
/>
<path fill="#de2321" d="
  M 219.53 38.22
  A 0.38 0.38 0.0 0 0 220.28 38.17
  L 220.59 30.87
  Q 220.61 30.32 221.08 30.04
  Q 222.88 28.98 225.17 29.58
  Q 225.75 29.74 225.69 30.33
  Q 224.82 39.20 223.26 47.91
  C 222.56 51.78 222.85 54.41 219.80 57.42
  Q 219.46 57.75 218.98 57.75
  L 216.28 57.75
  A 0.73 0.73 0.0 0 1 215.59 57.26
  Q 214.96 55.50 215.61 53.67
  Q 215.78 53.22 216.22 53.03
  L 217.88 52.31
  A 0.86 0.86 0.0 0 0 218.37 51.33
  L 213.66 30.97
  Q 213.53 30.40 214.06 30.15
  Q 216.00 29.23 217.92 30.11
  Q 218.43 30.34 218.49 30.91
  Q 218.87 34.58 219.53 38.22
  Z"
/>
<path fill="#f8c79d" d="
  M 47.31 39.69
  C 51.56 39.84 53.84 35.52 54.77 31.42
  Q 54.89 30.92 55.38 30.81
  C 59.15 29.96 66.50 30.09 68.38 34.31
  C 69.46 36.76 68.46 39.31 66.36 40.95
  C 57.87 47.61 43.62 44.81 35.50 39.49
  Q 35.07 39.21 34.56 39.24
  C 26.86 39.74 20.30 41.46 17.25 32.47
  A 0.76 0.75 79.7 0 1 17.94 31.47
  L 39.81 30.89
  Q 40.20 30.88 40.29 31.25
  C 41.39 35.44 41.84 39.50 47.31 39.69
  Z"
/>
<path fill="#f8c79d" d="
  M 11.00 40.11
  A 0.21 0.21 0.0 0 1 10.76 39.93
  L 10.53 38.02
  A 6.39 1.72 82.9 0 1 11.44 31.47
  L 14.30 31.11
  A 6.39 1.72 82.9 0 1 16.80 37.24
  L 17.04 39.15
  A 0.21 0.21 0.0 0 1 16.85 39.38
  L 11.00 40.11
  Z"
/>
<path fill="#fbed43" d="
  M 518.29 39.00
  A 0.43 0.43 0.0 0 1 517.85 38.58
  L 517.85 38.41
  A 6.64 0.99 89.6 0 1 518.79 31.76
  L 518.97 31.76
  A 6.64 0.99 89.6 0 1 520.01 38.39
  L 520.01 38.56
  A 0.43 0.43 0.0 0 1 519.59 39.00
  L 518.29 39.00
  Z"
/>
<path fill="#f8c79d" d="
  M 646.71 37.57
  A 1.09 1.09 0.0 0 1 646.42 36.06
  L 646.49 35.95
  A 4.82 2.48 -55.9 0 1 651.25 33.35
  L 652.14 33.95
  A 4.82 2.48 -55.9 0 1 651.49 39.33
  L 651.42 39.44
  A 1.09 1.09 0.0 0 1 649.91 39.73
  L 646.71 37.57
  Z"
/>
<path fill="#f8c79d" d="
  M 648.60 43.13
  Q 648.89 42.48 649.15 41.72
  A 0.99 0.99 0.0 0 1 651.08 41.98
  L 651.40 47.45
  A 0.68 0.68 0.0 0 1 650.37 48.08
  Q 645.68 45.29 645.75 39.62
  Q 645.75 39.01 646.36 38.99
  Q 647.75 38.94 648.34 40.12
  Q 648.56 40.57 648.35 41.03
  Q 647.92 42.00 648.01 43.03
  A 0.31 0.31 0.0 0 0 648.60 43.13
  Z"
/>
<path fill="#faf6e9" d="
  M 38.54 43.67
  L 38.60 59.11
  Q 38.61 59.79 37.93 59.77
  L 34.83 59.70
  Q 34.38 59.69 34.23 59.27
  Q 31.69 52.23 32.16 44.74
  Q 32.19 44.26 32.13 43.96
  A 0.61 0.61 0.0 0 0 30.93 44.00
  Q 29.99 52.55 24.67 59.31
  Q 24.33 59.75 23.77 59.75
  L 11.03 59.75
  A 0.50 0.49 -90.0 0 1 10.54 59.25
  L 10.52 43.30
  Q 10.32 42.17 10.53 41.51
  Q 10.70 40.97 11.26 41.02
  Q 23.12 41.95 34.91 40.79
  A 1.43 1.40 58.0 0 1 35.82 41.01
  Q 37.57 42.14 38.54 43.67
  Z"
/>
<path fill="#433e18" d="
  M 9.54 42.75
  Q 10.02 42.55 10.52 43.30
  L 10.54 59.25
  A 0.50 0.49 90.0 0 0 11.03 59.75
  L 23.77 59.75
  Q 24.33 59.75 24.67 59.31
  Q 29.99 52.55 30.93 44.00
  A 0.61 0.61 0.0 0 1 32.13 43.96
  Q 32.19 44.26 32.16 44.74
  Q 31.69 52.23 34.23 59.27
  Q 34.38 59.69 34.83 59.70
  L 37.93 59.77
  Q 38.61 59.79 38.60 59.11
  L 38.54 43.67
  L 39.49 44.06
  L 39.83 59.27
  Q 39.85 59.95 40.53 59.95
  Q 84.22 60.23 126.44 59.86
  C 126.81 59.85 127.51 60.21 127.95 60.21
  C 155.15 59.90 182.31 60.36 209.50 59.93
  C 229.52 59.60 249.54 60.31 269.56 60.16
  C 323.87 59.72 378.25 61.07 432.54 60.22
  C 472.16 59.60 511.88 60.18 551.50 60.76
  Q 551.03 62.14 552.00 62.14
  Q 535.48 62.33 496.44 62.07
  Q 423.88 61.59 351.31 61.27
  Q 341.56 61.23 331.81 61.32
  Q 295.66 61.67 259.51 61.76
  C 208.62 61.88 157.57 62.06 106.69 61.51
  Q 78.77 61.21 50.85 61.25
  C 44.52 61.26 35.95 60.60 28.44 60.92
  C 22.68 61.16 17.09 60.71 11.35 60.74
  Q 10.84 60.75 10.63 61.21
  Q 10.20 62.16 9.30 62.54
  A 0.50 0.50 0.0 0 1 8.65 61.89
  L 9.34 60.21
  A 2.34 2.30 -34.5 0 0 9.51 59.34
  L 9.54 42.75
  Z
  M 31.20 59.83
  L 32.52 59.65
  A 0.27 0.27 0.0 0 0 32.75 59.34
  L 32.74 59.24
  A 5.67 0.81 82.0 0 0 31.15 53.74
  L 30.89 53.78
  A 5.67 0.81 82.0 0 0 30.88 59.51
  L 30.89 59.60
  A 0.27 0.27 0.0 0 0 31.20 59.83
  Z
  M 26.34 59.66
  L 27.48 60.08
  A 0.41 0.41 0.0 0 0 28.01 59.83
  L 28.07 59.67
  A 3.04 0.86 -70.0 0 0 28.30 56.52
  L 28.00 56.41
  A 3.04 0.86 -70.0 0 0 26.15 58.98
  L 26.09 59.14
  A 0.41 0.41 0.0 0 0 26.34 59.66
  Z"
/>
<path fill="#000000" d="
  M 693.87 47.93
  C 693.21 47.91 689.40 48.75 689.30 48.66
  Q 688.89 48.28 689.42 48.08
  C 691.12 47.44 699.46 45.26 700.11 46.76
  Q 700.29 47.17 699.85 47.20
  L 697.11 47.36
  Q 696.47 47.40 696.48 48.03
  Q 696.52 50.79 693.97 51.32
  A 0.49 0.49 0.0 0 1 693.41 50.65
  L 694.28 48.55
  A 0.46 0.45 11.7 0 0 693.87 47.93
  Z"
/>
<ellipse fill="#efd26c" cx="0.00" cy="0.00" transform="translate(626.88,47.24) rotate(11.3)" rx="1.69" ry="0.63"/>
<path fill="#faf6e9" d="
  M 31.20 59.83
  A 0.27 0.27 0.0 0 1 30.89 59.60
  L 30.88 59.51
  A 5.67 0.81 82.0 0 1 30.89 53.78
  L 31.15 53.74
  A 5.67 0.81 82.0 0 1 32.74 59.24
  L 32.75 59.34
  A 0.27 0.27 0.0 0 1 32.52 59.65
  L 31.20 59.83
  Z"
/>
<path fill="#faf6e9" d="
  M 26.34 59.66
  A 0.41 0.41 0.0 0 1 26.09 59.14
  L 26.15 58.98
  A 3.04 0.86 -70.0 0 1 28.00 56.41
  L 28.30 56.52
  A 3.04 0.86 -70.0 0 1 28.07 59.67
  L 28.01 59.83
  A 0.41 0.41 0.0 0 1 27.48 60.08
  L 26.34 59.66
  Z"
/>
<path fill="#605d52" d="
  M 553.92 68.93
  Q 554.33 67.47 555.95 67.79
  A 0.47 0.47 0.0 0 1 556.11 68.65
  L 554.70 69.52
  Q 553.55 70.24 553.92 68.93
  Z"
/>
</svg>
