<?xml version="1.0" encoding="UTF-8" standalone="no"?>
<!DOCTYPE svg PUBLIC "-//W3C//DTD SVG 1.1//EN" "http://www.w3.org/Graphics/SVG/1.1/DTD/svg11.dtd">
<svg xmlns="http://www.w3.org/2000/svg" version="1.1" viewBox="0.00 0.00 429.00 132.00">
<g stroke-width="2.00" fill="none" stroke-linecap="butt">
<path stroke="#9e9992" vector-effect="non-scaling-stroke" d="
  M 429.00 8.62
  C 282.64 8.15 154.86 8.92 20.10 8.74
  C 17.02 8.73 13.83 8.44 10.72 8.28
  Q 10.22 8.26 10.01 8.71
  Q 8.75 11.55 9.32 14.15"
/>
<path stroke="#7d7b75" vector-effect="non-scaling-stroke" d="
  M 9.32 14.15
  L 9.55 59.49
  Q 9.55 59.97 9.31 60.39
  L 8.71 61.39
  A 0.36 0.36 0.0 0 0 9.16 61.91
  C 14.41 59.76 20.73 61.31 26.83 61.04
  Q 33.22 60.76 39.62 60.94
  C 56.16 61.40 72.70 61.27 89.23 61.23"
/>
<path stroke="#aaa684" vector-effect="non-scaling-stroke" d="
  M 89.23 61.23
  Q 91.01 61.36 92.75 61.36
  C 205.39 61.38 313.17 61.59 423.32 61.45
  C 424.95 61.45 427.04 61.92 429.00 61.77"
/>
<path stroke="#7d7b75" vector-effect="non-scaling-stroke" d="
  M 0.00 123.57
  L 138.45 123.84"
/>
<path stroke="#aaa684" vector-effect="non-scaling-stroke" d="
  M 138.45 123.84
  C 164.61 124.02 190.78 123.80 216.94 124.34
  Q 233.59 124.69 250.25 124.24"
/>
<path stroke="#7d7b75" vector-effect="non-scaling-stroke" d="
  M 250.25 124.24
  Q 333.27 123.89 416.28 124.23
  C 419.26 124.24 420.11 123.47 420.04 120.50
  Q 419.59 100.67 419.81 80.16
  A 1.03 1.02 -56.1 0 1 421.78 79.77
  L 422.66 81.85
  Q 422.97 82.60 423.16 81.81
  C 423.97 78.50 421.93 77.24 419.76 75.44
  A 0.72 0.71 32.0 0 1 419.56 74.59
  Q 420.32 72.90 419.68 71.15
  Q 419.48 70.62 418.92 70.48
  C 414.05 69.29 407.39 70.02 402.31 70.15
  Q 401.79 70.16 401.48 69.76
  Q 396.89 63.91 389.73 66.88
  C 389.09 67.15 388.81 67.85 389.10 68.46
  Q 389.35 68.95 389.86 68.73
  Q 394.97 66.50 399.88 69.16
  A 0.57 0.57 0.0 0 1 400.00 70.08
  C 398.96 71.09 323.09 70.37 322.69 70.37
  Q 315.12 70.45 311.02 70.21"
/>
<path stroke="#aca99a" vector-effect="non-scaling-stroke" d="
  M 311.02 70.21
  Q 283.52 70.44 256.06 70.20
  C 242.59 70.09 226.96 70.56 215.57 70.36
  C 167.17 69.49 119.00 70.97 70.75 70.70
  Q 35.37 70.51 0.00 70.75"
/>
<path stroke="#f9dfc3" vector-effect="non-scaling-stroke" d="
  M 420.9582 5.0349
  A 1.37 0.65 77.0 0 0 421.2833 3.5538
  A 1.37 0.65 77.0 0 0 420.3418 2.3651
  A 1.37 0.65 77.0 0 0 420.0167 3.8462
  A 1.37 0.65 77.0 0 0 420.9582 5.0349"
/>
<path stroke="#f9dfc3" vector-effect="non-scaling-stroke" d="
  M 113.9555 66.9438
  A 1.26 0.70 78.3 0 0 114.3855 65.5680
  A 1.26 0.70 78.3 0 0 113.4445 64.4762
  A 1.26 0.70 78.3 0 0 113.0145 65.8520
  A 1.26 0.70 78.3 0 0 113.9555 66.9438"
/>
<path stroke="#aca99a" vector-effect="non-scaling-stroke" d="
  M 263.32 130.42
  A 0.62 0.62 0.0 0 0 264.06 131.30
  L 264.81 131.07
  A 0.57 0.57 0.0 0 0 265.01 130.10
  Q 263.95 129.20 263.32 130.42"
/>
<path stroke="#9f943d" vector-effect="non-scaling-stroke" d="
  M 429.00 9.83
  Q 424.22 10.14 419.49 9.97
  Q 411.96 9.72 410.00 9.73
  Q 372.68 10.01 335.37 9.97
  C 328.29 9.97 318.25 8.93 310.18 9.64
  C 306.85 9.93 304.59 9.79 301.71 9.81
  Q 233.98 10.16 166.25 9.92
  C 114.62 9.73 62.98 10.08 11.35 9.82
  Q 10.81 9.82 10.74 10.34
  L 10.48 12.05
  Q 10.39 12.67 11.01 12.58
  Q 17.70 11.61 24.43 12.24
  C 25.74 12.36 26.97 13.49 28.51 12.33
  A 0.95 0.95 0.0 0 1 30.00 12.85
  Q 30.47 14.61 32.21 15.75"
/>
<path stroke="#211e1d" vector-effect="non-scaling-stroke" d="
  M 32.21 15.75
  L 32.42 17.76
  Q 32.43 17.93 32.27 17.87
  Q 32.15 17.83 32.00 17.79"
/>
<path stroke="#9d816c" vector-effect="non-scaling-stroke" d="
  M 32.00 17.79
  L 32.02 17.48
  Q 32.04 17.10 31.69 16.93
  L 29.15 15.72
  Q 28.76 15.53 28.50 15.87
  L 26.75 18.09
  A 0.59 0.58 56.4 0 1 25.73 17.88
  Q 25.34 16.49 25.76 15.05
  A 0.65 0.65 0.0 0 0 24.82 14.30
  Q 23.43 15.08 23.12 16.92
  A 0.32 0.31 -36.8 0 1 22.49 16.84
  Q 22.65 15.76 22.52 14.83
  Q 22.43 14.26 21.87 14.17
  Q 16.06 13.25 10.69 14.92"
/>
<path stroke="#211e1d" vector-effect="non-scaling-stroke" d="
  M 10.69 14.92
  L 9.32 14.15"
/>
<path stroke="#aba22f" vector-effect="non-scaling-stroke" d="
  M 429.00 60.57
  L 428.76 60.15
  Q 428.52 59.74 428.10 59.95
  C 427.78 60.11 427.65 60.24 427.28 60.24
  C 385.29 60.27 343.20 60.73 301.21 60.00
  Q 293.10 59.86 284.99 60.00
  C 255.65 60.55 226.32 59.18 197.00 60.05
  C 185.92 60.38 170.38 59.91 163.63 59.90
  Q 126.44 59.89 89.25 60.10"
/>
<path stroke="#7e7720" vector-effect="non-scaling-stroke" d="
  M 89.25 60.10
  L 40.33 60.00
  Q 39.83 60.00 39.81 59.49
  L 39.43 44.53
  A 0.68 0.68 0.0 0 1 40.48 43.94
  Q 49.95 50.02 61.20 46.19
  Q 69.21 43.47 69.62 36.13
  C 69.86 31.75 66.28 29.44 62.43 28.76
  A 0.77 0.76 89.4 0 1 61.81 28.15
  C 60.78 22.98 58.45 17.57 52.07 22.11
  Q 51.64 22.42 51.20 22.13
  Q 48.28 20.18 44.92 21.60
  A 0.82 0.82 0.0 0 1 43.98 21.38
  Q 42.79 19.98 41.25 18.98
  Q 40.84 18.72 40.35 18.73
  Q 39.02 18.78 37.76 19.51"
/>
<path stroke="#aba22f" vector-effect="non-scaling-stroke" d="
  M 37.76 19.51
  Q 36.74 18.42 35.78 18.16"
/>
<path stroke="#7e7720" vector-effect="non-scaling-stroke" d="
  M 35.78 18.16
  Q 35.10 17.73 35.26 16.97
  A 0.69 0.68 -78.9 0 1 36.04 16.44
  Q 38.66 16.90 39.09 14.58
  A 0.79 0.78 -71.9 0 0 38.67 13.74
  C 36.25 12.53 34.10 14.42 32.21 15.75"
/>
<path stroke="#ed8831" vector-effect="non-scaling-stroke" d="
  M 311.0484 16.0704
  A 4.91 4.91 0.0 0 0 306.2423 11.0586
  L 302.0832 10.9715
  A 4.91 4.91 0.0 0 0 297.0714 15.7776
  L 296.3116 52.0496
  A 4.91 4.91 0.0 0 0 301.1177 57.0614
  L 305.2768 57.1485
  A 4.91 4.91 0.0 0 0 310.2886 52.3424
  L 311.0484 16.0704"
/>
<path stroke="#ed8831" vector-effect="non-scaling-stroke" d="
  M 317.85 37.57
  A 0.40 0.40 0.0 0 1 318.65 37.53
  L 320.76 56.82
  A 0.40 0.40 0.0 0 0 321.15 57.18
  L 326.69 57.29
  A 0.40 0.40 0.0 0 0 327.10 56.90
  L 327.85 11.63
  A 0.40 0.40 0.0 0 0 327.44 11.22
  L 322.90 11.36
  A 0.40 0.40 0.0 0 0 322.51 11.75
  L 322.06 28.89
  A 0.40 0.40 0.0 0 1 321.26 28.92
  L 319.45 11.66
  A 0.40 0.40 0.0 0 0 319.05 11.30
  L 313.22 11.25
  A 0.40 0.40 0.0 0 0 312.81 11.65
  L 312.24 56.79
  A 0.40 0.40 0.0 0 0 312.63 57.20
  L 317.13 57.27
  A 0.40 0.40 0.0 0 0 317.54 56.88
  L 317.85 37.57"
/>
<path stroke="#ed8831" vector-effect="non-scaling-stroke" d="
  M 281.04 36.90
  L 283.17 56.98
  Q 283.25 57.70 283.97 57.68
  L 285.97 57.63
  A 0.57 0.57 0.0 0 0 286.53 57.10
  L 288.13 37.53
  A 0.30 0.29 -73.6 0 1 288.56 37.29
  L 288.87 37.45
  Q 289.25 37.65 289.25 38.09
  L 289.25 56.94
  Q 289.25 57.64 289.94 57.65
  L 293.78 57.75
  A 0.49 0.49 0.0 0 0 294.28 57.27
  L 295.02 12.41
  A 0.60 0.60 0.0 0 0 294.42 11.80
  L 288.19 11.76
  A 1.10 1.09 -86.5 0 0 287.09 12.74
  L 285.58 27.50
  A 0.34 0.34 0.0 0 1 284.91 27.53
  C 283.95 22.50 284.60 17.13 283.54 12.25
  Q 283.44 11.77 282.94 11.76
  L 276.37 11.64
  A 0.75 0.74 -89.2 0 0 275.62 12.38
  L 275.16 56.47
  A 1.29 1.28 89.6 0 0 276.47 57.77
  L 279.70 57.70
  Q 280.34 57.69 280.33 57.05
  C 280.28 55.19 280.12 36.80 280.85 36.74
  A 0.18 0.17 83.5 0 1 281.04 36.90"
/>
<path stroke="#ed8831" vector-effect="non-scaling-stroke" d="
  M 106.4306 16.6489
  A 4.88 4.88 0.0 0 0 101.4662 11.8548
  L 97.0268 11.9323
  A 4.88 4.88 0.0 0 0 92.2327 16.8967
  L 92.8694 53.3711
  A 4.88 4.88 0.0 0 0 97.8338 58.1652
  L 102.2732 58.0877
  A 4.88 4.88 0.0 0 0 107.0673 53.1233
  L 106.4306 16.6489"
/>
<path stroke="#ed8831" vector-effect="non-scaling-stroke" d="
  M 152.99 13.03
  L 153.21 56.59
  A 1.23 1.23 0.0 0 0 154.45 57.81
  L 162.19 57.77
  A 5.46 5.21 89.7 0 0 167.37 52.28
  L 167.19 17.18
  A 5.46 5.21 89.7 0 0 161.95 11.75
  L 154.21 11.79
  A 1.23 1.23 0.0 0 0 152.99 13.03"
/>
<path stroke="#ed8831" vector-effect="non-scaling-stroke" d="
  M 175.90 16.75
  L 177.72 16.75
  A 0.76 0.76 0.0 0 0 178.48 16.03
  L 178.69 12.49
  Q 178.73 11.75 177.99 11.75
  L 170.29 11.75
  A 1.21 1.20 -0.2 0 0 169.08 12.96
  L 169.35 57.02
  Q 169.36 57.62 169.95 57.62
  L 177.85 57.70
  Q 178.68 57.71 178.64 56.89
  L 178.47 53.32
  A 0.65 0.65 0.0 0 0 177.65 52.73
  Q 176.22 53.12 175.48 52.03
  Q 175.29 51.74 175.30 51.40
  L 175.58 35.83
  Q 175.59 35.25 176.17 35.25
  L 177.52 35.25
  Q 178.16 35.25 178.39 34.65
  Q 179.13 32.73 178.50 30.85
  Q 178.33 30.33 177.78 30.30
  L 175.89 30.18
  Q 175.22 30.14 175.22 29.47
  L 175.30 17.34
  A 0.60 0.60 0.0 0 1 175.90 16.75"
/>
<path stroke="#ed8831" vector-effect="non-scaling-stroke" d="
  M 190.04 53.70
  A 0.76 0.76 0.0 0 0 189.50 53.04
  L 187.34 52.42
  A 0.76 0.76 0.0 0 1 186.79 51.69
  L 186.61 12.61
  A 0.76 0.76 0.0 0 0 185.88 11.85
  L 181.21 11.69
  A 0.76 0.76 0.0 0 0 180.43 12.45
  L 180.76 56.75
  A 0.76 0.76 0.0 0 0 181.52 57.50
  L 189.53 57.50
  A 0.76 0.76 0.0 0 0 190.29 56.68
  L 190.04 53.70"
/>
<path stroke="#ed8831" vector-effect="non-scaling-stroke" d="
  M 205.6883 16.7779
  A 4.92 4.92 0.0 0 0 200.7597 11.8665
  L 196.6598 11.8736
  A 4.92 4.92 0.0 0 0 191.7484 16.8022
  L 191.8117 53.0821
  A 4.92 4.92 0.0 0 0 196.7403 57.9935
  L 200.8402 57.9864
  A 4.92 4.92 0.0 0 0 205.7516 53.0578
  L 205.6883 16.7779"
/>
<path stroke="#ed8831" vector-effect="non-scaling-stroke" d="
  M 250.1451 12.4806
  A 0.60 0.60 0.0 0 0 249.5493 11.8764
  L 245.0094 11.8447
  A 0.60 0.60 0.0 0 0 244.4052 12.4405
  L 244.0949 56.8794
  A 0.60 0.60 0.0 0 0 244.6907 57.4836
  L 249.2306 57.5153
  A 0.60 0.60 0.0 0 0 249.8348 56.9195
  L 250.1451 12.4806"
/>
<path stroke="#ed8831" vector-effect="non-scaling-stroke" d="
  M 259.68 52.53
  A 1.86 0.18 30.1 0 1 258.25 51.50
  L 258.25 12.52
  A 0.71 0.71 0.0 0 0 257.52 11.81
  L 252.73 11.91
  Q 252.21 11.92 252.21 12.45
  L 252.27 56.89
  Q 252.27 57.50 252.89 57.50
  L 260.75 57.50
  Q 261.50 57.50 261.50 56.75
  L 261.50 53.70
  Q 261.50 52.83 260.63 52.81
  Q 260.14 52.80 259.68 52.53"
/>
<path stroke="#ed8831" vector-effect="non-scaling-stroke" d="
  M 270.04 29.18
  L 269.94 17.29
  Q 269.93 16.77 270.46 16.76
  L 272.54 16.73
  Q 272.94 16.73 273.09 16.35
  Q 273.89 14.32 273.41 12.35
  A 0.84 0.82 -6.6 0 0 272.60 11.72
  L 264.85 11.82
  A 0.83 0.83 0.0 0 0 264.03 12.65
  L 263.90 56.72
  A 0.75 0.75 0.0 0 0 264.65 57.47
  L 272.30 57.52
  Q 273.19 57.52 273.19 56.63
  L 273.19 53.62
  Q 273.19 52.96 272.54 52.86
  L 270.33 52.51
  Q 269.75 52.41 269.75 51.83
  L 269.75 35.56
  A 0.67 0.66 16.1 0 1 270.77 35.00
  C 273.31 36.61 273.60 32.43 273.46 31.14
  Q 273.39 30.49 272.76 30.34
  L 270.55 29.81
  Q 270.05 29.69 270.04 29.18"
/>
<path stroke="#f6e257" vector-effect="non-scaling-stroke" d="
  M 133.31 52.27
  L 133.32 47.95"
/>
<path stroke="#ed8831" vector-effect="non-scaling-stroke" d="
  M 133.32 47.95
  L 132.69 17.93
  Q 132.68 17.33 133.26 17.19
  Q 136.82 16.32 135.01 12.47
  Q 134.79 11.99 134.26 12.00
  L 124.35 12.21
  Q 123.83 12.22 123.71 12.73
  Q 122.90 16.15 125.81 17.36
  Q 126.32 17.57 126.34 18.12
  Q 126.78 37.75 127.36 57.39
  A 0.66 0.66 0.0 0 0 128.08 58.03
  L 132.55 57.68
  A 0.68 0.67 -1.4 0 0 133.17 57.03
  L 133.31 52.27"
/>
<path stroke="#e87d47" vector-effect="non-scaling-stroke" d="
  M 133.32 47.95
  Q 132.58 49.90 133.31 52.27"
/>
<path stroke="#ed8831" vector-effect="non-scaling-stroke" d="
  M 145.22 48.79
  L 145.60 57.03
  Q 145.64 57.74 146.35 57.74
  L 150.95 57.75
  Q 151.66 57.76 151.61 57.04
  L 148.38 12.80
  Q 148.32 12.04 147.56 12.04
  L 139.66 12.04
  Q 138.93 12.04 138.89 12.77
  L 136.10 57.17
  Q 136.07 57.76 136.66 57.75
  L 141.58 57.74
  Q 142.02 57.74 142.05 57.29
  L 142.55 48.77
  A 1.34 1.34 0.0 0 1 145.22 48.79"
/>
<path stroke="#ed8831" vector-effect="non-scaling-stroke" d="
  M 238.77 17.75
  A 0.67 0.67 0.0 0 1 239.36 17.08
  L 241.57 16.83
  A 0.67 0.67 0.0 0 0 242.16 16.22
  L 242.43 12.87
  A 0.67 0.67 0.0 0 0 241.78 12.15
  L 233.42 11.93
  A 0.67 0.67 0.0 0 0 232.73 12.60
  L 232.76 57.06
  A 0.67 0.67 0.0 0 0 233.43 57.73
  L 238.01 57.73
  A 0.67 0.67 0.0 0 0 238.68 57.06
  L 238.78 36.24
  A 0.67 0.67 0.0 0 1 239.34 35.58
  L 241.80 35.20
  A 0.67 0.67 0.0 0 0 242.37 34.52
  L 242.26 31.19
  A 0.67 0.67 0.0 0 0 241.68 30.55
  L 239.32 30.24
  A 0.67 0.67 0.0 0 1 238.74 29.57
  L 238.77 17.75"
/>
<path stroke="#ed8831" vector-effect="non-scaling-stroke" d="
  M 77.93 37.95
  Q 79.09 47.55 79.88 57.18
  Q 79.93 57.77 80.52 57.83
  L 82.56 58.05
  Q 83.15 58.11 83.21 57.53
  C 83.42 55.68 84.94 37.90 85.02 37.87
  Q 85.45 37.72 85.47 38.19
  L 86.26 57.53
  Q 86.29 58.28 87.04 58.24
  L 90.83 58.02
  A 0.52 0.52 0.0 0 0 91.33 57.49
  L 90.68 12.77
  A 0.58 0.58 0.0 0 0 90.08 12.19
  L 83.38 12.41
  Q 82.79 12.42 82.76 13.01
  Q 82.37 20.52 81.67 27.99
  Q 81.64 28.22 81.59 28.39
  A 0.35 0.35 0.0 0 1 80.92 28.31
  L 79.31 13.13
  Q 79.26 12.58 78.70 12.55
  L 72.13 12.24
  A 0.68 0.68 0.0 0 0 71.42 12.94
  L 72.46 57.36
  Q 72.48 58.01 73.12 57.98
  L 76.58 57.82
  A 0.82 0.82 0.0 0 0 77.36 56.99
  L 77.28 37.99
  A 0.33 0.33 0.0 0 1 77.93 37.95"
/>
<path stroke="#ed8831" vector-effect="non-scaling-stroke" d="
  M 116.72 39.01
  C 118.10 41.59 117.46 53.78 117.53 57.40
  A 0.65 0.64 -1.3 0 0 118.20 58.03
  L 122.38 57.89
  Q 123.09 57.87 123.13 57.15
  Q 123.70 47.36 122.62 37.63
  A 1.46 1.46 0.0 0 0 122.16 36.72
  Q 120.36 35.07 122.14 33.68
  Q 122.50 33.39 122.53 32.93
  Q 122.94 26.87 122.71 20.79
  C 122.53 16.12 122.89 12.29 117.29 12.29
  Q 112.90 12.30 108.82 12.57
  A 0.93 0.93 0.0 0 0 107.95 13.55
  Q 108.57 25.17 108.72 36.34
  C 108.79 41.21 109.63 50.26 108.92 57.35
  Q 108.86 57.94 109.45 57.95
  L 114.32 58.03
  Q 114.87 58.04 114.86 57.49
  L 114.70 39.53
  A 1.07 1.07 0.0 0 1 116.72 39.01"
/>
<path stroke="#ed8831" vector-effect="non-scaling-stroke" d="
  M 220.26 38.25
  A 0.36 0.36 0.0 0 1 219.54 38.29
  Q 218.92 34.61 218.48 30.89
  Q 218.41 30.33 217.90 30.10
  Q 215.99 29.24 214.06 30.15
  Q 213.53 30.40 213.66 30.96
  L 218.36 51.32
  A 0.84 0.82 -18.6 0 1 217.88 52.27
  L 216.05 53.07
  A 1.01 0.99 79.4 0 0 215.45 53.96
  L 215.37 57.04
  Q 215.36 57.59 215.91 57.69
  Q 221.33 58.61 222.35 53.31
  Q 224.36 42.88 225.71 30.27
  Q 225.77 29.78 225.29 29.64
  Q 223.08 29.02 221.17 29.93
  A 1.03 1.02 -12.0 0 0 220.59 30.82
  L 220.26 38.25"
/>
<path stroke="#e87d47" vector-effect="non-scaling-stroke" d="
  M 305.1728 17.0874
  A 1.11 1.11 0.0 0 0 304.0863 15.9544
  L 304.0463 15.9535
  A 1.11 1.11 0.0 0 0 302.9133 17.0400
  L 302.2072 50.7526
  A 1.11 1.11 0.0 0 0 303.2937 51.8856
  L 303.3337 51.8865
  A 1.11 1.11 0.0 0 0 304.4667 50.8000
  L 305.1728 17.0874"
/>
<path stroke="#e87d47" vector-effect="non-scaling-stroke" d="
  M 100.6577 18.2420
  A 1.07 1.07 0.0 0 0 99.5673 17.1927
  L 99.5073 17.1939
  A 1.07 1.07 0.0 0 0 98.4581 18.2842
  L 99.1023 51.8380
  A 1.07 1.07 0.0 0 0 100.1927 52.8873
  L 100.2527 52.8861
  A 1.07 1.07 0.0 0 0 101.3019 51.7958
  L 100.6577 18.2420"
/>
<path stroke="#e87d47" vector-effect="non-scaling-stroke" d="
  M 161.2445 18.0389
  A 1.13 1.13 0.0 0 0 160.1028 16.9208
  L 160.0628 16.9212
  A 1.13 1.13 0.0 0 0 158.9447 18.0630
  L 159.2955 51.5611
  A 1.13 1.13 0.0 0 0 160.4372 52.6792
  L 160.4772 52.6788
  A 1.13 1.13 0.0 0 0 161.5953 51.5370
  L 161.2445 18.0389"
/>
<path stroke="#e87d47" vector-effect="non-scaling-stroke" d="
  M 199.6903 17.8682
  A 1.00 1.00 0.0 0 0 198.6885 16.8700
  L 198.6485 16.8701
  A 1.00 1.00 0.0 0 0 197.6503 17.8718
  L 197.7097 51.9318
  A 1.00 1.00 0.0 0 0 198.7115 52.9300
  L 198.7515 52.9299
  A 1.00 1.00 0.0 0 0 199.7497 51.9282
  L 199.6903 17.8682"
/>
<path stroke="#e87d47" vector-effect="non-scaling-stroke" d="
  M 143.11 42.49
  L 144.31 42.50
  A 0.27 0.27 0.0 0 0 144.58 42.24
  L 144.59 42.05
  A 17.54 0.85 -89.5 0 0 143.89 24.50
  L 143.85 24.50
  A 17.54 0.85 -89.5 0 0 142.85 42.03
  L 142.84 42.22
  A 0.27 0.27 0.0 0 0 143.11 42.49"
/>
<path stroke="#e87d47" vector-effect="non-scaling-stroke" d="
  M 116.4202 18.0386
  A 0.99 0.99 0.0 0 0 115.4080 17.0713
  L 115.3480 17.0726
  A 0.99 0.99 0.0 0 0 114.3808 18.0848
  L 114.6798 31.2614
  A 0.99 0.99 0.0 0 0 115.6920 32.2287
  L 115.7520 32.2274
  A 0.99 0.99 0.0 0 0 116.7192 31.2152
  L 116.4202 18.0386"
/>
<path stroke="#2d2b0f" vector-effect="non-scaling-stroke" d="
  M 35.78 18.16
  Q 35.40 18.49 35.28 19.00"
/>
<path stroke="#796c37" vector-effect="non-scaling-stroke" d="
  M 35.28 19.00
  Q 34.74 19.66 35.34 20.43
  Q 35.71 20.92 36.20 20.54
  L 36.55 20.26"
/>
<path stroke="#2d2b0f" vector-effect="non-scaling-stroke" d="
  M 36.55 20.26
  Q 37.00 19.49 37.76 19.51"
/>
<path stroke="#2d2b0f" vector-effect="non-scaling-stroke" d="
  M 89.25 60.10
  L 89.97 60.27
  Q 90.93 60.49 90.02 60.88
  L 89.23 61.23"
/>
<path stroke="#7c644f" vector-effect="non-scaling-stroke" d="
  M 10.69 14.92
  Q 9.99 21.64 10.52 28.09
  Q 10.57 28.67 11.15 28.74
  L 13.82 29.04
  Q 14.38 29.10 14.54 28.56
  L 16.11 23.41
  A 0.52 0.52 0.0 0 0 15.49 22.76
  Q 14.34 23.03 13.56 24.01
  A 0.47 0.46 47.6 0 1 12.80 23.97
  Q 12.28 23.18 12.53 22.19
  Q 12.65 21.70 13.13 21.55
  Q 16.41 20.57 19.84 21.20
  A 0.37 0.37 0.0 0 1 19.86 21.92
  L 18.21 22.36
  Q 17.57 22.53 17.38 23.17
  L 15.96 27.96
  A 0.81 0.80 -81.7 0 0 16.73 29.00
  L 27.48 29.00
  A 0.50 0.50 0.0 0 0 27.98 28.48
  C 27.76 24.40 26.62 18.90 32.00 17.79"
/>
<path stroke="#7d7b75" vector-effect="non-scaling-stroke" d="
  M 33.40 28.89
  A 0.51 0.50 90.0 0 0 33.93 28.35
  L 33.69 25.56
  A 1.18 1.18 0.0 0 1 36.00 25.11
  Q 36.45 26.57 36.20 28.13
  A 0.60 0.59 2.2 0 0 36.84 28.81
  L 39.89 28.57
  Q 40.57 28.51 40.68 27.84
  Q 41.15 24.99 43.00 22.82
  Q 43.42 22.32 42.94 21.87
  L 41.04 20.08
  Q 40.65 19.72 40.13 19.81
  Q 37.50 20.26 37.32 22.83
  A 0.84 0.84 0.0 0 1 35.66 22.94
  Q 35.15 20.42 32.83 19.10
  Q 32.43 18.87 31.99 19.01
  C 28.10 20.21 28.66 24.95 29.53 28.13
  A 0.76 0.76 0.0 0 0 30.21 28.69
  L 33.40 28.89"
/>
<path stroke="#7d7b75" vector-effect="non-scaling-stroke" d="
  M 48.4078 38.3799
  A 8.06 4.97 90.3 0 0 53.4199 30.3460
  A 8.06 4.97 90.3 0 0 48.4922 22.2601
  A 8.06 4.97 90.3 0 0 43.4801 30.2940
  A 8.06 4.97 90.3 0 0 48.4078 38.3799"
/>
<path stroke="#7d7b75" vector-effect="non-scaling-stroke" d="
  M 56.12 29.37
  L 59.13 28.70
  A 1.26 1.26 0.0 0 0 60.08 27.20
  L 59.56 24.88
  A 3.10 2.60 77.4 0 0 56.35 22.42
  L 55.96 22.50
  A 3.10 2.60 77.4 0 0 54.10 26.10
  L 54.62 28.42
  A 1.26 1.26 0.0 0 0 56.12 29.37"
/>
<path stroke="#7c644f" vector-effect="non-scaling-stroke" d="
  M 47.06 39.69
  C 41.74 39.27 41.44 35.54 40.32 31.37
  Q 40.18 30.86 39.65 30.88
  L 17.72 31.65
  A 0.59 0.59 0.0 0 0 17.19 32.45
  C 20.61 41.36 26.97 39.95 34.61 39.23
  Q 35.12 39.18 35.54 39.46
  Q 46.79 46.69 59.82 44.05
  C 63.83 43.24 70.99 39.44 68.41 34.27
  C 66.34 30.13 59.26 29.92 55.41 30.81
  Q 54.92 30.92 54.80 31.42
  C 53.81 35.54 51.54 40.04 47.06 39.69"
/>
<path stroke="#7c644f" vector-effect="non-scaling-stroke" d="
  M 11.01 40.11
  L 16.84 39.38
  A 0.21 0.21 0.0 0 0 17.03 39.15
  L 16.76 37.05
  A 6.19 1.72 82.9 0 0 14.29 31.12
  L 11.45 31.47
  A 6.19 1.72 82.9 0 0 10.51 37.82
  L 10.77 39.93
  A 0.21 0.21 0.0 0 0 11.01 40.11"
/>
<path stroke="#7d7b75" vector-effect="non-scaling-stroke" d="
  M 32.13 43.78
  C 32.41 49.53 32.52 53.59 34.16 59.22
  Q 34.30 59.69 34.79 59.70
  L 37.96 59.77
  Q 38.45 59.78 38.45 59.29
  L 38.34 43.66
  Q 38.34 43.47 38.24 43.31
  C 35.82 39.40 33.52 41.16 30.17 41.30
  Q 20.66 41.68 10.99 41.08
  A 0.46 0.46 0.0 0 0 10.50 41.54
  L 10.50 59.45
  Q 10.50 59.82 10.88 59.81
  Q 16.44 59.64 21.98 60.01
  C 27.30 60.36 30.54 47.64 30.99 43.75
  A 0.57 0.57 0.0 0 1 32.13 43.78"
/>
<path stroke="#7d7b75" vector-effect="non-scaling-stroke" d="
  M 31.9088 59.9282
  A 3.04 0.86 81.7 0 0 32.3210 56.7959
  A 3.04 0.86 81.7 0 0 31.0312 53.9118
  A 3.04 0.86 81.7 0 0 30.6190 57.0441
  A 3.04 0.86 81.7 0 0 31.9088 59.9282"
/>
<path stroke="#7d7b75" vector-effect="non-scaling-stroke" d="
  M 27.64 56.12
  L 25.87 59.75
  A 0.11 0.11 0.0 0 0 25.92 59.89
  L 25.94 59.91
  A 1.99 1.68 -64.0 0 0 28.33 58.85
  L 28.45 58.60
  A 1.99 1.68 -64.0 0 0 27.81 56.08
  L 27.78 56.06
  A 0.11 0.11 0.0 0 0 27.64 56.12"
/>
<path stroke="#a69746" vector-effect="non-scaling-stroke" d="
  M 36.55 20.26
  Q 36.61 19.17 35.28 19.00"
/>
<path stroke="#7d7b75" vector-effect="non-scaling-stroke" d="
  M 38.9618 27.6420
  A 1.74 1.10 78.0 0 0 39.6760 25.7113
  A 1.74 1.10 78.0 0 0 38.2382 24.2380
  A 1.74 1.10 78.0 0 0 37.5240 26.1687
  A 1.74 1.10 78.0 0 0 38.9618 27.6420"
/>
<path stroke="#2d2b0f" vector-effect="non-scaling-stroke" d="
  M 250.25 124.24
  Q 250.31 123.14 251.26 122.73"
/>
<path stroke="#7e7720" vector-effect="non-scaling-stroke" d="
  M 251.26 122.73
  Q 308.80 122.34 366.44 123.07
  Q 367.20 123.08 366.73 122.48
  Q 363.03 117.78 361.10 112.12
  A 1.04 1.03 0.7 0 0 360.47 111.48
  Q 350.78 107.90 353.56 98.36
  C 354.14 96.36 355.99 94.99 357.40 93.43
  A 0.64 0.64 0.0 0 0 357.43 92.59
  Q 354.66 89.17 354.16 84.79
  A 1.21 1.20 -28.2 0 1 354.44 83.87
  C 360.26 76.94 369.35 77.01 376.28 82.27
  A 0.62 0.61 -48.0 0 0 377.09 82.22
  Q 379.50 79.81 382.53 78.75"
/>
<path stroke="#7c644f" vector-effect="non-scaling-stroke" d="
  M 382.53 78.75
  Q 384.62 78.95 386.37 80.29
  Q 386.79 80.61 387.32 80.53
  C 398.54 78.95 396.32 91.45 390.70 91.95"
/>
<path stroke="#7d7b75" vector-effect="non-scaling-stroke" d="
  M 390.70 91.95
  C 395.29 88.98 396.19 79.94 388.19 81.13
  C 382.02 82.06 379.13 93.75 389.35 92.37"
/>
<path stroke="#7c644f" vector-effect="non-scaling-stroke" d="
  M 389.35 92.37
  L 386.73 93.42
  A 0.71 0.71 0.0 0 0 386.29 94.20
  Q 386.38 94.69 386.99 95.25
  Q 384.48 93.92 382.73 91.77
  Q 382.42 91.39 382.39 90.89
  Q 382.32 89.60 381.39 88.76
  A 1.19 1.18 61.1 0 0 380.39 88.47
  Q 378.90 88.73 378.39 87.86
  Q 373.32 79.15 362.96 80.14
  Q 358.39 80.58 355.72 84.23
  Q 355.44 84.60 355.59 85.04
  C 358.56 94.30 367.82 99.11 376.73 94.64
  Q 377.36 94.32 377.25 95.01
  C 376.93 97.12 370.92 98.39 369.12 98.59
  Q 368.58 98.65 368.45 99.18
  L 366.61 106.32
  A 0.42 0.42 0.0 0 0 367.26 106.77
  C 370.84 104.24 377.79 100.31 382.10 101.52
  C 387.67 103.09 389.67 115.89 385.00 114.72
  Q 380.37 113.56 377.71 110.07
  A 0.76 0.76 0.0 0 0 376.35 110.43
  Q 375.89 113.85 377.34 116.96
  A 0.40 0.39 -12.4 0 1 376.98 117.52
  C 375.14 117.50 375.49 109.73 375.66 108.68
  A 0.67 0.66 -62.5 0 1 376.79 108.32
  L 379.85 111.45
  A 0.65 0.64 36.0 0 0 380.89 111.29
  L 384.10 104.82
  Q 384.43 104.16 383.92 103.63
  C 379.56 99.13 369.68 105.71 366.59 108.96
  A 0.72 0.72 0.0 0 1 365.35 108.49
  Q 365.20 103.59 366.55 98.91
  A 0.66 0.66 0.0 0 0 366.10 98.09
  L 363.75 97.41
  Q 363.12 97.22 362.98 97.86
  C 361.28 105.38 362.49 124.02 373.49 123.11
  C 379.75 122.60 385.65 123.23 391.79 122.78
  C 395.82 122.49 397.97 119.32 397.95 115.57
  Q 397.95 115.20 398.28 115.37
  C 413.48 123.25 418.75 100.53 406.25 101.04
  Q 401.86 101.22 398.50 104.46
  A 0.39 0.39 0.0 0 1 397.91 103.95
  Q 401.30 99.39 406.92 99.20
  A 0.89 0.89 0.0 0 0 407.75 98.51
  C 409.33 91.78 409.31 81.55 402.84 77.17
  A 0.95 0.94 3.9 0 0 401.46 78.37
  L 402.36 80.20
  A 0.37 0.37 0.0 0 1 402.00 80.74
  L 401.62 80.71
  A 0.67 0.67 0.0 0 1 401.00 80.08
  Q 400.80 75.75 397.01 75.14
  C 395.42 74.89 393.67 75.53 391.90 75.68
  A 0.43 0.43 0.0 0 0 391.79 76.51
  Q 393.84 77.27 396.01 76.50
  Q 396.49 76.33 396.89 76.64
  Q 399.11 78.33 399.71 81.15
  A 1.08 1.07 74.0 0 1 399.03 82.38
  C 395.65 83.61 398.22 76.62 391.91 77.86
  A 0.58 0.57 -16.9 0 1 391.27 77.52
  L 390.63 76.03
  A 0.43 0.43 0.0 0 0 389.85 76.01
  Q 389.37 76.97 389.20 78.02
  Q 389.11 78.55 388.60 78.74
  C 386.41 79.56 383.24 74.97 382.53 78.75"
/>
<path stroke="#7e7720" vector-effect="non-scaling-stroke" d="
  M 382.53 78.75
  C 381.67 75.70 384.89 75.76 386.71 76.21
  A 1.76 1.75 -47.2 0 0 387.68 76.17
  C 389.94 75.41 391.92 74.65 394.47 74.47
  Q 396.13 74.35 397.64 73.73
  A 0.81 0.79 -38.4 0 1 398.39 73.81
  L 400.81 75.53
  A 1.04 1.04 0.0 0 0 402.44 74.83
  C 402.95 71.41 401.11 71.04 398.22 71.25
  C 391.15 71.76 382.43 71.23 377.18 71.26
  Q 343.47 71.45 309.75 71.47"
/>
<path stroke="#2f2e25" vector-effect="non-scaling-stroke" d="
  M 309.75 71.47
  Q 309.43 71.28 309.30 71.08
  A 0.33 0.33 0.0 0 1 309.59 70.58
  Q 310.54 70.60 311.02 70.21"
/>
<path stroke="#7e7720" vector-effect="non-scaling-stroke" d="
  M 403.27 72.68
  C 404.01 74.60 402.81 77.13 405.49 78.05
  Q 405.94 78.21 406.32 77.92
  Q 410.86 74.49 416.56 74.62
  C 418.12 74.66 419.41 74.13 418.63 72.28
  A 1.20 1.19 -10.8 0 0 417.54 71.54
  L 404.15 71.41
  Q 402.77 71.40 403.27 72.68"
/>
<path stroke="#7e7720" vector-effect="non-scaling-stroke" d="
  M 406.94 79.19
  C 411.27 85.41 411.58 91.81 409.57 99.02
  A 0.70 0.69 24.6 0 0 409.86 99.79
  C 421.09 106.99 412.32 122.43 399.79 117.70
  Q 399.35 117.53 399.09 117.92
  L 396.21 122.23
  Q 395.80 122.84 396.53 122.83
  L 417.49 122.50
  Q 418.72 122.48 418.72 121.26
  L 418.82 77.40
  A 1.64 1.64 0.0 0 0 417.30 75.76
  Q 411.68 75.34 407.06 78.55
  Q 406.68 78.81 406.94 79.19"
/>
<path stroke="#7d7b75" vector-effect="non-scaling-stroke" d="
  M 377.63 84.44
  Q 378.15 85.74 378.95 87.00
  A 1.81 1.80 -57.8 0 0 382.27 86.24
  Q 382.60 83.44 384.89 81.79
  A 1.19 1.18 24.3 0 0 384.08 79.65
  Q 380.07 80.04 377.76 83.37
  Q 377.41 83.87 377.63 84.44"
/>
<path stroke="#7c644f" vector-effect="non-scaling-stroke" d="
  M 355.90 99.89
  L 358.73 101.63
  A 1.34 1.34 0.0 0 0 360.57 101.19
  L 360.63 101.08
  A 4.50 2.08 -58.5 0 0 361.21 96.16
  L 359.64 95.20
  A 4.50 2.08 -58.5 0 0 355.52 97.95
  L 355.46 98.05
  A 1.34 1.34 0.0 0 0 355.90 99.89"
/>
<path stroke="#7c644f" vector-effect="non-scaling-stroke" d="
  M 357.26 105.14
  Q 357.18 105.00 356.91 104.81
  A 0.39 0.39 0.0 0 1 356.82 104.26
  Q 358.38 102.11 356.20 101.10
  A 1.04 1.04 0.0 0 0 354.73 102.09
  Q 354.94 106.81 358.63 109.61
  Q 360.47 111.00 360.30 108.70
  C 360.22 107.54 360.84 103.40 358.83 103.11
  Q 358.43 103.05 358.27 103.44
  L 357.60 105.12
  A 0.19 0.19 0.0 0 1 357.26 105.14"
/>
<path stroke="#aca545" vector-effect="non-scaling-stroke" d="
  M 309.75 71.47
  Q 251.84 72.31 193.94 71.77
  C 169.87 71.55 145.77 72.17 121.69 71.99
  Q 60.84 71.54 0.00 71.79"
/>
<path stroke="#aba22f" vector-effect="non-scaling-stroke" d="
  M 251.26 122.73
  C 223.11 121.41 194.52 122.07 166.31 121.89
  Q 149.38 121.79 138.75 122.27"
/>
<path stroke="#7e7720" vector-effect="non-scaling-stroke" d="
  M 138.75 122.27
  Q 70.55 122.23 2.35 122.25
  C 1.54 122.25 0.85 121.98 0.00 121.94"
/>
<path stroke="#7e7720" vector-effect="non-scaling-stroke" d="
  M 146.26 100.02
  C 153.42 100.34 153.95 93.44 152.41 88.39
  C 151.10 84.08 145.78 84.82 142.12 85.07
  Q 141.50 85.11 141.50 85.73
  L 141.50 108.65
  Q 141.50 109.25 142.10 109.26
  L 145.33 109.33
  Q 145.75 109.34 145.75 108.92
  L 145.75 100.51
  Q 145.75 100.00 146.26 100.02"
/>
<path stroke="#7e7720" vector-effect="non-scaling-stroke" d="
  M 159.07 95.00
  A 0.32 0.32 0.0 0 1 158.75 94.68
  L 158.75 89.32
  A 0.32 0.32 0.0 0 1 159.07 89.00
  L 164.75 89.00
  A 0.32 0.32 0.0 0 0 165.07 88.67
  L 164.97 85.31
  A 0.32 0.32 0.0 0 0 164.65 85.00
  L 154.82 85.00
  A 0.32 0.32 0.0 0 0 154.50 85.32
  L 154.50 108.96
  A 0.32 0.32 0.0 0 0 154.82 109.28
  L 164.67 109.31
  A 0.32 0.32 0.0 0 0 164.99 108.99
  L 165.02 106.07
  A 0.32 0.32 0.0 0 0 164.70 105.75
  L 159.07 105.75
  A 0.32 0.32 0.0 0 1 158.75 105.43
  L 158.75 99.32
  A 0.32 0.32 0.0 0 1 159.07 99.00
  L 163.43 99.00
  A 0.32 0.32 0.0 0 0 163.75 98.68
  L 163.75 95.32
  A 0.32 0.32 0.0 0 0 163.43 95.00
  L 159.07 95.00"
/>
<path stroke="#7e7720" vector-effect="non-scaling-stroke" d="
  M 177.52 97.05
  Q 179.88 92.67 178.41 88.05
  C 177.17 84.13 171.66 84.84 168.11 85.08
  Q 167.50 85.12 167.50 85.73
  L 167.50 108.65
  Q 167.50 109.25 168.10 109.26
  L 171.33 109.33
  Q 171.75 109.34 171.75 108.92
  L 171.75 99.80
  Q 171.75 99.07 172.44 99.31
  L 174.09 99.89
  Q 174.59 100.07 174.60 100.60
  L 174.81 108.69
  Q 174.82 109.25 175.39 109.26
  L 178.82 109.33
  Q 179.18 109.34 179.17 108.98
  C 179.04 106.16 179.60 99.79 177.62 97.79
  Q 177.30 97.46 177.52 97.05"
/>
<path stroke="#7e7720" vector-effect="non-scaling-stroke" d="
  M 185.39 88.99
  L 186.47 89.25
  Q 187.00 89.37 187.00 89.92
  L 187.00 91.83
  Q 187.00 92.40 187.57 92.37
  L 190.65 92.21
  Q 191.15 92.19 191.22 91.69
  C 192.27 84.59 183.59 82.42 180.19 88.30
  Q 179.93 88.74 179.97 89.24
  C 180.08 90.91 179.72 92.43 180.46 93.96
  C 182.24 97.63 187.91 100.63 186.75 104.88
  A 1.17 1.16 -62.4 0 1 184.88 105.47
  Q 183.61 104.41 184.05 102.73
  A 0.58 0.57 -82.3 0 0 183.50 102.00
  L 180.82 102.00
  Q 180.23 102.00 180.11 102.57
  Q 179.25 106.66 182.40 108.95
  Q 182.83 109.26 183.36 109.26
  C 185.83 109.23 189.31 109.93 190.57 107.07
  C 194.83 97.45 182.46 95.29 184.54 89.45
  Q 184.76 88.85 185.39 88.99"
/>
<path stroke="#7e7720" vector-effect="non-scaling-stroke" d="
  M 204.9378 90.1598
  A 5.12 5.12 0.0 0 0 199.8088 85.0487
  L 198.3488 85.0513
  A 5.12 5.12 0.0 0 0 193.2378 90.1802
  L 193.2622 104.1802
  A 5.12 5.12 0.0 0 0 198.3912 109.2913
  L 199.8512 109.2887
  A 5.12 5.12 0.0 0 0 204.9622 104.1598
  L 204.9378 90.1598"
/>
<path stroke="#7e7720" vector-effect="non-scaling-stroke" d="
  M 214.75 94.91
  A 0.33 0.33 0.0 0 1 214.10 94.99
  L 211.77 85.25
  A 0.33 0.33 0.0 0 0 211.45 85.00
  L 206.83 85.00
  A 0.33 0.33 0.0 0 0 206.50 85.33
  L 206.50 108.96
  A 0.33 0.33 0.0 0 0 206.83 109.29
  L 209.94 109.29
  A 0.33 0.33 0.0 0 0 210.27 108.96
  L 210.25 97.13
  A 0.33 0.33 0.0 0 1 210.89 97.04
  L 214.09 109.07
  A 0.33 0.33 0.0 0 0 214.42 109.31
  L 218.18 109.22
  A 0.33 0.33 0.0 0 0 218.50 108.89
  L 218.50 85.33
  A 0.33 0.33 0.0 0 0 218.17 85.00
  L 215.08 85.00
  A 0.33 0.33 0.0 0 0 214.75 85.33
  L 214.75 94.91"
/>
<path stroke="#7e7720" vector-effect="non-scaling-stroke" d="
  M 227.75 105.98
  Q 228.10 106.98 228.05 108.80
  Q 228.03 109.38 228.61 109.35
  L 232.18 109.21
  Q 232.62 109.19 232.55 108.76
  L 228.93 85.44
  Q 228.87 85.00 228.43 85.00
  L 223.88 85.00
  Q 223.23 85.00 223.13 85.64
  L 219.57 108.83
  Q 219.45 109.62 220.23 109.44
  Q 221.44 109.16 222.71 109.23
  A 0.79 0.78 18.3 0 0 223.42 108.88
  Q 224.23 107.66 223.80 105.87
  A 2.26 1.65 37.6 0 1 227.75 105.98"
/>
<path stroke="#7e7720" vector-effect="non-scaling-stroke" d="
  M 234.64 105.57
  Q 234.48 105.49 234.30 105.47
  Q 233.75 105.43 233.75 105.98
  L 233.75 108.51
  Q 233.75 109.04 234.26 109.15
  C 240.49 110.59 241.28 106.42 241.26 101.43
  Q 241.24 93.48 241.25 85.51
  Q 241.25 85.00 240.74 85.00
  L 237.53 85.00
  Q 236.92 85.00 236.94 85.60
  Q 237.13 94.32 236.90 102.92
  Q 236.84 105.40 235.17 105.66
  Q 234.89 105.70 234.64 105.57"
/>
<path stroke="#7e7720" vector-effect="non-scaling-stroke" d="
  M 248.14 105.79
  A 0.38 0.38 0.0 0 1 247.75 105.41
  L 247.75 99.38
  A 0.38 0.38 0.0 0 1 248.13 99.00
  L 252.37 99.00
  A 0.38 0.38 0.0 0 0 252.75 98.62
  L 252.75 95.38
  A 0.38 0.38 0.0 0 0 252.37 95.00
  L 248.13 95.00
  A 0.38 0.38 0.0 0 1 247.75 94.62
  L 247.75 89.38
  A 0.38 0.38 0.0 0 1 248.13 89.00
  L 253.59 89.00
  A 0.38 0.38 0.0 0 0 253.97 88.63
  L 254.07 85.39
  A 0.38 0.38 0.0 0 0 253.69 85.00
  L 243.88 85.00
  A 0.38 0.38 0.0 0 0 243.50 85.38
  L 243.50 109.05
  A 0.38 0.38 0.0 0 0 243.88 109.43
  L 253.83 109.35
  A 0.38 0.38 0.0 0 0 254.21 108.93
  L 253.90 106.00
  A 0.38 0.38 0.0 0 0 253.51 105.66
  L 248.14 105.79"
/>
<path stroke="#7e7720" vector-effect="non-scaling-stroke" d="
  M 262.00 90.28
  L 262.00 91.81
  Q 262.00 92.36 262.55 92.34
  L 265.68 92.27
  Q 266.11 92.26 266.17 91.84
  C 267.58 82.35 252.80 82.55 255.04 92.79
  C 255.98 97.07 264.72 101.80 261.06 105.53
  A 0.70 0.69 -52.2 0 1 260.22 105.64
  Q 258.55 104.68 259.05 102.72
  A 0.57 0.57 0.0 0 0 258.50 102.00
  L 255.52 102.00
  Q 254.84 102.00 254.78 102.68
  Q 254.43 106.53 257.28 108.87
  Q 257.71 109.22 258.26 109.24
  C 261.86 109.33 265.15 109.93 266.07 105.33
  C 267.82 96.57 258.74 95.97 259.24 90.16
  A 1.38 1.38 0.0 0 1 262.00 90.28"
/>
<path stroke="#f6e257" vector-effect="non-scaling-stroke" d="
  M 334.80 109.31
  Q 335.59 110.68 337.18 109.65
  A 0.46 0.46 0.0 0 0 337.00 108.81
  Q 336.10 108.68 335.05 108.81
  Q 334.54 108.87 334.80 109.31"
/>
<path stroke="#7c644f" vector-effect="non-scaling-stroke" d="
  M 386.99 95.25
  Q 387.43 96.51 388.52 96.20
  Q 388.98 96.07 388.58 95.81
  Q 387.86 95.32 386.99 95.25"
/>
<path stroke="#f9dfc3" vector-effect="non-scaling-stroke" d="
  M 389.35 92.37
  L 390.70 91.95"
/>
<path stroke="#7c644f" vector-effect="non-scaling-stroke" d="
  M 372.6402 88.5696
  A 0.27 0.27 0.0 0 0 372.3337 88.3419
  L 365.9232 89.2886
  A 0.27 0.27 0.0 0 0 365.6955 89.5951
  L 365.7598 90.0304
  A 0.27 0.27 0.0 0 0 366.0663 90.2581
  L 372.4768 89.3114
  A 0.27 0.27 0.0 0 0 372.7045 89.0049
  L 372.6402 88.5696"
/>
<path stroke="#7c644f" vector-effect="non-scaling-stroke" d="
  M 392.97 109.02
  C 390.49 98.30 378.36 88.17 367.43 92.31
  A 0.24 0.24 0.0 0 0 367.53 92.78
  C 369.81 92.67 372.24 92.06 374.29 92.18
  C 377.05 92.34 379.42 94.13 381.73 95.37
  C 387.23 98.34 390.24 102.74 392.19 108.78
  Q 392.30 109.13 392.69 109.27
  Q 393.06 109.41 392.97 109.02"
/>
<path stroke="#7c644f" vector-effect="non-scaling-stroke" d="
  M 403.42 110.47
  L 402.48 112.66
  A 0.43 0.43 0.0 0 0 402.87 113.26
  C 406.73 113.31 403.77 107.70 408.70 109.39
  A 0.38 0.38 0.0 0 0 409.17 108.86
  C 408.37 107.25 397.90 109.58 398.24 110.52
  Q 398.40 110.96 398.83 110.76
  Q 400.80 109.86 402.92 109.76
  Q 403.74 109.72 403.42 110.47"
/>
<path stroke="#7d7b75" vector-effect="non-scaling-stroke" d="
  M 379.8948 84.9323
  A 1.58 1.14 114.1 0 0 381.5806 83.9555
  A 1.58 1.14 114.1 0 0 381.1852 82.0477
  A 1.58 1.14 114.1 0 0 379.4994 83.0245
  A 1.58 1.14 114.1 0 0 379.8948 84.9323"
/>
<path stroke="#7d7b75" vector-effect="non-scaling-stroke" d="
  M 386.1988 88.2249
  A 2.31 1.55 105.6 0 0 388.3129 86.4168
  A 2.31 1.55 105.6 0 0 387.4412 83.7751
  A 2.31 1.55 105.6 0 0 385.3271 85.5832
  A 2.31 1.55 105.6 0 0 386.1988 88.2249"
/>
<path stroke="#7e7720" vector-effect="non-scaling-stroke" d="
  M 148.6184 90.0951
  A 1.06 1.06 0.0 0 0 147.5621 89.0314
  L 146.7821 89.0287
  A 1.06 1.06 0.0 0 0 145.7184 90.0850
  L 145.7016 94.8849
  A 1.06 1.06 0.0 0 0 146.7579 95.9486
  L 147.5379 95.9513
  A 1.06 1.06 0.0 0 0 148.6016 94.8950
  L 148.6184 90.0951"
/>
<path stroke="#7e7720" vector-effect="non-scaling-stroke" d="
  M 174.5705 89.9824
  A 0.91 0.91 0.0 0 0 173.6685 89.0645
  L 172.6686 89.0558
  A 0.91 0.91 0.0 0 0 171.7506 89.9578
  L 171.7095 94.6776
  A 0.91 0.91 0.0 0 0 172.6115 95.5955
  L 173.6114 95.6042
  A 0.91 0.91 0.0 0 0 174.5294 94.7022
  L 174.5705 89.9824"
/>
<path stroke="#7e7720" vector-effect="non-scaling-stroke" d="
  M 200.6982 90.5572
  A 1.56 1.56 0.0 0 0 199.1354 88.9999
  L 199.0554 89.0001
  A 1.56 1.56 0.0 0 0 197.4982 90.5628
  L 197.5218 104.1228
  A 1.56 1.56 0.0 0 0 199.0846 105.6801
  L 199.1646 105.6799
  A 1.56 1.56 0.0 0 0 200.7218 104.1172
  L 200.6982 90.5572"
/>
<path stroke="#7e7720" vector-effect="non-scaling-stroke" d="
  M 225.20 101.02
  L 226.62 101.00
  A 0.32 0.32 0.0 0 0 226.94 100.68
  L 226.94 100.50
  A 7.00 0.98 89.5 0 0 225.90 93.51
  L 225.80 93.51
  A 7.00 0.98 89.5 0 0 224.88 100.52
  L 224.88 100.70
  A 0.32 0.32 0.0 0 0 225.20 101.02"
/>
<path stroke="#2d2b0f" vector-effect="non-scaling-stroke" d="
  M 138.45 123.84
  Q 139.34 122.82 138.75 122.27"
/>
</g>
<path fill="#faf6e9" d="
  M 0.00 0.00
  L 429.00 0.00
  L 429.00 8.62
  C 282.64 8.15 154.86 8.92 20.10 8.74
  C 17.02 8.73 13.83 8.44 10.72 8.28
  Q 10.22 8.26 10.01 8.71
  Q 8.75 11.55 9.32 14.15
  L 9.55 59.49
  Q 9.55 59.97 9.31 60.39
  L 8.71 61.39
  A 0.36 0.36 0.0 0 0 9.16 61.91
  C 14.41 59.76 20.73 61.31 26.83 61.04
  Q 33.22 60.76 39.62 60.94
  C 56.16 61.40 72.70 61.27 89.23 61.23
  Q 91.01 61.36 92.75 61.36
  C 205.39 61.38 313.17 61.59 423.32 61.45
  C 424.95 61.45 427.04 61.92 429.00 61.77
  L 429.00 132.00
  L 0.00 132.00
  L 0.00 123.57
  L 138.45 123.84
  C 164.61 124.02 190.78 123.80 216.94 124.34
  Q 233.59 124.69 250.25 124.24
  Q 333.27 123.89 416.28 124.23
  C 419.26 124.24 420.11 123.47 420.04 120.50
  Q 419.59 100.67 419.81 80.16
  A 1.03 1.02 -56.1 0 1 421.78 79.77
  L 422.66 81.85
  Q 422.97 82.60 423.16 81.81
  C 423.97 78.50 421.93 77.24 419.76 75.44
  A 0.72 0.71 32.0 0 1 419.56 74.59
  Q 420.32 72.90 419.68 71.15
  Q 419.48 70.62 418.92 70.48
  C 414.05 69.29 407.39 70.02 402.31 70.15
  Q 401.79 70.16 401.48 69.76
  Q 396.89 63.91 389.73 66.88
  C 389.09 67.15 388.81 67.85 389.10 68.46
  Q 389.35 68.95 389.86 68.73
  Q 394.97 66.50 399.88 69.16
  A 0.57 0.57 0.0 0 1 400.00 70.08
  C 398.96 71.09 323.09 70.37 322.69 70.37
  Q 315.12 70.45 311.02 70.21
  Q 283.52 70.44 256.06 70.20
  C 242.59 70.09 226.96 70.56 215.57 70.36
  C 167.17 69.49 119.00 70.97 70.75 70.70
  Q 35.37 70.51 0.00 70.75
  L 0.00 0.00
  Z
  M 420.9582 5.0349
  A 1.37 0.65 77.0 0 0 421.2833 3.5538
  A 1.37 0.65 77.0 0 0 420.3418 2.3651
  A 1.37 0.65 77.0 0 0 420.0167 3.8462
  A 1.37 0.65 77.0 0 0 420.9582 5.0349
  Z
  M 113.9555 66.9438
  A 1.26 0.70 78.3 0 0 114.3855 65.5680
  A 1.26 0.70 78.3 0 0 113.4445 64.4762
  A 1.26 0.70 78.3 0 0 113.0145 65.8520
  A 1.26 0.70 78.3 0 0 113.9555 66.9438
  Z
  M 263.32 130.42
  A 0.62 0.62 0.0 0 0 264.06 131.30
  L 264.81 131.07
  A 0.57 0.57 0.0 0 0 265.01 130.10
  Q 263.95 129.20 263.32 130.42
  Z"
/>
<ellipse fill="#f8c79d" cx="0.00" cy="0.00" transform="translate(420.65,3.70) rotate(77.0)" rx="1.37" ry="0.65"/>
<path fill="#423b3a" d="
  M 429.00 8.62
  Q 429.00 11.15 429.00 9.83
  Q 424.22 10.14 419.49 9.97
  Q 411.96 9.72 410.00 9.73
  Q 372.68 10.01 335.37 9.97
  C 328.29 9.97 318.25 8.93 310.18 9.64
  C 306.85 9.93 304.59 9.79 301.71 9.81
  Q 233.98 10.16 166.25 9.92
  C 114.62 9.73 62.98 10.08 11.35 9.82
  Q 10.81 9.82 10.74 10.34
  L 10.48 12.05
  Q 10.39 12.67 11.01 12.58
  Q 17.70 11.61 24.43 12.24
  C 25.74 12.36 26.97 13.49 28.51 12.33
  A 0.95 0.95 0.0 0 1 30.00 12.85
  Q 30.47 14.61 32.21 15.75
  L 32.42 17.76
  Q 32.43 17.93 32.27 17.87
  Q 32.15 17.83 32.00 17.79
  L 32.02 17.48
  Q 32.04 17.10 31.69 16.93
  L 29.15 15.72
  Q 28.76 15.53 28.50 15.87
  L 26.75 18.09
  A 0.59 0.58 56.4 0 1 25.73 17.88
  Q 25.34 16.49 25.76 15.05
  A 0.65 0.65 0.0 0 0 24.82 14.30
  Q 23.43 15.08 23.12 16.92
  A 0.32 0.31 -36.8 0 1 22.49 16.84
  Q 22.65 15.76 22.52 14.83
  Q 22.43 14.26 21.87 14.17
  Q 16.06 13.25 10.69 14.92
  L 9.32 14.15
  Q 8.75 11.55 10.01 8.71
  Q 10.22 8.26 10.72 8.28
  C 13.83 8.44 17.02 8.73 20.10 8.74
  C 154.86 8.92 282.64 8.15 429.00 8.62
  Z"
/>
<path fill="#fbed40" d="
  M 429.00 9.83
  L 429.00 60.57
  L 428.76 60.15
  Q 428.52 59.74 428.10 59.95
  C 427.78 60.11 427.65 60.24 427.28 60.24
  C 385.29 60.27 343.20 60.73 301.21 60.00
  Q 293.10 59.86 284.99 60.00
  C 255.65 60.55 226.32 59.18 197.00 60.05
  C 185.92 60.38 170.38 59.91 163.63 59.90
  Q 126.44 59.89 89.25 60.10
  L 40.33 60.00
  Q 39.83 60.00 39.81 59.49
  L 39.43 44.53
  A 0.68 0.68 0.0 0 1 40.48 43.94
  Q 49.95 50.02 61.20 46.19
  Q 69.21 43.47 69.62 36.13
  C 69.86 31.75 66.28 29.44 62.43 28.76
  A 0.77 0.76 89.4 0 1 61.81 28.15
  C 60.78 22.98 58.45 17.57 52.07 22.11
  Q 51.64 22.42 51.20 22.13
  Q 48.28 20.18 44.92 21.60
  A 0.82 0.82 0.0 0 1 43.98 21.38
  Q 42.79 19.98 41.25 18.98
  Q 40.84 18.72 40.35 18.73
  Q 39.02 18.78 37.76 19.51
  Q 36.74 18.42 35.78 18.16
  Q 35.10 17.73 35.26 16.97
  A 0.69 0.68 -78.9 0 1 36.04 16.44
  Q 38.66 16.90 39.09 14.58
  A 0.79 0.78 -71.9 0 0 38.67 13.74
  C 36.25 12.53 34.10 14.42 32.21 15.75
  Q 30.47 14.61 30.00 12.85
  A 0.95 0.95 0.0 0 0 28.51 12.33
  C 26.97 13.49 25.74 12.36 24.43 12.24
  Q 17.70 11.61 11.01 12.58
  Q 10.39 12.67 10.48 12.05
  L 10.74 10.34
  Q 10.81 9.82 11.35 9.82
  C 62.98 10.08 114.62 9.73 166.25 9.92
  Q 233.98 10.16 301.71 9.81
  C 304.59 9.79 306.85 9.93 310.18 9.64
  C 318.25 8.93 328.29 9.97 335.37 9.97
  Q 372.68 10.01 410.00 9.73
  Q 411.96 9.72 419.49 9.97
  Q 424.22 10.14 429.00 9.83
  Z
  M 311.0484 16.0704
  A 4.91 4.91 0.0 0 0 306.2423 11.0586
  L 302.0832 10.9715
  A 4.91 4.91 0.0 0 0 297.0714 15.7776
  L 296.3116 52.0496
  A 4.91 4.91 0.0 0 0 301.1177 57.0614
  L 305.2768 57.1485
  A 4.91 4.91 0.0 0 0 310.2886 52.3424
  L 311.0484 16.0704
  Z
  M 317.85 37.57
  A 0.40 0.40 0.0 0 1 318.65 37.53
  L 320.76 56.82
  A 0.40 0.40 0.0 0 0 321.15 57.18
  L 326.69 57.29
  A 0.40 0.40 0.0 0 0 327.10 56.90
  L 327.85 11.63
  A 0.40 0.40 0.0 0 0 327.44 11.22
  L 322.90 11.36
  A 0.40 0.40 0.0 0 0 322.51 11.75
  L 322.06 28.89
  A 0.40 0.40 0.0 0 1 321.26 28.92
  L 319.45 11.66
  A 0.40 0.40 0.0 0 0 319.05 11.30
  L 313.22 11.25
  A 0.40 0.40 0.0 0 0 312.81 11.65
  L 312.24 56.79
  A 0.40 0.40 0.0 0 0 312.63 57.20
  L 317.13 57.27
  A 0.40 0.40 0.0 0 0 317.54 56.88
  L 317.85 37.57
  Z
  M 281.04 36.90
  L 283.17 56.98
  Q 283.25 57.70 283.97 57.68
  L 285.97 57.63
  A 0.57 0.57 0.0 0 0 286.53 57.10
  L 288.13 37.53
  A 0.30 0.29 -73.6 0 1 288.56 37.29
  L 288.87 37.45
  Q 289.25 37.65 289.25 38.09
  L 289.25 56.94
  Q 289.25 57.64 289.94 57.65
  L 293.78 57.75
  A 0.49 0.49 0.0 0 0 294.28 57.27
  L 295.02 12.41
  A 0.60 0.60 0.0 0 0 294.42 11.80
  L 288.19 11.76
  A 1.10 1.09 -86.5 0 0 287.09 12.74
  L 285.58 27.50
  A 0.34 0.34 0.0 0 1 284.91 27.53
  C 283.95 22.50 284.60 17.13 283.54 12.25
  Q 283.44 11.77 282.94 11.76
  L 276.37 11.64
  A 0.75 0.74 -89.2 0 0 275.62 12.38
  L 275.16 56.47
  A 1.29 1.28 89.6 0 0 276.47 57.77
  L 279.70 57.70
  Q 280.34 57.69 280.33 57.05
  C 280.28 55.19 280.12 36.80 280.85 36.74
  A 0.18 0.17 83.5 0 1 281.04 36.90
  Z
  M 106.4306 16.6489
  A 4.88 4.88 0.0 0 0 101.4662 11.8548
  L 97.0268 11.9323
  A 4.88 4.88 0.0 0 0 92.2327 16.8967
  L 92.8694 53.3711
  A 4.88 4.88 0.0 0 0 97.8338 58.1652
  L 102.2732 58.0877
  A 4.88 4.88 0.0 0 0 107.0673 53.1233
  L 106.4306 16.6489
  Z
  M 152.99 13.03
  L 153.21 56.59
  A 1.23 1.23 0.0 0 0 154.45 57.81
  L 162.19 57.77
  A 5.46 5.21 89.7 0 0 167.37 52.28
  L 167.19 17.18
  A 5.46 5.21 89.7 0 0 161.95 11.75
  L 154.21 11.79
  A 1.23 1.23 0.0 0 0 152.99 13.03
  Z
  M 175.90 16.75
  L 177.72 16.75
  A 0.76 0.76 0.0 0 0 178.48 16.03
  L 178.69 12.49
  Q 178.73 11.75 177.99 11.75
  L 170.29 11.75
  A 1.21 1.20 -0.2 0 0 169.08 12.96
  L 169.35 57.02
  Q 169.36 57.62 169.95 57.62
  L 177.85 57.70
  Q 178.68 57.71 178.64 56.89
  L 178.47 53.32
  A 0.65 0.65 0.0 0 0 177.65 52.73
  Q 176.22 53.12 175.48 52.03
  Q 175.29 51.74 175.30 51.40
  L 175.58 35.83
  Q 175.59 35.25 176.17 35.25
  L 177.52 35.25
  Q 178.16 35.25 178.39 34.65
  Q 179.13 32.73 178.50 30.85
  Q 178.33 30.33 177.78 30.30
  L 175.89 30.18
  Q 175.22 30.14 175.22 29.47
  L 175.30 17.34
  A 0.60 0.60 0.0 0 1 175.90 16.75
  Z
  M 190.04 53.70
  A 0.76 0.76 0.0 0 0 189.50 53.04
  L 187.34 52.42
  A 0.76 0.76 0.0 0 1 186.79 51.69
  L 186.61 12.61
  A 0.76 0.76 0.0 0 0 185.88 11.85
  L 181.21 11.69
  A 0.76 0.76 0.0 0 0 180.43 12.45
  L 180.76 56.75
  A 0.76 0.76 0.0 0 0 181.52 57.50
  L 189.53 57.50
  A 0.76 0.76 0.0 0 0 190.29 56.68
  L 190.04 53.70
  Z
  M 205.6883 16.7779
  A 4.92 4.92 0.0 0 0 200.7597 11.8665
  L 196.6598 11.8736
  A 4.92 4.92 0.0 0 0 191.7484 16.8022
  L 191.8117 53.0821
  A 4.92 4.92 0.0 0 0 196.7403 57.9935
  L 200.8402 57.9864
  A 4.92 4.92 0.0 0 0 205.7516 53.0578
  L 205.6883 16.7779
  Z
  M 250.1451 12.4806
  A 0.60 0.60 0.0 0 0 249.5493 11.8764
  L 245.0094 11.8447
  A 0.60 0.60 0.0 0 0 244.4052 12.4405
  L 244.0949 56.8794
  A 0.60 0.60 0.0 0 0 244.6907 57.4836
  L 249.2306 57.5153
  A 0.60 0.60 0.0 0 0 249.8348 56.9195
  L 250.1451 12.4806
  Z
  M 259.68 52.53
  A 1.86 0.18 30.1 0 1 258.25 51.50
  L 258.25 12.52
  A 0.71 0.71 0.0 0 0 257.52 11.81
  L 252.73 11.91
  Q 252.21 11.92 252.21 12.45
  L 252.27 56.89
  Q 252.27 57.50 252.89 57.50
  L 260.75 57.50
  Q 261.50 57.50 261.50 56.75
  L 261.50 53.70
  Q 261.50 52.83 260.63 52.81
  Q 260.14 52.80 259.68 52.53
  Z
  M 270.04 29.18
  L 269.94 17.29
  Q 269.93 16.77 270.46 16.76
  L 272.54 16.73
  Q 272.94 16.73 273.09 16.35
  Q 273.89 14.32 273.41 12.35
  A 0.84 0.82 -6.6 0 0 272.60 11.72
  L 264.85 11.82
  A 0.83 0.83 0.0 0 0 264.03 12.65
  L 263.90 56.72
  A 0.75 0.75 0.0 0 0 264.65 57.47
  L 272.30 57.52
  Q 273.19 57.52 273.19 56.63
  L 273.19 53.62
  Q 273.19 52.96 272.54 52.86
  L 270.33 52.51
  Q 269.75 52.41 269.75 51.83
  L 269.75 35.56
  A 0.67 0.66 16.1 0 1 270.77 35.00
  C 273.31 36.61 273.60 32.43 273.46 31.14
  Q 273.39 30.49 272.76 30.34
  L 270.55 29.81
  Q 270.05 29.69 270.04 29.18
  Z
  M 133.31 52.27
  L 133.32 47.95
  L 132.69 17.93
  Q 132.68 17.33 133.26 17.19
  Q 136.82 16.32 135.01 12.47
  Q 134.79 11.99 134.26 12.00
  L 124.35 12.21
  Q 123.83 12.22 123.71 12.73
  Q 122.90 16.15 125.81 17.36
  Q 126.32 17.57 126.34 18.12
  Q 126.78 37.75 127.36 57.39
  A 0.66 0.66 0.0 0 0 128.08 58.03
  L 132.55 57.68
  A 0.68 0.67 -1.4 0 0 133.17 57.03
  L 133.31 52.27
  Z
  M 145.22 48.79
  L 145.60 57.03
  Q 145.64 57.74 146.35 57.74
  L 150.95 57.75
  Q 151.66 57.76 151.61 57.04
  L 148.38 12.80
  Q 148.32 12.04 147.56 12.04
  L 139.66 12.04
  Q 138.93 12.04 138.89 12.77
  L 136.10 57.17
  Q 136.07 57.76 136.66 57.75
  L 141.58 57.74
  Q 142.02 57.74 142.05 57.29
  L 142.55 48.77
  A 1.34 1.34 0.0 0 1 145.22 48.79
  Z
  M 238.77 17.75
  A 0.67 0.67 0.0 0 1 239.36 17.08
  L 241.57 16.83
  A 0.67 0.67 0.0 0 0 242.16 16.22
  L 242.43 12.87
  A 0.67 0.67 0.0 0 0 241.78 12.15
  L 233.42 11.93
  A 0.67 0.67 0.0 0 0 232.73 12.60
  L 232.76 57.06
  A 0.67 0.67 0.0 0 0 233.43 57.73
  L 238.01 57.73
  A 0.67 0.67 0.0 0 0 238.68 57.06
  L 238.78 36.24
  A 0.67 0.67 0.0 0 1 239.34 35.58
  L 241.80 35.20
  A 0.67 0.67 0.0 0 0 242.37 34.52
  L 242.26 31.19
  A 0.67 0.67 0.0 0 0 241.68 30.55
  L 239.32 30.24
  A 0.67 0.67 0.0 0 1 238.74 29.57
  L 238.77 17.75
  Z
  M 77.93 37.95
  Q 79.09 47.55 79.88 57.18
  Q 79.93 57.77 80.52 57.83
  L 82.56 58.05
  Q 83.15 58.11 83.21 57.53
  C 83.42 55.68 84.94 37.90 85.02 37.87
  Q 85.45 37.72 85.47 38.19
  L 86.26 57.53
  Q 86.29 58.28 87.04 58.24
  L 90.83 58.02
  A 0.52 0.52 0.0 0 0 91.33 57.49
  L 90.68 12.77
  A 0.58 0.58 0.0 0 0 90.08 12.19
  L 83.38 12.41
  Q 82.79 12.42 82.76 13.01
  Q 82.37 20.52 81.67 27.99
  Q 81.64 28.22 81.59 28.39
  A 0.35 0.35 0.0 0 1 80.92 28.31
  L 79.31 13.13
  Q 79.26 12.58 78.70 12.55
  L 72.13 12.24
  A 0.68 0.68 0.0 0 0 71.42 12.94
  L 72.46 57.36
  Q 72.48 58.01 73.12 57.98
  L 76.58 57.82
  A 0.82 0.82 0.0 0 0 77.36 56.99
  L 77.28 37.99
  A 0.33 0.33 0.0 0 1 77.93 37.95
  Z
  M 116.72 39.01
  C 118.10 41.59 117.46 53.78 117.53 57.40
  A 0.65 0.64 -1.3 0 0 118.20 58.03
  L 122.38 57.89
  Q 123.09 57.87 123.13 57.15
  Q 123.70 47.36 122.62 37.63
  A 1.46 1.46 0.0 0 0 122.16 36.72
  Q 120.36 35.07 122.14 33.68
  Q 122.50 33.39 122.53 32.93
  Q 122.94 26.87 122.71 20.79
  C 122.53 16.12 122.89 12.29 117.29 12.29
  Q 112.90 12.30 108.82 12.57
  A 0.93 0.93 0.0 0 0 107.95 13.55
  Q 108.57 25.17 108.72 36.34
  C 108.79 41.21 109.63 50.26 108.92 57.35
  Q 108.86 57.94 109.45 57.95
  L 114.32 58.03
  Q 114.87 58.04 114.86 57.49
  L 114.70 39.53
  A 1.07 1.07 0.0 0 1 116.72 39.01
  Z
  M 220.26 38.25
  A 0.36 0.36 0.0 0 1 219.54 38.29
  Q 218.92 34.61 218.48 30.89
  Q 218.41 30.33 217.90 30.10
  Q 215.99 29.24 214.06 30.15
  Q 213.53 30.40 213.66 30.96
  L 218.36 51.32
  A 0.84 0.82 -18.6 0 1 217.88 52.27
  L 216.05 53.07
  A 1.01 0.99 79.4 0 0 215.45 53.96
  L 215.37 57.04
  Q 215.36 57.59 215.91 57.69
  Q 221.33 58.61 222.35 53.31
  Q 224.36 42.88 225.71 30.27
  Q 225.77 29.78 225.29 29.64
  Q 223.08 29.02 221.17 29.93
  A 1.03 1.02 -12.0 0 0 220.59 30.82
  L 220.26 38.25
  Z"
/>
<path fill="#de2321" d="
  M 310.2886 52.3424
  A 4.91 4.91 0.0 0 1 305.2768 57.1485
  L 301.1177 57.0614
  A 4.91 4.91 0.0 0 1 296.3116 52.0496
  L 297.0714 15.7776
  A 4.91 4.91 0.0 0 1 302.0832 10.9715
  L 306.2423 11.0586
  A 4.91 4.91 0.0 0 1 311.0484 16.0704
  L 310.2886 52.3424
  Z
  M 305.1728 17.0874
  A 1.11 1.11 0.0 0 0 304.0863 15.9544
  L 304.0463 15.9535
  A 1.11 1.11 0.0 0 0 302.9133 17.0400
  L 302.2072 50.7526
  A 1.11 1.11 0.0 0 0 303.2937 51.8856
  L 303.3337 51.8865
  A 1.11 1.11 0.0 0 0 304.4667 50.8000
  L 305.1728 17.0874
  Z"
/>
<path fill="#de2321" d="
  M 317.85 37.57
  L 317.54 56.88
  A 0.40 0.40 0.0 0 1 317.13 57.27
  L 312.63 57.20
  A 0.40 0.40 0.0 0 1 312.24 56.79
  L 312.81 11.65
  A 0.40 0.40 0.0 0 1 313.22 11.25
  L 319.05 11.30
  A 0.40 0.40 0.0 0 1 319.45 11.66
  L 321.26 28.92
  A 0.40 0.40 0.0 0 0 322.06 28.89
  L 322.51 11.75
  A 0.40 0.40 0.0 0 1 322.90 11.36
  L 327.44 11.22
  A 0.40 0.40 0.0 0 1 327.85 11.63
  L 327.10 56.90
  A 0.40 0.40 0.0 0 1 326.69 57.29
  L 321.15 57.18
  A 0.40 0.40 0.0 0 1 320.76 56.82
  L 318.65 37.53
  A 0.40 0.40 0.0 0 0 317.85 37.57
  Z"
/>
<path fill="#de2321" d="
  M 280.85 36.74
  C 280.12 36.80 280.28 55.19 280.33 57.05
  Q 280.34 57.69 279.70 57.70
  L 276.47 57.77
  A 1.29 1.28 89.6 0 1 275.16 56.47
  L 275.62 12.38
  A 0.75 0.74 -89.2 0 1 276.37 11.64
  L 282.94 11.76
  Q 283.44 11.77 283.54 12.25
  C 284.60 17.13 283.95 22.50 284.91 27.53
  A 0.34 0.34 0.0 0 0 285.58 27.50
  L 287.09 12.74
  A 1.10 1.09 -86.5 0 1 288.19 11.76
  L 294.42 11.80
  A 0.60 0.60 0.0 0 1 295.02 12.41
  L 294.28 57.27
  A 0.49 0.49 0.0 0 1 293.78 57.75
  L 289.94 57.65
  Q 289.25 57.64 289.25 56.94
  L 289.25 38.09
  Q 289.25 37.65 288.87 37.45
  L 288.56 37.29
  A 0.30 0.29 -73.6 0 0 288.13 37.53
  L 286.53 57.10
  A 0.57 0.57 0.0 0 1 285.97 57.63
  L 283.97 57.68
  Q 283.25 57.70 283.17 56.98
  L 281.04 36.90
  A 0.18 0.17 83.5 0 0 280.85 36.74
  Z"
/>
<path fill="#de2321" d="
  M 107.0673 53.1233
  A 4.88 4.88 0.0 0 1 102.2732 58.0877
  L 97.8338 58.1652
  A 4.88 4.88 0.0 0 1 92.8694 53.3711
  L 92.2327 16.8967
  A 4.88 4.88 0.0 0 1 97.0268 11.9323
  L 101.4662 11.8548
  A 4.88 4.88 0.0 0 1 106.4306 16.6489
  L 107.0673 53.1233
  Z
  M 100.6577 18.2420
  A 1.07 1.07 0.0 0 0 99.5673 17.1927
  L 99.5073 17.1939
  A 1.07 1.07 0.0 0 0 98.4581 18.2842
  L 99.1023 51.8380
  A 1.07 1.07 0.0 0 0 100.1927 52.8873
  L 100.2527 52.8861
  A 1.07 1.07 0.0 0 0 101.3019 51.7958
  L 100.6577 18.2420
  Z"
/>
<path fill="#de2321" d="
  M 152.99 13.03
  A 1.23 1.23 0.0 0 1 154.21 11.79
  L 161.95 11.75
  A 5.46 5.21 89.7 0 1 167.19 17.18
  L 167.37 52.28
  A 5.46 5.21 89.7 0 1 162.19 57.77
  L 154.45 57.81
  A 1.23 1.23 0.0 0 1 153.21 56.59
  L 152.99 13.03
  Z
  M 161.2445 18.0389
  A 1.13 1.13 0.0 0 0 160.1028 16.9208
  L 160.0628 16.9212
  A 1.13 1.13 0.0 0 0 158.9447 18.0630
  L 159.2955 51.5611
  A 1.13 1.13 0.0 0 0 160.4372 52.6792
  L 160.4772 52.6788
  A 1.13 1.13 0.0 0 0 161.5953 51.5370
  L 161.2445 18.0389
  Z"
/>
<path fill="#de2321" d="
  M 175.30 17.34
  L 175.22 29.47
  Q 175.22 30.14 175.89 30.18
  L 177.78 30.30
  Q 178.33 30.33 178.50 30.85
  Q 179.13 32.73 178.39 34.65
  Q 178.16 35.25 177.52 35.25
  L 176.17 35.25
  Q 175.59 35.25 175.58 35.83
  L 175.30 51.40
  Q 175.29 51.74 175.48 52.03
  Q 176.22 53.12 177.65 52.73
  A 0.65 0.65 0.0 0 1 178.47 53.32
  L 178.64 56.89
  Q 178.68 57.71 177.85 57.70
  L 169.95 57.62
  Q 169.36 57.62 169.35 57.02
  L 169.08 12.96
  A 1.21 1.20 -0.2 0 1 170.29 11.75
  L 177.99 11.75
  Q 178.73 11.75 178.69 12.49
  L 178.48 16.03
  A 0.76 0.76 0.0 0 1 177.72 16.75
  L 175.90 16.75
  A 0.60 0.60 0.0 0 0 175.30 17.34
  Z"
/>
<path fill="#de2321" d="
  M 190.04 53.70
  L 190.29 56.68
  A 0.76 0.76 0.0 0 1 189.53 57.50
  L 181.52 57.50
  A 0.76 0.76 0.0 0 1 180.76 56.75
  L 180.43 12.45
  A 0.76 0.76 0.0 0 1 181.21 11.69
  L 185.88 11.85
  A 0.76 0.76 0.0 0 1 186.61 12.61
  L 186.79 51.69
  A 0.76 0.76 0.0 0 0 187.34 52.42
  L 189.50 53.04
  A 0.76 0.76 0.0 0 1 190.04 53.70
  Z"
/>
<path fill="#de2321" d="
  M 205.7516 53.0578
  A 4.92 4.92 0.0 0 1 200.8402 57.9864
  L 196.7403 57.9935
  A 4.92 4.92 0.0 0 1 191.8117 53.0821
  L 191.7484 16.8022
  A 4.92 4.92 0.0 0 1 196.6598 11.8736
  L 200.7597 11.8665
  A 4.92 4.92 0.0 0 1 205.6883 16.7779
  L 205.7516 53.0578
  Z
  M 199.6903 17.8682
  A 1.00 1.00 0.0 0 0 198.6885 16.8700
  L 198.6485 16.8701
  A 1.00 1.00 0.0 0 0 197.6503 17.8718
  L 197.7097 51.9318
  A 1.00 1.00 0.0 0 0 198.7115 52.9300
  L 198.7515 52.9299
  A 1.00 1.00 0.0 0 0 199.7497 51.9282
  L 199.6903 17.8682
  Z"
/>
<rect fill="#de2321" x="-2.87" y="-22.82" transform="translate(247.12,34.68) rotate(0.4)" width="5.74" height="45.64" rx="0.60"/>
<path fill="#de2321" d="
  M 259.68 52.53
  Q 260.14 52.80 260.63 52.81
  Q 261.50 52.83 261.50 53.70
  L 261.50 56.75
  Q 261.50 57.50 260.75 57.50
  L 252.89 57.50
  Q 252.27 57.50 252.27 56.89
  L 252.21 12.45
  Q 252.21 11.92 252.73 11.91
  L 257.52 11.81
  A 0.71 0.71 0.0 0 1 258.25 12.52
  L 258.25 51.50
  A 1.86 0.18 30.1 0 0 259.68 52.53
  Z"
/>
<path fill="#de2321" d="
  M 270.55 29.81
  L 272.76 30.34
  Q 273.39 30.49 273.46 31.14
  C 273.60 32.43 273.31 36.61 270.77 35.00
  A 0.67 0.66 16.1 0 0 269.75 35.56
  L 269.75 51.83
  Q 269.75 52.41 270.33 52.51
  L 272.54 52.86
  Q 273.19 52.96 273.19 53.62
  L 273.19 56.63
  Q 273.19 57.52 272.30 57.52
  L 264.65 57.47
  A 0.75 0.75 0.0 0 1 263.90 56.72
  L 264.03 12.65
  A 0.83 0.83 0.0 0 1 264.85 11.82
  L 272.60 11.72
  A 0.84 0.82 -6.6 0 1 273.41 12.35
  Q 273.89 14.32 273.09 16.35
  Q 272.94 16.73 272.54 16.73
  L 270.46 16.76
  Q 269.93 16.77 269.94 17.29
  L 270.04 29.18
  Q 270.05 29.69 270.55 29.81
  Z"
/>
<path fill="#de2321" d="
  M 133.32 47.95
  Q 132.58 49.90 133.31 52.27
  L 133.17 57.03
  A 0.68 0.67 -1.4 0 1 132.55 57.68
  L 128.08 58.03
  A 0.66 0.66 0.0 0 1 127.36 57.39
  Q 126.78 37.75 126.34 18.12
  Q 126.32 17.57 125.81 17.36
  Q 122.90 16.15 123.71 12.73
  Q 123.83 12.22 124.35 12.21
  L 134.26 12.00
  Q 134.79 11.99 135.01 12.47
  Q 136.82 16.32 133.26 17.19
  Q 132.68 17.33 132.69 17.93
  L 133.32 47.95
  Z"
/>
<path fill="#de2321" d="
  M 145.22 48.79
  A 1.34 1.34 0.0 0 0 142.55 48.77
  L 142.05 57.29
  Q 142.02 57.74 141.58 57.74
  L 136.66 57.75
  Q 136.07 57.76 136.10 57.17
  L 138.89 12.77
  Q 138.93 12.04 139.66 12.04
  L 147.56 12.04
  Q 148.32 12.04 148.38 12.80
  L 151.61 57.04
  Q 151.66 57.76 150.95 57.75
  L 146.35 57.74
  Q 145.64 57.74 145.60 57.03
  L 145.22 48.79
  Z
  M 143.11 42.49
  L 144.31 42.50
  A 0.27 0.27 0.0 0 0 144.58 42.24
  L 144.59 42.05
  A 17.54 0.85 -89.5 0 0 143.89 24.50
  L 143.85 24.50
  A 17.54 0.85 -89.5 0 0 142.85 42.03
  L 142.84 42.22
  A 0.27 0.27 0.0 0 0 143.11 42.49
  Z"
/>
<path fill="#de2321" d="
  M 238.77 17.75
  L 238.74 29.57
  A 0.67 0.67 0.0 0 0 239.32 30.24
  L 241.68 30.55
  A 0.67 0.67 0.0 0 1 242.26 31.19
  L 242.37 34.52
  A 0.67 0.67 0.0 0 1 241.80 35.20
  L 239.34 35.58
  A 0.67 0.67 0.0 0 0 238.78 36.24
  L 238.68 57.06
  A 0.67 0.67 0.0 0 1 238.01 57.73
  L 233.43 57.73
  A 0.67 0.67 0.0 0 1 232.76 57.06
  L 232.73 12.60
  A 0.67 0.67 0.0 0 1 233.42 11.93
  L 241.78 12.15
  A 0.67 0.67 0.0 0 1 242.43 12.87
  L 242.16 16.22
  A 0.67 0.67 0.0 0 1 241.57 16.83
  L 239.36 17.08
  A 0.67 0.67 0.0 0 0 238.77 17.75
  Z"
/>
<path fill="#de2321" d="
  M 77.93 37.95
  A 0.33 0.33 0.0 0 0 77.28 37.99
  L 77.36 56.99
  A 0.82 0.82 0.0 0 1 76.58 57.82
  L 73.12 57.98
  Q 72.48 58.01 72.46 57.36
  L 71.42 12.94
  A 0.68 0.68 0.0 0 1 72.13 12.24
  L 78.70 12.55
  Q 79.26 12.58 79.31 13.13
  L 80.92 28.31
  A 0.35 0.35 0.0 0 0 81.59 28.39
  Q 81.64 28.22 81.67 27.99
  Q 82.37 20.52 82.76 13.01
  Q 82.79 12.42 83.38 12.41
  L 90.08 12.19
  A 0.58 0.58 0.0 0 1 90.68 12.77
  L 91.33 57.49
  A 0.52 0.52 0.0 0 1 90.83 58.02
  L 87.04 58.24
  Q 86.29 58.28 86.26 57.53
  L 85.47 38.19
  Q 85.45 37.72 85.02 37.87
  C 84.94 37.90 83.42 55.68 83.21 57.53
  Q 83.15 58.11 82.56 58.05
  L 80.52 57.83
  Q 79.93 57.77 79.88 57.18
  Q 79.09 47.55 77.93 37.95
  Z"
/>
<path fill="#de2321" d="
  M 116.72 39.01
  A 1.07 1.07 0.0 0 0 114.70 39.53
  L 114.86 57.49
  Q 114.87 58.04 114.32 58.03
  L 109.45 57.95
  Q 108.86 57.94 108.92 57.35
  C 109.63 50.26 108.79 41.21 108.72 36.34
  Q 108.57 25.17 107.95 13.55
  A 0.93 0.93 0.0 0 1 108.82 12.57
  Q 112.90 12.30 117.29 12.29
  C 122.89 12.29 122.53 16.12 122.71 20.79
  Q 122.94 26.87 122.53 32.93
  Q 122.50 33.39 122.14 33.68
  Q 120.36 35.07 122.16 36.72
  A 1.46 1.46 0.0 0 1 122.62 37.63
  Q 123.70 47.36 123.13 57.15
  Q 123.09 57.87 122.38 57.89
  L 118.20 58.03
  A 0.65 0.64 -1.3 0 1 117.53 57.40
  C 117.46 53.78 118.10 41.59 116.72 39.01
  Z
  M 116.4202 18.0386
  A 0.99 0.99 0.0 0 0 115.4080 17.0713
  L 115.3480 17.0726
  A 0.99 0.99 0.0 0 0 114.3808 18.0848
  L 114.6798 31.2614
  A 0.99 0.99 0.0 0 0 115.6920 32.2287
  L 115.7520 32.2274
  A 0.99 0.99 0.0 0 0 116.7192 31.2152
  L 116.4202 18.0386
  Z"
/>
<path fill="#000000" d="
  M 35.78 18.16
  Q 35.40 18.49 35.28 19.00
  Q 34.74 19.66 35.34 20.43
  Q 35.71 20.92 36.20 20.54
  L 36.55 20.26
  Q 37.00 19.49 37.76 19.51
  Q 39.02 18.78 40.35 18.73
  Q 40.84 18.72 41.25 18.98
  Q 42.79 19.98 43.98 21.38
  A 0.82 0.82 0.0 0 0 44.92 21.60
  Q 48.28 20.18 51.20 22.13
  Q 51.64 22.42 52.07 22.11
  C 58.45 17.57 60.78 22.98 61.81 28.15
  A 0.77 0.76 89.4 0 0 62.43 28.76
  C 66.28 29.44 69.86 31.75 69.62 36.13
  Q 69.21 43.47 61.20 46.19
  Q 49.95 50.02 40.48 43.94
  A 0.68 0.68 0.0 0 0 39.43 44.53
  L 39.81 59.49
  Q 39.83 60.00 40.33 60.00
  L 89.25 60.10
  L 89.97 60.27
  Q 90.93 60.49 90.02 60.88
  L 89.23 61.23
  C 72.70 61.27 56.16 61.40 39.62 60.94
  Q 33.22 60.76 26.83 61.04
  C 20.73 61.31 14.41 59.76 9.16 61.91
  A 0.36 0.36 0.0 0 1 8.71 61.39
  L 9.31 60.39
  Q 9.55 59.97 9.55 59.49
  L 9.32 14.15
  L 10.69 14.92
  Q 9.99 21.64 10.52 28.09
  Q 10.57 28.67 11.15 28.74
  L 13.82 29.04
  Q 14.38 29.10 14.54 28.56
  L 16.11 23.41
  A 0.52 0.52 0.0 0 0 15.49 22.76
  Q 14.34 23.03 13.56 24.01
  A 0.47 0.46 47.6 0 1 12.80 23.97
  Q 12.28 23.18 12.53 22.19
  Q 12.65 21.70 13.13 21.55
  Q 16.41 20.57 19.84 21.20
  A 0.37 0.37 0.0 0 1 19.86 21.92
  L 18.21 22.36
  Q 17.57 22.53 17.38 23.17
  L 15.96 27.96
  A 0.81 0.80 -81.7 0 0 16.73 29.00
  L 27.48 29.00
  A 0.50 0.50 0.0 0 0 27.98 28.48
  C 27.76 24.40 26.62 18.90 32.00 17.79
  Q 32.15 17.83 32.27 17.87
  Q 32.43 17.93 32.42 17.76
  L 32.21 15.75
  C 34.10 14.42 36.25 12.53 38.67 13.74
  A 0.79 0.78 -71.9 0 1 39.09 14.58
  Q 38.66 16.90 36.04 16.44
  A 0.69 0.68 -78.9 0 0 35.26 16.97
  Q 35.10 17.73 35.78 18.16
  Z
  M 33.40 28.89
  A 0.51 0.50 90.0 0 0 33.93 28.35
  L 33.69 25.56
  A 1.18 1.18 0.0 0 1 36.00 25.11
  Q 36.45 26.57 36.20 28.13
  A 0.60 0.59 2.2 0 0 36.84 28.81
  L 39.89 28.57
  Q 40.57 28.51 40.68 27.84
  Q 41.15 24.99 43.00 22.82
  Q 43.42 22.32 42.94 21.87
  L 41.04 20.08
  Q 40.65 19.72 40.13 19.81
  Q 37.50 20.26 37.32 22.83
  A 0.84 0.84 0.0 0 1 35.66 22.94
  Q 35.15 20.42 32.83 19.10
  Q 32.43 18.87 31.99 19.01
  C 28.10 20.21 28.66 24.95 29.53 28.13
  A 0.76 0.76 0.0 0 0 30.21 28.69
  L 33.40 28.89
  Z
  M 48.4078 38.3799
  A 8.06 4.97 90.3 0 0 53.4199 30.3460
  A 8.06 4.97 90.3 0 0 48.4922 22.2601
  A 8.06 4.97 90.3 0 0 43.4801 30.2940
  A 8.06 4.97 90.3 0 0 48.4078 38.3799
  Z
  M 56.12 29.37
  L 59.13 28.70
  A 1.26 1.26 0.0 0 0 60.08 27.20
  L 59.56 24.88
  A 3.10 2.60 77.4 0 0 56.35 22.42
  L 55.96 22.50
  A 3.10 2.60 77.4 0 0 54.10 26.10
  L 54.62 28.42
  A 1.26 1.26 0.0 0 0 56.12 29.37
  Z
  M 47.06 39.69
  C 41.74 39.27 41.44 35.54 40.32 31.37
  Q 40.18 30.86 39.65 30.88
  L 17.72 31.65
  A 0.59 0.59 0.0 0 0 17.19 32.45
  C 20.61 41.36 26.97 39.95 34.61 39.23
  Q 35.12 39.18 35.54 39.46
  Q 46.79 46.69 59.82 44.05
  C 63.83 43.24 70.99 39.44 68.41 34.27
  C 66.34 30.13 59.26 29.92 55.41 30.81
  Q 54.92 30.92 54.80 31.42
  C 53.81 35.54 51.54 40.04 47.06 39.69
  Z
  M 11.01 40.11
  L 16.84 39.38
  A 0.21 0.21 0.0 0 0 17.03 39.15
  L 16.76 37.05
  A 6.19 1.72 82.9 0 0 14.29 31.12
  L 11.45 31.47
  A 6.19 1.72 82.9 0 0 10.51 37.82
  L 10.77 39.93
  A 0.21 0.21 0.0 0 0 11.01 40.11
  Z
  M 32.13 43.78
  C 32.41 49.53 32.52 53.59 34.16 59.22
  Q 34.30 59.69 34.79 59.70
  L 37.96 59.77
  Q 38.45 59.78 38.45 59.29
  L 38.34 43.66
  Q 38.34 43.47 38.24 43.31
  C 35.82 39.40 33.52 41.16 30.17 41.30
  Q 20.66 41.68 10.99 41.08
  A 0.46 0.46 0.0 0 0 10.50 41.54
  L 10.50 59.45
  Q 10.50 59.82 10.88 59.81
  Q 16.44 59.64 21.98 60.01
  C 27.30 60.36 30.54 47.64 30.99 43.75
  A 0.57 0.57 0.0 0 1 32.13 43.78
  Z
  M 31.9088 59.9282
  A 3.04 0.86 81.7 0 0 32.3210 56.7959
  A 3.04 0.86 81.7 0 0 31.0312 53.9118
  A 3.04 0.86 81.7 0 0 30.6190 57.0441
  A 3.04 0.86 81.7 0 0 31.9088 59.9282
  Z
  M 27.64 56.12
  L 25.87 59.75
  A 0.11 0.11 0.0 0 0 25.92 59.89
  L 25.94 59.91
  A 1.99 1.68 -64.0 0 0 28.33 58.85
  L 28.45 58.60
  A 1.99 1.68 -64.0 0 0 27.81 56.08
  L 27.78 56.06
  A 0.11 0.11 0.0 0 0 27.64 56.12
  Z"
/>
<path fill="#f8c79d" d="
  M 32.00 17.79
  C 26.62 18.90 27.76 24.40 27.98 28.48
  A 0.50 0.50 0.0 0 1 27.48 29.00
  L 16.73 29.00
  A 0.81 0.80 -81.7 0 1 15.96 27.96
  L 17.38 23.17
  Q 17.57 22.53 18.21 22.36
  L 19.86 21.92
  A 0.37 0.37 0.0 0 0 19.84 21.20
  Q 16.41 20.57 13.13 21.55
  Q 12.65 21.70 12.53 22.19
  Q 12.28 23.18 12.80 23.97
  A 0.47 0.46 47.6 0 0 13.56 24.01
  Q 14.34 23.03 15.49 22.76
  A 0.52 0.52 0.0 0 1 16.11 23.41
  L 14.54 28.56
  Q 14.38 29.10 13.82 29.04
  L 11.15 28.74
  Q 10.57 28.67 10.52 28.09
  Q 9.99 21.64 10.69 14.92
  Q 16.06 13.25 21.87 14.17
  Q 22.43 14.26 22.52 14.83
  Q 22.65 15.76 22.49 16.84
  A 0.32 0.31 -36.8 0 0 23.12 16.92
  Q 23.43 15.08 24.82 14.30
  A 0.65 0.65 0.0 0 1 25.76 15.05
  Q 25.34 16.49 25.73 17.88
  A 0.59 0.58 56.4 0 0 26.75 18.09
  L 28.50 15.87
  Q 28.76 15.53 29.15 15.72
  L 31.69 16.93
  Q 32.04 17.10 32.02 17.48
  L 32.00 17.79
  Z"
/>
<rect fill="#f1d76d" x="-1.13" y="-17.97" transform="translate(303.69,33.92) rotate(1.2)" width="2.26" height="35.94" rx="1.11"/>
<rect fill="#f1d76d" x="-1.15" y="-17.88" transform="translate(160.27,34.80) rotate(-0.6)" width="2.30" height="35.76" rx="1.13"/>
<rect fill="#f1d76d" x="-1.02" y="-18.03" transform="translate(198.70,34.90) rotate(-0.1)" width="2.04" height="36.06" rx="1.00"/>
<rect fill="#f1d76d" x="-1.10" y="-17.85" transform="translate(99.88,35.04) rotate(-1.1)" width="2.20" height="35.70" rx="1.07"/>
<rect fill="#f1d76d" x="-1.02" y="-7.58" transform="translate(115.55,24.65) rotate(-1.3)" width="2.04" height="15.16" rx="0.99"/>
<path fill="#5a561e" d="
  M 35.78 18.16
  Q 36.74 18.42 37.76 19.51
  Q 37.00 19.49 36.55 20.26
  Q 36.61 19.17 35.28 19.00
  Q 35.40 18.49 35.78 18.16
  Z"
/>
<path fill="#faf6e9" d="
  M 33.40 28.89
  L 30.21 28.69
  A 0.76 0.76 0.0 0 1 29.53 28.13
  C 28.66 24.95 28.10 20.21 31.99 19.01
  Q 32.43 18.87 32.83 19.10
  Q 35.15 20.42 35.66 22.94
  A 0.84 0.84 0.0 0 0 37.32 22.83
  Q 37.50 20.26 40.13 19.81
  Q 40.65 19.72 41.04 20.08
  L 42.94 21.87
  Q 43.42 22.32 43.00 22.82
  Q 41.15 24.99 40.68 27.84
  Q 40.57 28.51 39.89 28.57
  L 36.84 28.81
  A 0.60 0.59 2.2 0 1 36.20 28.13
  Q 36.45 26.57 36.00 25.11
  A 1.18 1.18 0.0 0 0 33.69 25.56
  L 33.93 28.35
  A 0.51 0.50 90.0 0 1 33.40 28.89
  Z
  M 38.9618 27.6420
  A 1.74 1.10 78.0 0 0 39.6760 25.7113
  A 1.74 1.10 78.0 0 0 38.2382 24.2380
  A 1.74 1.10 78.0 0 0 37.5240 26.1687
  A 1.74 1.10 78.0 0 0 38.9618 27.6420
  Z"
/>
<path fill="#f1d76d" d="
  M 35.28 19.00
  Q 36.61 19.17 36.55 20.26
  L 36.20 20.54
  Q 35.71 20.92 35.34 20.43
  Q 34.74 19.66 35.28 19.00
  Z"
/>
<ellipse fill="#faf6e9" cx="0.00" cy="0.00" transform="translate(48.45,30.32) rotate(90.3)" rx="8.06" ry="4.97"/>
<path fill="#faf6e9" d="
  M 56.12 29.37
  A 1.26 1.26 0.0 0 1 54.62 28.42
  L 54.10 26.10
  A 3.10 2.60 77.4 0 1 55.96 22.50
  L 56.35 22.42
  A 3.10 2.60 77.4 0 1 59.56 24.88
  L 60.08 27.20
  A 1.26 1.26 0.0 0 1 59.13 28.70
  L 56.12 29.37
  Z"
/>
<ellipse fill="#000000" cx="0.00" cy="0.00" transform="translate(38.60,25.94) rotate(78.0)" rx="1.74" ry="1.10"/>
<path fill="#f1d76d" d="
  M 143.11 42.49
  A 0.27 0.27 0.0 0 1 142.84 42.22
  L 142.85 42.03
  A 17.54 0.85 -89.5 0 1 143.85 24.50
  L 143.89 24.50
  A 17.54 0.85 -89.5 0 1 144.59 42.05
  L 144.58 42.24
  A 0.27 0.27 0.0 0 1 144.31 42.50
  L 143.11 42.49
  Z"
/>
<path fill="#de2321" d="
  M 220.26 38.25
  L 220.59 30.82
  A 1.03 1.02 -12.0 0 1 221.17 29.93
  Q 223.08 29.02 225.29 29.64
  Q 225.77 29.78 225.71 30.27
  Q 224.36 42.88 222.35 53.31
  Q 221.33 58.61 215.91 57.69
  Q 215.36 57.59 215.37 57.04
  L 215.45 53.96
  A 1.01 0.99 79.4 0 1 216.05 53.07
  L 217.88 52.27
  A 0.84 0.82 -18.6 0 0 218.36 51.32
  L 213.66 30.96
  Q 213.53 30.40 214.06 30.15
  Q 215.99 29.24 217.90 30.10
  Q 218.41 30.33 218.48 30.89
  Q 218.92 34.61 219.54 38.29
  A 0.36 0.36 0.0 0 0 220.26 38.25
  Z"
/>
<path fill="#f8c79d" d="
  M 47.06 39.69
  C 51.54 40.04 53.81 35.54 54.80 31.42
  Q 54.92 30.92 55.41 30.81
  C 59.26 29.92 66.34 30.13 68.41 34.27
  C 70.99 39.44 63.83 43.24 59.82 44.05
  Q 46.79 46.69 35.54 39.46
  Q 35.12 39.18 34.61 39.23
  C 26.97 39.95 20.61 41.36 17.19 32.45
  A 0.59 0.59 0.0 0 1 17.72 31.65
  L 39.65 30.88
  Q 40.18 30.86 40.32 31.37
  C 41.44 35.54 41.74 39.27 47.06 39.69
  Z"
/>
<path fill="#f8c79d" d="
  M 11.01 40.11
  A 0.21 0.21 0.0 0 1 10.77 39.93
  L 10.51 37.82
  A 6.19 1.72 82.9 0 1 11.45 31.47
  L 14.29 31.12
  A 6.19 1.72 82.9 0 1 16.76 37.05
  L 17.03 39.15
  A 0.21 0.21 0.0 0 1 16.84 39.38
  L 11.01 40.11
  Z"
/>
<path fill="#faf6e9" d="
  M 32.13 43.78
  A 0.57 0.57 0.0 0 0 30.99 43.75
  C 30.54 47.64 27.30 60.36 21.98 60.01
  Q 16.44 59.64 10.88 59.81
  Q 10.50 59.82 10.50 59.45
  L 10.50 41.54
  A 0.46 0.46 0.0 0 1 10.99 41.08
  Q 20.66 41.68 30.17 41.30
  C 33.52 41.16 35.82 39.40 38.24 43.31
  Q 38.34 43.47 38.34 43.66
  L 38.45 59.29
  Q 38.45 59.78 37.96 59.77
  L 34.79 59.70
  Q 34.30 59.69 34.16 59.22
  C 32.52 53.59 32.41 49.53 32.13 43.78
  Z"
/>
<path fill="#f1d76d" d="
  M 133.32 47.95
  L 133.31 52.27
  Q 132.58 49.90 133.32 47.95
  Z"
/>
<ellipse fill="#faf6e9" cx="0.00" cy="0.00" transform="translate(31.47,56.92) rotate(81.7)" rx="3.04" ry="0.86"/>
<path fill="#faf6e9" d="
  M 27.64 56.12
  A 0.11 0.11 0.0 0 1 27.78 56.06
  L 27.81 56.08
  A 1.99 1.68 -64.0 0 1 28.45 58.60
  L 28.33 58.85
  A 1.99 1.68 -64.0 0 1 25.94 59.91
  L 25.92 59.89
  A 0.11 0.11 0.0 0 1 25.87 59.75
  L 27.64 56.12
  Z"
/>
<path fill="#5a561e" d="
  M 429.00 60.57
  L 429.00 61.77
  C 427.04 61.92 424.95 61.45 423.32 61.45
  C 313.17 61.59 205.39 61.38 92.75 61.36
  Q 91.01 61.36 89.23 61.23
  L 90.02 60.88
  Q 90.93 60.49 89.97 60.27
  L 89.25 60.10
  Q 126.44 59.89 163.63 59.90
  C 170.38 59.91 185.92 60.38 197.00 60.05
  C 226.32 59.18 255.65 60.55 284.99 60.00
  Q 293.10 59.86 301.21 60.00
  C 343.20 60.73 385.29 60.27 427.28 60.24
  C 427.65 60.24 427.78 60.11 428.10 59.95
  Q 428.52 59.74 428.76 60.15
  L 429.00 60.57
  Z"
/>
<ellipse fill="#f8c79d" cx="0.00" cy="0.00" transform="translate(113.70,65.71) rotate(78.3)" rx="1.26" ry="0.70"/>
<path fill="#000000" d="
  M 250.25 124.24
  Q 250.31 123.14 251.26 122.73
  Q 308.80 122.34 366.44 123.07
  Q 367.20 123.08 366.73 122.48
  Q 363.03 117.78 361.10 112.12
  A 1.04 1.03 0.7 0 0 360.47 111.48
  Q 350.78 107.90 353.56 98.36
  C 354.14 96.36 355.99 94.99 357.40 93.43
  A 0.64 0.64 0.0 0 0 357.43 92.59
  Q 354.66 89.17 354.16 84.79
  A 1.21 1.20 -28.2 0 1 354.44 83.87
  C 360.26 76.94 369.35 77.01 376.28 82.27
  A 0.62 0.61 -48.0 0 0 377.09 82.22
  Q 379.50 79.81 382.53 78.75
  Q 384.62 78.95 386.37 80.29
  Q 386.79 80.61 387.32 80.53
  C 398.54 78.95 396.32 91.45 390.70 91.95
  C 395.29 88.98 396.19 79.94 388.19 81.13
  C 382.02 82.06 379.13 93.75 389.35 92.37
  L 386.73 93.42
  A 0.71 0.71 0.0 0 0 386.29 94.20
  Q 386.38 94.69 386.99 95.25
  Q 384.48 93.92 382.73 91.77
  Q 382.42 91.39 382.39 90.89
  Q 382.32 89.60 381.39 88.76
  A 1.19 1.18 61.1 0 0 380.39 88.47
  Q 378.90 88.73 378.39 87.86
  Q 373.32 79.15 362.96 80.14
  Q 358.39 80.58 355.72 84.23
  Q 355.44 84.60 355.59 85.04
  C 358.56 94.30 367.82 99.11 376.73 94.64
  Q 377.36 94.32 377.25 95.01
  C 376.93 97.12 370.92 98.39 369.12 98.59
  Q 368.58 98.65 368.45 99.18
  L 366.61 106.32
  A 0.42 0.42 0.0 0 0 367.26 106.77
  C 370.84 104.24 377.79 100.31 382.10 101.52
  C 387.67 103.09 389.67 115.89 385.00 114.72
  Q 380.37 113.56 377.71 110.07
  A 0.76 0.76 0.0 0 0 376.35 110.43
  Q 375.89 113.85 377.34 116.96
  A 0.40 0.39 -12.4 0 1 376.98 117.52
  C 375.14 117.50 375.49 109.73 375.66 108.68
  A 0.67 0.66 -62.5 0 1 376.79 108.32
  L 379.85 111.45
  A 0.65 0.64 36.0 0 0 380.89 111.29
  L 384.10 104.82
  Q 384.43 104.16 383.92 103.63
  C 379.56 99.13 369.68 105.71 366.59 108.96
  A 0.72 0.72 0.0 0 1 365.35 108.49
  Q 365.20 103.59 366.55 98.91
  A 0.66 0.66 0.0 0 0 366.10 98.09
  L 363.75 97.41
  Q 363.12 97.22 362.98 97.86
  C 361.28 105.38 362.49 124.02 373.49 123.11
  C 379.75 122.60 385.65 123.23 391.79 122.78
  C 395.82 122.49 397.97 119.32 397.95 115.57
  Q 397.95 115.20 398.28 115.37
  C 413.48 123.25 418.75 100.53 406.25 101.04
  Q 401.86 101.22 398.50 104.46
  A 0.39 0.39 0.0 0 1 397.91 103.95
  Q 401.30 99.39 406.92 99.20
  A 0.89 0.89 0.0 0 0 407.75 98.51
  C 409.33 91.78 409.31 81.55 402.84 77.17
  A 0.95 0.94 3.9 0 0 401.46 78.37
  L 402.36 80.20
  A 0.37 0.37 0.0 0 1 402.00 80.74
  L 401.62 80.71
  A 0.67 0.67 0.0 0 1 401.00 80.08
  Q 400.80 75.75 397.01 75.14
  C 395.42 74.89 393.67 75.53 391.90 75.68
  A 0.43 0.43 0.0 0 0 391.79 76.51
  Q 393.84 77.27 396.01 76.50
  Q 396.49 76.33 396.89 76.64
  Q 399.11 78.33 399.71 81.15
  A 1.08 1.07 74.0 0 1 399.03 82.38
  C 395.65 83.61 398.22 76.62 391.91 77.86
  A 0.58 0.57 -16.9 0 1 391.27 77.52
  L 390.63 76.03
  A 0.43 0.43 0.0 0 0 389.85 76.01
  Q 389.37 76.97 389.20 78.02
  Q 389.11 78.55 388.60 78.74
  C 386.41 79.56 383.24 74.97 382.53 78.75
  C 381.67 75.70 384.89 75.76 386.71 76.21
  A 1.76 1.75 -47.2 0 0 387.68 76.17
  C 389.94 75.41 391.92 74.65 394.47 74.47
  Q 396.13 74.35 397.64 73.73
  A 0.81 0.79 -38.4 0 1 398.39 73.81
  L 400.81 75.53
  A 1.04 1.04 0.0 0 0 402.44 74.83
  C 402.95 71.41 401.11 71.04 398.22 71.25
  C 391.15 71.76 382.43 71.23 377.18 71.26
  Q 343.47 71.45 309.75 71.47
  Q 309.43 71.28 309.30 71.08
  A 0.33 0.33 0.0 0 1 309.59 70.58
  Q 310.54 70.60 311.02 70.21
  Q 315.12 70.45 322.69 70.37
  C 323.09 70.37 398.96 71.09 400.00 70.08
  A 0.57 0.57 0.0 0 0 399.88 69.16
  Q 394.97 66.50 389.86 68.73
  Q 389.35 68.95 389.10 68.46
  C 388.81 67.85 389.09 67.15 389.73 66.88
  Q 396.89 63.91 401.48 69.76
  Q 401.79 70.16 402.31 70.15
  C 407.39 70.02 414.05 69.29 418.92 70.48
  Q 419.48 70.62 419.68 71.15
  Q 420.32 72.90 419.56 74.59
  A 0.72 0.71 32.0 0 0 419.76 75.44
  C 421.93 77.24 423.97 78.50 423.16 81.81
  Q 422.97 82.60 422.66 81.85
  L 421.78 79.77
  A 1.03 1.02 -56.1 0 0 419.81 80.16
  Q 419.59 100.67 420.04 120.50
  C 420.11 123.47 419.26 124.24 416.28 124.23
  Q 333.27 123.89 250.25 124.24
  Z
  M 403.27 72.68
  C 404.01 74.60 402.81 77.13 405.49 78.05
  Q 405.94 78.21 406.32 77.92
  Q 410.86 74.49 416.56 74.62
  C 418.12 74.66 419.41 74.13 418.63 72.28
  A 1.20 1.19 -10.8 0 0 417.54 71.54
  L 404.15 71.41
  Q 402.77 71.40 403.27 72.68
  Z
  M 406.94 79.19
  C 411.27 85.41 411.58 91.81 409.57 99.02
  A 0.70 0.69 24.6 0 0 409.86 99.79
  C 421.09 106.99 412.32 122.43 399.79 117.70
  Q 399.35 117.53 399.09 117.92
  L 396.21 122.23
  Q 395.80 122.84 396.53 122.83
  L 417.49 122.50
  Q 418.72 122.48 418.72 121.26
  L 418.82 77.40
  A 1.64 1.64 0.0 0 0 417.30 75.76
  Q 411.68 75.34 407.06 78.55
  Q 406.68 78.81 406.94 79.19
  Z
  M 377.63 84.44
  Q 378.15 85.74 378.95 87.00
  A 1.81 1.80 -57.8 0 0 382.27 86.24
  Q 382.60 83.44 384.89 81.79
  A 1.19 1.18 24.3 0 0 384.08 79.65
  Q 380.07 80.04 377.76 83.37
  Q 377.41 83.87 377.63 84.44
  Z
  M 355.90 99.89
  L 358.73 101.63
  A 1.34 1.34 0.0 0 0 360.57 101.19
  L 360.63 101.08
  A 4.50 2.08 -58.5 0 0 361.21 96.16
  L 359.64 95.20
  A 4.50 2.08 -58.5 0 0 355.52 97.95
  L 355.46 98.05
  A 1.34 1.34 0.0 0 0 355.90 99.89
  Z
  M 357.26 105.14
  Q 357.18 105.00 356.91 104.81
  A 0.39 0.39 0.0 0 1 356.82 104.26
  Q 358.38 102.11 356.20 101.10
  A 1.04 1.04 0.0 0 0 354.73 102.09
  Q 354.94 106.81 358.63 109.61
  Q 360.47 111.00 360.30 108.70
  C 360.22 107.54 360.84 103.40 358.83 103.11
  Q 358.43 103.05 358.27 103.44
  L 357.60 105.12
  A 0.19 0.19 0.0 0 1 357.26 105.14
  Z"
/>
<path fill="#5d5c4a" d="
  M 311.02 70.21
  Q 310.54 70.60 309.59 70.58
  A 0.33 0.33 0.0 0 0 309.30 71.08
  Q 309.43 71.28 309.75 71.47
  Q 251.84 72.31 193.94 71.77
  C 169.87 71.55 145.77 72.17 121.69 71.99
  Q 60.84 71.54 0.00 71.79
  Q 0.00 71.27 0.00 70.75
  Q 35.37 70.51 70.75 70.70
  C 119.00 70.97 167.17 69.49 215.57 70.36
  C 226.96 70.56 242.59 70.09 256.06 70.20
  Q 283.52 70.44 311.02 70.21
  Z"
/>
<path fill="#fbed40" d="
  M 0.00 71.79
  Q 60.84 71.54 121.69 71.99
  C 145.77 72.17 169.87 71.55 193.94 71.77
  Q 251.84 72.31 309.75 71.47
  Q 343.47 71.45 377.18 71.26
  C 382.43 71.23 391.15 71.76 398.22 71.25
  C 401.11 71.04 402.95 71.41 402.44 74.83
  A 1.04 1.04 0.0 0 1 400.81 75.53
  L 398.39 73.81
  A 0.81 0.79 -38.4 0 0 397.64 73.73
  Q 396.13 74.35 394.47 74.47
  C 391.92 74.65 389.94 75.41 387.68 76.17
  A 1.76 1.75 -47.2 0 1 386.71 76.21
  C 384.89 75.76 381.67 75.70 382.53 78.75
  Q 379.50 79.81 377.09 82.22
  A 0.62 0.61 -48.0 0 1 376.28 82.27
  C 369.35 77.01 360.26 76.94 354.44 83.87
  A 1.21 1.20 -28.2 0 0 354.16 84.79
  Q 354.66 89.17 357.43 92.59
  A 0.64 0.64 0.0 0 1 357.40 93.43
  C 355.99 94.99 354.14 96.36 353.56 98.36
  Q 350.78 107.90 360.47 111.48
  A 1.04 1.03 0.7 0 1 361.10 112.12
  Q 363.03 117.78 366.73 122.48
  Q 367.20 123.08 366.44 123.07
  Q 308.80 122.34 251.26 122.73
  C 223.11 121.41 194.52 122.07 166.31 121.89
  Q 149.38 121.79 138.75 122.27
  Q 70.55 122.23 2.35 122.25
  C 1.54 122.25 0.85 121.98 0.00 121.94
  L 0.00 71.79
  Z
  M 146.26 100.02
  C 153.42 100.34 153.95 93.44 152.41 88.39
  C 151.10 84.08 145.78 84.82 142.12 85.07
  Q 141.50 85.11 141.50 85.73
  L 141.50 108.65
  Q 141.50 109.25 142.10 109.26
  L 145.33 109.33
  Q 145.75 109.34 145.75 108.92
  L 145.75 100.51
  Q 145.75 100.00 146.26 100.02
  Z
  M 159.07 95.00
  A 0.32 0.32 0.0 0 1 158.75 94.68
  L 158.75 89.32
  A 0.32 0.32 0.0 0 1 159.07 89.00
  L 164.75 89.00
  A 0.32 0.32 0.0 0 0 165.07 88.67
  L 164.97 85.31
  A 0.32 0.32 0.0 0 0 164.65 85.00
  L 154.82 85.00
  A 0.32 0.32 0.0 0 0 154.50 85.32
  L 154.50 108.96
  A 0.32 0.32 0.0 0 0 154.82 109.28
  L 164.67 109.31
  A 0.32 0.32 0.0 0 0 164.99 108.99
  L 165.02 106.07
  A 0.32 0.32 0.0 0 0 164.70 105.75
  L 159.07 105.75
  A 0.32 0.32 0.0 0 1 158.75 105.43
  L 158.75 99.32
  A 0.32 0.32 0.0 0 1 159.07 99.00
  L 163.43 99.00
  A 0.32 0.32 0.0 0 0 163.75 98.68
  L 163.75 95.32
  A 0.32 0.32 0.0 0 0 163.43 95.00
  L 159.07 95.00
  Z
  M 177.52 97.05
  Q 179.88 92.67 178.41 88.05
  C 177.17 84.13 171.66 84.84 168.11 85.08
  Q 167.50 85.12 167.50 85.73
  L 167.50 108.65
  Q 167.50 109.25 168.10 109.26
  L 171.33 109.33
  Q 171.75 109.34 171.75 108.92
  L 171.75 99.80
  Q 171.75 99.07 172.44 99.31
  L 174.09 99.89
  Q 174.59 100.07 174.60 100.60
  L 174.81 108.69
  Q 174.82 109.25 175.39 109.26
  L 178.82 109.33
  Q 179.18 109.34 179.17 108.98
  C 179.04 106.16 179.60 99.79 177.62 97.79
  Q 177.30 97.46 177.52 97.05
  Z
  M 185.39 88.99
  L 186.47 89.25
  Q 187.00 89.37 187.00 89.92
  L 187.00 91.83
  Q 187.00 92.40 187.57 92.37
  L 190.65 92.21
  Q 191.15 92.19 191.22 91.69
  C 192.27 84.59 183.59 82.42 180.19 88.30
  Q 179.93 88.74 179.97 89.24
  C 180.08 90.91 179.72 92.43 180.46 93.96
  C 182.24 97.63 187.91 100.63 186.75 104.88
  A 1.17 1.16 -62.4 0 1 184.88 105.47
  Q 183.61 104.41 184.05 102.73
  A 0.58 0.57 -82.3 0 0 183.50 102.00
  L 180.82 102.00
  Q 180.23 102.00 180.11 102.57
  Q 179.25 106.66 182.40 108.95
  Q 182.83 109.26 183.36 109.26
  C 185.83 109.23 189.31 109.93 190.57 107.07
  C 194.83 97.45 182.46 95.29 184.54 89.45
  Q 184.76 88.85 185.39 88.99
  Z
  M 204.9378 90.1598
  A 5.12 5.12 0.0 0 0 199.8088 85.0487
  L 198.3488 85.0513
  A 5.12 5.12 0.0 0 0 193.2378 90.1802
  L 193.2622 104.1802
  A 5.12 5.12 0.0 0 0 198.3912 109.2913
  L 199.8512 109.2887
  A 5.12 5.12 0.0 0 0 204.9622 104.1598
  L 204.9378 90.1598
  Z
  M 214.75 94.91
  A 0.33 0.33 0.0 0 1 214.10 94.99
  L 211.77 85.25
  A 0.33 0.33 0.0 0 0 211.45 85.00
  L 206.83 85.00
  A 0.33 0.33 0.0 0 0 206.50 85.33
  L 206.50 108.96
  A 0.33 0.33 0.0 0 0 206.83 109.29
  L 209.94 109.29
  A 0.33 0.33 0.0 0 0 210.27 108.96
  L 210.25 97.13
  A 0.33 0.33 0.0 0 1 210.89 97.04
  L 214.09 109.07
  A 0.33 0.33 0.0 0 0 214.42 109.31
  L 218.18 109.22
  A 0.33 0.33 0.0 0 0 218.50 108.89
  L 218.50 85.33
  A 0.33 0.33 0.0 0 0 218.17 85.00
  L 215.08 85.00
  A 0.33 0.33 0.0 0 0 214.75 85.33
  L 214.75 94.91
  Z
  M 227.75 105.98
  Q 228.10 106.98 228.05 108.80
  Q 228.03 109.38 228.61 109.35
  L 232.18 109.21
  Q 232.62 109.19 232.55 108.76
  L 228.93 85.44
  Q 228.87 85.00 228.43 85.00
  L 223.88 85.00
  Q 223.23 85.00 223.13 85.64
  L 219.57 108.83
  Q 219.45 109.62 220.23 109.44
  Q 221.44 109.16 222.71 109.23
  A 0.79 0.78 18.3 0 0 223.42 108.88
  Q 224.23 107.66 223.80 105.87
  A 2.26 1.65 37.6 0 1 227.75 105.98
  Z
  M 234.64 105.57
  Q 234.48 105.49 234.30 105.47
  Q 233.75 105.43 233.75 105.98
  L 233.75 108.51
  Q 233.75 109.04 234.26 109.15
  C 240.49 110.59 241.28 106.42 241.26 101.43
  Q 241.24 93.48 241.25 85.51
  Q 241.25 85.00 240.74 85.00
  L 237.53 85.00
  Q 236.92 85.00 236.94 85.60
  Q 237.13 94.32 236.90 102.92
  Q 236.84 105.40 235.17 105.66
  Q 234.89 105.70 234.64 105.57
  Z
  M 248.14 105.79
  A 0.38 0.38 0.0 0 1 247.75 105.41
  L 247.75 99.38
  A 0.38 0.38 0.0 0 1 248.13 99.00
  L 252.37 99.00
  A 0.38 0.38 0.0 0 0 252.75 98.62
  L 252.75 95.38
  A 0.38 0.38 0.0 0 0 252.37 95.00
  L 248.13 95.00
  A 0.38 0.38 0.0 0 1 247.75 94.62
  L 247.75 89.38
  A 0.38 0.38 0.0 0 1 248.13 89.00
  L 253.59 89.00
  A 0.38 0.38 0.0 0 0 253.97 88.63
  L 254.07 85.39
  A 0.38 0.38 0.0 0 0 253.69 85.00
  L 243.88 85.00
  A 0.38 0.38 0.0 0 0 243.50 85.38
  L 243.50 109.05
  A 0.38 0.38 0.0 0 0 243.88 109.43
  L 253.83 109.35
  A 0.38 0.38 0.0 0 0 254.21 108.93
  L 253.90 106.00
  A 0.38 0.38 0.0 0 0 253.51 105.66
  L 248.14 105.79
  Z
  M 262.00 90.28
  L 262.00 91.81
  Q 262.00 92.36 262.55 92.34
  L 265.68 92.27
  Q 266.11 92.26 266.17 91.84
  C 267.58 82.35 252.80 82.55 255.04 92.79
  C 255.98 97.07 264.72 101.80 261.06 105.53
  A 0.70 0.69 -52.2 0 1 260.22 105.64
  Q 258.55 104.68 259.05 102.72
  A 0.57 0.57 0.0 0 0 258.50 102.00
  L 255.52 102.00
  Q 254.84 102.00 254.78 102.68
  Q 254.43 106.53 257.28 108.87
  Q 257.71 109.22 258.26 109.24
  C 261.86 109.33 265.15 109.93 266.07 105.33
  C 267.82 96.57 258.74 95.97 259.24 90.16
  A 1.38 1.38 0.0 0 1 262.00 90.28
  Z
  M 334.80 109.31
  Q 335.59 110.68 337.18 109.65
  A 0.46 0.46 0.0 0 0 337.00 108.81
  Q 336.10 108.68 335.05 108.81
  Q 334.54 108.87 334.80 109.31
  Z"
/>
<path fill="#fbed40" d="
  M 405.49 78.05
  C 402.81 77.13 404.01 74.60 403.27 72.68
  Q 402.77 71.40 404.15 71.41
  L 417.54 71.54
  A 1.20 1.19 -10.8 0 1 418.63 72.28
  C 419.41 74.13 418.12 74.66 416.56 74.62
  Q 410.86 74.49 406.32 77.92
  Q 405.94 78.21 405.49 78.05
  Z"
/>
<path fill="#f8c79d" d="
  M 386.99 95.25
  Q 387.43 96.51 388.52 96.20
  Q 388.98 96.07 388.58 95.81
  Q 387.86 95.32 386.99 95.25
  Q 386.38 94.69 386.29 94.20
  A 0.71 0.71 0.0 0 1 386.73 93.42
  L 389.35 92.37
  L 390.70 91.95
  C 396.32 91.45 398.54 78.95 387.32 80.53
  Q 386.79 80.61 386.37 80.29
  Q 384.62 78.95 382.53 78.75
  C 383.24 74.97 386.41 79.56 388.60 78.74
  Q 389.11 78.55 389.20 78.02
  Q 389.37 76.97 389.85 76.01
  A 0.43 0.43 0.0 0 1 390.63 76.03
  L 391.27 77.52
  A 0.58 0.57 -16.9 0 0 391.91 77.86
  C 398.22 76.62 395.65 83.61 399.03 82.38
  A 1.08 1.07 74.0 0 0 399.71 81.15
  Q 399.11 78.33 396.89 76.64
  Q 396.49 76.33 396.01 76.50
  Q 393.84 77.27 391.79 76.51
  A 0.43 0.43 0.0 0 1 391.90 75.68
  C 393.67 75.53 395.42 74.89 397.01 75.14
  Q 400.80 75.75 401.00 80.08
  A 0.67 0.67 0.0 0 0 401.62 80.71
  L 402.00 80.74
  A 0.37 0.37 0.0 0 0 402.36 80.20
  L 401.46 78.37
  A 0.95 0.94 3.9 0 1 402.84 77.17
  C 409.31 81.55 409.33 91.78 407.75 98.51
  A 0.89 0.89 0.0 0 1 406.92 99.20
  Q 401.30 99.39 397.91 103.95
  A 0.39 0.39 0.0 0 0 398.50 104.46
  Q 401.86 101.22 406.25 101.04
  C 418.75 100.53 413.48 123.25 398.28 115.37
  Q 397.95 115.20 397.95 115.57
  C 397.97 119.32 395.82 122.49 391.79 122.78
  C 385.65 123.23 379.75 122.60 373.49 123.11
  C 362.49 124.02 361.28 105.38 362.98 97.86
  Q 363.12 97.22 363.75 97.41
  L 366.10 98.09
  A 0.66 0.66 0.0 0 1 366.55 98.91
  Q 365.20 103.59 365.35 108.49
  A 0.72 0.72 0.0 0 0 366.59 108.96
  C 369.68 105.71 379.56 99.13 383.92 103.63
  Q 384.43 104.16 384.10 104.82
  L 380.89 111.29
  A 0.65 0.64 36.0 0 1 379.85 111.45
  L 376.79 108.32
  A 0.67 0.66 -62.5 0 0 375.66 108.68
  C 375.49 109.73 375.14 117.50 376.98 117.52
  A 0.40 0.39 -12.4 0 0 377.34 116.96
  Q 375.89 113.85 376.35 110.43
  A 0.76 0.76 0.0 0 1 377.71 110.07
  Q 380.37 113.56 385.00 114.72
  C 389.67 115.89 387.67 103.09 382.10 101.52
  C 377.79 100.31 370.84 104.24 367.26 106.77
  A 0.42 0.42 0.0 0 1 366.61 106.32
  L 368.45 99.18
  Q 368.58 98.65 369.12 98.59
  C 370.92 98.39 376.93 97.12 377.25 95.01
  Q 377.36 94.32 376.73 94.64
  C 367.82 99.11 358.56 94.30 355.59 85.04
  Q 355.44 84.60 355.72 84.23
  Q 358.39 80.58 362.96 80.14
  Q 373.32 79.15 378.39 87.86
  Q 378.90 88.73 380.39 88.47
  A 1.19 1.18 61.1 0 1 381.39 88.76
  Q 382.32 89.60 382.39 90.89
  Q 382.42 91.39 382.73 91.77
  Q 384.48 93.92 386.99 95.25
  Z
  M 372.6402 88.5696
  A 0.27 0.27 0.0 0 0 372.3337 88.3419
  L 365.9232 89.2886
  A 0.27 0.27 0.0 0 0 365.6955 89.5951
  L 365.7598 90.0304
  A 0.27 0.27 0.0 0 0 366.0663 90.2581
  L 372.4768 89.3114
  A 0.27 0.27 0.0 0 0 372.7045 89.0049
  L 372.6402 88.5696
  Z
  M 392.97 109.02
  C 390.49 98.30 378.36 88.17 367.43 92.31
  A 0.24 0.24 0.0 0 0 367.53 92.78
  C 369.81 92.67 372.24 92.06 374.29 92.18
  C 377.05 92.34 379.42 94.13 381.73 95.37
  C 387.23 98.34 390.24 102.74 392.19 108.78
  Q 392.30 109.13 392.69 109.27
  Q 393.06 109.41 392.97 109.02
  Z
  M 403.42 110.47
  L 402.48 112.66
  A 0.43 0.43 0.0 0 0 402.87 113.26
  C 406.73 113.31 403.77 107.70 408.70 109.39
  A 0.38 0.38 0.0 0 0 409.17 108.86
  C 408.37 107.25 397.90 109.58 398.24 110.52
  Q 398.40 110.96 398.83 110.76
  Q 400.80 109.86 402.92 109.76
  Q 403.74 109.72 403.42 110.47
  Z"
/>
<path fill="#fbed40" d="
  M 409.57 99.02
  C 411.58 91.81 411.27 85.41 406.94 79.19
  Q 406.68 78.81 407.06 78.55
  Q 411.68 75.34 417.30 75.76
  A 1.64 1.64 0.0 0 1 418.82 77.40
  L 418.72 121.26
  Q 418.72 122.48 417.49 122.50
  L 396.53 122.83
  Q 395.80 122.84 396.21 122.23
  L 399.09 117.92
  Q 399.35 117.53 399.79 117.70
  C 412.32 122.43 421.09 106.99 409.86 99.79
  A 0.70 0.69 24.6 0 1 409.57 99.02
  Z"
/>
<path fill="#faf6e9" d="
  M 377.76 83.37
  Q 380.07 80.04 384.08 79.65
  A 1.19 1.18 24.3 0 1 384.89 81.79
  Q 382.60 83.44 382.27 86.24
  A 1.81 1.80 -57.8 0 1 378.95 87.00
  Q 378.15 85.74 377.63 84.44
  Q 377.41 83.87 377.76 83.37
  Z
  M 379.8948 84.9323
  A 1.58 1.14 114.1 0 0 381.5806 83.9555
  A 1.58 1.14 114.1 0 0 381.1852 82.0477
  A 1.58 1.14 114.1 0 0 379.4994 83.0245
  A 1.58 1.14 114.1 0 0 379.8948 84.9323
  Z"
/>
<path fill="#faf6e9" d="
  M 390.70 91.95
  L 389.35 92.37
  C 379.13 93.75 382.02 82.06 388.19 81.13
  C 396.19 79.94 395.29 88.98 390.70 91.95
  Z
  M 386.1988 88.2249
  A 2.31 1.55 105.6 0 0 388.3129 86.4168
  A 2.31 1.55 105.6 0 0 387.4412 83.7751
  A 2.31 1.55 105.6 0 0 385.3271 85.5832
  A 2.31 1.55 105.6 0 0 386.1988 88.2249
  Z"
/>
<ellipse fill="#000000" cx="0.00" cy="0.00" transform="translate(380.54,83.49) rotate(114.1)" rx="1.58" ry="1.14"/>
<ellipse fill="#000000" cx="0.00" cy="0.00" transform="translate(386.82,86.00) rotate(105.6)" rx="2.31" ry="1.55"/>
<path fill="#000000" d="
  M 145.75 100.51
  L 145.75 108.92
  Q 145.75 109.34 145.33 109.33
  L 142.10 109.26
  Q 141.50 109.25 141.50 108.65
  L 141.50 85.73
  Q 141.50 85.11 142.12 85.07
  C 145.78 84.82 151.10 84.08 152.41 88.39
  C 153.95 93.44 153.42 100.34 146.26 100.02
  Q 145.75 100.00 145.75 100.51
  Z
  M 148.6184 90.0951
  A 1.06 1.06 0.0 0 0 147.5621 89.0314
  L 146.7821 89.0287
  A 1.06 1.06 0.0 0 0 145.7184 90.0850
  L 145.7016 94.8849
  A 1.06 1.06 0.0 0 0 146.7579 95.9486
  L 147.5379 95.9513
  A 1.06 1.06 0.0 0 0 148.6016 94.8950
  L 148.6184 90.0951
  Z"
/>
<path fill="#000000" d="
  M 159.07 95.00
  L 163.43 95.00
  A 0.32 0.32 0.0 0 1 163.75 95.32
  L 163.75 98.68
  A 0.32 0.32 0.0 0 1 163.43 99.00
  L 159.07 99.00
  A 0.32 0.32 0.0 0 0 158.75 99.32
  L 158.75 105.43
  A 0.32 0.32 0.0 0 0 159.07 105.75
  L 164.70 105.75
  A 0.32 0.32 0.0 0 1 165.02 106.07
  L 164.99 108.99
  A 0.32 0.32 0.0 0 1 164.67 109.31
  L 154.82 109.28
  A 0.32 0.32 0.0 0 1 154.50 108.96
  L 154.50 85.32
  A 0.32 0.32 0.0 0 1 154.82 85.00
  L 164.65 85.00
  A 0.32 0.32 0.0 0 1 164.97 85.31
  L 165.07 88.67
  A 0.32 0.32 0.0 0 1 164.75 89.00
  L 159.07 89.00
  A 0.32 0.32 0.0 0 0 158.75 89.32
  L 158.75 94.68
  A 0.32 0.32 0.0 0 0 159.07 95.00
  Z"
/>
<path fill="#000000" d="
  M 177.62 97.79
  C 179.60 99.79 179.04 106.16 179.17 108.98
  Q 179.18 109.34 178.82 109.33
  L 175.39 109.26
  Q 174.82 109.25 174.81 108.69
  L 174.60 100.60
  Q 174.59 100.07 174.09 99.89
  L 172.44 99.31
  Q 171.75 99.07 171.75 99.80
  L 171.75 108.92
  Q 171.75 109.34 171.33 109.33
  L 168.10 109.26
  Q 167.50 109.25 167.50 108.65
  L 167.50 85.73
  Q 167.50 85.12 168.11 85.08
  C 171.66 84.84 177.17 84.13 178.41 88.05
  Q 179.88 92.67 177.52 97.05
  Q 177.30 97.46 177.62 97.79
  Z
  M 174.5705 89.9824
  A 0.91 0.91 0.0 0 0 173.6685 89.0645
  L 172.6686 89.0558
  A 0.91 0.91 0.0 0 0 171.7506 89.9578
  L 171.7095 94.6776
  A 0.91 0.91 0.0 0 0 172.6115 95.5955
  L 173.6114 95.6042
  A 0.91 0.91 0.0 0 0 174.5294 94.7022
  L 174.5705 89.9824
  Z"
/>
<path fill="#000000" d="
  M 184.54 89.45
  C 182.46 95.29 194.83 97.45 190.57 107.07
  C 189.31 109.93 185.83 109.23 183.36 109.26
  Q 182.83 109.26 182.40 108.95
  Q 179.25 106.66 180.11 102.57
  Q 180.23 102.00 180.82 102.00
  L 183.50 102.00
  A 0.58 0.57 -82.3 0 1 184.05 102.73
  Q 183.61 104.41 184.88 105.47
  A 1.17 1.16 -62.4 0 0 186.75 104.88
  C 187.91 100.63 182.24 97.63 180.46 93.96
  C 179.72 92.43 180.08 90.91 179.97 89.24
  Q 179.93 88.74 180.19 88.30
  C 183.59 82.42 192.27 84.59 191.22 91.69
  Q 191.15 92.19 190.65 92.21
  L 187.57 92.37
  Q 187.00 92.40 187.00 91.83
  L 187.00 89.92
  Q 187.00 89.37 186.47 89.25
  L 185.39 88.99
  Q 184.76 88.85 184.54 89.45
  Z"
/>
<path fill="#000000" d="
  M 204.9622 104.1598
  A 5.12 5.12 0.0 0 1 199.8512 109.2887
  L 198.3912 109.2913
  A 5.12 5.12 0.0 0 1 193.2622 104.1802
  L 193.2378 90.1802
  A 5.12 5.12 0.0 0 1 198.3488 85.0513
  L 199.8088 85.0487
  A 5.12 5.12 0.0 0 1 204.9378 90.1598
  L 204.9622 104.1598
  Z
  M 200.6982 90.5572
  A 1.56 1.56 0.0 0 0 199.1354 88.9999
  L 199.0554 89.0001
  A 1.56 1.56 0.0 0 0 197.4982 90.5628
  L 197.5218 104.1228
  A 1.56 1.56 0.0 0 0 199.0846 105.6801
  L 199.1646 105.6799
  A 1.56 1.56 0.0 0 0 200.7218 104.1172
  L 200.6982 90.5572
  Z"
/>
<path fill="#000000" d="
  M 214.75 94.91
  L 214.75 85.33
  A 0.33 0.33 0.0 0 1 215.08 85.00
  L 218.17 85.00
  A 0.33 0.33 0.0 0 1 218.50 85.33
  L 218.50 108.89
  A 0.33 0.33 0.0 0 1 218.18 109.22
  L 214.42 109.31
  A 0.33 0.33 0.0 0 1 214.09 109.07
  L 210.89 97.04
  A 0.33 0.33 0.0 0 0 210.25 97.13
  L 210.27 108.96
  A 0.33 0.33 0.0 0 1 209.94 109.29
  L 206.83 109.29
  A 0.33 0.33 0.0 0 1 206.50 108.96
  L 206.50 85.33
  A 0.33 0.33 0.0 0 1 206.83 85.00
  L 211.45 85.00
  A 0.33 0.33 0.0 0 1 211.77 85.25
  L 214.10 94.99
  A 0.33 0.33 0.0 0 0 214.75 94.91
  Z"
/>
<path fill="#000000" d="
  M 227.75 105.98
  A 2.26 1.65 37.6 0 0 223.80 105.87
  Q 224.23 107.66 223.42 108.88
  A 0.79 0.78 18.3 0 1 222.71 109.23
  Q 221.44 109.16 220.23 109.44
  Q 219.45 109.62 219.57 108.83
  L 223.13 85.64
  Q 223.23 85.00 223.88 85.00
  L 228.43 85.00
  Q 228.87 85.00 228.93 85.44
  L 232.55 108.76
  Q 232.62 109.19 232.18 109.21
  L 228.61 109.35
  Q 228.03 109.38 228.05 108.80
  Q 228.10 106.98 227.75 105.98
  Z
  M 225.20 101.02
  L 226.62 101.00
  A 0.32 0.32 0.0 0 0 226.94 100.68
  L 226.94 100.50
  A 7.00 0.98 89.5 0 0 225.90 93.51
  L 225.80 93.51
  A 7.00 0.98 89.5 0 0 224.88 100.52
  L 224.88 100.70
  A 0.32 0.32 0.0 0 0 225.20 101.02
  Z"
/>
<path fill="#000000" d="
  M 235.17 105.66
  Q 236.84 105.40 236.90 102.92
  Q 237.13 94.32 236.94 85.60
  Q 236.92 85.00 237.53 85.00
  L 240.74 85.00
  Q 241.25 85.00 241.25 85.51
  Q 241.24 93.48 241.26 101.43
  C 241.28 106.42 240.49 110.59 234.26 109.15
  Q 233.75 109.04 233.75 108.51
  L 233.75 105.98
  Q 233.75 105.43 234.30 105.47
  Q 234.48 105.49 234.64 105.57
  Q 234.89 105.70 235.17 105.66
  Z"
/>
<path fill="#000000" d="
  M 248.14 105.79
  L 253.51 105.66
  A 0.38 0.38 0.0 0 1 253.90 106.00
  L 254.21 108.93
  A 0.38 0.38 0.0 0 1 253.83 109.35
  L 243.88 109.43
  A 0.38 0.38 0.0 0 1 243.50 109.05
  L 243.50 85.38
  A 0.38 0.38 0.0 0 1 243.88 85.00
  L 253.69 85.00
  A 0.38 0.38 0.0 0 1 254.07 85.39
  L 253.97 88.63
  A 0.38 0.38 0.0 0 1 253.59 89.00
  L 248.13 89.00
  A 0.38 0.38 0.0 0 0 247.75 89.38
  L 247.75 94.62
  A 0.38 0.38 0.0 0 0 248.13 95.00
  L 252.37 95.00
  A 0.38 0.38 0.0 0 1 252.75 95.38
  L 252.75 98.62
  A 0.38 0.38 0.0 0 1 252.37 99.00
  L 248.13 99.00
  A 0.38 0.38 0.0 0 0 247.75 99.38
  L 247.75 105.41
  A 0.38 0.38 0.0 0 0 248.14 105.79
  Z"
/>
<path fill="#000000" d="
  M 262.00 90.28
  A 1.38 1.38 0.0 0 0 259.24 90.16
  C 258.74 95.97 267.82 96.57 266.07 105.33
  C 265.15 109.93 261.86 109.33 258.26 109.24
  Q 257.71 109.22 257.28 108.87
  Q 254.43 106.53 254.78 102.68
  Q 254.84 102.00 255.52 102.00
  L 258.50 102.00
  A 0.57 0.57 0.0 0 1 259.05 102.72
  Q 258.55 104.68 260.22 105.64
  A 0.70 0.69 -52.2 0 0 261.06 105.53
  C 264.72 101.80 255.98 97.07 255.04 92.79
  C 252.80 82.55 267.58 82.35 266.17 91.84
  Q 266.11 92.26 265.68 92.27
  L 262.55 92.34
  Q 262.00 92.36 262.00 91.81
  L 262.00 90.28
  Z"
/>
<rect fill="#000000" x="-3.51" y="-0.49" transform="translate(369.20,89.30) rotate(-8.4)" width="7.02" height="0.98" rx="0.27"/>
<rect fill="#fbed40" x="-1.45" y="-3.46" transform="translate(147.16,92.49) rotate(0.2)" width="2.90" height="6.92" rx="1.06"/>
<rect fill="#fbed40" x="-1.41" y="-3.27" transform="translate(173.14,92.33) rotate(0.5)" width="2.82" height="6.54" rx="0.91"/>
<rect fill="#fbed40" x="-1.60" y="-8.34" transform="translate(199.11,97.34) rotate(-0.1)" width="3.20" height="16.68" rx="1.56"/>
<path fill="#000000" d="
  M 367.43 92.31
  C 378.36 88.17 390.49 98.30 392.97 109.02
  Q 393.06 109.41 392.69 109.27
  Q 392.30 109.13 392.19 108.78
  C 390.24 102.74 387.23 98.34 381.73 95.37
  C 379.42 94.13 377.05 92.34 374.29 92.18
  C 372.24 92.06 369.81 92.67 367.53 92.78
  A 0.24 0.24 0.0 0 1 367.43 92.31
  Z"
/>
<path fill="#fbed40" d="
  M 225.20 101.02
  A 0.32 0.32 0.0 0 1 224.88 100.70
  L 224.88 100.52
  A 7.00 0.98 89.5 0 1 225.80 93.51
  L 225.90 93.51
  A 7.00 0.98 89.5 0 1 226.94 100.50
  L 226.94 100.68
  A 0.32 0.32 0.0 0 1 226.62 101.00
  L 225.20 101.02
  Z"
/>
<path fill="#f8c79d" d="
  M 355.90 99.89
  A 1.34 1.34 0.0 0 1 355.46 98.05
  L 355.52 97.95
  A 4.50 2.08 -58.5 0 1 359.64 95.20
  L 361.21 96.16
  A 4.50 2.08 -58.5 0 1 360.63 101.08
  L 360.57 101.19
  A 1.34 1.34 0.0 0 1 358.73 101.63
  L 355.90 99.89
  Z"
/>
<path fill="#000000" d="
  M 386.99 95.25
  Q 387.86 95.32 388.58 95.81
  Q 388.98 96.07 388.52 96.20
  Q 387.43 96.51 386.99 95.25
  Z"
/>
<path fill="#f8c79d" d="
  M 357.60 105.12
  L 358.27 103.44
  Q 358.43 103.05 358.83 103.11
  C 360.84 103.40 360.22 107.54 360.30 108.70
  Q 360.47 111.00 358.63 109.61
  Q 354.94 106.81 354.73 102.09
  A 1.04 1.04 0.0 0 1 356.20 101.10
  Q 358.38 102.11 356.82 104.26
  A 0.39 0.39 0.0 0 0 356.91 104.81
  Q 357.18 105.00 357.26 105.14
  A 0.19 0.19 0.0 0 0 357.60 105.12
  Z"
/>
<path fill="#000000" d="
  M 402.92 109.76
  Q 400.80 109.86 398.83 110.76
  Q 398.40 110.96 398.24 110.52
  C 397.90 109.58 408.37 107.25 409.17 108.86
  A 0.38 0.38 0.0 0 1 408.70 109.39
  C 403.77 107.70 406.73 113.31 402.87 113.26
  A 0.43 0.43 0.0 0 1 402.48 112.66
  L 403.42 110.47
  Q 403.74 109.72 402.92 109.76
  Z"
/>
<path fill="#f1d76d" d="
  M 335.05 108.81
  Q 336.10 108.68 337.00 108.81
  A 0.46 0.46 0.0 0 1 337.18 109.65
  Q 335.59 110.68 334.80 109.31
  Q 334.54 108.87 335.05 108.81
  Z"
/>
<path fill="#5a561e" d="
  M 251.26 122.73
  Q 250.31 123.14 250.25 124.24
  Q 233.59 124.69 216.94 124.34
  C 190.78 123.80 164.61 124.02 138.45 123.84
  Q 139.34 122.82 138.75 122.27
  Q 149.38 121.79 166.31 121.89
  C 194.52 122.07 223.11 121.41 251.26 122.73
  Z"
/>
<path fill="#000000" d="
  M 0.00 121.94
  C 0.85 121.98 1.54 122.25 2.35 122.25
  Q 70.55 122.23 138.75 122.27
  Q 139.34 122.82 138.45 123.84
  L 0.00 123.57
  L 0.00 121.94
  Z"
/>
<path fill="#5d5c4a" d="
  M 263.32 130.42
  Q 263.95 129.20 265.01 130.10
  A 0.57 0.57 0.0 0 1 264.81 131.07
  L 264.06 131.30
  A 0.62 0.62 0.0 0 1 263.32 130.42
  Z"
/>
</svg>
